<svg width="150" height="150" viewBox="0 0 150 150" fill="none" xmlns="http://www.w3.org/2000/svg">
<g id="Group 110">
<path id="Path 88" d="M0 80.8839V69.1691C0.12137 68.9256 0.216288 68.6696 0.283131 68.4058C0.676483 65.7556 0.947481 63.0831 1.44802 60.4531C9.73975 16.9389 55.2715 -10.0177 97.5977 3.51167C114.619 8.8566 129.17 20.1052 138.626 35.2287C148.082 50.3522 151.821 68.3554 149.168 85.9916C146.547 104.287 137.953 119.448 124.114 131.662C123.696 131.981 123.255 132.269 122.794 132.522C121.474 131.531 120.096 130.62 118.668 129.793C110.973 125.878 103.236 122.043 95.5117 118.185C93.8475 117.444 92.4412 116.226 91.4715 114.684C90.5017 113.143 90.0123 111.348 90.0654 109.528C90.029 106.843 90.0229 104.157 90.0826 101.475C90.0977 100.857 90.2997 100.258 90.662 99.7564C94.4605 94.9072 97.4235 89.4589 99.429 83.6354C99.664 83.0292 100.103 82.5237 100.671 82.2061C102.04 81.5881 103.195 80.5789 103.991 79.3058C104.787 78.0327 105.188 76.5526 105.144 75.0519C105.183 71.9276 105.153 68.8041 105.152 65.6797C105.178 63.7072 104.479 61.7941 103.189 60.3016C102.854 59.9061 102.656 59.4132 102.624 58.8964C102.596 54.1619 102.483 49.4213 102.672 44.6939C103.003 36.3812 98.9932 29.1148 91.3466 25.8581C86.296 23.649 80.8496 22.487 75.3368 22.4424C69.824 22.3977 64.3595 23.4713 59.2738 25.5982C51.3299 28.7862 47.4702 35.2008 47.3549 43.75C47.2882 48.629 47.4277 53.51 47.3953 58.3901C47.3681 59.1375 47.1173 59.8597 46.6754 60.4632C45.5413 61.8865 44.9105 63.6451 44.8815 65.4646C44.8643 68.6859 44.8573 71.9073 44.8815 75.1287C44.8691 76.2804 45.113 77.4204 45.5955 78.4663C46.078 79.5122 46.7871 80.4377 47.6714 81.1761C48.1044 81.5489 48.4227 82.0369 48.5895 82.5832C50.2446 88.7721 53.0548 94.5925 56.8722 99.7381C57.2144 100.25 57.4031 100.85 57.4162 101.466C57.4769 103.856 57.3879 106.25 57.4536 108.642C57.5739 113 55.6679 116.055 51.8324 118.103C44.8182 121.848 37.8379 125.655 30.8918 129.525C29.5298 130.368 28.2134 131.283 26.9481 132.265C26.6426 132.126 26.3517 131.956 26.0795 131.76C12.5159 120.16 3.57124 104.077 0.874674 86.4393C0.57233 84.5865 0.290211 82.7347 0 80.8839Z" fill="#556080"/>
<path id="Path 89" d="M26.9443 132.259C28.2096 131.276 29.526 130.362 30.888 129.519C37.8429 125.665 44.8231 121.857 51.8286 118.097C55.6641 116.049 57.5702 112.993 57.4498 108.636C57.3841 106.245 57.4731 103.852 57.4124 101.459C57.3993 100.843 57.2106 100.244 56.8684 99.7318C53.051 94.5861 50.2408 88.7655 48.5858 82.5766C48.4189 82.0303 48.1006 81.5426 47.6676 81.1698C46.7833 80.4314 46.0742 79.5056 45.5917 78.4597C45.1092 77.4138 44.8654 76.2738 44.8777 75.1221C44.8535 71.9007 44.8605 68.6793 44.8777 65.458C44.9067 63.6386 45.5375 61.8799 46.6716 60.4566C47.1136 59.8531 47.3643 59.1312 47.3915 58.3837C47.4239 53.5037 47.2844 48.6225 47.3511 43.7434C47.4664 35.1942 51.3261 28.7838 59.27 25.5918C64.3557 23.4648 69.8203 22.3913 75.333 22.4359C80.8458 22.4806 86.2922 23.6426 91.3428 25.8516C98.9914 29.1084 103.001 36.3749 102.668 44.6876C102.479 49.415 102.592 54.1556 102.621 58.8901C102.653 59.4069 102.85 59.8995 103.185 60.295C104.475 61.7875 105.174 63.7009 105.149 65.6734C105.149 68.7977 105.179 71.921 105.14 75.0453C105.184 76.546 104.783 78.0261 103.987 79.2992C103.191 80.5723 102.036 81.5817 100.667 82.1998C100.099 82.5174 99.6603 83.0226 99.4252 83.6288C97.4197 89.4523 94.4567 94.9006 90.6582 99.7498C90.2959 100.251 90.0939 100.85 90.0788 101.468C90.0191 104.151 90.0252 106.836 90.0616 109.521C90.0085 111.341 90.498 113.136 91.4677 114.678C92.4374 116.219 93.8437 117.438 95.5079 118.179C103.232 122.037 110.969 125.871 118.664 129.786C120.092 130.614 121.47 131.525 122.791 132.515C122.495 132.892 122.169 133.244 121.818 133.57C111.081 142.206 98.1537 147.689 84.4799 149.407C83.9395 149.542 83.4172 149.742 82.9236 150H67.1057C66.2617 149.711 65.4005 149.475 64.5271 149.292C53.7038 147.746 43.351 143.847 34.1976 137.871C31.6494 136.2 29.355 134.14 26.9443 132.259Z" fill="#E6EBEC"/>
</g>
</svg>
