<svg width="14" height="14" viewBox="0 0 14 14" fill="none" xmlns="http://www.w3.org/2000/svg">
<path fill-rule="evenodd" clip-rule="evenodd" d="M4.10876 0.0859101C2.96924 0.137325 1.98157 0.415922 1.18405 1.21008C0.383736 2.0084 0.108599 2.99998 0.0570559 4.12764C0.0250155 4.83148 -0.16234 10.1488 0.380951 11.5432C0.747324 12.484 1.46891 13.2073 2.41827 13.5749C2.86127 13.7472 3.36696 13.8638 4.10876 13.8979C10.3113 14.1786 12.6106 14.0258 13.5801 11.5432C13.7522 11.1013 13.8706 10.5961 13.9033 9.85614C14.1868 3.63768 13.8574 2.28979 12.7763 1.21008C11.9189 0.354777 10.9103 -0.227444 4.10876 0.0859101ZM4.16586 12.6472C3.48675 12.6167 3.11829 12.5035 2.87242 12.4083C2.2539 12.1679 1.78932 11.7053 1.55041 11.0904C1.13667 10.0308 1.27389 4.99835 1.31081 4.18404C1.34703 3.38641 1.50862 2.65743 2.07141 2.09464C2.76794 1.39984 3.66784 1.05932 9.79519 1.33586C10.5948 1.37198 11.3255 1.53325 11.8897 2.09464C12.5862 2.78944 12.9317 3.69627 12.6503 9.80009C12.6196 10.4775 12.5061 10.8451 12.4107 11.0904C11.7803 12.7058 10.3301 12.93 4.16586 12.6472ZM9.86276 3.28273C9.86276 3.74269 10.2368 4.11671 10.6986 4.11671C11.1604 4.11671 11.5351 3.74269 11.5351 3.28273C11.5351 2.82277 11.1604 2.44909 10.6986 2.44909C10.2368 2.44909 9.86276 2.82277 9.86276 3.28273ZM3.40387 6.99155C3.40387 8.962 5.00519 10.5596 6.98054 10.5596C8.95589 10.5596 10.5572 8.962 10.5572 6.99155C10.5572 5.0211 8.95589 3.42457 6.98054 3.42457C5.00519 3.42457 3.40387 5.0211 3.40387 6.99155ZM4.65901 6.99155C4.65901 5.71312 5.69823 4.67588 6.98054 4.67588C8.26284 4.67588 9.30206 5.71312 9.30206 6.99155C9.30206 8.27068 8.26284 9.30824 6.98054 9.30824C5.69823 9.30824 4.65901 8.27068 4.65901 6.99155Z" fill="#515B6F"/>
</svg>
