<svg width="20" height="20" viewBox="0 0 20 20" fill="none" xmlns="http://www.w3.org/2000/svg">
<g id="Group 1171275288">
<circle id="Vertical container" cx="10" cy="10" r="9.5" fill="white" stroke="#E6E7EE"/>
<g id="Vector">
<path d="M10.1054 7.02335C10.0723 7.00797 10.0363 7 9.99988 7C9.96343 7 9.92742 7.00797 9.89438 7.02335L6.14427 8.77339C6.10011 8.794 6.06293 8.82707 6.03732 8.86853C6.0117 8.90999 5.99876 8.95803 6.00009 9.00674C6.00142 9.05546 6.01696 9.10272 6.04479 9.14273C6.07263 9.18273 6.11155 9.21372 6.15677 9.2319L9.90688 10.7319C9.96657 10.7559 10.0332 10.7559 10.0929 10.7319L13 9.56991V12.5C12.8674 12.5 12.7402 12.5526 12.6464 12.6464C12.5526 12.7402 12.5 12.8674 12.5 13V14H14V13C14 12.8674 13.9473 12.7402 13.8535 12.6464C13.7598 12.5526 13.6326 12.5 13.5 12.5V9.3694L13.843 9.2319C13.8882 9.21372 13.9271 9.18273 13.955 9.14273C13.9828 9.10272 13.9983 9.05546 13.9997 9.00674C14.001 8.95803 13.9881 8.90999 13.9624 8.86853C13.9368 8.82707 13.8997 8.794 13.8555 8.77339L10.1054 7.02335ZM9.99988 10.2299L6.87879 8.98239L9.99988 7.52586L13.121 8.98239L9.99988 10.2299Z" fill="black"/>
<path d="M8.08781 10.5159C8.05562 10.5038 8.02127 10.4984 7.98691 10.5002C7.95256 10.5019 7.91893 10.5107 7.88814 10.5261C7.85736 10.5414 7.83007 10.563 7.80798 10.5893C7.7859 10.6157 7.7695 10.6464 7.7598 10.6794L7.50979 11.5294C7.49228 11.5891 7.49764 11.6531 7.52482 11.7091C7.55201 11.765 7.59906 11.8088 7.6568 11.8319L9.90687 12.7319C9.96656 12.7558 10.0332 12.7558 10.0929 12.7319L12.3429 11.8319C12.4007 11.8088 12.4477 11.765 12.4749 11.7091C12.5021 11.6531 12.5075 11.5891 12.4899 11.5294L12.2399 10.6794C12.2302 10.6464 12.2138 10.6157 12.1918 10.5893C12.1697 10.563 12.1424 10.5414 12.1116 10.5261C12.0808 10.5107 12.0472 10.5019 12.0128 10.5002C11.9785 10.4984 11.9441 10.5038 11.9119 10.5159L9.99987 11.2329L8.08781 10.5159ZM8.05381 11.4524L8.16381 11.0784L9.91187 11.7339C9.9686 11.7552 10.0311 11.7552 10.0879 11.7339L11.8359 11.0784L11.9459 11.4524L9.99987 12.2299L8.05381 11.4524Z" fill="black"/>
</g>
</g>
</svg>
