<svg width="18" height="22" viewBox="0 0 18 22" fill="none" xmlns="http://www.w3.org/2000/svg">
<g id="Layer_1" clip-path="url(#clip0_1304_562)">
<path id="Vector" d="M18 4.76422V4.95509C17.8525 5.47098 17.4902 5.67991 16.952 5.63091V5.96881C16.952 10.181 16.9546 14.3932 16.952 18.6055C16.952 20.5607 15.5106 21.9948 13.5466 21.9974C10.5164 22.0026 7.48361 22.0026 4.45342 21.9923C4.11185 21.9923 3.76251 21.951 3.43387 21.8555C1.97959 21.4403 1.04802 20.1609 1.04802 18.6055C1.04543 14.3855 1.04802 10.1656 1.04802 5.94302C1.04802 5.84242 1.04802 5.74182 1.04802 5.62059C0.49425 5.67734 0.150086 5.45808 0 4.95251V4.76164C0.225129 4.19674 0.385566 4.09098 1.01179 4.09098C1.79068 4.09098 2.56699 4.09098 3.34589 4.09098C3.43128 4.09098 3.51409 4.09098 3.60983 4.09098C3.60983 3.68085 3.60983 3.30426 3.60983 2.93024C3.61242 1.20975 4.8157 0.0077383 6.54428 0.00257943C8.1797 0 9.81512 -0.00257943 11.4531 0.00515887C11.7223 0.00515887 12.0017 0.0257943 12.2631 0.0902802C13.5 0.394653 14.3617 1.48833 14.3876 2.75999C14.3953 3.19592 14.3876 3.63442 14.3876 4.09098C14.4937 4.09098 14.5739 4.09098 14.6515 4.09098C15.4304 4.09098 16.2067 4.09098 16.9856 4.09098C17.6093 4.09098 17.7749 4.2019 18 4.76164V4.76422ZM2.58769 5.64122C2.58769 5.7315 2.58769 5.81147 2.58769 5.88885C2.58769 10.1088 2.58769 14.3313 2.58769 18.5513C2.58769 19.7275 3.32777 20.4627 4.51035 20.4627C7.50173 20.4627 10.4931 20.4627 13.4845 20.4627C13.6527 20.4627 13.8235 20.4627 13.9865 20.4265C14.8741 20.2357 15.4123 19.5289 15.4123 18.5565C15.4123 14.3365 15.4123 10.114 15.4123 5.89401C15.4123 5.81147 15.4123 5.72634 15.4123 5.6438H2.58769V5.64122ZM12.8505 4.08324C12.8505 3.64216 12.8557 3.22687 12.8505 2.81158C12.8401 2.0945 12.3071 1.54508 11.5851 1.5425C9.8617 1.53218 8.1383 1.53476 6.41231 1.5425C5.7835 1.54508 5.26078 1.96037 5.18574 2.57943C5.12363 3.07211 5.1728 3.57768 5.1728 4.08324H12.8505Z" fill="#515B6F"/>
<path id="Vector_2" d="M12.333 13.0468C12.333 14.2282 12.3355 15.4096 12.333 16.5935C12.333 17.0398 12.0405 17.3622 11.6343 17.3906C11.184 17.4215 10.8036 17.1146 10.801 16.6554C10.7907 14.2514 10.7907 11.8474 10.801 9.44334C10.801 9.00225 11.1633 8.69272 11.5851 8.70046C12.0017 8.7082 12.3304 9.03837 12.3304 9.47945C12.3355 10.6686 12.3304 11.8603 12.3304 13.0494L12.333 13.0468Z" fill="#515B6F"/>
<path id="Vector_3" d="M5.66702 13.0391C5.66702 11.8499 5.66702 10.6582 5.66702 9.46913C5.66702 9.12864 5.83263 8.88875 6.14057 8.7572C6.44333 8.63081 6.74609 8.67724 6.95311 8.92229C7.08249 9.07447 7.19117 9.30146 7.19117 9.4975C7.2067 11.8603 7.20411 14.2256 7.19894 16.5884C7.19894 17.063 6.86771 17.3932 6.42522 17.3906C5.98272 17.3906 5.66443 17.0604 5.66185 16.5832C5.65667 15.4018 5.66185 14.2204 5.66185 13.0365L5.66702 13.0391Z" fill="#515B6F"/>
</g>
<defs>
<clipPath id="clip0_1304_562">
<rect width="18" height="22" fill="white"/>
</clipPath>
</defs>
</svg>
