<svg width="18" height="18" viewBox="0 0 18 18" fill="none" xmlns="http://www.w3.org/2000/svg">
<path id="Vector" d="M16.9 18C14.85 18 12.85 17.5 10.85 16.5C8.85 15.5 7.05 14.2 5.45 12.6C3.8 11 2.5 9.2 1.5 7.2C0.5 5.2 0 3.15 0 1.1C0 0.8 0.0999999 0.5 0.35 0.3C0.6 0.0999999 0.8 0 1.1 0H4.6C4.85 0 5.05 0.1 5.2 0.25C5.35 0.4 5.5 0.6 5.55 0.9L6.25 4.05C6.3 4.3 6.3 4.5 6.25 4.7C6.2 4.9 6.1 5.05 6 5.2L3.5 7.7C4.45 9.25 5.5 10.6 6.65 11.75C7.8 12.9 9.1 13.9 10.6 14.7L13 12.25C13.15 12.05 13.35 11.95 13.55 11.85C13.75 11.75 14 11.75 14.2 11.8L17.2 12.45C17.45 12.5 17.65 12.6 17.8 12.85C17.9 13 18 13.25 18 13.5V16.9C18 17.2 17.9 17.5 17.65 17.7C17.45 17.9 17.2 18 16.9 18ZM2.75 6.3L4.8 4.25L4.2 1.5H1.5C1.5 2.15 1.6 2.85 1.8 3.65C2 4.45 2.3 5.3 2.75 6.3ZM11.95 15.4C12.65 15.7 13.4 15.95 14.15 16.15C14.95 16.35 15.75 16.45 16.5 16.5V13.85L13.9 13.35L11.95 15.4Z" fill="white"/>
</svg>
