<svg width="154" height="153" viewBox="0 0 154 153" fill="none" xmlns="http://www.w3.org/2000/svg">
<path fill-rule="evenodd" clip-rule="evenodd" d="M62.4367 1.39659C32.2207 7.87559 9.82775 28.7506 1.82175 57.9016C-0.60725 66.7476 -0.60725 85.9396 1.82175 94.7856C9.32075 122.091 29.5457 142.281 57.1377 150.007C63.1747 151.697 67.6478 152.191 76.9368 152.191C86.2258 152.191 90.6988 151.697 96.7358 150.007C124.328 142.281 144.553 122.091 152.052 94.7856C154.182 87.0286 154.488 66.6816 152.577 59.8436C146.703 38.8216 136.557 24.4266 119.447 12.8386C103.467 2.01559 80.7807 -2.53741 62.4367 1.39659ZM68.4368 40.1226C69.8118 40.8096 71.7238 42.9406 72.6848 44.8576C74.2308 47.9386 74.4338 51.7446 74.4348 77.5936C74.4358 93.6816 74.1957 106.844 73.9017 106.844C73.6068 106.844 72.1658 106.057 70.6988 105.094C68.4078 103.591 64.9577 103.299 46.2337 103.024L24.4368 102.704V70.7736V38.8436L45.1867 38.8586C59.7517 38.8686 66.6818 39.2456 68.4368 40.1226ZM129.437 70.7736V102.704L107.64 103.024C88.9158 103.299 85.4658 103.591 83.1748 105.094C81.7077 106.057 80.2668 106.844 79.9718 106.844C79.6778 106.844 79.4378 93.6816 79.4388 77.5936C79.4398 51.7446 79.6428 47.9386 81.1888 44.8576C84.0088 39.2336 85.6558 38.8746 108.687 38.8586L129.437 38.8436V70.7736ZM88.4368 56.8436V66.8436H104.937H121.437V56.8436V46.8436H104.937H88.4368V56.8436ZM115.437 56.8436V60.8436H104.437H93.4368V56.8436V52.8436H104.437H115.437V56.8436ZM37.4367 61.8436C37.4367 64.3766 37.8257 64.8436 39.9367 64.8436C42.0477 64.8436 42.4367 64.3766 42.4367 61.8436C42.4367 59.3106 42.0477 58.8436 39.9367 58.8436C37.8257 58.8436 37.4367 59.3106 37.4367 61.8436ZM46.7007 69.6586C37.5777 79.1986 37.4888 79.3396 39.3947 81.2456C41.3007 83.1516 41.3628 83.1336 44.4618 79.7596C46.1878 77.8806 50.5637 73.3306 54.1867 69.6486C59.8197 63.9236 60.5868 62.7286 59.4827 61.3986C58.7728 60.5436 57.6847 59.8786 57.0647 59.9216C56.4437 59.9646 51.7807 64.3466 46.7007 69.6586ZM91.4368 77.8436V80.8436H104.937H118.437V77.8436V74.8436H104.937H91.4368V77.8436ZM55.4367 80.8436C55.4367 83.5106 55.7697 83.8436 58.4367 83.8436C61.1037 83.8436 61.4367 83.5106 61.4367 80.8436C61.4367 78.1766 61.1037 77.8436 58.4367 77.8436C55.7697 77.8436 55.4367 78.1766 55.4367 80.8436ZM91.4368 91.8436V94.8436H104.937H118.437V91.8436V88.8436H104.937H91.4368V91.8436ZM70.3307 111.745C72.0387 113.341 73.4368 115.141 73.4368 115.745C73.4368 116.514 66.0717 116.844 48.9367 116.844H24.4368V112.844V108.844H45.8307H67.2248L70.3307 111.745ZM129.437 112.844V116.844H104.937C87.8018 116.844 80.4368 116.514 80.4368 115.745C80.4368 115.141 81.8348 113.341 83.5428 111.745L86.6488 108.844H108.043H129.437V112.844Z" fill="#F43F5E"/>
</svg>
