<svg width="21" height="21" viewBox="0 0 21 21" fill="none" xmlns="http://www.w3.org/2000/svg">
<g clip-path="url(#clip0_477_3191)">
<path d="M3.37695 5.73095C8.99903 3.81486 14.5922 1.90647 20.1873 0C20.195 0.0192378 20.2047 0.0384756 20.2124 0.0577134C19.6367 0.480945 19.061 0.902254 18.4872 1.32549C17.409 2.12193 16.3328 2.92222 15.2546 3.71867C14.3824 4.36314 13.5082 5.00183 12.6361 5.6463C11.6137 6.40042 10.5932 7.15647 9.57086 7.91059C8.8373 8.45117 8.09988 8.98791 7.37017 9.53618C7.22577 9.64392 7.17186 9.54003 7.09677 9.465C5.91266 8.2838 4.73049 7.10068 3.54639 5.91755C3.49248 5.86369 3.44242 5.80405 3.37695 5.73095Z" fill="#EC1F27"/>
<path d="M21.0004 0.834774C19.0943 6.41759 17.1863 11.9985 15.2898 17.5524C14.0017 16.2693 12.7117 14.9861 11.4121 13.6933C14.5659 9.42253 17.7523 5.10749 20.9388 0.790527C20.96 0.803994 20.9793 0.819384 21.0004 0.832851V0.834774ZM18.1393 7.68151C18.0585 7.62765 17.9853 7.54685 17.8987 7.52569C17.6734 7.47182 17.6291 7.65458 17.5752 7.81233C17.2883 8.63571 17.0034 9.46101 16.7184 10.2844C16.653 10.471 16.5798 10.6576 16.5374 10.85C16.5163 10.9462 16.5336 11.077 16.5894 11.1539C16.6279 11.2078 16.7916 11.2424 16.8417 11.2059C16.9321 11.1405 17.0072 11.025 17.0438 10.9135C17.3711 9.95542 17.6888 8.99353 18.0084 8.03356C18.0431 7.9316 18.0816 7.83157 18.1374 7.67959L18.1393 7.68151ZM15.7962 14.1493C15.8328 14.1146 15.9502 14.0588 15.9829 13.9704C16.1947 13.3913 16.3853 12.8045 16.5914 12.2255C16.6549 12.0485 16.5586 11.9754 16.4238 11.9215C16.2852 11.8657 16.1851 11.9158 16.135 12.06C15.929 12.6487 15.7211 13.2374 15.5208 13.828C15.4631 13.9992 15.5632 14.1454 15.7962 14.1493Z" fill="#EC1F27"/>
<path d="M7.8906 13.5221C11.6874 9.73033 15.5439 5.877 19.4178 2.00635C19.2599 2.23143 19.1193 2.44497 18.9653 2.65081C18.2183 3.65695 17.4674 4.65924 16.7223 5.66538C15.8693 6.8158 15.0202 7.96815 14.1712 9.12242C13.3933 10.1805 12.6193 11.2424 11.8434 12.3024C11.5661 12.6814 11.2869 13.0604 11.0039 13.4336C10.9712 13.4779 10.9019 13.5183 10.848 13.5183C9.83137 13.524 8.81285 13.5221 7.88867 13.5221H7.8906Z" fill="#EC1F27"/>
<path d="M7.43576 13.1724C7.43576 12.1778 7.43384 11.1947 7.44154 10.2117C7.44154 10.1443 7.49737 10.0558 7.55513 10.0135C8.75464 9.11704 9.95607 8.22055 11.1614 7.33177C12.2145 6.55456 13.2773 5.79082 14.3305 5.01553C15.222 4.35952 16.1076 3.69582 16.9971 3.03404C17.6229 2.56848 18.2486 2.10293 18.8763 1.64122C18.909 1.61813 18.961 1.62391 19.0015 1.61621C15.1507 5.4657 11.3019 9.31134 7.43769 13.1724H7.43576Z" fill="#EC1F27"/>
<path d="M6.50849 18.8878C6.42763 18.8359 6.32558 18.807 6.31018 18.7512C6.28322 18.6627 6.30248 18.555 6.32173 18.4607C6.32943 18.4222 6.38334 18.3915 6.418 18.3568C7.40957 17.3661 8.40306 16.3792 9.38884 15.3827C9.53132 15.2384 9.6738 15.1903 9.81628 15.323C9.95875 15.4577 9.88559 15.6097 9.76237 15.7328C8.76502 16.7293 7.76961 17.7258 6.77034 18.7185C6.70295 18.7858 6.60476 18.8243 6.51042 18.8859L6.50849 18.8878Z" fill="#EC1F27"/>
<path d="M2.77294 18.4704C2.69593 18.3896 2.61891 18.3358 2.58426 18.2607C2.55923 18.2049 2.57848 18.1241 2.59581 18.0568C2.60351 18.0222 2.64587 17.9972 2.67282 17.9683C3.69134 16.9506 4.71179 15.9329 5.72838 14.9133C5.83428 14.8075 5.93825 14.7768 6.06147 14.8652C6.22898 14.9845 6.23091 15.0865 6.06532 15.2519C5.38759 15.931 4.70601 16.6101 4.02828 17.2873C3.68942 17.6259 3.35055 17.9683 3.00784 18.305C2.95008 18.3608 2.87499 18.3992 2.77294 18.4685V18.4704Z" fill="#EC1F27"/>
<path d="M2.33915 14.7476C2.27946 14.6995 2.18897 14.663 2.17164 14.6052C2.14661 14.5225 2.16779 14.4244 2.18512 14.334C2.19089 14.3013 2.2371 14.2763 2.26598 14.2474C3.27295 13.2413 4.27799 12.2371 5.28496 11.2328C5.32732 11.1905 5.387 11.1193 5.42936 11.127C5.52563 11.1424 5.65463 11.1732 5.69891 11.2425C5.73742 11.304 5.71239 11.4618 5.65656 11.5176C4.62456 12.5641 3.58293 13.601 2.54323 14.6399C2.53168 14.6514 2.52206 14.6649 2.50858 14.6726C2.46044 14.6957 2.41231 14.7149 2.34107 14.7457L2.33915 14.7476Z" fill="#EC1F27"/>
<path d="M4.37997 20.9998C4.31066 20.9479 4.20861 20.9094 4.19128 20.8498C4.16625 20.7613 4.16818 20.6228 4.22209 20.565C4.58791 20.1764 4.96336 19.7955 5.35613 19.4358C5.42352 19.3742 5.62376 19.3838 5.71617 19.4396C5.8548 19.5224 5.81052 19.6763 5.70655 19.7821C5.34265 20.1514 4.97683 20.5189 4.60524 20.8805C4.55325 20.9306 4.47239 20.9517 4.37804 21.0017L4.37997 20.9998Z" fill="#EC1F27"/>
<path d="M1.66845 15.4172C1.60876 15.5192 1.5818 15.5923 1.53367 15.6423C1.16977 16.0116 0.798179 16.3752 0.434284 16.7446C0.318762 16.862 0.205165 16.8812 0.085792 16.7677C-0.0374316 16.6503 -0.0278047 16.5311 0.0954189 16.4099C0.476642 16.0347 0.850164 15.65 1.23716 15.2806C1.28915 15.2325 1.4066 15.2171 1.47976 15.2383C1.54715 15.2575 1.59721 15.3441 1.66845 15.4134V15.4172Z" fill="#EC1F27"/>
<path d="M2.08881 19.1415C2.03875 19.2204 2.00795 19.2992 1.95404 19.355C1.59592 19.7186 1.23202 20.0745 0.873905 20.4381C0.752607 20.5612 0.640935 20.5747 0.506159 20.4593C0.361757 20.3362 0.421443 20.2227 0.519637 20.1207C0.887382 19.7456 1.2532 19.3685 1.63828 19.0107C1.70759 18.9472 1.85777 18.9549 1.96944 18.9626C2.00795 18.9645 2.03875 19.0645 2.08881 19.1415Z" fill="#EC1F27"/>
</g>
<defs>
<clipPath id="clip0_477_3191">
<rect width="21" height="21" fill="white"/>
</clipPath>
</defs>
</svg>
