<svg width="364" height="364" viewBox="0 0 364 364" fill="none" xmlns="http://www.w3.org/2000/svg">
<path d="M364 278.387H0V278.569H364V278.387Z" fill="#EBEBEB"/>
<path d="M327.527 290.101H288.892V290.283H327.527V290.101Z" fill="#EBEBEB"/>
<path d="M241.128 287.822H198.424V288.004H241.128V287.822Z" fill="#EBEBEB"/>
<path d="M290.756 286.774H276.786V286.956H290.756V286.774Z" fill="#EBEBEB"/>
<path d="M104.584 284.568H73.1421V284.75H104.584V284.568Z" fill="#EBEBEB"/>
<path d="M69.087 284.568H57.8467V284.75H69.087V284.568Z" fill="#EBEBEB"/>
<path d="M135.168 287.64H95.71V287.822H135.168V287.64Z" fill="#EBEBEB"/>
<path d="M172.536 245.918H31.9665C30.8653 245.916 29.8098 245.478 29.0318 244.698C28.2538 243.919 27.8169 242.863 27.8169 241.762V44.1605C27.8265 43.0656 28.2677 42.0187 29.0446 41.2472C29.8216 40.4757 30.8716 40.0419 31.9665 40.04H172.536C173.638 40.04 174.696 40.4779 175.475 41.2575C176.255 42.0371 176.693 43.0944 176.693 44.1969V241.762C176.693 242.864 176.255 243.921 175.475 244.701C174.696 245.48 173.638 245.918 172.536 245.918ZM31.9665 40.1856C30.9136 40.1875 29.9044 40.6071 29.1605 41.3524C28.4167 42.0976 27.9989 43.1075 27.9989 44.1605V241.762C27.9989 242.814 28.4167 243.824 29.1605 244.57C29.9044 245.315 30.9136 245.734 31.9665 245.736H172.536C173.59 245.734 174.6 245.315 175.345 244.57C176.09 243.825 176.509 242.815 176.511 241.762V44.1605C176.509 43.1068 176.09 42.0969 175.345 41.3519C174.6 40.6069 173.59 40.1875 172.536 40.1856H31.9665Z" fill="#EBEBEB"/>
<path d="M330.01 245.918H189.433C188.331 245.916 187.275 245.478 186.496 244.699C185.716 243.92 185.278 242.863 185.276 241.762V44.1605C185.287 43.0649 185.73 42.018 186.508 41.2467C187.286 40.4754 188.337 40.0418 189.433 40.04H330.01C331.103 40.0438 332.151 40.4784 332.927 41.2497C333.702 42.021 334.142 43.0668 334.152 44.1605V241.762C334.152 242.861 333.716 243.917 332.94 244.696C332.163 245.475 331.11 245.915 330.01 245.918ZM189.433 40.1856C188.379 40.1875 187.369 40.6069 186.624 41.3519C185.879 42.0969 185.46 43.1068 185.458 44.1605V241.762C185.46 242.815 185.879 243.825 186.624 244.57C187.369 245.315 188.379 245.734 189.433 245.736H330.01C331.063 245.734 332.073 245.315 332.818 244.57C333.563 243.825 333.983 242.815 333.984 241.762V44.1605C333.983 43.1068 333.563 42.0969 332.818 41.3519C332.073 40.6069 331.063 40.1875 330.01 40.1856H189.433Z" fill="#EBEBEB"/>
<path d="M194.165 272.228H201.816V181.206H194.165V272.228Z" fill="#F0F0F0"/>
<path d="M47.1307 278.292H198.875V272.228H47.1307V278.292Z" fill="#F0F0F0"/>
<path d="M194.165 181.206H44.1968V272.228H194.165V181.206Z" fill="#F5F5F5"/>
<path d="M195.97 181.206H203.876V175.47H195.97V181.206Z" fill="#E0E0E0"/>
<path d="M195.97 175.47H42.144V181.206H195.97V175.47Z" fill="#EBEBEB"/>
<path d="M182.48 188.268H55.8738C52.7457 188.268 50.21 190.804 50.21 193.932V214.003C50.21 217.131 52.7457 219.667 55.8738 219.667H182.48C185.608 219.667 188.144 217.131 188.144 214.003V193.932C188.144 190.804 185.608 188.268 182.48 188.268Z" fill="white"/>
<path d="M182.48 229.043H55.8738C52.7457 229.043 50.21 231.579 50.21 234.707V254.778C50.21 257.906 52.7457 260.442 55.8738 260.442H182.48C185.608 260.442 188.144 257.906 188.144 254.778V234.707C188.144 231.579 185.608 229.043 182.48 229.043Z" fill="white"/>
<path d="M86.5811 191.624H151.781C152.492 191.624 153.069 191.047 153.069 190.336V188.61C153.069 187.899 152.492 187.322 151.781 187.322H86.5811C85.8694 187.322 85.2925 187.899 85.2925 188.61V190.336C85.2925 191.047 85.8694 191.624 86.5811 191.624Z" fill="#F5F5F5"/>
<path d="M86.5811 232.399H151.781C152.492 232.399 153.069 231.823 153.069 231.111V229.385C153.069 228.674 152.492 228.097 151.781 228.097H86.5811C85.8694 228.097 85.2925 228.674 85.2925 229.385V231.111C85.2925 231.823 85.8694 232.399 86.5811 232.399Z" fill="#F5F5F5"/>
<path d="M325.554 211.069H302.477V215.481H325.554V211.069Z" fill="#E6E6E6"/>
<path d="M284.793 278.387H289.052V127.4H284.793V278.387Z" fill="#E6E6E6"/>
<path d="M270.044 215.473H302.484V211.062H270.044V215.473Z" fill="#F5F5F5"/>
<path d="M325.554 251.691H302.477V256.103H325.554V251.691Z" fill="#E6E6E6"/>
<path d="M270.044 256.103H302.484V251.691H270.044V256.103Z" fill="#F5F5F5"/>
<path d="M325.554 129.817H302.477V134.229H325.554V129.817Z" fill="#E6E6E6"/>
<path d="M270.044 134.229H302.484V129.817H270.044V134.229Z" fill="#F5F5F5"/>
<path d="M325.554 170.439H302.477V174.851H325.554V170.439Z" fill="#E6E6E6"/>
<path d="M270.044 174.858H302.484V170.447H270.044V174.858Z" fill="#F5F5F5"/>
<path d="M317.233 278.387H321.492V127.4H317.233V278.387Z" fill="#E6E6E6"/>
<path d="M298.218 278.387H302.477V127.4H298.218V278.387Z" fill="#F5F5F5"/>
<path d="M270.044 278.387H274.303V127.4H270.044V278.387Z" fill="#F5F5F5"/>
<path d="M63.9837 162.81L256.321 162.81V60.6934L63.9837 60.6934V162.81Z" fill="#E0E0E0"/>
<path d="M59.1283 162.81L253.577 162.81V60.6934L59.1283 60.6934V162.81Z" fill="#F5F5F5"/>
<path d="M246.603 154.758V68.7378L66.0877 68.7378V154.758H246.603Z" fill="white"/>
<path d="M182 311.264C259.956 311.264 323.152 307.574 323.152 303.023C323.152 298.471 259.956 294.782 182 294.782C104.044 294.782 40.8481 298.471 40.8481 303.023C40.8481 307.574 104.044 311.264 182 311.264Z" fill="#F5F5F5"/>
<path d="M282.333 192.352H80.4731C79.8307 192.35 79.2152 192.094 78.761 191.64C78.3068 191.186 78.0507 190.57 78.0488 189.928C78.0507 189.286 78.3068 188.67 78.761 188.216C79.2152 187.762 79.8307 187.506 80.4731 187.504H282.333C282.975 187.506 283.591 187.762 284.045 188.216C284.499 188.67 284.755 189.286 284.757 189.928C284.755 190.57 284.499 191.186 284.045 191.64C283.591 192.094 282.975 192.35 282.333 192.352Z" fill="#407BFF"/>
<path opacity="0.3" d="M282.333 192.352H235.079C234.436 192.35 233.821 192.094 233.366 191.64C232.912 191.186 232.656 190.57 232.654 189.928C232.656 189.286 232.912 188.67 233.366 188.216C233.821 187.762 234.436 187.506 235.079 187.504H282.333C282.975 187.506 283.591 187.762 284.045 188.216C284.499 188.67 284.755 189.286 284.757 189.928C284.755 190.57 284.499 191.186 284.045 191.64C283.591 192.094 282.975 192.35 282.333 192.352Z" fill="#263238"/>
<path d="M277.208 198.431H121.962V215.328H277.208V198.431Z" fill="#263238"/>
<path opacity="0.1" d="M277.208 198.431H121.962V215.328H277.208V198.431Z" fill="white"/>
<path d="M274.951 299.659H279.596L279.406 192.352H272.971L274.951 299.659Z" fill="#263238"/>
<path opacity="0.1" d="M274.951 299.659H279.596L279.406 192.352H272.971L274.951 299.659Z" fill="white"/>
<path d="M232.145 299.659H227.493L238.005 192.352H244.441L232.145 299.659Z" fill="#263238"/>
<path opacity="0.2" d="M232.145 299.659H227.493L238.005 192.352H244.441L232.145 299.659Z" fill="white"/>
<path d="M120.345 299.659H124.99L124.801 192.352H118.365L120.345 299.659Z" fill="#263238"/>
<path opacity="0.1" d="M120.345 299.659H124.99L124.801 192.352H118.365L120.345 299.659Z" fill="white"/>
<path d="M77.5391 299.659H72.8872L83.3995 192.352H89.835L77.5391 299.659Z" fill="#263238"/>
<path opacity="0.2" d="M77.5391 299.659H72.8872L83.3995 192.352H89.835L77.5391 299.659Z" fill="white"/>
<path d="M208.288 187.504H197.572L193.284 166.552H204L208.288 187.504Z" fill="#263238"/>
<path d="M222.506 183.187H176.016C175.654 183.191 175.296 183.12 174.963 182.978C174.63 182.836 174.331 182.627 174.083 182.364C173.835 182.1 173.645 181.788 173.524 181.447C173.403 181.107 173.354 180.745 173.38 180.384L175.157 150.951C175.211 150.197 175.547 149.49 176.097 148.972C176.646 148.453 177.371 148.159 178.127 148.148H224.624C224.986 148.145 225.344 148.217 225.676 148.359C226.008 148.501 226.307 148.71 226.555 148.973C226.802 149.237 226.992 149.548 227.114 149.888C227.235 150.229 227.285 150.59 227.26 150.951L225.483 180.384C225.427 181.139 225.09 181.845 224.539 182.364C223.988 182.882 223.263 183.176 222.506 183.187Z" fill="#263238"/>
<path d="M221.778 183.187H175.288C174.926 183.191 174.568 183.12 174.235 182.978C173.902 182.836 173.603 182.627 173.355 182.364C173.107 182.1 172.917 181.788 172.796 181.447C172.675 181.107 172.626 180.745 172.652 180.384L174.429 150.951C174.483 150.197 174.819 149.49 175.369 148.972C175.918 148.453 176.643 148.159 177.399 148.148H223.896C224.258 148.145 224.616 148.217 224.948 148.359C225.28 148.501 225.579 148.71 225.827 148.973C226.074 149.237 226.264 149.548 226.386 149.888C226.507 150.229 226.557 150.59 226.532 150.951L224.755 180.384C224.699 181.139 224.362 181.845 223.811 182.364C223.26 182.882 222.535 183.176 221.778 183.187Z" fill="#407BFF"/>
<path d="M175.281 181.731C175.119 181.732 174.959 181.7 174.81 181.637C174.661 181.575 174.526 181.483 174.414 181.367C174.305 181.246 174.221 181.105 174.167 180.951C174.113 180.797 174.091 180.634 174.101 180.471L175.877 151.038C175.905 150.65 176.075 150.285 176.357 150.016C176.638 149.747 177.01 149.592 177.399 149.582H223.896C224.059 149.58 224.22 149.611 224.37 149.675C224.519 149.738 224.654 149.832 224.765 149.951C224.876 150.069 224.961 150.21 225.015 150.363C225.068 150.517 225.089 150.68 225.076 150.842L223.299 180.275C223.274 180.664 223.104 181.029 222.822 181.299C222.54 181.568 222.168 181.722 221.778 181.731H175.281Z" fill="white"/>
<path opacity="0.2" d="M195.701 148.148L198.722 158.493L207.691 148.148H195.701Z" fill="black"/>
<path d="M123.432 123.032C123.505 123.593 123.854 124.015 124.226 123.986C124.597 123.957 124.83 123.476 124.757 122.916C124.684 122.355 124.335 121.933 123.971 121.962C123.607 121.991 123.367 122.486 123.432 123.032Z" fill="#263238"/>
<path d="M124.044 123.869C124.699 125.322 125.547 126.681 126.563 127.91C125.762 128.718 124.299 128.39 124.299 128.39L124.044 123.869Z" fill="#A02724"/>
<path d="M121.576 120.899C121.521 120.909 121.464 120.909 121.409 120.899C121.328 120.864 121.264 120.798 121.23 120.717C121.196 120.636 121.195 120.544 121.227 120.462C121.416 119.977 121.72 119.546 122.113 119.204C122.506 118.863 122.977 118.623 123.483 118.504C123.526 118.497 123.57 118.498 123.612 118.507C123.654 118.517 123.694 118.535 123.729 118.56C123.764 118.585 123.794 118.617 123.817 118.653C123.84 118.69 123.855 118.731 123.862 118.773C123.877 118.86 123.857 118.949 123.806 119.021C123.756 119.094 123.679 119.143 123.593 119.159C123.196 119.255 122.829 119.447 122.524 119.719C122.219 119.991 121.986 120.334 121.845 120.717C121.819 120.767 121.78 120.81 121.733 120.841C121.686 120.873 121.632 120.893 121.576 120.899Z" fill="#263238"/>
<path d="M106.936 131.819L111.304 135.168L117.266 139.732C116.939 140.418 116.742 141.159 116.684 141.916C116.473 143.591 116.262 144.828 119.982 145.855C120.377 145.949 120.736 146.155 121.018 146.448C121.299 146.741 121.49 147.109 121.569 147.507C121.714 148.497 121.11 149.691 117.674 150.281C114.346 150.778 110.946 150.199 107.97 148.628C106.514 147.9 106.514 147.027 107.125 145.549C108.96 141.348 108.072 135.99 106.936 131.819Z" fill="#B55B52"/>
<path d="M101.92 146.874C102.759 145.26 103.451 143.574 103.987 141.836C103.987 141.836 115.053 141.232 118.708 142.324C122.362 143.416 124.634 148.148 124.634 148.148L101.92 146.874Z" fill="#407BFF"/>
<path d="M106.55 155.108C106.281 155.923 105.982 156.92 105.698 157.838L104.876 160.677C104.366 162.57 103.871 164.47 103.485 166.363C103.075 168.213 102.761 170.085 102.546 171.968C102.322 173.699 102.268 175.447 102.386 177.188C102.429 177.925 102.541 178.656 102.721 179.372C102.765 179.518 102.801 179.678 102.852 179.816L102.998 180.209C102.963 180.139 102.924 180.071 102.881 180.005C102.807 179.899 102.727 179.797 102.641 179.7C102.547 179.587 102.439 179.487 102.321 179.401C102.175 179.299 102.153 179.314 102.182 179.35C102.395 179.503 102.625 179.633 102.867 179.736C103.194 179.882 103.595 180.027 103.995 180.165C104.818 180.442 105.728 180.697 106.667 180.944C110.423 181.891 114.522 182.626 118.519 183.478L118.387 188.523C116.253 188.808 114.105 188.985 111.952 189.054C109.768 189.134 107.581 189.097 105.4 188.945C104.245 188.868 103.096 188.727 101.957 188.523C101.36 188.414 100.741 188.29 100.086 188.108C99.332 187.913 98.6002 187.643 97.9016 187.3C97.3844 187.051 96.8961 186.746 96.4456 186.39C96.1266 186.136 95.8317 185.853 95.5647 185.545C95.3978 185.348 95.2423 185.141 95.0988 184.927C95.026 184.803 94.9459 184.679 94.8804 184.555L94.7857 184.381L94.2834 183.354C94.1305 183.012 94.0068 182.677 93.8757 182.335C93.4164 181.061 93.0848 179.744 92.8857 178.404C92.1577 173.344 92.7328 168.83 93.4899 164.441C93.8976 162.257 94.3781 160.073 94.9459 157.998C95.2371 156.942 95.5429 155.887 95.8705 154.846C96.1981 153.805 96.5475 152.8 96.9697 151.657L106.55 155.108Z" fill="#B55B52"/>
<path d="M99.816 145.971C106.696 144.151 110.78 149.786 108.45 159.075C106.121 168.365 105.342 168.714 105.342 168.714L91.1528 166.348C92.9 157.248 92.7617 147.828 99.816 145.971Z" fill="#407BFF"/>
<path d="M122.042 181.461L120.972 181.367C117.929 181.367 117.405 182.197 115.534 183.937L114.806 187.766C119.72 190.277 122.355 187.518 122.362 187.518H126.912L125.311 183.878C125.031 183.22 124.581 182.649 124.006 182.224C123.431 181.799 122.753 181.536 122.042 181.461Z" fill="#B55B52"/>
<path d="M105.058 124.575C106.295 131.207 106.681 135.153 110.481 138.116C116.189 142.564 124.051 138.335 124.823 131.433C125.515 125.223 123.367 115.417 116.509 113.677C114.98 113.299 113.38 113.313 111.857 113.717C110.334 114.121 108.938 114.902 107.797 115.988C106.656 117.074 105.806 118.43 105.328 119.931C104.849 121.432 104.756 123.029 105.058 124.575Z" fill="#B55B52"/>
<path d="M118.198 126.89C122.93 126.512 121.547 121.525 120.083 120.484C122.304 119.64 123.833 116.116 121.7 113.699C122.952 110.43 119.37 106.492 113.087 107.082C108.501 107.504 107.991 109.928 107.991 109.928C107.991 109.928 102.495 109.353 100.209 113.888C98.2579 117.776 100.624 119.851 100.624 119.851C100.624 119.851 96.518 121.045 97.6537 126.403C98.8621 132.183 103.303 130.843 103.303 130.843C103.303 130.843 102.306 136.143 108.312 136.216C113.502 136.282 113.568 132.394 113.568 132.394C113.568 132.394 120.294 131.768 118.198 126.89Z" fill="#263238"/>
<path d="M114.674 127.276C115.205 128.699 116.242 129.876 117.586 130.581C119.319 131.47 120.644 129.628 120.338 127.735C120.062 126.039 118.584 123.862 116.757 123.76C114.929 123.658 114.027 125.515 114.674 127.276Z" fill="#B55B52"/>
<path d="M185.254 291.324L191.726 288.696L187.154 273.153L180.682 275.774L185.254 291.324Z" fill="#B55B52"/>
<path opacity="0.2" d="M182.903 283.316L189.44 280.913L187.154 273.153L180.682 275.774L182.903 283.316Z" fill="black"/>
<path d="M191.165 286.104L183.762 288.674C183.699 288.693 183.642 288.724 183.592 288.766C183.542 288.807 183.5 288.858 183.47 288.915C183.439 288.973 183.42 289.036 183.414 289.101C183.408 289.165 183.415 289.231 183.434 289.293L185.108 295.277C185.216 295.585 185.44 295.839 185.733 295.983C186.026 296.127 186.364 296.151 186.674 296.049C189.229 295.102 190.263 294.593 193.422 293.224C196.532 291.923 199.574 290.465 202.537 288.856C205.005 287.4 203.52 284.917 202.318 285.325C199.472 286.286 194.805 286.912 192.439 286.097C192.026 285.957 191.577 285.96 191.165 286.104Z" fill="#263238"/>
<path d="M133.275 201.656C133.275 201.656 182.189 206.024 183.456 220.096C186.004 248.728 189.913 276.334 189.913 276.334L179.961 279.974C179.961 279.974 167.782 248.525 167.942 226.102C153.834 222.12 116.735 227.966 110.67 217.082C105.312 207.473 110.015 200.571 110.015 200.571L133.275 201.656Z" fill="#263238"/>
<path d="M179.219 282.238L191.61 278.052L191.071 272.41L177.101 276.909L179.219 282.238Z" fill="#407BFF"/>
<path d="M193.895 286.403C193.299 286.594 192.684 286.718 192.061 286.774C192.029 286.778 191.997 286.772 191.968 286.758C191.94 286.744 191.916 286.721 191.901 286.694C191.884 286.667 191.876 286.637 191.876 286.606C191.876 286.576 191.884 286.545 191.901 286.519C192.061 286.301 193.488 284.379 194.398 284.408C194.502 284.414 194.603 284.446 194.692 284.5C194.781 284.555 194.855 284.631 194.907 284.721C195.002 284.849 195.061 285.001 195.077 285.159C195.094 285.318 195.068 285.478 195.002 285.624C194.742 286.011 194.348 286.288 193.895 286.403ZM192.439 286.403C193.699 286.228 194.558 285.893 194.754 285.478C194.795 285.383 194.81 285.278 194.796 285.176C194.781 285.073 194.739 284.976 194.674 284.896C194.652 284.849 194.617 284.809 194.573 284.781C194.529 284.753 194.479 284.737 194.427 284.735C193.903 284.714 193 285.653 192.403 286.403H192.439Z" fill="#407BFF"/>
<path d="M192.097 286.767C192.071 286.774 192.043 286.774 192.017 286.767C191.99 286.762 191.965 286.751 191.944 286.734C191.922 286.718 191.905 286.697 191.893 286.672C191.893 286.592 191.056 284.75 191.493 283.876C191.549 283.765 191.63 283.667 191.73 283.592C191.83 283.516 191.945 283.464 192.068 283.44C192.202 283.395 192.347 283.397 192.48 283.446C192.612 283.495 192.724 283.588 192.796 283.709C193.196 284.379 192.694 286.09 192.177 286.708C192.157 286.735 192.129 286.756 192.097 286.767ZM192.097 283.782C192.035 283.803 191.978 283.836 191.929 283.88C191.88 283.924 191.841 283.977 191.813 284.037C191.551 284.553 191.871 285.66 192.112 286.279C192.512 285.594 192.803 284.32 192.541 283.884C192.49 283.804 192.403 283.709 192.17 283.76L192.097 283.782Z" fill="#407BFF"/>
<path d="M150.623 295.947L157.539 295.619L158.667 279.29L151.751 279.618L150.623 295.947Z" fill="#B55B52"/>
<path d="M157.699 294.44L149.866 294.192C149.801 294.187 149.736 294.195 149.674 294.215C149.612 294.236 149.554 294.268 149.505 294.311C149.456 294.354 149.415 294.406 149.386 294.464C149.357 294.522 149.339 294.586 149.335 294.651L148.76 300.831C148.754 300.996 148.78 301.159 148.838 301.313C148.896 301.467 148.983 301.607 149.096 301.727C149.208 301.847 149.343 301.943 149.493 302.011C149.642 302.078 149.804 302.115 149.968 302.12C152.698 302.156 154.001 302.04 157.445 302.12C159.563 302.186 163.735 302.499 166.639 302.12C169.544 301.741 169.1 298.895 167.833 298.786C164.841 298.546 160.83 296.478 158.915 294.869C158.571 294.591 158.142 294.439 157.699 294.44Z" fill="#263238"/>
<path d="M160.16 295.728C159.535 295.692 158.915 295.59 158.311 295.422C158.28 295.415 158.252 295.4 158.23 295.377C158.208 295.354 158.194 295.325 158.188 295.294C158.183 295.263 158.187 295.231 158.2 295.202C158.212 295.173 158.233 295.148 158.26 295.131C158.486 294.978 160.502 293.675 161.347 294.054C161.442 294.096 161.526 294.161 161.59 294.244C161.653 294.326 161.695 294.424 161.711 294.527C161.753 294.68 161.754 294.842 161.713 294.995C161.672 295.149 161.591 295.289 161.478 295.401C161.097 295.674 160.625 295.792 160.16 295.728ZM158.762 295.197C160 295.488 160.946 295.481 161.259 295.197C161.331 295.12 161.381 295.026 161.404 294.923C161.427 294.821 161.422 294.714 161.39 294.614C161.384 294.564 161.364 294.516 161.333 294.475C161.303 294.434 161.262 294.402 161.216 294.381C160.735 294.163 159.556 294.709 158.704 295.197H158.762Z" fill="#407BFF"/>
<path d="M158.318 295.43C158.292 295.436 158.264 295.436 158.238 295.43C158.215 295.415 158.195 295.394 158.181 295.37C158.167 295.346 158.159 295.319 158.158 295.291C158.158 295.211 158.063 293.202 158.784 292.547C158.878 292.455 158.995 292.387 159.122 292.352C159.249 292.316 159.383 292.313 159.512 292.343C159.651 292.351 159.784 292.405 159.888 292.498C159.993 292.59 160.063 292.715 160.087 292.853C160.218 293.617 159.133 295.037 158.427 295.43C158.392 295.444 158.353 295.444 158.318 295.43ZM159.359 292.656C159.294 292.652 159.228 292.661 159.167 292.684C159.105 292.706 159.049 292.741 159.002 292.787C158.573 293.173 158.478 294.323 158.478 294.971C159.097 294.476 159.825 293.391 159.738 292.889C159.738 292.794 159.665 292.685 159.432 292.649L159.359 292.656Z" fill="#407BFF"/>
<path opacity="0.2" d="M151.752 279.618L158.675 279.29L158.02 288.63L151.125 288.623L151.752 279.618Z" fill="black"/>
<path d="M117.026 200.877C117.026 200.877 169.733 208.936 168.896 221.072C167.389 242.912 160.065 285.594 160.065 285.594L149.684 285.74C149.684 285.74 147.231 241.958 151.14 226C138.174 226 101.6 225.549 96.6128 218.888C91.0945 211.528 96.7656 199.96 96.7656 199.96L117.026 200.877Z" fill="#263238"/>
<path d="M148.461 286.555L161.026 286.359L161.645 279.719L147.857 280.258L148.461 286.555Z" fill="#407BFF"/>
<path d="M126.308 145.236C122.064 144.406 102.925 144.646 102.925 144.646C101.012 144.594 99.1484 145.261 97.7034 146.516C96.2584 147.771 95.3368 149.522 95.1206 151.424C94.4508 157.328 98.2 170.519 98.3311 177.246C98.4912 185.509 96.9115 188.858 96.7513 199.982L133.275 201.656C133.275 179.285 132.3 160.764 131.419 151.883C131.106 148.76 130.552 146.059 126.308 145.236Z" fill="#407BFF"/>
<path opacity="0.3" d="M126.308 145.236C122.064 144.406 102.925 144.646 102.925 144.646C101.012 144.594 99.1484 145.261 97.7034 146.516C96.2584 147.771 95.3368 149.522 95.1206 151.424C94.4508 157.328 98.2 170.519 98.3311 177.246C98.4912 185.509 96.9115 188.858 96.7513 199.982L133.275 201.656C133.275 179.285 132.3 160.764 131.419 151.883C131.106 148.76 130.552 146.059 126.308 145.236Z" fill="white"/>
<path d="M131.309 152.283C132.452 156.214 133.602 160.255 134.789 164.2C135.976 168.146 137.191 172.114 138.56 175.848C138.895 176.802 139.288 177.69 139.608 178.608L140.169 179.896L140.242 180.056V180.136V180.18V180.129C140.116 179.904 139.959 179.699 139.776 179.518C139.528 179.277 139.434 179.255 139.412 179.255C139.574 179.402 139.762 179.518 139.965 179.598C140.321 179.77 140.689 179.918 141.064 180.042C141.887 180.326 142.812 180.58 143.751 180.835C147.558 181.803 151.715 182.546 155.763 183.412L155.632 188.457C153.459 188.751 151.272 188.928 149.08 188.989C146.861 189.074 144.64 189.033 142.426 188.865C141.249 188.781 140.077 188.63 138.917 188.414C138.305 188.297 137.672 188.152 136.988 187.955C136.176 187.728 135.394 187.405 134.658 186.994C134.071 186.658 133.533 186.244 133.056 185.764C132.693 185.389 132.379 184.968 132.125 184.512L131.877 184.053L131.054 182.495C130.574 181.476 130.05 180.449 129.598 179.437C128.703 177.392 127.917 175.368 127.13 173.337C126.344 171.306 125.674 169.275 124.997 167.236C123.651 163.138 122.435 159.083 121.357 154.86L131.309 152.283Z" fill="#B55B52"/>
<path d="M120.935 148.228C125.929 143.132 132.314 145.913 135.058 155.115C137.803 164.317 137.308 164.987 137.308 164.987L123.891 170.192C120.724 161.427 115.825 153.419 120.935 148.228Z" fill="#407BFF"/>
<path d="M159.33 181.461L158.26 181.367C155.217 181.367 154.7 182.197 152.829 183.937L152.101 187.766C157.015 190.277 159.65 187.518 159.65 187.518H164.208L162.599 183.878C162.321 183.219 161.87 182.647 161.295 182.222C160.72 181.797 160.042 181.534 159.33 181.461Z" fill="#B55B52"/>
<path d="M98.3527 228.665H145.003C146.028 228.665 146.859 227.834 146.859 226.808V223.809C146.859 222.784 146.028 221.953 145.003 221.953H98.3527C97.3275 221.953 96.4963 222.784 96.4963 223.809V226.808C96.4963 227.834 97.3275 228.665 98.3527 228.665Z" fill="#407BFF"/>
<path d="M98.5641 303.394H96.4966L98.8771 228.658H101.738L98.5641 303.394Z" fill="#407BFF"/>
<path opacity="0.4" d="M98.5641 303.394H96.4966L98.8771 228.658H101.738L98.5641 303.394Z" fill="white"/>
<path d="M117.579 303.394H119.647L117.274 228.658H114.413L117.579 303.394Z" fill="#407BFF"/>
<path opacity="0.4" d="M117.579 303.394H119.647L117.274 228.658H114.413L117.579 303.394Z" fill="white"/>
<path d="M125.777 303.394H123.709L126.09 228.658H128.951L125.777 303.394Z" fill="#407BFF"/>
<path opacity="0.4" d="M125.777 303.394H123.709L126.09 228.658H128.951L125.777 303.394Z" fill="white"/>
<path d="M144.792 303.394H146.859L144.486 228.658H141.625L144.792 303.394Z" fill="#407BFF"/>
<path opacity="0.4" d="M144.792 303.394H146.859L144.486 228.658H141.625L144.792 303.394Z" fill="white"/>
<g opacity="0.3">
<path d="M98.8768 228.658H101.738L101.6 231.832H98.7749L98.8768 228.658Z" fill="#407BFF"/>
<path d="M117.368 231.832H114.543L114.412 228.658H117.266L117.368 231.832Z" fill="#407BFF"/>
<path d="M128.943 228.658L128.812 231.832H125.987L126.089 228.658H128.943Z" fill="#407BFF"/>
<path d="M144.588 231.832H141.756L141.625 228.658H144.486L144.588 231.832Z" fill="#407BFF"/>
</g>
<path d="M283.192 137.308H166.588C165.682 137.317 164.784 137.139 163.951 136.784C163.117 136.428 162.367 135.904 161.746 135.244C161.126 134.583 160.649 133.802 160.346 132.948C160.043 132.094 159.92 131.187 159.985 130.283L164.433 56.4855C164.573 54.5948 165.416 52.8249 166.796 51.5246C168.176 50.2244 169.992 49.4879 171.888 49.4603H288.463C289.369 49.4509 290.267 49.6295 291.1 49.9848C291.934 50.3401 292.685 50.8645 293.305 51.5247C293.926 52.1849 294.403 52.9666 294.706 53.8205C295.009 54.6744 295.131 55.5818 295.066 56.4855L290.61 130.312C290.466 132.192 289.626 133.951 288.254 135.244C286.882 136.538 285.077 137.274 283.192 137.308Z" fill="#407BFF"/>
<path d="M182.189 121.707L192.942 158.493L224.843 121.707H182.189Z" fill="#407BFF"/>
<path opacity="0.1" d="M277.506 107.613H212.161C211.653 107.618 211.149 107.518 210.682 107.319C210.214 107.12 209.793 106.826 209.445 106.456C209.097 106.086 208.829 105.648 208.659 105.169C208.489 104.69 208.419 104.181 208.456 103.674L210.953 62.3095C211.031 61.2495 211.503 60.2572 212.277 59.5282C213.05 58.7992 214.069 58.3863 215.131 58.371H280.477C280.986 58.3601 281.493 58.4564 281.963 58.6536C282.433 58.8508 282.856 59.1446 283.206 59.5159C283.555 59.8872 283.822 60.3277 283.991 60.809C284.159 61.2902 284.224 61.8014 284.182 62.3095L281.685 103.674C281.607 104.734 281.135 105.727 280.361 106.456C279.588 107.185 278.569 107.598 277.506 107.613Z" fill="white"/>
<path opacity="0.1" d="M242.548 125.456H177.195C176.688 125.461 176.185 125.36 175.718 125.16C175.252 124.961 174.832 124.667 174.484 124.297C174.137 123.927 173.87 123.489 173.7 123.01C173.53 122.532 173.461 122.024 173.497 121.518L175.994 80.1528C176.072 79.094 176.544 78.1027 177.315 77.3739C178.087 76.6451 179.104 76.2314 180.166 76.2143H245.518C246.027 76.2044 246.533 76.3015 247.002 76.4992C247.471 76.6968 247.894 76.9908 248.242 77.362C248.591 77.7331 248.858 78.1733 249.025 78.654C249.193 79.1348 249.258 79.6453 249.216 80.1528L246.719 121.518C246.641 122.577 246.17 123.568 245.398 124.297C244.626 125.025 243.609 125.439 242.548 125.456Z" fill="white"/>
<g opacity="0.5">
<path d="M176.329 55.8813C176.316 56.4403 176.094 56.9742 175.708 57.3782C175.321 57.7823 174.798 58.0273 174.24 58.0653C173.974 58.0521 173.715 57.9834 173.478 57.8634C173.241 57.7435 173.032 57.5751 172.865 57.3691C172.697 57.1631 172.575 56.9242 172.506 56.6679C172.437 56.4116 172.422 56.1436 172.463 55.8813C172.48 55.3233 172.703 54.7912 173.088 54.3878C173.474 53.9845 173.996 53.7384 174.553 53.6973C174.818 53.7104 175.077 53.7792 175.314 53.8991C175.551 54.019 175.76 54.1875 175.928 54.3934C176.095 54.5994 176.217 54.8383 176.287 55.0946C176.356 55.351 176.37 55.619 176.329 55.8813Z" fill="white"/>
<path d="M183.456 55.8813C183.441 56.4398 183.219 56.9727 182.833 57.3764C182.447 57.7801 181.924 58.0257 181.367 58.0653C181.101 58.0531 180.841 57.9851 180.603 57.8656C180.365 57.7461 180.156 57.5778 179.987 57.3717C179.819 57.1656 179.696 56.9264 179.626 56.6695C179.557 56.4127 179.542 56.1441 179.583 55.8813C179.6 55.3233 179.823 54.7912 180.208 54.3878C180.594 53.9845 181.116 53.7384 181.673 53.6973C181.938 53.7105 182.198 53.7793 182.435 53.8992C182.672 54.019 182.882 54.1873 183.05 54.3931C183.218 54.5989 183.341 54.8377 183.411 55.0941C183.481 55.3504 183.496 55.6186 183.456 55.8813Z" fill="white"/>
<path d="M190.634 55.8813C190.621 56.4403 190.399 56.9742 190.013 57.3782C189.626 57.7823 189.103 58.0273 188.545 58.0653C188.28 58.0521 188.02 57.9834 187.783 57.8634C187.546 57.7435 187.338 57.5751 187.17 57.3691C187.002 57.1631 186.88 56.9242 186.811 56.6679C186.742 56.4116 186.727 56.1436 186.768 55.8813C186.785 55.3233 187.008 54.7912 187.394 54.3878C187.779 53.9845 188.301 53.7384 188.858 53.6973C189.123 53.7104 189.382 53.7792 189.619 53.8991C189.856 54.019 190.065 54.1875 190.233 54.3934C190.4 54.5994 190.523 54.8383 190.592 55.0946C190.661 55.351 190.675 55.619 190.634 55.8813Z" fill="white"/>
</g>
<path opacity="0.3" d="M282.289 136.624H165.715C164.784 136.631 163.862 136.446 163.007 136.08C162.151 135.714 161.38 135.174 160.743 134.496C160.106 133.818 159.616 133.015 159.304 132.139C158.992 131.262 158.864 130.33 158.93 129.402L163.385 55.6046C163.525 53.6675 164.387 51.8533 165.799 50.5203C167.212 49.1873 169.073 48.4324 171.015 48.4047H287.56C288.491 48.3974 289.413 48.5826 290.268 48.9487C291.124 49.3148 291.894 49.8539 292.531 50.5321C293.169 51.2104 293.659 52.013 293.971 52.8897C294.283 53.7664 294.41 54.6982 294.345 55.6265L289.897 129.424C289.756 131.357 288.897 133.167 287.489 134.499C286.082 135.831 284.227 136.589 282.289 136.624ZM171.015 48.776C169.162 48.7986 167.386 49.5159 166.038 50.786C164.69 52.0561 163.868 53.7862 163.735 55.6337L159.279 129.431C159.215 130.31 159.333 131.193 159.628 132.024C159.922 132.855 160.386 133.616 160.989 134.259C161.593 134.901 162.323 135.411 163.134 135.757C163.945 136.103 164.819 136.276 165.7 136.267H282.289C284.141 136.243 285.916 135.525 287.264 134.255C288.612 132.985 289.435 131.256 289.569 129.409L294.017 55.6119C294.08 54.7301 293.959 53.845 293.661 53.0125C293.364 52.18 292.897 51.4183 292.29 50.7757C291.683 50.1331 290.949 49.6235 290.135 49.2793C289.321 48.9351 288.444 48.7637 287.56 48.776H171.015Z" fill="#263238"/>
<path d="M219.165 93.4824C218.669 94.5307 218.218 95.4262 217.709 96.3944C217.199 97.3627 216.689 98.2363 216.165 99.1463C215.095 100.959 213.981 102.786 212.787 104.49C212.185 105.363 211.569 106.23 210.938 107.089C210.276 107.933 209.65 108.792 208.943 109.615C207.566 111.32 206.08 112.935 204.495 114.449C204.095 114.842 203.658 115.177 203.236 115.592C202.817 115.985 202.374 116.352 201.911 116.691L200.513 117.747L200.084 118.045C199.894 118.166 199.697 118.275 199.494 118.373C199.094 118.565 198.674 118.711 198.242 118.81C197.387 119.009 196.499 119.016 195.641 118.83C194.784 118.643 193.979 118.268 193.284 117.732C192.94 117.46 192.625 117.153 192.345 116.815L192.148 116.553L192.054 116.422L192.017 116.363L191.886 116.131L191.362 115.184C191.202 114.878 191.093 114.587 190.962 114.289C190.503 113.19 190.128 112.059 189.841 110.903C189.334 108.799 188.979 106.66 188.778 104.504C188.565 102.405 188.473 100.295 188.501 98.1853C188.517 97.5867 188.745 97.0133 189.146 96.5685C189.547 96.1237 190.094 95.8368 190.688 95.7595C191.282 95.6822 191.883 95.8195 192.385 96.1469C192.886 96.4742 193.254 96.9699 193.422 97.5447V97.632C194.387 101.342 195.581 104.989 196.997 108.552C197.321 109.306 197.698 110.036 198.125 110.736C198.22 110.882 198.315 111.056 198.409 111.18L198.686 111.515L198.751 111.602L198.715 111.544L198.635 111.435C198.521 111.286 198.389 111.151 198.242 111.035C197.951 110.8 197.614 110.631 197.252 110.539C196.889 110.463 196.515 110.463 196.152 110.539C195.964 110.579 195.781 110.64 195.606 110.721C195.512 110.721 195.432 110.816 195.344 110.86C195.257 110.903 195.126 111.013 195.221 110.933L196.131 110.044C196.436 109.768 196.735 109.433 197.033 109.113C197.332 108.792 197.638 108.479 197.929 108.137C200.329 105.258 202.514 102.207 204.466 99.0079C205.464 97.3845 206.446 95.7319 207.378 94.0575L208.783 91.5387L210.115 89.078L210.188 88.947C210.82 87.816 211.864 86.9729 213.103 86.5937C214.342 86.2145 215.679 86.3285 216.836 86.912C217.993 87.4955 218.879 88.5033 219.31 89.725C219.742 90.9466 219.684 92.2876 219.15 93.4679L219.165 93.4824Z" fill="#263238"/>
<path d="M189.185 97.865L185.64 95.8339L189.455 91.9391C190.573 92.7675 191.609 93.7012 192.549 94.7273C192.77 94.9621 192.934 95.2455 193.026 95.5547C193.118 95.864 193.136 96.1905 193.08 96.5082C193.023 96.8259 192.893 97.1259 192.7 97.3843C192.506 97.6426 192.255 97.8521 191.966 97.996C191.527 98.2 191.044 98.2946 190.56 98.2718C190.076 98.249 189.604 98.1094 189.185 97.865Z" fill="#FFC3BD"/>
<path d="M184.832 91.6625L186.761 90.2865C187.012 90.1042 187.324 90.028 187.631 90.0743C187.937 90.1206 188.213 90.2858 188.399 90.5341L189.455 91.9391L185.64 95.8339L184.439 93.0966C184.33 92.8488 184.309 92.5709 184.381 92.3098C184.452 92.0486 184.612 91.82 184.832 91.6625Z" fill="#FFC3BD"/>
<path d="M211.528 90.221C211.817 89.2697 212.363 88.4165 213.105 87.7551C213.847 87.0937 214.758 86.6497 215.736 86.4718C217.149 86.1595 218.582 85.9406 220.024 85.8166C224.366 85.6472 228.714 85.7249 233.048 86.0496C235.319 86.2024 237.641 86.5228 239.49 86.8285H239.556C240.535 86.991 241.41 87.5351 241.989 88.3417C242.567 89.1482 242.803 90.1513 242.643 91.131C241.733 96.3872 239.061 105.531 238.77 114.158C238.384 125.485 238.559 132.008 238.362 134.738L209.206 134.178C207.175 106.492 209.701 96.4891 211.528 90.221Z" fill="white"/>
<path d="M240.335 86.399H240.24C238.289 86.0787 235.872 85.7365 233.448 85.5763L232.152 85.5035C230.878 90.7743 223.285 99.6413 220.984 113.08C220.096 101.847 219.412 90.1045 220.715 85.5254C218.654 85.588 216.598 85.7605 214.556 86.0423C213.476 86.2866 212.48 86.8128 211.669 87.5673C210.858 88.3218 210.262 89.2776 209.941 90.3375C208.15 95.6082 204.728 107.416 206.832 136.449H239.235C239.446 133.537 238.689 127.422 239.861 118.009C240.99 108.894 242.613 96.4891 243.567 90.949C243.738 89.9175 243.494 88.8602 242.888 88.0078C242.283 87.1554 241.365 86.5771 240.335 86.399Z" fill="#263238"/>
<path opacity="0.2" d="M220.293 134.935C220.244 134.937 220.196 134.92 220.159 134.887C220.123 134.855 220.1 134.809 220.097 134.76C219.412 126.57 220.693 114.813 220.708 114.689C220.711 114.664 220.718 114.64 220.73 114.618C220.743 114.596 220.759 114.577 220.779 114.561C220.798 114.546 220.821 114.534 220.845 114.527C220.869 114.521 220.894 114.519 220.919 114.522C220.97 114.527 221.017 114.552 221.049 114.592C221.082 114.631 221.098 114.682 221.094 114.733C221.094 114.849 219.798 126.577 220.482 134.724C220.485 134.749 220.483 134.775 220.476 134.799C220.469 134.824 220.457 134.847 220.44 134.867C220.424 134.886 220.404 134.903 220.381 134.914C220.358 134.926 220.333 134.933 220.308 134.935H220.293Z" fill="white"/>
<path opacity="0.3" d="M239.192 97.9233C237.99 103.369 238.631 110.911 239.92 117.79C240.873 110.066 242.176 100.042 243.13 93.8392C241.798 92.951 240.145 93.5771 239.192 97.9233Z" fill="black"/>
<path d="M220.642 85.7802C224.421 84.9503 225.076 82.6207 224.806 80.0436C224.74 79.3998 224.635 78.7604 224.493 78.129L229.211 74.2706L232.683 71.4459C231.737 75.6246 230.696 83.2468 233.55 86.0933C233.55 86.0933 231.22 89.9153 224.741 89.4494C219.266 89.0562 220.642 85.7802 220.642 85.7802Z" fill="#FFC3BD"/>
<path d="M226.386 88.4884L225.338 89.4785L228.687 90.7379L228.25 89.4639L226.386 88.4884Z" fill="#E0E0E0"/>
<path d="M228.949 92.5143C228.949 92.5143 227.631 89.1873 226.386 88.4811C228.835 87.8973 231.077 86.6563 232.873 84.8921L234.86 85.6856C234.86 85.6856 235.486 89.544 228.949 92.5143Z" fill="#F5F5F5"/>
<path d="M224.552 88.2263L225.338 89.4785L221.814 89.7842L222.521 88.6704L224.552 88.2263Z" fill="#E0E0E0"/>
<path d="M220.045 91.5751C221.336 90.1998 222.862 89.0657 224.551 88.2263C222.637 87.6584 222.52 85.0231 222.52 85.0231L220.664 85.3798C220.664 85.3798 217.257 88.6922 220.045 91.5751Z" fill="#F5F5F5"/>
<path opacity="0.2" d="M224.493 78.1216C224.635 78.7557 224.739 79.3974 224.806 80.0435C226.568 79.7232 228.927 77.8596 229.174 76.076C229.258 75.4779 229.275 74.8724 229.225 74.2705L224.493 78.1216Z" fill="black"/>
<path d="M218.764 59.0699C217.075 61.1447 217.235 68.6504 220.81 68.7377C224.384 68.8251 221.836 55.2843 218.764 59.0699Z" fill="#263238"/>
<path d="M234.161 64.5299C233.804 70.2156 233.877 73.5571 231.009 76.4982C226.699 80.9172 219.71 78.3765 218.364 72.7199C217.162 67.6239 217.949 59.1864 223.503 56.8786C224.716 56.3596 226.043 56.1623 227.354 56.3061C228.666 56.4498 229.918 56.9296 230.99 57.699C232.061 58.4684 232.916 59.5014 233.472 60.6981C234.028 61.8948 234.265 63.2146 234.161 64.5299Z" fill="#FFC3BD"/>
<path d="M231.366 59.7979C227.791 63.3433 232.436 65.9422 230.638 67.8496C234.008 69.6114 232.771 70.9072 232.771 70.9072C232.422 71.8765 232.422 72.9372 232.771 73.9066C236.571 72.931 243.625 60.3075 235.923 58.371C231.315 60.424 231.366 59.7979 231.366 59.7979Z" fill="#263238"/>
<path d="M232.829 62.3459C229.444 62.87 225.185 61.2539 222.543 59.8852C219.9 58.5166 219.514 61.101 220.49 61.8872C218.793 61.9455 216.646 60.606 217.177 57.6139C217.665 54.8839 221.239 52.2995 226.328 54.6072C229.932 56.238 234.373 54.0904 236.105 55.9759C237.838 57.8614 235.086 61.9892 232.829 62.3459Z" fill="#263238"/>
<path d="M235.144 58.6404C237.415 58.3419 237.51 56.9077 236.877 54.3961C239.33 57.8832 238.333 58.9534 236.877 59.7979C235.253 59.2519 235.144 58.6404 235.144 58.6404Z" fill="#263238"/>
<path d="M235.69 68.8906C235.187 70.0028 234.308 70.9023 233.208 71.4314C231.803 72.0647 231.089 70.7689 231.468 69.2474C231.81 67.8714 232.924 65.8913 234.38 65.9058C235.836 65.9204 236.324 67.4856 235.69 68.8906Z" fill="#FFC3BD"/>
<path d="M225.287 66.248C225.287 66.7066 225.039 67.0852 224.741 67.0925C224.443 67.0997 224.224 66.7212 224.224 66.248C224.224 65.7748 224.472 65.4108 224.77 65.4108C225.069 65.4108 225.287 65.782 225.287 66.248Z" fill="#263238"/>
<path d="M220.075 66.2917C220.075 66.7576 219.827 67.1289 219.521 67.1362C219.216 67.1435 218.975 66.7649 218.983 66.299C218.99 65.8331 219.223 65.4618 219.529 65.4618C219.834 65.4618 220.075 65.8331 220.075 66.2917Z" fill="#263238"/>
<path d="M222.04 66.4518C221.496 67.8697 220.761 69.2069 219.856 70.4267C220.17 70.647 220.527 70.7968 220.904 70.8659C221.281 70.935 221.669 70.9218 222.04 70.8271V66.4518Z" fill="#ED847E"/>
<path d="M223.875 72.0719C224.403 72.0127 224.913 71.8443 225.373 71.5774C225.833 71.3105 226.233 70.9508 226.546 70.5213C226.566 70.4914 226.572 70.455 226.565 70.4202C226.557 70.3854 226.536 70.355 226.506 70.3357C226.476 70.3163 226.44 70.3097 226.405 70.3172C226.37 70.3247 226.34 70.3458 226.321 70.3757C225.97 70.8334 225.518 71.2033 225 71.456C224.482 71.7087 223.912 71.8374 223.336 71.8317C223.318 71.8317 223.3 71.8353 223.284 71.8423C223.268 71.8494 223.253 71.8597 223.24 71.8726C223.228 71.8856 223.219 71.9009 223.213 71.9176C223.206 71.9344 223.204 71.9522 223.205 71.97C223.205 71.9879 223.208 72.0055 223.215 72.0219C223.222 72.0383 223.233 72.0531 223.246 72.0653C223.259 72.0776 223.274 72.0871 223.291 72.0933C223.307 72.0994 223.325 72.102 223.343 72.1011C223.532 72.0719 223.707 72.0719 223.875 72.0719Z" fill="#263238"/>
<path d="M227.813 64.4061C227.859 64.4035 227.903 64.3856 227.937 64.3552C227.966 64.3343 227.991 64.3078 228.009 64.2771C228.028 64.2465 228.04 64.2124 228.044 64.1769C228.049 64.1414 228.047 64.1054 228.037 64.0709C228.027 64.0365 228.011 64.0044 227.988 63.9766C227.738 63.6319 227.41 63.3517 227.03 63.1592C226.65 62.9668 226.23 62.8677 225.804 62.87C225.769 62.8727 225.735 62.8825 225.703 62.8988C225.672 62.915 225.644 62.9374 225.622 62.9646C225.6 62.9917 225.583 63.0232 225.573 63.057C225.563 63.0908 225.56 63.1262 225.564 63.1612C225.571 63.234 225.606 63.301 225.662 63.3485C225.717 63.396 225.789 63.4202 225.862 63.416C226.2 63.4129 226.534 63.4921 226.835 63.6468C227.135 63.8016 227.394 64.0272 227.588 64.3042C227.614 64.338 227.649 64.3649 227.688 64.3826C227.727 64.4004 227.77 64.4084 227.813 64.4061Z" fill="#263238"/>
<path d="M217.963 64.6318C218.006 64.6258 218.047 64.6095 218.083 64.5841C218.119 64.5588 218.147 64.5252 218.167 64.4862C218.306 64.1711 218.518 63.8935 218.785 63.6758C219.052 63.4582 219.366 63.3068 219.703 63.234C219.739 63.2307 219.773 63.2198 219.805 63.2022C219.836 63.1846 219.863 63.1605 219.884 63.1316C219.906 63.1028 219.921 63.0697 219.928 63.0347C219.936 62.9997 219.936 62.9634 219.929 62.9283C219.916 62.8582 219.878 62.7953 219.821 62.7522C219.765 62.709 219.694 62.6887 219.623 62.6953C219.199 62.7791 218.8 62.9627 218.461 63.2311C218.122 63.4995 217.851 63.8449 217.672 64.2387C217.641 64.3035 217.637 64.3778 217.66 64.4457C217.683 64.5136 217.732 64.5699 217.796 64.6027C217.848 64.6269 217.906 64.637 217.963 64.6318Z" fill="#263238"/>
<path d="M244.433 89.6896C245.321 91.5606 246.064 93.3296 246.792 95.1496C247.52 96.9696 248.168 98.826 248.816 100.682C250.087 104.466 251.113 108.328 251.888 112.243C252.055 113.255 252.245 114.245 252.368 115.286L252.463 116.058L252.514 116.444V116.64V116.91C252.587 117.662 252.587 118.421 252.514 119.174C252.346 120.821 251.778 122.403 250.861 123.782C250.002 125.045 248.873 126.102 247.556 126.876C246.459 127.52 245.278 128.01 244.047 128.332C242.951 128.632 241.831 128.832 240.699 128.929C238.564 129.131 236.411 129.045 234.299 128.674C233.727 128.578 233.205 128.286 232.824 127.847C232.443 127.409 232.226 126.852 232.21 126.271C232.195 125.69 232.382 125.122 232.739 124.664C233.096 124.206 233.601 123.887 234.168 123.76L234.43 123.702C235.158 123.534 236.112 123.33 236.927 123.112C237.743 122.894 238.573 122.639 239.344 122.384C240.692 121.953 241.941 121.26 243.021 120.346C243.306 120.081 243.524 119.751 243.654 119.385C243.706 119.128 243.706 118.863 243.654 118.606C243.63 118.41 243.593 118.215 243.545 118.023L243.283 116.837C243.115 116.007 242.875 115.148 242.657 114.303C242.205 112.592 241.696 110.882 241.114 109.164C240.531 107.446 239.934 105.735 239.301 104.024C238.667 102.313 237.998 100.602 237.321 98.9279C236.644 97.2535 235.93 95.4918 235.253 93.8974V93.8246C234.709 92.6102 234.669 91.2292 235.143 89.9854C235.616 88.7417 236.565 87.737 237.779 87.1926C238.994 86.6481 240.375 86.6083 241.618 87.0821C242.862 87.5558 243.867 88.5043 244.411 89.7187L244.433 89.6896Z" fill="#263238"/>
<path d="M231.999 125.857L228.789 127.4L234.336 129.373C234.336 129.373 238.034 128.193 236.243 126.14L235.246 125.827C233.644 125.303 232.858 125.362 231.999 125.857Z" fill="#FFC3BD"/>
<path d="M229.218 131.317L231.657 131.783C232.006 131.847 232.365 131.8 232.686 131.65C233.007 131.5 233.274 131.254 233.448 130.945L234.336 129.351L228.789 127.4L228.061 128.922C227.948 129.152 227.889 129.404 227.888 129.661C227.887 129.917 227.944 130.17 228.056 130.401C228.168 130.632 228.33 130.834 228.532 130.993C228.733 131.152 228.968 131.262 229.218 131.317Z" fill="#FFC3BD"/>
</svg>
