<svg width="433" height="237" viewBox="0 0 433 237" fill="none" xmlns="http://www.w3.org/2000/svg">
<g clip-path="url(#clip0_732_2469)">
<path opacity="0.34" d="M35.7377 0H13.9517V3.50916H35.7377V0Z" fill="url(#paint0_linear_732_2469)"/>
<path opacity="0.34" d="M44.8544 6.48596H13.9517V9.99512H44.8544V6.48596Z" fill="url(#paint1_linear_732_2469)"/>
<path d="M14.5907 13.8563H13.312V181.974H14.5907V13.8563Z" fill="url(#paint2_linear_732_2469)"/>
<path d="M105.549 13.8563H104.271V181.974H105.549V13.8563Z" fill="url(#paint3_linear_732_2469)"/>
<path d="M196.505 13.8563H195.227V181.974H196.505V13.8563Z" fill="url(#paint4_linear_732_2469)"/>
<path d="M287.464 13.8563H286.185V181.974H287.464V13.8563Z" fill="url(#paint5_linear_732_2469)"/>
<path d="M129.508 0H103.93V3.50916H129.508V0Z" fill="url(#paint6_linear_732_2469)"/>
<path d="M120.284 6.48596H103.93V9.99512H120.284V6.48596Z" fill="url(#paint7_linear_732_2469)"/>
<path d="M212.358 0H196.507V3.50916H212.358V0Z" fill="url(#paint8_linear_732_2469)"/>
<path d="M214.981 6.48596H196.507V9.99512H214.981V6.48596Z" fill="url(#paint9_linear_732_2469)"/>
<path d="M310.551 0H287.464V3.50916H310.551V0Z" fill="url(#paint10_linear_732_2469)"/>
<path d="M305.938 6.48596H287.464V9.99512H305.938V6.48596Z" fill="url(#paint11_linear_732_2469)"/>
<path d="M378.422 13.8563H377.143V181.974H378.422V13.8563Z" fill="url(#paint12_linear_732_2469)"/>
<path d="M28.422 187.452H13.9517V192.131H28.422V187.452Z" fill="url(#paint13_linear_732_2469)"/>
<path d="M119.382 185.967H104.91V190.646H119.382V185.967Z" fill="url(#paint14_linear_732_2469)"/>
<path d="M210.979 185.967H196.507V190.646H210.979V185.967Z" fill="url(#paint15_linear_732_2469)"/>
<path d="M301.936 185.967H287.464V190.646H301.936V185.967Z" fill="url(#paint16_linear_732_2469)"/>
<path d="M392.894 187.452H378.422V192.131H392.894V187.452Z" fill="url(#paint17_linear_732_2469)"/>
<g opacity="0.75">
<path d="M175.969 136.468C155.028 136.469 138.419 122.341 122.16 108.513C109.831 98.0284 97.0396 87.3087 82.2742 82.0203C37.2114 65.883 14.1585 95.3511 13.9517 95.6096V86.6454C14.1959 86.3392 18.3082 80.9827 30.2043 75.8678C41.0355 71.2122 59.2095 67.4972 84.277 76.2438C100.158 81.7839 113.347 93.0003 126.102 103.848C151.977 125.852 174.323 144.855 213.13 115.089C242.522 92.5444 270.229 71.0608 297.491 63.2124C324.156 55.5358 351.954 61.1559 377.976 87.256L377.785 95.397C322.51 39.7097 275.446 74.9918 216.833 119.947C201.308 131.856 187.932 136.466 175.971 136.468H175.969Z" fill="url(#paint18_linear_732_2469)"/>
</g>
<path d="M346.263 133.872C317.892 133.874 293.231 121.57 267.521 108.747C235.781 92.9136 202.96 76.5432 159.23 81.0271C131.307 83.8898 113.779 95.2967 98.3147 105.36C84.3123 114.472 71.0748 122.485 53.1467 123.169C24.1721 124.275 14.121 111.88 13.9531 111.123V103.169C13.9887 103.307 20.3158 117.219 53.1162 117.054C69.2688 116.973 81.192 109.214 94.996 100.23C111.038 89.7889 129.221 77.9551 158.609 74.9426C204.093 70.2802 237.717 87.052 270.234 103.271C304.259 120.242 336.729 136.158 377.783 122.349V128.89C366.08 132.826 356.721 133.872 346.261 133.874L346.263 133.872Z" fill="url(#paint19_linear_732_2469)"/>
<path d="M113.408 113.577C113.38 113.577 110.582 113.603 106.679 112.863C103.075 112.181 97.762 110.687 92.9136 107.454C88.1111 104.251 81.8858 103.13 77.5072 102.754C72.7589 102.346 69.1045 102.701 69.0671 102.705L69.0366 102.402C69.0739 102.398 72.7555 102.039 77.5326 102.451C81.9468 102.83 88.2264 103.963 93.0815 107.2C97.8858 110.405 103.155 111.885 106.728 112.562C110.603 113.297 113.377 113.273 113.404 113.271L113.408 113.576V113.577Z" fill="url(#paint20_linear_732_2469)"/>
<path d="M116.886 115.374C113.686 119 100.09 121.24 92.0218 117.01C87.5635 114.673 84.026 111.941 80.9057 109.531C76.8392 106.389 73.3271 103.676 69.0181 102.701L68.6416 102.616L68.9757 102.422C69.0384 102.385 75.3519 98.7616 84.3635 98.1561C89.6561 97.8006 94.8334 98.5405 99.7496 100.354C105.892 102.619 111.641 106.576 116.837 112.116C117.752 113.093 117.83 114.144 117.065 115.156C117.01 115.229 116.95 115.302 116.887 115.374H116.886ZM69.4726 102.497C73.6697 103.557 77.1173 106.221 81.0906 109.291C84.2007 111.694 87.7263 114.418 92.1625 116.741C95.8068 118.651 101.043 119.402 106.528 118.803C111.171 118.294 115.178 116.85 116.66 115.171C116.718 115.107 116.772 115.04 116.821 114.974C117.495 114.083 117.425 113.191 116.614 112.325C104.929 99.8673 92.6441 97.9094 84.3957 98.4589C76.6391 98.976 70.9004 101.747 69.4709 102.497H69.4726Z" fill="url(#paint21_linear_732_2469)"/>
<path d="M80.3146 98.7372L80.0635 98.9083L83.2139 103.56L83.465 103.389L80.3146 98.7372Z" fill="url(#paint22_linear_732_2469)"/>
<path d="M87.0397 104.402L81.3613 109.66L81.5672 109.884L87.2456 104.626L87.0397 104.402Z" fill="url(#paint23_linear_732_2469)"/>
<path d="M92.4995 98.6034L92.1968 98.6262L92.848 107.335L93.1507 107.312L92.4995 98.6034Z" fill="url(#paint24_linear_732_2469)"/>
<path d="M111.93 101.043C111.894 101.031 108.247 99.7261 103.602 96.5282C99.3167 93.577 93.2779 88.3634 88.8416 80.2769C83.6982 70.9027 78.1055 64.9917 74.317 61.685C70.2148 58.1009 67.2896 56.7163 67.2607 56.701L67.3828 56.4357C67.4117 56.4493 70.3658 57.8475 74.4968 61.4536C78.3039 64.7774 83.9289 70.7172 89.096 80.1357C93.5051 88.1712 99.5083 93.3541 103.766 96.2866C108.379 99.4624 111.989 100.753 112.027 100.767L111.93 101.043Z" fill="url(#paint25_linear_732_2469)"/>
<path d="M123.055 100.308L122.232 100.459C122.205 100.464 119.512 100.949 115.364 100.876C111.539 100.808 105.653 100.238 99.3424 97.9111C92.2489 95.2933 86.0761 91.034 80.9955 85.2489C74.6497 78.023 70.0015 68.3852 67.1797 56.6041L67.1475 56.4714L67.278 56.4306C67.3255 56.4153 72.0891 54.9575 78.3144 56.4578C81.9689 57.3389 85.408 59.0518 88.535 61.5472C92.4388 64.6634 95.866 69.018 98.7201 74.4884C105.149 86.8138 111.211 93.1449 115.164 96.285C119.431 99.675 122.202 100.167 122.229 100.172L123.053 100.31L123.055 100.308ZM67.4968 56.6704C73.873 83.1277 88.3773 93.548 99.4323 97.6304C105.703 99.9455 111.554 100.514 115.358 100.582C118.249 100.633 120.428 100.413 121.481 100.275C120.391 99.9302 118.093 98.981 114.986 96.5146C111.011 93.3558 104.917 86.9941 98.464 74.6244C92.0488 62.3262 83.9292 58.1112 78.2482 56.7419C72.6707 55.3981 68.2972 56.4527 67.4985 56.6721L67.4968 56.6704Z" fill="url(#paint26_linear_732_2469)"/>
<path d="M79.2393 82.7394L79.2266 83.0317L90.8826 83.5422L90.8954 83.2499L79.2393 82.7394Z" fill="url(#paint27_linear_732_2469)"/>
<path d="M87.32 60.6951L87.0283 60.6954L87.0483 77.1169L87.34 77.1165L87.32 60.6951Z" fill="url(#paint28_linear_732_2469)"/>
<path d="M70.2721 66.2249L70.2568 66.5171L79.6964 67.0117L79.7116 66.7195L70.2721 66.2249Z" fill="url(#paint29_linear_732_2469)"/>
<path d="M179.461 218.173H201.108V152.222H179.461V218.173Z" fill="#8F8F8F"/>
<path d="M106.797 183.992L273.77 183.992C279.28 183.992 283.747 179.512 283.747 173.985V61.7292C283.747 56.2025 279.28 51.7222 273.77 51.7222L106.797 51.7222C101.287 51.7222 96.8207 56.2025 96.8207 61.7292L96.8207 173.985C96.8207 179.512 101.287 183.992 106.797 183.992Z" fill="#F0F0F0"/>
<path d="M238.979 215.685H141.59V220.664H238.979V215.685Z" fill="#CCCCCC"/>
<path d="M294.803 116.87C297.737 115.464 300.655 124.829 300.655 124.829C305.641 131.436 312.607 122.647 311.926 132.523C310.734 149.807 331.758 137.958 322.058 156.002C312.358 174.046 330.624 166.204 324.595 180.755C318.567 195.305 326.381 212.657 317.31 205.526C317.31 205.526 309.324 187.96 301.088 182.526C292.851 177.091 306.023 170.642 303.445 163.26C299.702 152.539 290.684 152.959 297.186 141.438C303.687 129.915 284.832 121.654 294.801 116.872L294.803 116.87Z" fill="url(#paint30_linear_732_2469)"/>
<path d="M320.183 198.916C316.252 196.144 311.649 176.817 311.376 165.305C311.236 159.407 309.497 156.951 307.964 154.784C306.499 152.712 305.232 150.923 305.97 146.815C307.379 138.963 303.674 135.575 303.637 135.541L304.066 135.051C304.23 135.195 308.088 138.691 306.609 146.93C305.921 150.77 307.055 152.374 308.494 154.406C310.003 156.539 311.88 159.193 312.024 165.289C312.319 177.644 317.023 195.892 320.556 198.384L320.181 198.918L320.183 198.916Z" fill="white"/>
<path d="M321.653 200.349C321.146 200.349 320.595 200.291 319.991 200.168C318.477 199.862 317.483 199.059 317.039 197.785C315.979 194.746 318.434 189.806 320.427 187.426C320.459 187.387 323.796 183.296 323.44 177.628C323.381 176.679 323.283 175.8 323.196 175.022C322.945 172.779 322.764 171.158 323.725 170.076C324.571 169.122 326.206 168.708 329.189 168.695C334.421 168.669 336.49 166.497 338.153 164.752C338.859 164.01 339.525 163.309 340.336 162.867C342.944 161.44 345.705 161.229 346.904 162.369C347.472 162.91 347.953 163.969 347.01 165.946C346.149 167.752 345.031 168.896 344.134 169.814C342.927 171.051 342.128 171.867 342.544 173.493C342.642 173.876 342.754 174.26 342.866 174.648C343.673 177.416 344.587 180.552 339.866 182.68C338.864 183.133 337.951 183.492 337.146 183.808C333.849 185.106 331.86 185.888 329.615 190.644C329.181 191.565 328.796 192.437 328.424 193.281C326.654 197.306 325.314 200.35 321.655 200.35L321.653 200.349ZM340.646 163.439C339.925 163.833 339.322 164.468 338.621 165.203C336.875 167.038 334.699 169.322 329.191 169.348C326.447 169.362 324.911 169.719 324.208 170.51C323.44 171.376 323.608 172.874 323.841 174.949C323.929 175.732 324.027 176.62 324.088 177.586C324.461 183.522 321.07 187.669 320.925 187.843C318.953 190.199 316.718 194.888 317.652 197.568C318.015 198.609 318.846 199.269 320.12 199.527C324.566 200.429 325.794 197.637 327.827 193.014C328.2 192.167 328.585 191.289 329.025 190.362C331.38 185.373 333.58 184.507 336.907 183.197C337.705 182.883 338.611 182.527 339.598 182.082C343.804 180.187 343.044 177.583 342.242 174.827C342.126 174.432 342.013 174.039 341.913 173.651C341.407 171.668 342.405 170.646 343.668 169.353C344.577 168.423 345.606 167.368 346.422 165.66C346.849 164.765 347.202 163.549 346.454 162.838C345.472 161.904 342.974 162.161 340.646 163.437V163.439Z" fill="url(#paint31_linear_732_2469)"/>
<path d="M320.061 204.113L319.411 204.079C319.443 203.466 320.262 189.044 326.035 184.822C332.369 180.19 334.366 175.215 335.318 171.874C336.439 167.938 342.143 166.885 342.384 166.842L342.498 167.485C342.442 167.495 336.951 168.511 335.944 172.052C334.967 175.485 332.915 180.6 326.42 185.349C320.893 189.389 320.069 203.967 320.062 204.113H320.061Z" fill="url(#paint32_linear_732_2469)"/>
<path d="M333.262 131.426C329.159 130.014 330.012 137.948 328.277 143.818C326.544 149.688 308.987 146.378 316.357 161.078C323.725 175.776 307.037 165.994 312.022 178.819C317.008 191.646 312.457 205.365 317.875 201.874C323.293 198.386 320.919 182.233 326.554 180.314C332.189 178.396 333.108 176.157 327.529 170.938C321.95 165.721 342.149 160.54 337.165 150.006C332.179 139.47 338.004 133.057 333.264 131.426H333.262Z" fill="url(#paint33_linear_732_2469)"/>
<path d="M320.388 201.26C319.873 199.064 315.465 179.741 319.577 177.406C323.201 175.347 323.113 167.339 322.547 159.778C322.047 153.085 330.617 149.957 330.982 149.827L331.199 150.441C331.114 150.472 322.732 153.534 323.195 159.729C323.775 167.494 323.837 175.733 319.896 177.972C316.774 179.746 319.649 195.276 321.021 201.111L320.388 201.26Z" fill="white"/>
<path d="M329.715 194.38L323.858 216.675H310.764L304.905 194.38H329.715Z" fill="url(#paint34_linear_732_2469)"/>
<path d="M329.715 194.38C329.715 194.38 316.817 196.809 316.817 216.676H310.763L304.904 194.38H329.715Z" fill="url(#paint35_linear_732_2469)"/>
<path d="M104.142 163.263L276.426 163.263V37.6448L104.142 37.6448L104.142 163.263Z" fill="white"/>
<path d="M104.142 52.8159L276.426 52.8159V37.643L104.142 37.643V52.8159Z" fill="url(#paint36_linear_732_2469)"/>
<path d="M133.052 48.0974H114.194C112.616 48.0974 111.337 46.8148 111.337 45.2312C111.337 43.6475 112.617 42.365 114.194 42.365H133.052C134.631 42.365 135.909 43.6475 135.909 45.2312C135.909 46.8148 134.631 48.0974 133.052 48.0974Z" fill="#F5F7FF"/>
<path d="M276.426 37.6448H104.142V163.263H276.426V37.6448Z" fill="white"/>
<path d="M276.426 37.6448H104.142V51.7614H276.426V37.6448Z" fill="url(#paint37_linear_732_2469)"/>
<path d="M126.842 43.8671H276.426V53.1596H129.455C128.012 53.1596 126.842 51.9842 126.842 50.5384V43.8671Z" fill="url(#paint38_linear_732_2469)"/>
<path d="M223.177 51.0724H132.711C131.144 51.0724 129.875 49.7984 129.875 48.2283C129.875 46.6566 131.146 45.3843 132.711 45.3843H223.177C224.744 45.3843 226.013 46.6583 226.013 48.2283C226.013 49.8001 224.743 51.0724 223.177 51.0724Z" fill="white"/>
<path d="M270.607 51.0724H233.812C232.245 51.0724 230.976 49.7984 230.976 48.2283C230.976 46.6566 232.246 45.3843 233.812 45.3843H270.607C272.174 45.3843 273.443 46.6583 273.443 48.2283C273.443 49.8001 272.173 51.0724 270.607 51.0724Z" fill="white"/>
<path d="M114.532 49.3544L114.143 48.9649L115.805 47.2979L114.048 45.5374L114.437 45.1478L116.582 47.2979L114.532 49.3544Z" fill="#FAFAFA"/>
<path d="M109.866 49.3544L107.721 47.2026L109.771 45.1478L110.16 45.5374L108.5 47.2026L110.255 48.9649L109.866 49.3544Z" fill="#FAFAFA"/>
<path d="M124.686 47.9648L123.809 46.5479L122.629 47.7624L122.946 48.0736L123.484 47.5208C123.333 48.5788 122.465 49.3545 121.418 49.3545C120.262 49.3545 119.322 48.4104 119.322 47.2504C119.322 46.0903 120.263 45.1479 121.418 45.1479V44.7023C120.018 44.7023 118.878 45.8453 118.878 47.2504C118.878 48.6554 120.018 49.7985 121.418 49.7985C122.69 49.7985 123.745 48.8544 123.925 47.577L124.31 48.1995L124.686 47.9648Z" fill="#FAFAFA"/>
<path d="M263.019 38.9664H276.426V44.0813H263.019C261.866 44.0813 260.931 43.1424 260.931 41.9874V41.0621C260.931 39.9054 261.867 38.9664 263.02 38.9664H263.019Z" fill="#FAFAFA"/>
<path d="M266.583 41.523C266.583 42.2782 265.973 42.8906 265.22 42.8906C264.467 42.8906 263.856 42.2782 263.856 41.523C263.856 40.7678 264.467 40.1554 265.22 40.1554C265.973 40.1554 266.583 40.7678 266.583 41.523Z" fill="#E8E8E8"/>
<path d="M270.014 41.523C270.014 42.2782 269.403 42.8906 268.651 42.8906C267.898 42.8906 267.287 42.2782 267.287 41.523C267.287 40.7678 267.898 40.1554 268.651 40.1554C269.403 40.1554 270.014 40.7678 270.014 41.523Z" fill="#E8E8E8"/>
<path d="M273.443 41.523C273.443 42.2782 272.832 42.8906 272.079 42.8906C271.326 42.8906 270.716 42.2782 270.716 41.523C270.716 40.7678 271.326 40.1554 272.079 40.1554C272.832 40.1554 273.443 40.7678 273.443 41.523Z" fill="#DA5E5E"/>
<path d="M104.141 37.6448H258.75V39.0328C258.75 41.1624 257.026 42.8924 254.902 42.8924H107.987C105.864 42.8924 104.14 41.1624 104.14 39.0328V37.6448H104.141Z" fill="url(#paint39_linear_732_2469)"/>
<path d="M222.731 66.2029H165.561V70.3941H222.731V66.2029Z" fill="#E6E6E6"/>
<path d="M268.272 73.7501H165.561V77.9414H268.272V73.7501Z" fill="#E6E6E6"/>
<path d="M162.683 66.2029H159.628V77.9432H162.683V66.2029Z" fill="#78C2FF"/>
<path d="M238.647 91.7875H165.561V95.9787H238.647V91.7875Z" fill="#E6E6E6"/>
<path d="M254.806 99.3365H165.561V103.528H254.806V99.3365Z" fill="#E6E6E6"/>
<path d="M162.683 91.7875H159.628V103.528H162.683V91.7875Z" fill="#78C2FF"/>
<path d="M141.604 146.236H130.333V147.63H141.604V146.236Z" fill="#D6D6D6"/>
<path d="M144.339 143.756H127.6V145.149H144.339V143.756Z" fill="#D6D6D6"/>
<path d="M138.905 124.637C138.905 126.25 137.603 127.556 135.995 127.556C134.388 127.556 133.085 126.25 133.085 124.637C133.085 123.025 134.388 121.718 135.995 121.718C137.603 121.718 138.905 123.025 138.905 124.637Z" fill="url(#paint40_linear_732_2469)"/>
<path d="M141.244 134.153V139.705C139.637 140.438 137.849 140.846 135.969 140.846C134.088 140.846 132.301 140.438 130.693 139.705V134.153C130.693 131.232 133.053 128.861 135.969 128.861C138.884 128.861 141.244 131.23 141.244 134.153Z" fill="url(#paint41_linear_732_2469)"/>
<path d="M135.97 141.193C134.079 141.193 132.256 140.798 130.552 140.021C125.88 137.891 122.86 133.19 122.86 128.043C122.86 120.791 128.741 114.892 135.97 114.892C143.199 114.892 149.08 120.791 149.08 128.043C149.08 133.188 146.062 137.891 141.388 140.021C139.684 140.798 137.861 141.193 135.97 141.193ZM135.97 115.586C129.122 115.586 123.552 121.174 123.552 128.043C123.552 132.918 126.411 137.371 130.837 139.388C132.451 140.125 134.178 140.497 135.968 140.497C137.759 140.497 139.486 140.125 141.1 139.388C145.526 137.371 148.387 132.916 148.387 128.043C148.387 121.174 142.816 115.586 135.968 115.586H135.97Z" fill="url(#paint42_linear_732_2469)"/>
<path d="M139.523 103.497H124.961V105.297H139.523V103.497Z" fill="#D6D6D6"/>
<path d="M143.057 100.292H121.429V102.092H143.057V100.292Z" fill="#D6D6D6"/>
<path d="M132.243 96.9807C129.799 96.9807 127.445 96.4704 125.243 95.4668C119.206 92.7146 115.305 86.6403 115.305 79.9911C115.305 70.6221 122.904 63.0016 132.243 63.0016C141.582 63.0016 149.181 70.6238 149.181 79.9911C149.181 86.6403 145.28 92.7146 139.243 95.4668C137.04 96.4721 134.685 96.9807 132.243 96.9807ZM132.243 63.898C123.396 63.898 116.199 71.117 116.199 79.9911C116.199 86.2899 119.894 92.0427 125.612 94.6503C127.698 95.6012 129.928 96.0843 132.243 96.0843C134.558 96.0843 136.788 95.6012 138.874 94.6503C144.592 92.0427 148.287 86.2899 148.287 79.9911C148.287 71.117 141.09 63.898 132.243 63.898Z" fill="url(#paint43_linear_732_2469)"/>
<path d="M179.356 146.236H168.085V147.63H179.356V146.236Z" fill="#D6D6D6"/>
<path d="M182.091 143.756H165.352V145.149H182.091V143.756Z" fill="#D6D6D6"/>
<path d="M176.656 124.637C176.656 126.25 175.354 127.556 173.746 127.556C172.138 127.556 170.836 126.25 170.836 124.637C170.836 123.025 172.138 121.718 173.746 121.718C175.354 121.718 176.656 123.025 176.656 124.637Z" fill="url(#paint44_linear_732_2469)"/>
<path d="M178.996 134.153V139.705C177.389 140.438 175.601 140.846 173.721 140.846C171.84 140.846 170.052 140.438 168.445 139.705V134.153C168.445 131.232 170.805 128.861 173.721 128.861C176.636 128.861 178.996 131.23 178.996 134.153Z" fill="url(#paint45_linear_732_2469)"/>
<path d="M173.721 141.193C171.83 141.193 170.007 140.798 168.303 140.021C163.631 137.891 160.61 133.19 160.61 128.043C160.61 120.791 166.491 114.892 173.721 114.892C180.95 114.892 186.831 120.791 186.831 128.043C186.831 133.188 183.812 137.891 179.139 140.021C177.434 140.798 175.612 141.193 173.721 141.193ZM173.721 115.586C166.873 115.586 161.302 121.174 161.302 128.043C161.302 132.918 164.163 137.371 168.587 139.388C170.202 140.125 171.928 140.497 173.719 140.497C175.51 140.497 177.236 140.125 178.851 139.388C183.277 137.371 186.137 132.916 186.137 128.043C186.137 121.174 180.567 115.586 173.719 115.586H173.721Z" fill="url(#paint46_linear_732_2469)"/>
<path d="M217.108 146.236H205.838V147.63H217.108V146.236Z" fill="#D6D6D6"/>
<path d="M219.842 143.756H203.102V145.149H219.842V143.756Z" fill="#D6D6D6"/>
<path d="M214.408 124.637C214.408 126.25 213.106 127.556 211.498 127.556C209.891 127.556 208.588 126.25 208.588 124.637C208.588 123.025 209.891 121.718 211.498 121.718C213.106 121.718 214.408 123.025 214.408 124.637Z" fill="url(#paint47_linear_732_2469)"/>
<path d="M216.748 134.153V139.705C215.141 140.438 213.355 140.846 211.473 140.846C209.59 140.846 207.805 140.438 206.197 139.705V134.153C206.197 131.232 208.558 128.861 211.473 128.861C214.388 128.861 216.748 131.23 216.748 134.153Z" fill="url(#paint48_linear_732_2469)"/>
<path d="M211.473 141.193C209.582 141.193 207.759 140.798 206.055 140.021C201.383 137.891 198.363 133.19 198.363 128.043C198.363 120.791 204.244 114.892 211.473 114.892C218.702 114.892 224.583 120.791 224.583 128.043C224.583 133.188 221.565 137.891 216.891 140.021C215.187 140.798 213.364 141.193 211.473 141.193ZM211.473 115.586C204.625 115.586 199.054 121.174 199.054 128.043C199.054 132.918 201.915 137.371 206.34 139.388C207.954 140.125 209.68 140.497 211.471 140.497C213.262 140.497 214.988 140.125 216.603 139.388C221.029 137.371 223.89 132.916 223.89 128.043C223.89 121.174 218.319 115.586 211.471 115.586H211.473Z" fill="url(#paint49_linear_732_2469)"/>
<path d="M254.86 146.236H243.59V147.63H254.86V146.236Z" fill="#D6D6D6"/>
<path d="M257.594 143.756H240.854V145.149H257.594V143.756Z" fill="#D6D6D6"/>
<path d="M252.16 124.637C252.16 126.25 250.858 127.556 249.25 127.556C247.643 127.556 246.34 126.25 246.34 124.637C246.34 123.025 247.643 121.718 249.25 121.718C250.858 121.718 252.16 123.025 252.16 124.637Z" fill="url(#paint50_linear_732_2469)"/>
<path d="M254.499 134.153V139.705C252.891 140.438 251.104 140.846 249.223 140.846C247.343 140.846 245.555 140.438 243.948 139.705V134.153C243.948 131.232 246.308 128.861 249.223 128.861C252.138 128.861 254.499 131.23 254.499 134.153Z" fill="url(#paint51_linear_732_2469)"/>
<path d="M249.225 141.193C247.334 141.193 245.511 140.798 243.807 140.021C239.135 137.891 236.115 133.19 236.115 128.043C236.115 120.791 241.996 114.892 249.225 114.892C256.454 114.892 262.335 120.791 262.335 128.043C262.335 133.188 259.317 137.891 254.643 140.021C252.939 140.798 251.116 141.193 249.225 141.193ZM249.225 115.586C242.377 115.586 236.806 121.174 236.806 128.043C236.806 132.918 239.666 137.371 244.092 139.388C245.706 140.125 247.432 140.497 249.223 140.497C251.014 140.497 252.74 140.125 254.355 139.388C258.781 137.371 261.64 132.916 261.64 128.043C261.64 121.174 256.069 115.586 249.221 115.586H249.225Z" fill="url(#paint52_linear_732_2469)"/>
<path d="M136.487 152.135H135.451V156.509H136.487V152.135Z" fill="#C5CCD1"/>
<path d="M138.149 154.842V153.802H133.789V154.842H138.149Z" fill="#C5CCD1"/>
<path d="M174.265 152.135H173.229V156.509H174.265V152.135Z" fill="#C5CCD1"/>
<path d="M175.927 154.842V153.802H171.567V154.842H175.927Z" fill="#C5CCD1"/>
<path d="M212.041 152.135H211.005V156.509H212.041V152.135Z" fill="#C5CCD1"/>
<path d="M213.704 154.842V153.802H209.344V154.842H213.704Z" fill="#C5CCD1"/>
<path d="M249.82 152.135H248.782V156.509H249.82V152.135Z" fill="#C5CCD1"/>
<path d="M251.482 154.842V153.802H247.122V154.842H251.482Z" fill="#C5CCD1"/>
<path d="M143.057 80.1867L126.168 70.406V89.9658L143.057 80.1867Z" fill="url(#paint53_linear_732_2469)"/>
<g opacity="0.45">
<path d="M407.309 116.68L401.289 106.794C400.795 105.982 401.049 104.924 401.858 104.429C402.667 103.934 403.722 104.189 404.215 105.001L408.472 111.992L419.79 105.273C420.605 104.79 421.657 105.06 422.139 105.877C422.622 106.695 422.352 107.75 421.536 108.233L407.309 116.68Z" fill="url(#paint54_linear_732_2469)"/>
<path d="M411.35 131.921C399.411 131.921 389.699 122.179 389.699 110.204C389.699 98.2292 399.411 88.4875 411.35 88.4875C423.288 88.4875 433 98.2292 433 110.204C433 122.179 423.288 131.921 411.35 131.921ZM411.35 91.5902C401.117 91.5902 392.792 99.9404 392.792 110.204C392.792 120.468 401.117 128.818 411.35 128.818C421.582 128.818 429.907 120.468 429.907 110.204C429.907 99.9404 421.582 91.5902 411.35 91.5902Z" fill="url(#paint55_linear_732_2469)"/>
</g>
<g opacity="0.45">
<path d="M24.0737 191.638L15.8439 178.122C15.169 177.013 15.5183 175.565 16.6223 174.89C17.7279 174.213 19.1694 174.563 19.8443 175.67L25.6643 185.228L41.1369 176.043C42.2511 175.381 43.6891 175.75 44.3488 176.87C45.0084 177.987 44.6388 179.43 43.5246 180.091L24.072 191.639L24.0737 191.638Z" fill="url(#paint56_linear_732_2469)"/>
<path d="M29.5987 212.475C13.2782 212.475 0 199.156 0 182.786C0 166.415 13.2782 153.097 29.5987 153.097C45.9192 153.097 59.1974 166.415 59.1974 182.786C59.1974 199.156 45.9192 212.475 29.5987 212.475ZM29.5987 157.337C15.6082 157.337 4.22766 168.753 4.22766 182.786C4.22766 196.819 15.6082 208.234 29.5987 208.234C43.5891 208.234 54.9697 196.819 54.9697 182.786C54.9697 168.753 43.5891 157.337 29.5987 157.337Z" fill="url(#paint57_linear_732_2469)"/>
</g>
<path d="M276.823 224.278C276.823 224.278 277.262 227.367 277.318 227.832C277.372 228.296 282.207 227.558 282.207 227.558L282.598 223.88C282.598 223.88 277.428 223.843 276.824 224.278H276.823Z" fill="#5C544D"/>
<path d="M277.265 227.439C277.265 227.439 275.734 229.3 274.252 230.111C272.77 230.922 270.443 231.244 269.566 232.084C268.934 232.69 267.263 235.301 273.416 235.248C279.568 235.195 282.534 235.617 283.194 234.615C283.853 233.615 282.241 227.229 282.241 227.229C282.241 227.229 280.784 227.76 277.265 227.439Z" fill="#3C4145"/>
<path d="M242.186 224.278C242.186 224.278 242.625 227.367 242.681 227.832C242.735 228.296 247.57 227.558 247.57 227.558L247.961 223.88C247.961 223.88 242.791 223.843 242.187 224.278H242.186Z" fill="#5C544D"/>
<path d="M242.628 227.439C242.628 227.439 241.097 229.3 239.615 230.111C238.133 230.922 232.682 231.589 231.806 232.428C231.173 233.033 230.122 235.474 238.779 235.246C244.93 235.085 247.897 235.615 248.557 234.614C249.217 233.613 247.604 227.228 247.604 227.228C247.604 227.228 246.232 227.794 242.628 227.437V227.439Z" fill="#3C4145"/>
<path d="M275.105 144.524C275.105 144.524 277.677 152.19 277.338 158.795C276.999 165.402 278.668 172.629 279.351 179.532C280.111 187.225 283.224 205.438 283.338 209.554C283.45 213.669 282.855 226.811 282.855 226.811L276.622 226.956C276.622 226.956 271.389 195.115 270.033 191.866C268.678 188.617 261.955 165.454 261.73 162.855C261.504 160.256 275.103 144.525 275.103 144.525L275.105 144.524Z" fill="#33373B"/>
<path d="M248.908 145.888C248.908 145.888 245.486 163.995 245.033 168.038C244.582 172.081 244.28 187.605 244.054 190.132C243.829 192.66 242.548 223.201 241.343 226.956H249.31C249.31 226.956 255.425 204.752 255.425 194.249C255.425 183.745 260.149 171.411 263.198 164.48C266.247 157.548 273.229 157.385 275.105 144.525C275.105 144.525 251.446 141.81 248.908 145.889V145.888Z" fill="#3C4145"/>
<path d="M265.098 84.0089C265.098 84.0089 258.818 81.6564 255.922 86.4515C253.025 91.2466 253.305 100.845 256.471 102.026C259.637 103.206 264.392 102.589 266.012 99.5883C267.633 96.5878 269.095 92.2502 269.025 89.3517C268.954 86.4532 266.746 84.8458 265.098 84.0089Z" fill="#EEA886"/>
<path d="M257.526 101.732C257.526 101.732 257.78 103.383 257.36 104.196C256.941 105.009 265.259 105.031 265.259 105.031C265.259 105.031 265.934 100.607 267.214 96.8701C268.494 93.133 257.526 101.733 257.526 101.733V101.732Z" fill="#EEA886"/>
<path d="M267.214 96.8685C267.214 96.8685 266.641 97.8176 264.297 97.4502C261.954 97.0811 259.095 93.9547 258.116 93.611C257.138 93.2674 257.129 92.6908 257.129 92.6908L256.517 93.5889L255.477 93.6553C255.477 93.6553 256.425 90.8571 254.996 89.7175C253.566 88.5761 256.48 80.6631 263.995 83.2979C263.995 83.2979 269.768 84.8934 269.558 88.1866C269.347 91.4797 268.508 95.2304 267.216 96.8702L267.214 96.8685Z" fill="#FCCCA2"/>
<path d="M256.866 104.098C256.866 104.098 256.892 102.543 257.595 102.395C258.297 102.245 265.347 101.567 266.208 101.907V103.717C266.208 103.717 264.548 104.742 256.866 104.098Z" fill="#E2D2CA"/>
<path d="M257.284 91.4933C257.414 90.9405 258.815 89.362 259.351 91.0527C259.887 92.7418 258.54 95.0161 257.791 94.8222C257.039 94.6283 256.951 92.8949 257.284 91.495V91.4933Z" fill="#EEA886"/>
<path d="M256.866 104.098C256.866 104.098 253.002 105.491 248.526 107.399C248.526 107.399 243.378 109.328 242.82 115.032C242.523 118.059 239.31 134.127 238.708 135.488C238.106 136.847 230.978 158.69 230.727 159.142C230.476 159.596 236.544 162.122 236.946 161.92C237.348 161.719 243.846 141.998 244.499 140.538C244.499 140.538 248.24 128.715 248.34 126.952C248.34 126.952 248.447 131.977 248.648 133.385C248.849 134.796 245.321 162.175 245.421 162.93C245.521 163.685 261.453 164.645 267.828 163.94C274.204 163.236 279.349 161.763 279.349 161.763C279.349 161.763 274.333 140.155 274.486 137.76C274.822 132.542 276.56 122.71 276.56 122.71L281.759 132.542L275.105 149.715L276.629 154.934C276.629 154.934 288.995 136.19 289.397 134.478C289.799 132.765 288.792 130.584 288.139 129.174C287.486 127.764 283.199 117.032 282.195 115.522C281.191 114.011 279.493 107.961 275.393 106.277C271.964 104.868 266.209 103.715 266.209 103.715L256.866 104.096V104.098Z" fill="#EB4747"/>
<path d="M253.581 148.647L224.449 141.156L219.239 161.541L248.37 169.033L253.581 148.647Z" fill="#D6D6D6"/>
<path d="M228.19 163.6C228.19 163.6 227.357 164.949 227.054 165.335C226.75 165.72 227.802 165.961 228.251 165.572C228.702 165.182 228.19 163.6 228.19 163.6Z" fill="#C98462"/>
<path d="M234.256 168.208C234.256 168.208 234.748 167.695 234.853 167.365C234.853 167.365 234.999 166.749 235.129 166.318C235.172 166.182 235.211 166.063 235.245 165.99C235.384 165.682 235.782 165.048 235.911 164.214C236.04 163.383 236.403 159.644 236.403 159.644L234.146 159.074L232.333 158.691C232.333 158.691 228.417 162.61 228.207 163.372C228.187 163.447 228.17 163.522 228.16 163.592C228.044 164.255 228.238 164.796 228.215 165.15C228.209 165.281 228.227 166.58 228.529 166.824C228.948 167.162 229.375 167.225 229.725 167.113C229.725 167.113 230.574 167.739 231.282 167.701C231.282 167.701 232.046 168.304 232.915 168.006C232.915 168.006 233.759 168.53 234.254 168.212L234.256 168.208Z" fill="#DE9D7D"/>
<path d="M243.066 144.564C243.066 144.564 237.895 160.271 236.946 161.92C236.946 161.92 233.154 161.12 230.727 159.142L236.405 142.192L243.066 144.566V144.564Z" fill="#EB4747"/>
<path d="M103.482 217.738C103.482 217.738 102.58 216.26 101.343 215.681C100.107 215.105 97.5719 217.119 97.3497 218.238L94.4126 222.538L94.9688 222.921L96.5375 220.625C95.4691 223.203 93.9429 226.289 95.0146 227.84C96.4544 229.922 99.7171 232.028 100.579 231.664C101.44 231.3 101.267 225.244 101.267 225.244C100.336 219.898 103.482 217.738 103.482 217.738Z" fill="#1D3B54"/>
<path d="M103.482 217.738C103.482 217.738 102.412 219.805 101.861 221.407C101.309 223.011 101.208 227.451 100.86 227.758C100.512 228.066 97.7787 226.683 97.4141 225.023C97.0495 223.363 98.1586 220.044 99.2134 218.299C100.268 216.554 101.342 215.681 101.342 215.681C101.342 215.681 103.205 216.045 103.48 217.738H103.482Z" fill="#DE9673"/>
<path d="M114.035 178.828C114.035 178.828 112.361 187.743 112.361 189.874C112.361 192.005 111.781 195.494 110.429 198.078C109.078 200.662 103.143 218.315 102.627 220.369C102.111 222.426 101.671 224.367 101.671 224.367C101.671 224.367 98.708 223.011 98.708 221.072C98.708 219.133 101.284 203.114 101.735 199.949C102.186 196.783 105.92 180.569 105.92 180.569L114.035 178.826V178.828Z" fill="#DE9673"/>
<path d="M104.567 178.246C104.567 178.246 105.147 185.674 105.083 187.612C105.018 189.549 104.116 193.941 104.116 195.104C104.116 196.268 104.116 220.359 105.076 223.264C106.038 226.171 102.378 224.171 102.378 224.171C102.378 224.171 96.0018 208.325 96.0018 201.715C96.0018 195.104 96.775 191.81 96.324 187.61C95.8729 183.412 93.8701 177.884 93.8701 177.884L104.567 178.242V178.246Z" fill="#EEA886"/>
<path d="M94.923 142.491C94.923 142.491 91.4958 146.703 90.5936 152.323C89.6914 157.943 91.6603 168.54 92.3606 171.607C92.9745 174.296 94.1497 182.908 94.2141 183.811C94.2141 183.811 105.737 185.121 114.496 182.344C114.496 182.344 115.296 170.317 115.812 165.214C116.328 160.111 113.813 142.88 113.813 142.88L94.9213 142.493L94.923 142.491Z" fill="#EB4747"/>
<path d="M108.099 230.594C103.972 226.978 105.076 223.266 105.076 223.266C105.076 223.266 103.426 222.678 102.086 223.014C100.746 223.35 100.027 226.556 100.563 227.58L100.98 232.845L101.662 232.79L101.438 229.98C102.235 232.693 102.992 236.099 104.821 236.636C107.277 237.357 111.184 236.93 111.632 236.092C112.079 235.253 108.098 230.596 108.098 230.596L108.099 230.594Z" fill="#1D3B54"/>
<path d="M110.521 103.13C110.521 103.13 109.5 109.228 110.382 111.276C111.264 113.324 105.695 108.881 105.695 108.881C105.695 108.881 108.006 102.164 110.521 103.13Z" fill="#754836"/>
<path d="M108.462 86.1912C108.462 86.1912 99.5236 84.1381 98.4095 93.7198C97.2953 103.302 101.318 104.504 98.596 110.997C95.8725 117.49 105.244 108.881 105.244 108.881L108.462 86.1912Z" fill="#754836"/>
<path d="M107.693 86.0518C109.987 86.0058 115.037 87.3054 115.649 93.4188C115.649 93.4188 115.42 95.0551 114.986 96.3343C114.552 97.6134 115.599 101.451 115.292 101.629C114.986 101.808 113.737 102.014 113.737 102.014C113.737 102.014 112.283 106.132 110.83 106.055C109.377 105.979 103.901 104.683 101.454 99.4386C99.005 94.1944 98.4267 86.2389 107.694 86.05L107.693 86.0518Z" fill="#EEA886"/>
<path d="M82.6897 161.909C82.6897 161.909 82.9034 158.222 83.8767 157.65C84.8501 157.077 84.2871 158.218 84.2871 158.218C84.2871 158.218 83.7394 160.894 83.619 161.978C83.6139 162.03 82.688 161.909 82.688 161.909H82.6897Z" fill="#1D3B54"/>
<path d="M87.1933 153.609C87.1933 153.609 87.4647 155.262 87.9649 156.856C88.4635 158.45 88.9248 158.957 88.7247 159.87C88.5737 160.559 87.7954 161.076 87.6003 160.855C87.4036 160.634 87.3087 157.955 86.203 157.967C85.0956 157.979 86.5337 161.285 85.8757 161.042C85.216 160.799 82.6808 159.406 82.8402 158.055C82.9996 156.704 84.0137 155.728 83.9493 153.711C83.8899 151.88 84.458 151.115 84.458 151.115L87.1967 153.607L87.1933 153.609Z" fill="#EEA886"/>
<path d="M86.3101 157.856C86.3101 157.856 87.7838 158.234 87.6973 163.234L86.0286 162.956C86.0286 162.956 86.0591 160.191 85.5605 158.684C85.5605 158.684 85.6453 157.706 86.3118 157.854L86.3101 157.856Z" fill="#1D3B54"/>
<path d="M92.43 164.364L79.4316 160.664L79.4689 176.722L92.4063 184.499L92.43 164.364Z" fill="#EDDAD3"/>
<path d="M92.4062 184.499L90.7765 184.8L78.1953 176.951L78.3513 160.739L79.4316 160.664L92.4062 184.499Z" fill="#EDDAD3"/>
<path d="M108.929 108.576C108.929 108.576 112.393 110.004 113.012 110.439C113.631 110.873 114.869 115.901 115.178 116.335C115.486 116.768 118.476 120.497 118.062 123.518C117.737 125.893 116.399 127.148 115.534 128.08C114.667 129.01 113.865 134.022 113.594 134.767C113.322 135.512 114.186 145.287 114.186 145.287C114.186 145.287 104.019 149.256 94.9245 142.491C94.9245 142.491 96.7407 135.945 96.7407 134.767C96.7407 133.588 95.5655 125.272 92.4096 120.368C89.2537 115.465 92.9659 110.252 95.379 109.631C97.7921 109.01 102.432 107.273 102.432 107.273L108.929 108.576Z" fill="#EB4747"/>
<path d="M97.8381 108.889C97.8381 108.889 92.749 108.575 90.1968 111.555C87.6446 114.533 87.7837 118.071 87.1342 119.607C86.4847 121.143 84.9991 127.753 84.6752 128.823C84.3497 129.893 84.0325 135.911 83.5696 140.752C83.1049 145.593 83.1999 154.633 83.1999 154.633L88.0686 153.746C88.0686 153.746 88.2653 145.129 88.3891 140.133C88.5129 135.136 92.5659 126.309 94.0972 122.446C95.6285 118.583 101.725 111.313 97.8398 108.889H97.8381Z" fill="#EB4747"/>
<path d="M112.507 110.155C112.507 110.155 114.745 110.298 115.812 112.531C116.878 114.765 117.287 116.624 117.565 117.182C117.843 117.741 121.705 125.098 121.937 126.728C122.169 128.357 121.798 131.336 119.756 132.127C117.715 132.918 110.382 133.011 110.382 133.011C110.382 133.011 112.239 129.228 110.521 127.272C110.521 127.272 115.842 126.308 117.101 126.18C118.43 126.046 110.819 111.829 112.505 110.153L112.507 110.155Z" fill="#EB4747"/>
<path d="M100.319 116.472L110.233 139.698L122.594 133.857L113.452 111.553L100.319 116.472Z" fill="#1D3B54"/>
<path d="M106.005 127.883C106.005 127.883 104.664 128.24 104.238 128.303C103.812 128.364 104.338 129.155 104.86 129.179C105.383 129.203 106.005 127.883 106.005 127.883Z" fill="#EEA886"/>
<path d="M106.906 134.493C106.906 134.493 107.528 134.462 107.794 134.316C107.794 134.316 108.257 134.011 108.6 133.816C108.709 133.754 108.805 133.702 108.871 133.676C109.146 133.564 109.78 133.401 110.364 132.947C110.947 132.492 112.843 130.681 112.843 130.681L111.59 128.786L110.621 127.277C110.621 127.277 106.546 127.389 105.956 127.75C105.899 127.786 105.843 127.823 105.793 127.862C105.322 128.216 105.12 128.677 104.893 128.891C104.81 128.97 104.042 129.812 104.087 130.148C104.152 130.618 104.386 130.917 104.678 131.057C104.678 131.057 104.844 131.97 105.319 132.373C105.319 132.373 105.444 133.22 106.178 133.554C106.178 133.554 106.402 134.399 106.909 134.496L106.906 134.493Z" fill="#EEA886"/>
<path d="M110.521 127.274C110.521 127.274 116.556 126.192 118.225 126.015C118.225 126.015 118.339 123.89 118.035 122.091C117.73 120.291 116.256 117.876 116.256 117.876L119.343 120.711C119.343 120.711 121.88 125.588 121.937 126.729C121.995 127.871 122.295 129.631 120.794 131.416C119.292 133.2 112.203 132.384 112.203 132.384C112.203 132.384 112.795 130.194 110.523 127.275L110.521 127.274Z" fill="#EB4747"/>
<path d="M108.666 105.084C108.666 105.084 108.471 105.661 108.244 106.52C108.127 106.959 108.003 107.471 107.891 108.015C107.584 109.524 107.38 111.293 107.738 112.484C107.738 112.484 104.491 113.511 102.078 108.879C102.078 108.879 103.307 103.997 101.972 100.98C100.638 97.9622 108.666 105.084 108.666 105.084Z" fill="#EEA886"/>
<path d="M115.649 93.4188C115.649 93.4188 111.858 95.858 108.15 96.2663C104.443 96.6762 102.383 102.298 102.383 102.298C102.383 102.298 96.5562 93.196 101.249 87.6014C105.941 82.0068 116.653 86.3393 115.649 93.4171V93.4188Z" fill="#754836"/>
<path d="M106.621 96.0536C106.621 95.3358 105.856 94.237 104.657 95.1844C103.458 96.1319 104.939 99.5849 105.907 99.277C106.875 98.9708 106.621 96.7953 106.621 96.0536Z" fill="#EEA886"/>
<path d="M109.132 108.66C109.132 108.66 110.66 113.183 107.087 113.161C103.514 113.137 101.959 110.318 100.938 107.818C100.938 107.818 102.585 107.017 103.351 106.899C104.116 106.784 109.132 108.66 109.132 108.66Z" fill="#EEA886"/>
<path d="M87.6989 163.017L86.0234 163.235L86.0251 162.45L87.6989 163.017Z" fill="#1D3B54"/>
<path d="M83.6341 161.86L82.7082 161.971C82.7082 161.971 82.7048 161.692 82.7133 161.598C82.7218 161.505 83.6019 161.802 83.6341 161.86Z" fill="#1D3B54"/>
<path d="M105.076 223.266C105.076 223.266 105.545 225.578 106.13 227.192C106.715 228.806 109.454 232.368 109.376 232.834C109.298 233.299 106.266 233.955 104.925 232.882C103.583 231.807 102.349 228.485 102.072 226.437C101.796 224.389 101.942 223.065 101.942 223.065C101.942 223.065 103.785 222.109 105.076 223.268V223.266Z" fill="#EEA886"/>
<path d="M108.532 105.554C108.415 105.993 108.244 106.522 108.11 107.044C105.176 105.057 103.772 102.698 103.772 102.698C105.436 104.295 108.532 105.554 108.532 105.554Z" fill="#A77860"/>
</g>
<defs>
<linearGradient id="paint0_linear_732_2469" x1="24.8456" y1="-32.1897" x2="24.8456" y2="38.0462" gradientUnits="userSpaceOnUse">
<stop stop-color="#D5E4FF"/>
<stop offset="1" stop-color="#EDFFFE"/>
</linearGradient>
<linearGradient id="paint1_linear_732_2469" x1="29.4039" y1="-32.1896" x2="29.4039" y2="38.0463" gradientUnits="userSpaceOnUse">
<stop stop-color="#D5E4FF"/>
<stop offset="1" stop-color="#EDFFFE"/>
</linearGradient>
<linearGradient id="paint2_linear_732_2469" x1="13.9513" y1="252.772" x2="13.9513" y2="21.0345" gradientUnits="userSpaceOnUse">
<stop stop-color="#78C5F1"/>
<stop offset="1" stop-color="#EDFFFE"/>
</linearGradient>
<linearGradient id="paint3_linear_732_2469" x1="104.91" y1="171.947" x2="104.91" y2="-7.86712" gradientUnits="userSpaceOnUse">
<stop stop-color="#78C5F1"/>
<stop offset="1" stop-color="#EDFFFE"/>
</linearGradient>
<linearGradient id="paint4_linear_732_2469" x1="195.868" y1="171.947" x2="195.868" y2="-7.86712" gradientUnits="userSpaceOnUse">
<stop stop-color="#78C5F1"/>
<stop offset="1" stop-color="#EDFFFE"/>
</linearGradient>
<linearGradient id="paint5_linear_732_2469" x1="286.824" y1="171.947" x2="286.824" y2="-7.86712" gradientUnits="userSpaceOnUse">
<stop stop-color="#78C5F1"/>
<stop offset="1" stop-color="#EDFFFE"/>
</linearGradient>
<linearGradient id="paint6_linear_732_2469" x1="116.718" y1="0" x2="116.718" y2="0" gradientUnits="userSpaceOnUse">
<stop stop-color="#D5E4FF"/>
<stop offset="1" stop-color="#EDFFFE"/>
</linearGradient>
<linearGradient id="paint7_linear_732_2469" x1="112.107" y1="-32.1896" x2="112.107" y2="38.0463" gradientUnits="userSpaceOnUse">
<stop stop-color="#D5E4FF"/>
<stop offset="1" stop-color="#EDFFFE"/>
</linearGradient>
<linearGradient id="paint8_linear_732_2469" x1="204.432" y1="0" x2="204.432" y2="0" gradientUnits="userSpaceOnUse">
<stop stop-color="#D5E4FF"/>
<stop offset="1" stop-color="#EDFFFE"/>
</linearGradient>
<linearGradient id="paint9_linear_732_2469" x1="205.744" y1="-32.1896" x2="205.744" y2="38.0463" gradientUnits="userSpaceOnUse">
<stop stop-color="#D5E4FF"/>
<stop offset="1" stop-color="#EDFFFE"/>
</linearGradient>
<linearGradient id="paint10_linear_732_2469" x1="299.009" y1="0" x2="299.009" y2="0" gradientUnits="userSpaceOnUse">
<stop stop-color="#D5E4FF"/>
<stop offset="1" stop-color="#EDFFFE"/>
</linearGradient>
<linearGradient id="paint11_linear_732_2469" x1="296.701" y1="-32.1896" x2="296.701" y2="38.0463" gradientUnits="userSpaceOnUse">
<stop stop-color="#D5E4FF"/>
<stop offset="1" stop-color="#EDFFFE"/>
</linearGradient>
<linearGradient id="paint12_linear_732_2469" x1="377.783" y1="240.348" x2="377.783" y2="69.1234" gradientUnits="userSpaceOnUse">
<stop stop-color="#78C5F1"/>
<stop offset="1" stop-color="#EDFFFE"/>
</linearGradient>
<linearGradient id="paint13_linear_732_2469" x1="13.9517" y1="189.792" x2="28.4237" y2="189.792" gradientUnits="userSpaceOnUse">
<stop stop-color="#D5E4FF"/>
<stop offset="1" stop-color="#EDFFFE"/>
</linearGradient>
<linearGradient id="paint14_linear_732_2469" x1="104.91" y1="188.306" x2="119.38" y2="188.306" gradientUnits="userSpaceOnUse">
<stop stop-color="#D5E4FF"/>
<stop offset="1" stop-color="#EDFFFE"/>
</linearGradient>
<linearGradient id="paint15_linear_732_2469" x1="196.507" y1="188.306" x2="210.978" y2="188.306" gradientUnits="userSpaceOnUse">
<stop stop-color="#D5E4FF"/>
<stop offset="1" stop-color="#EDFFFE"/>
</linearGradient>
<linearGradient id="paint16_linear_732_2469" x1="287.464" y1="188.306" x2="301.936" y2="188.306" gradientUnits="userSpaceOnUse">
<stop stop-color="#D5E4FF"/>
<stop offset="1" stop-color="#EDFFFE"/>
</linearGradient>
<linearGradient id="paint17_linear_732_2469" x1="378.422" y1="189.792" x2="392.894" y2="189.792" gradientUnits="userSpaceOnUse">
<stop stop-color="#D5E4FF"/>
<stop offset="1" stop-color="#EDFFFE"/>
</linearGradient>
<linearGradient id="paint18_linear_732_2469" x1="353.07" y1="98.2564" x2="13.6311" y2="98.2564" gradientUnits="userSpaceOnUse">
<stop stop-color="#D5E4FF"/>
<stop offset="1" stop-color="#EDFFFE"/>
</linearGradient>
<linearGradient id="paint19_linear_732_2469" x1="472.034" y1="101.747" x2="-130.949" y2="108.151" gradientUnits="userSpaceOnUse">
<stop stop-color="#D5E4FF"/>
<stop offset="1" stop-color="#EDFFFE"/>
</linearGradient>
<linearGradient id="paint20_linear_732_2469" x1="69.0366" y1="107.915" x2="113.408" y2="107.915" gradientUnits="userSpaceOnUse">
<stop stop-color="#40D5E6"/>
<stop offset="1" stop-color="#5577FF"/>
</linearGradient>
<linearGradient id="paint21_linear_732_2469" x1="68.6416" y1="108.689" x2="117.586" y2="108.689" gradientUnits="userSpaceOnUse">
<stop stop-color="#40D5E6"/>
<stop offset="1" stop-color="#5577FF"/>
</linearGradient>
<linearGradient id="paint22_linear_732_2469" x1="80.0683" y1="101.144" x2="83.4701" y2="101.144" gradientUnits="userSpaceOnUse">
<stop stop-color="#40D5E6"/>
<stop offset="1" stop-color="#5577FF"/>
</linearGradient>
<linearGradient id="paint23_linear_732_2469" x1="81.3612" y1="107.142" x2="87.2458" y2="107.142" gradientUnits="userSpaceOnUse">
<stop stop-color="#40D5E6"/>
<stop offset="1" stop-color="#5577FF"/>
</linearGradient>
<linearGradient id="paint24_linear_732_2469" x1="92.1957" y1="102.971" x2="93.1471" y2="102.971" gradientUnits="userSpaceOnUse">
<stop stop-color="#40D5E6"/>
<stop offset="1" stop-color="#5577FF"/>
</linearGradient>
<linearGradient id="paint25_linear_732_2469" x1="67.259" y1="78.7392" x2="112.025" y2="78.7392" gradientUnits="userSpaceOnUse">
<stop stop-color="#40D5E6"/>
<stop offset="1" stop-color="#5577FF"/>
</linearGradient>
<linearGradient id="paint26_linear_732_2469" x1="67.1475" y1="78.3309" x2="123.055" y2="78.3309" gradientUnits="userSpaceOnUse">
<stop stop-color="#40D5E6"/>
<stop offset="1" stop-color="#5577FF"/>
</linearGradient>
<linearGradient id="paint27_linear_732_2469" x1="79.2279" y1="83.1385" x2="90.8985" y2="83.1385" gradientUnits="userSpaceOnUse">
<stop stop-color="#40D5E6"/>
<stop offset="1" stop-color="#5577FF"/>
</linearGradient>
<linearGradient id="paint28_linear_732_2469" x1="87.0256" y1="68.9107" x2="87.3342" y2="68.9107" gradientUnits="userSpaceOnUse">
<stop stop-color="#40D5E6"/>
<stop offset="1" stop-color="#5577FF"/>
</linearGradient>
<linearGradient id="paint29_linear_732_2469" x1="70.2523" y1="66.6266" x2="79.7065" y2="66.6266" gradientUnits="userSpaceOnUse">
<stop stop-color="#40D5E6"/>
<stop offset="1" stop-color="#5577FF"/>
</linearGradient>
<linearGradient id="paint30_linear_732_2469" x1="291.83" y1="161.954" x2="325.845" y2="161.954" gradientUnits="userSpaceOnUse">
<stop stop-color="#40D5E6"/>
<stop offset="1" stop-color="#5577FF"/>
</linearGradient>
<linearGradient id="paint31_linear_732_2469" x1="316.783" y1="180.991" x2="347.541" y2="180.991" gradientUnits="userSpaceOnUse">
<stop stop-color="#40D5E6"/>
<stop offset="1" stop-color="#5577FF"/>
</linearGradient>
<linearGradient id="paint32_linear_732_2469" x1="319.411" y1="185.478" x2="342.5" y2="185.478" gradientUnits="userSpaceOnUse">
<stop stop-color="#40D5E6"/>
<stop offset="1" stop-color="#5577FF"/>
</linearGradient>
<linearGradient id="paint33_linear_732_2469" x1="311.074" y1="166.844" x2="337.962" y2="166.844" gradientUnits="userSpaceOnUse">
<stop stop-color="#40D5E6"/>
<stop offset="1" stop-color="#5577FF"/>
</linearGradient>
<linearGradient id="paint34_linear_732_2469" x1="304.905" y1="205.526" x2="329.715" y2="205.526" gradientUnits="userSpaceOnUse">
<stop stop-color="#FF9340"/>
<stop offset="1" stop-color="#FFCE45"/>
</linearGradient>
<linearGradient id="paint35_linear_732_2469" x1="304.905" y1="205.526" x2="329.715" y2="205.526" gradientUnits="userSpaceOnUse">
<stop stop-color="#C97332"/>
<stop offset="1" stop-color="#FFCE45"/>
</linearGradient>
<linearGradient id="paint36_linear_732_2469" x1="104.142" y1="45.2312" x2="276.426" y2="45.2312" gradientUnits="userSpaceOnUse">
<stop stop-color="#FF9F55"/>
<stop offset="1" stop-color="#FFD255"/>
</linearGradient>
<linearGradient id="paint37_linear_732_2469" x1="191.339" y1="69.0469" x2="189.839" y2="34.6395" gradientUnits="userSpaceOnUse">
<stop stop-color="#FF9340"/>
<stop offset="1" stop-color="#FFCE45"/>
</linearGradient>
<linearGradient id="paint38_linear_732_2469" x1="202.558" y1="68.557" x2="201.057" y2="34.1514" gradientUnits="userSpaceOnUse">
<stop stop-color="#FF9340"/>
<stop offset="1" stop-color="#FFCE45"/>
</linearGradient>
<linearGradient id="paint39_linear_732_2469" x1="183.098" y1="66.5719" x2="182.175" y2="50.9231" gradientUnits="userSpaceOnUse">
<stop stop-color="#FF9340"/>
<stop offset="1" stop-color="#FFCE45"/>
</linearGradient>
<linearGradient id="paint40_linear_732_2469" x1="135.995" y1="116.95" x2="135.995" y2="148.198" gradientUnits="userSpaceOnUse">
<stop stop-color="#40D5E6"/>
<stop offset="1" stop-color="#5577FF"/>
</linearGradient>
<linearGradient id="paint41_linear_732_2469" x1="135.97" y1="116.952" x2="135.97" y2="148.198" gradientUnits="userSpaceOnUse">
<stop stop-color="#40D5E6"/>
<stop offset="1" stop-color="#5577FF"/>
</linearGradient>
<linearGradient id="paint42_linear_732_2469" x1="135.97" y1="118.973" x2="135.97" y2="146.335" gradientUnits="userSpaceOnUse">
<stop stop-color="#D3DAE0"/>
<stop offset="1" stop-color="white"/>
</linearGradient>
<linearGradient id="paint43_linear_732_2469" x1="132.243" y1="68.273" x2="132.243" y2="103.625" gradientUnits="userSpaceOnUse">
<stop stop-color="#D3DAE0"/>
<stop offset="1" stop-color="white"/>
</linearGradient>
<linearGradient id="paint44_linear_732_2469" x1="173.746" y1="116.95" x2="173.746" y2="148.198" gradientUnits="userSpaceOnUse">
<stop stop-color="#40D5E6"/>
<stop offset="1" stop-color="#5577FF"/>
</linearGradient>
<linearGradient id="paint45_linear_732_2469" x1="173.72" y1="116.952" x2="173.72" y2="148.198" gradientUnits="userSpaceOnUse">
<stop stop-color="#40D5E6"/>
<stop offset="1" stop-color="#5577FF"/>
</linearGradient>
<linearGradient id="paint46_linear_732_2469" x1="173.721" y1="3.18605e-05" x2="173.721" y2="3.18605e-05" gradientUnits="userSpaceOnUse">
<stop stop-color="#D3DAE0"/>
<stop offset="1" stop-color="white"/>
</linearGradient>
<linearGradient id="paint47_linear_732_2469" x1="211.498" y1="116.95" x2="211.498" y2="148.198" gradientUnits="userSpaceOnUse">
<stop stop-color="#40D5E6"/>
<stop offset="1" stop-color="#5577FF"/>
</linearGradient>
<linearGradient id="paint48_linear_732_2469" x1="211.473" y1="116.952" x2="211.473" y2="148.198" gradientUnits="userSpaceOnUse">
<stop stop-color="#40D5E6"/>
<stop offset="1" stop-color="#5577FF"/>
</linearGradient>
<linearGradient id="paint49_linear_732_2469" x1="211.473" y1="3.18605e-05" x2="211.473" y2="3.18605e-05" gradientUnits="userSpaceOnUse">
<stop stop-color="#D3DAE0"/>
<stop offset="1" stop-color="white"/>
</linearGradient>
<linearGradient id="paint50_linear_732_2469" x1="249.25" y1="116.95" x2="249.25" y2="148.198" gradientUnits="userSpaceOnUse">
<stop stop-color="#40D5E6"/>
<stop offset="1" stop-color="#5577FF"/>
</linearGradient>
<linearGradient id="paint51_linear_732_2469" x1="249.225" y1="116.952" x2="249.225" y2="148.198" gradientUnits="userSpaceOnUse">
<stop stop-color="#40D5E6"/>
<stop offset="1" stop-color="#5577FF"/>
</linearGradient>
<linearGradient id="paint52_linear_732_2469" x1="249.225" y1="3.18605e-05" x2="249.225" y2="3.18605e-05" gradientUnits="userSpaceOnUse">
<stop stop-color="#D3DAE0"/>
<stop offset="1" stop-color="white"/>
</linearGradient>
<linearGradient id="paint53_linear_732_2469" x1="137.571" y1="69.2748" x2="126.313" y2="92.0512" gradientUnits="userSpaceOnUse">
<stop stop-color="#40D5E6"/>
<stop offset="1" stop-color="#5577FF"/>
</linearGradient>
<linearGradient id="paint54_linear_732_2469" x1="401.036" y1="110.429" x2="422.378" y2="110.429" gradientUnits="userSpaceOnUse">
<stop stop-color="#F9CB8E"/>
<stop offset="1" stop-color="#FFC7B8"/>
</linearGradient>
<linearGradient id="paint55_linear_732_2469" x1="389.699" y1="110.204" x2="433" y2="110.204" gradientUnits="userSpaceOnUse">
<stop stop-color="#F9CB8E"/>
<stop offset="1" stop-color="#FFC7B8"/>
</linearGradient>
<linearGradient id="paint56_linear_732_2469" x1="15.4996" y1="183.09" x2="44.6761" y2="183.09" gradientUnits="userSpaceOnUse">
<stop stop-color="#F9CB8E"/>
<stop offset="1" stop-color="#FFC7B8"/>
</linearGradient>
<linearGradient id="paint57_linear_732_2469" x1="0" y1="182.784" x2="59.1991" y2="182.784" gradientUnits="userSpaceOnUse">
<stop stop-color="#F9CB8E"/>
<stop offset="1" stop-color="#FFC7B8"/>
</linearGradient>
<clipPath id="clip0_732_2469">
<rect width="433" height="237" fill="white"/>
</clipPath>
</defs>
</svg>
