<?xml version="1.0" encoding="UTF-8"?><svg id="Layer_2" xmlns="http://www.w3.org/2000/svg" viewBox="0 0 101 61"><defs><style>.cls-1{fill:#fff;stroke:#d4d4d6;stroke-miterlimit:10;}.cls-2{fill:#266fb7;fill-rule:evenodd;stroke-width:0px;}</style></defs><g id="Layer_1-2"><rect class="cls-1" x=".5" y=".5" width="100" height="60" rx="7.82" ry="7.82"/><path id="Path_8" class="cls-2" d="m20.76,58.66h-.29v.44h-.15v-1.02h.44c.19,0,.34.05.34.24,0,.09-.03.18-.1.24.06.05.1.12.1.19v.19s0,.05.05.05v.1h-.19m0-.73c0-.15-.1-.15-.15-.15h-.34v.29h.29m1.02.09s0-.03,0-.05m0,0c-.01-.6-.51-1.08-1.11-1.07,0,0,0,0,0,0-.59,0-1.06.48-1.07,1.07-.01.6.47,1.1,1.07,1.11m.97-1.11c0,.53-.44.92-.97.92-.49.02-.9-.37-.92-.86,0-.02,0-.04,0-.06,0-.51.41-.92.92-.92h0m60.73-18.68c0,1.46-.92,2.13-2.57,2.13h-3.15v-1.46h3.15c.29,0,.53-.05.63-.14.12-.11.19-.27.19-.44,0-.18-.07-.35-.19-.48-.1-.1-.29-.15-.58-.15-1.5-.05-3.4.05-3.4-2.09,0-.97.63-2.04,2.33-2.04h3.25v1.46h-3.01c-.29,0-.48,0-.63.1-.16.13-.24.33-.24.53,0,.24.15.39.34.49.21.06.42.09.63.1h.87c.92,0,1.5.19,1.89.53.29.34.48.78.48,1.46m-6.84-1.46c-.39-.34-.97-.53-1.89-.53h-.87c-.21,0-.43-.04-.63-.1-.19-.1-.34-.24-.34-.49s.05-.39.24-.53c.15-.1.34-.1.63-.1h3.01v-1.46h-3.25c-1.75,0-2.33,1.07-2.33,2.04,0,2.13,1.89,2.04,3.4,2.09.29,0,.48.05.58.15.12.13.19.31.19.48,0,.17-.07.32-.19.44-.15.1-.34.14-.63.14h-3.15v1.46h3.15c1.65,0,2.57-.68,2.57-2.13,0-.68-.19-1.12-.48-1.46Zm-6.21,2.18h-3.83v-1.36h3.73v-1.36h-3.73v-1.26h3.83v-1.41h-5.43v6.79h5.43v-1.41Zm-7.18-5.04c-.53-.29-1.16-.34-1.99-.34h-3.73v6.79h1.65v-2.47h1.75c.58,0,.92.05,1.16.29.29.34.29.92.29,1.36v.82h1.6v-1.31c0-.63-.05-.92-.24-1.26-.22-.27-.5-.47-.82-.58.44-.14,1.16-.73,1.16-1.79,0-.78-.29-1.21-.83-1.5m-9.22-.34h-5.19l-2.09,2.23-1.99-2.23h-6.55v6.79h6.45l2.09-2.23,1.99,2.23h3.15v-2.28h2.04c1.41,0,2.81-.39,2.81-2.28,0-1.84-1.46-2.23-2.72-2.23h0Zm7.91,2.81c-.24.1-.48.1-.78.1l-1.99.05v-1.55h1.99c.29,0,.58,0,.78.15.22.11.35.34.34.58,0,.27-.13.52-.34.68m-7.91.34h-2.13v-1.75h2.13c.58,0,.97.24.97.82s-.39.92-.97.92m-6.26.24l2.52-2.67v5.48l-2.52-2.81Zm-3.93,1.99h-4.03v-1.36h3.59v-1.36h-3.59v-1.26h4.07l1.79,1.99-1.84,1.99Zm35.12-10.28h-2.33l-3.06-5.09v5.09h-3.3l-.63-1.5h-3.4l-.63,1.5h-1.89c-.78,0-1.79-.19-2.38-.78-.53-.58-.82-1.36-.82-2.57,0-1.02.15-1.94.87-2.67.48-.53,1.36-.78,2.47-.78h1.55v1.46h-1.55c-.58,0-.92.1-1.26.39-.29.29-.44.82-.44,1.55s.15,1.26.44,1.6c.24.24.68.34,1.12.34h.73l2.33-5.34h2.43l2.72,6.4v-6.4h2.52l2.86,4.71v-4.71h1.65v6.79h0Zm-19.26-6.79h-1.65v6.79h1.65v-6.79Zm-3.44.29c-.53-.29-1.12-.29-1.94-.29h-3.74v6.79h1.6v-2.47h1.75c.58,0,.97.05,1.21.29.29.34.24.92.24,1.31v.87h1.65v-1.36c0-.58-.05-.87-.29-1.21-.21-.25-.47-.45-.78-.58.72-.31,1.17-1.02,1.16-1.79,0-.78-.34-1.21-.87-1.55h0Zm-6.84,5.09h-3.78v-1.36h3.74v-1.41h-3.74v-1.21h3.78v-1.41h-5.43v6.79h5.43v-1.41Zm-6.65-5.38h-2.67l-1.99,4.61-2.13-4.61h-2.62v6.4l-2.76-6.4h-2.43l-2.91,6.79h1.75l.63-1.5h3.4l.63,1.5h3.3v-5.34l2.38,5.34h1.41l2.38-5.34v5.34h1.65v-6.79h0Zm26.29,3.83l-1.12-2.67-1.12,2.67h2.23Zm-14.07-1.07c-.24.15-.48.15-.82.15h-1.99v-1.5h1.99c.29,0,.63,0,.82.1.19.15.29.34.29.63s-.1.53-.29.63m-26.78,1.07l1.12-2.67,1.12,2.67h-2.23ZM81.01,1.32H23.14v24.45l1.99-4.51h4.22l.58,1.12v-1.12h4.95l1.12,2.43,1.07-2.43h15.77c.73,0,1.36.15,1.84.53v-.53h4.32v.53c.73-.39,1.65-.53,2.72-.53h6.26l.58,1.12v-1.12h4.61l.68,1.12v-1.12h4.51v9.51h-4.56l-.87-1.46v1.46h-5.68l-.63-1.55h-1.41l-.63,1.55h-2.96c-1.16,0-2.04-.29-2.62-.58v.58h-7.03v-2.18c0-.29-.05-.34-.24-.34h-.24v2.52h-13.58v-1.21l-.48,1.21h-2.86l-.48-1.16v1.16h-5.48l-.58-1.55h-1.41l-.63,1.55h-2.81v28.67h57.87v-17.42c-.63.29-1.5.44-2.38.44h-4.22v-.58c-.48.39-1.36.58-2.18.58h-13.29v-2.18c0-.29-.05-.29-.29-.29h-.24v2.47h-4.37v-2.57c-.73.34-1.55.34-2.28.34h-.49v2.23h-5.34l-1.26-1.46-1.41,1.46h-8.59v-9.51h8.73l1.26,1.45,1.36-1.45h5.87c.68,0,1.79.1,2.28.58v-.58h5.24c.53,0,1.55.1,2.23.58v-.58h7.91v.58c.44-.39,1.26-.58,1.99-.58h4.41v.58c.49-.34,1.16-.58,2.04-.58h3.01V1.32Z"/></g></svg>