<?xml version="1.0" encoding="UTF-8"?>
<svg id="Layer_2" data-name="Layer 2" xmlns="http://www.w3.org/2000/svg" viewBox="0 0 218.93 157.36">
  <defs>
    <style>
      .cls-1 {
        fill: #26a5d0;
      }

      .cls-1, .cls-2 {
        stroke-width: 0px;
      }

      .cls-2 {
        fill: #fbfdfd;
      }
    </style>
  </defs>
  <g id="Layer_1-2" data-name="Layer 1">
    <g>
      <path class="cls-1" d="m0,146.67C0,101.34,0,56.02,0,10.69c.14-.15.34-.27.41-.44C3.46,2.63,7.34,0,15.53,0,78.24,0,140.95,0,203.66,0c9.75,0,15.27,5.48,15.27,15.18,0,42.33,0,84.66,0,126.99,0,9.7-5.52,15.19-15.27,15.19-62.78,0-125.56,0-188.34,0-.64,0-1.28,0-1.92,0-5.6-.15-10.49-3.61-12.51-8.82-.25-.63-.2-1.43-.88-1.86Zm101.65-49.23c0,1.33.08,2.32-.02,3.3-.16,1.54.5,1.89,1.95,1.89,18.6-.04,37.19-.04,55.79,0,1.1,0,1.87-.34,2.6-1.13,1.64-1.78,3.4-3.46,5.01-5.26.84-.94,1.38-.86,2.16.06,1.47,1.74,3.09,3.35,4.57,5.09.76.89,1.57,1.25,2.75,1.24,8.91-.04,17.81,0,26.72,0,.51,0,1.14.28,1.63-.44-.5-.56-1.01-1.14-1.53-1.71-6.14-6.75-12.24-13.52-18.44-20.21-1.08-1.16-1.03-1.81.01-2.94,6.26-6.83,12.44-13.73,18.62-20.62.47-.53,1.31-.9,1.16-1.95-9.5,0-18.97,0-28.44-.01-.82,0-1.3.42-1.8.95-1.67,1.76-3.4,3.46-5.02,5.26-.79.88-1.29,1.02-2.11,0-1.39-1.71-2.97-3.28-4.37-4.97-.75-.9-1.55-1.25-2.73-1.25-20.38.03-40.76.04-61.14,0-1.36,0-1.99.44-2.5,1.68-1.45,3.47-3.06,6.87-4.76,10.64-1.73-3.75-3.39-7.12-4.84-10.57-.56-1.34-1.26-1.76-2.69-1.75-7.05.08-14.11.03-21.16.04q-2.77,0-2.78,2.87c0,.59,0,1.18,0,1.78-.97-.97-1.62-1.98-2.05-3.08-.5-1.25-1.28-1.61-2.61-1.6-6.2.07-12.4.06-18.6,0-1.21,0-1.88.29-2.42,1.48-6.66,14.87-13.37,29.72-20.12,44.55-.66,1.46-.59,1.91,1.17,1.89,6.98-.08,13.97-.13,20.95.02,2.25.05,3.35-.58,4.16-2.77,1.89-5.05,2.03-4.95,7.51-4.97,1.32,0,2.11.3,2.55,1.63.51,1.55,1.27,3.02,1.84,4.55.39,1.05.94,1.54,2.18,1.54,8.41-.06,16.82-.05,25.22,0,1.27,0,1.85-.31,1.73-1.66-.09-1-.02-2.01-.02-3.02.9.85,1.4,1.72,1.67,2.66.47,1.64,1.44,2.16,3.13,2.04,2.41-.16,4.88-.31,7.26.02,3.86.53,6.41-.54,7.2-4.61.02-.11.19-.19.62-.61Z"/>
      <path class="cls-2" d="m101.65,97.44c-.43.42-.6.5-.62.61-.79,4.06-3.33,5.14-7.2,4.61-2.38-.33-4.85-.18-7.26-.02-1.7.12-2.66-.4-3.13-2.04-.27-.93-.77-1.8-1.67-2.66,0,1.01-.07,2.02.02,3.02.12,1.35-.46,1.67-1.73,1.66-8.41-.05-16.82-.05-25.22,0-1.24,0-1.78-.48-2.18-1.54-.57-1.53-1.33-3-1.84-4.55-.44-1.33-1.23-1.63-2.55-1.63-5.48.02-5.62-.08-7.51,4.97-.81,2.18-1.91,2.81-4.16,2.77-6.98-.15-13.97-.1-20.95-.02-1.76.02-1.84-.42-1.17-1.89,6.75-14.83,13.46-29.68,20.12-44.55.53-1.19,1.21-1.49,2.42-1.48,6.2.05,12.4.06,18.6,0,1.32-.01,2.11.35,2.61,1.6.44,1.09,1.08,2.1,2.05,3.08,0-.59,0-1.18,0-1.78q0-2.87,2.78-2.87c7.05,0,14.11.04,21.16-.04,1.43-.02,2.13.41,2.69,1.75,1.46,3.45,3.11,6.82,4.84,10.57,1.7-3.77,3.31-7.17,4.76-10.64.52-1.23,1.14-1.68,2.5-1.68,20.38.05,40.76.04,61.14,0,1.18,0,1.99.35,2.73,1.25,1.41,1.7,2.99,3.26,4.37,4.97.82,1.01,1.32.87,2.11,0,1.62-1.8,3.35-3.5,5.02-5.26.5-.53.98-.95,1.8-.95,9.47.02,18.94.01,28.44.01.16,1.06-.68,1.43-1.16,1.95-6.18,6.9-12.36,13.8-18.62,20.62-1.04,1.13-1.09,1.78-.01,2.94,6.2,6.69,12.31,13.46,18.44,20.21.52.57,1.03,1.15,1.53,1.71-.49.72-1.12.44-1.63.44-8.91,0-17.81-.03-26.72,0-1.18,0-1.99-.35-2.75-1.24-1.47-1.74-3.1-3.35-4.57-5.09-.78-.93-1.32-1-2.16-.06-1.62,1.8-3.38,3.48-5.01,5.26-.73.79-1.5,1.13-2.6,1.13-18.6-.03-37.19-.04-55.79,0-1.45,0-2.11-.34-1.95-1.89.1-.97.02-1.96.02-3.3Zm5.67-27.59l.44.14c0,7.98.03,15.95-.03,23.93-.01,1.45.32,2.06,1.87,1.93,1.63-.13,3.28-.08,4.91-.01,1.15.05,1.66-.28,1.65-1.54-.04-10.4-.04-20.8,0-31.2,0-1.2-.39-1.61-1.6-1.59-3.49.07-6.98.08-10.47,0-1.36-.04-1.97.45-2.49,1.7-1.56,3.82-3.29,7.57-4.95,11.34-1.45,3.29-2.9,6.58-4.46,10.14-.48-.94-.81-1.56-1.11-2.19-3.06-6.42-6.15-12.83-9.14-19.29-.6-1.3-1.32-1.75-2.73-1.7-3.2.11-6.42.14-9.61,0-1.84-.09-2.42.39-2.4,2.33.11,8.9.05,17.81.05,26.71v2.18c-.7-.52-1-1.06-1.24-1.63-4.11-9.3-8.24-18.6-12.3-27.93-.53-1.22-1.15-1.72-2.52-1.66-2.92.11-5.85.14-8.76,0-1.61-.08-2.37.47-3,1.93-4.36,10.05-8.83,20.05-13.23,30.08-.3.68-.85,1.32-.65,2.29,2.56,0,5.12-.04,7.68.02.97.02,1.38-.43,1.7-1.24.69-1.72,1.5-3.39,2.13-5.12.38-1.05.98-1.38,2.07-1.36,3.06.06,6.18.38,9.18-.06,5.23-.78,8.55.78,9.57,6.23.23,1.26,1.08,1.59,2.34,1.57,4.56-.07,9.12-.09,13.68,0,1.56.03,1.87-.52,1.86-1.96-.07-7.34-.03-14.67-.03-22.01,0-.66,0-1.33,0-2.18.87.64.99,1.37,1.27,1.99,2.9,6.34,6.08,12.57,8.57,19.07,1.57,4.1,3.75,5.83,8.11,5.13,1.38-.22,2.08-.54,2.65-1.83,3.07-6.96,6.25-13.88,9.4-20.81.52-1.14,1.06-2.27,1.6-3.41Zm82.01-8.31c-3.37,0-6.14.05-8.9-.03-1.11-.03-1.85.37-2.58,1.15-2.72,2.92-5.54,5.74-8.22,8.69-1.02,1.13-1.61,1.36-2.73.05-2.6-3.02-5.41-5.86-8.08-8.82-.68-.75-1.38-1.06-2.4-1.06-10.25.03-20.51.05-30.76-.01-1.51,0-1.92.46-1.91,1.93.05,10.18.06,20.37,0,30.55-.01,1.58.58,1.86,1.99,1.85,9.97-.05,19.94-.05,29.91,0,1.17,0,1.99-.33,2.78-1.18,2.8-3.03,5.71-5.97,8.49-9.02.91-1,1.42-.99,2.31.02,2.67,3.05,5.45,6.02,8.2,9,.42.46.74,1.12,1.48,1.13,3.3.02,6.6,0,10.4,0-4.76-5.15-9.15-9.89-13.54-14.63q-2.22-2.4.06-4.88c4.37-4.76,8.73-9.53,13.5-14.74Z"/>
      <path class="cls-1" d="m107.32,69.85c-.53,1.14-1.08,2.27-1.6,3.41-3.15,6.93-6.33,13.85-9.4,20.81-.57,1.29-1.27,1.61-2.65,1.83-4.36.7-6.54-1.03-8.11-5.13-2.49-6.5-5.67-12.73-8.57-19.07-.29-.62-.4-1.36-1.27-1.99,0,.85,0,1.52,0,2.18,0,7.34-.04,14.68.03,22.01.01,1.43-.3,1.99-1.86,1.96-4.56-.1-9.12-.08-13.68,0-1.26.02-2.11-.31-2.34-1.57-1.01-5.45-4.33-7.01-9.57-6.23-3,.44-6.12.12-9.18.06-1.08-.02-1.68.3-2.07,1.36-.63,1.74-1.44,3.4-2.13,5.12-.32.8-.73,1.26-1.7,1.24-2.56-.06-5.12-.02-7.68-.02-.2-.97.35-1.61.65-2.29,4.4-10.03,8.87-20.03,13.23-30.08.64-1.46,1.39-2.01,3-1.93,2.91.15,5.84.12,8.76,0,1.36-.05,1.99.44,2.52,1.66,4.06,9.33,8.19,18.63,12.3,27.93.25.56.55,1.1,1.24,1.63v-2.18c0-8.9.06-17.81-.05-26.71-.02-1.94.56-2.41,2.4-2.33,3.2.15,6.41.12,9.61,0,1.42-.05,2.13.41,2.73,1.7,2.99,6.46,6.08,12.86,9.14,19.29.3.64.64,1.26,1.11,2.19,1.57-3.55,3.02-6.85,4.46-10.14,1.66-3.78,3.39-7.53,4.95-11.34.51-1.25,1.13-1.73,2.49-1.7,3.49.09,6.98.07,10.47,0,1.21-.02,1.6.38,1.6,1.59-.03,10.4-.04,20.8,0,31.2,0,1.26-.5,1.59-1.65,1.54-1.64-.07-3.28-.12-4.91.01-1.55.13-1.88-.48-1.87-1.93.07-7.98.03-15.95.03-23.93l-.44-.14Zm-60.86-2.5c-1.88,4.43-3.6,8.47-5.33,12.51-.34.79-.16,1.21.77,1.2,3.06-.01,6.12,0,9.18,0,.69,0,1.1-.17.74-1.01-1.75-4.11-3.48-8.22-5.36-12.69Z"/>
      <path class="cls-1" d="m189.32,61.54c-4.77,5.21-9.13,9.98-13.5,14.74q-2.28,2.48-.06,4.88c4.39,4.74,8.77,9.48,13.54,14.63-3.8,0-7.1.01-10.4,0-.73,0-1.06-.67-1.48-1.13-2.75-2.98-5.52-5.95-8.2-9-.89-1.01-1.4-1.02-2.31-.02-2.78,3.05-5.69,5.99-8.49,9.02-.79.86-1.62,1.19-2.78,1.18-9.97-.04-19.94-.05-29.91,0-1.41,0-2-.27-1.99-1.85.06-10.18.06-20.37,0-30.55,0-1.47.4-1.94,1.91-1.93,10.25.06,20.51.04,30.76.01,1.01,0,1.71.31,2.4,1.06,2.67,2.96,5.48,5.8,8.08,8.82,1.13,1.31,1.71,1.07,2.73-.05,2.68-2.95,5.5-5.77,8.22-8.69.73-.78,1.47-1.18,2.58-1.15,2.76.08,5.53.03,8.9.03Zm-46.29,7.05c-2.21,0-4.42,0-6.62,0-4.29,0-4.19,0-4.3,4.23-.05,1.79.62,2.11,2.2,2.07,3.77-.1,7.55-.03,11.32-.03,5.39,0,5.34,0,5.14,5.33-.05,1.34-.55,1.69-1.79,1.67-3.92-.05-7.83-.02-11.75-.02-5.33,0-5.28,0-5.11,5.34.04,1.28.53,1.53,1.65,1.53,5.98-.03,11.97-.03,17.95,0,.93,0,1.61-.28,2.25-.96,2.54-2.7,5.08-5.4,7.7-8.01.87-.87.81-1.39,0-2.24-2.47-2.57-4.88-5.19-7.24-7.85-.74-.83-1.55-1.1-2.62-1.08-2.92.05-5.84.02-8.76.02Z"/>
      <path class="cls-2" d="m46.45,67.35c1.88,4.46,3.61,8.58,5.36,12.69.36.84-.05,1.01-.74,1.01-3.06,0-6.12,0-9.18,0-.93,0-1.11-.41-.77-1.2,1.73-4.04,3.45-8.08,5.33-12.51Z"/>
      <path class="cls-2" d="m143.03,68.6c2.92,0,5.84.03,8.76-.02,1.07-.02,1.88.25,2.62,1.08,2.37,2.66,4.78,5.28,7.24,7.85.82.85.87,1.37,0,2.24-2.62,2.62-5.16,5.31-7.7,8.01-.64.68-1.32.96-2.25.96-5.98-.03-11.97-.03-17.95,0-1.12,0-1.61-.25-1.65-1.53-.17-5.34-.22-5.34,5.11-5.34,3.92,0,7.83-.03,11.75.02,1.24.02,1.74-.33,1.79-1.67.2-5.33.25-5.33-5.14-5.33-3.77,0-7.55-.07-11.32.03-1.58.04-2.24-.27-2.2-2.07.11-4.23,0-4.23,4.3-4.23,2.21,0,4.42,0,6.62,0Z"/>
    </g>
  </g>
</svg>