<?xml version="1.0" encoding="UTF-8"?><svg id="Layer_2" xmlns="http://www.w3.org/2000/svg" viewBox="0 0 101 61"><defs><style>.cls-1{fill:#fff;stroke:#d4d4d6;stroke-miterlimit:10;}.cls-2{fill:#231f20;}.cls-2,.cls-3,.cls-4,.cls-5{stroke-width:0px;}.cls-3{fill:#e2136e;}.cls-4{fill:#d12053;}.cls-5{fill:#9e1638;}</style></defs><g id="Layer_1-2"><rect class="cls-1" x=".5" y=".5" width="100" height="60" rx="7.82" ry="7.82"/><g id="Group_5"><path id="Path_64" class="cls-4" d="m83,32.37l-17.22-2.7,2.28,10.26,14.94-7.56Z"/><path id="Path_65" class="cls-3" d="m83,32.37l-12.97-18.03-4.24,15.33,17.21,2.69Z"/><path id="Path_66" class="cls-4" d="m65.39,29.46l-13.59-17.37,17.8,2.13-4.21,15.25Z"/><path id="Path_67" class="cls-5" d="m59.19,22.2l-7.55-7.11h1.99l5.56,7.11Z"/><path id="Path_68" class="cls-4" d="m86.68,23.6l-3.19,8.67-5.18-7.16,8.37-1.5Z"/><path id="Path_69" class="cls-3" d="m70.08,39.41l12.54-5.04.53-1.6-13.06,6.64Z"/><path id="Path_70" class="cls-5" d="m60.05,48.91l5.37-18.84,2.72,12.26-8.09,6.58Z"/><path id="Path_71" class="cls-3" d="m87.18,23.67l-1.32,3.58,4.75-.08-3.44-3.5Zm-76.79,1.44c.23.02.46.06.71.06s.45-.04.71-.06v7.62c.75-1.28,1.69-2.12,3.08-2.12,2.51,0,3.59,2.49,3.59,4.77,0,2.74-1.46,5.36-4.02,5.36-1.05.02-2.02-.54-2.52-1.45-.43.38-.81.83-1.21,1.24h-.32v-15.42Zm1.39,11.21c0,2.22.94,3.77,2.49,3.77,2.01,0,2.66-2.7,2.66-4.62,0-2.22-.73-3.97-2.47-3.99-2.03-.02-2.67,2.39-2.67,4.84h0Z"/><path id="Path_72" class="cls-2" d="m25.04,30.03l-1.51,1.95c1.42,2.08,2.9,4.11,4.32,6.22l1.44,2.27v.11c-.35-.02-.68-.07-.97-.07s-.68.05-.99.07c-.39-.73-.78-1.4-1.23-2.06l-3.9-5.76c-.09-.09-.3-.16-.3-.07v7.89c-.29-.02-.54-.07-.78-.07s-.53.05-.78.07v-15.48c.25.02.52.07.78.07s.5-.05.78-.07v6.99c0,.14.27.05.44-.14.34-.35.65-.72.95-1.11l4.38-5.75c.23.02.46.07.71.07s.44-.05.69-.07l-4.04,4.93Zm11.78,8.81c0,.81-.05,1.21,1,.95v.45c-.17.09-.35.15-.54.2-.93.19-1.69.02-1.83-1.19l-.16.18c-.63.82-1.6,1.3-2.64,1.3-1.26,0-2.36-.99-2.36-2.52,0-2.35,1.62-2.66,3.29-2.96,1.41-.27,1.89-.39,1.89-1.38,0-1.53-.75-2.41-2.08-2.41-.93-.02-1.78.55-2.12,1.42h-.19v-1.14c.8-.7,1.82-1.1,2.88-1.13,1.87,0,2.88,1.13,2.88,3.46l-.02,4.78Zm-1.42-3.4l-.63.14c-1.21.27-3.03.47-3.03,2.35,0,1.3.65,1.95,1.74,1.95.56-.07,1.08-.35,1.44-.79.13-.15.49-.5.49-.65l-.02-3Zm4.59,3.13c.42.81,1.21,1.53,2.05,1.53.99-.05,1.77-.88,1.75-1.88,0-2.78-4.2-.97-4.2-4.57,0-1.97,1.3-3.04,2.9-3.04.71-.02,1.41.17,2.01.53-.18.48-.32.96-.42,1.46h-.16c-.23-.68-.85-1.36-1.51-1.36-.89,0-1.62.6-1.62,1.71,0,2.63,4.2,1.23,4.2,4.53,0,2.2-1.71,3.25-3.28,3.25-.79,0-1.56-.23-2.22-.65.16-.49.28-1,.37-1.51h.14Zm7.38-13.46c.24.02.47.06.71.06s.45-.04.71-.06v7.5c.62-1.26,1.6-1.99,2.87-1.99,2.06,0,2.87,1.42,2.87,4.01v5.96c-.27-.02-.48-.06-.71-.06s-.48.04-.71.06v-5.49c0-2.27-.46-3.42-1.97-3.42-1.6,0-2.33,1.16-2.33,3.3v5.62c-.27-.02-.48-.06-.71-.06s-.47.04-.71.06v-15.48Z"/></g></g></svg>