<?xml version="1.0" encoding="UTF-8"?><svg id="Layer_2" xmlns="http://www.w3.org/2000/svg" viewBox="0 0 101 61"><defs><style>.cls-1{stroke:#d4d4d6;stroke-miterlimit:10;}.cls-1,.cls-2{fill:#fff;}.cls-3{fill:#1b3771;}.cls-3,.cls-4,.cls-2,.cls-5{fill-rule:evenodd;stroke-width:0px;}.cls-4{fill:#cc2131;}.cls-5{fill:#e9b040;}</style></defs><g id="Layer_1-2"><rect class="cls-1" x=".5" y=".5" width="100" height="60" rx="7.82" ry="7.82"/><g id="Group_2"><path id="Path_2" class="cls-5" d="m50.52,48.91c4.51,4.15,10.42,6.45,16.55,6.44,13.65,0,24.7-11.14,24.7-24.83s-11.05-24.88-24.7-24.88c-6.13,0-12.04,2.29-16.55,6.44-10.17,9.23-10.92,24.96-1.69,35.13.54.59,1.1,1.15,1.69,1.69Z"/><path id="Path_3" class="cls-5" d="m88.5,44.35c0-.42.34-.77.76-.77,0,0,0,0,0,0,.43-.02.79.31.81.74,0,0,0,.02,0,.03.01.43-.32.8-.76.81-.02,0-.04,0-.05,0-.43,0-.77-.35-.77-.78,0,0,0-.02,0-.03m.77.64c.35,0,.63-.29.64-.64-.01-.34-.3-.61-.64-.6-.33,0-.59.27-.6.6,0,.34.3.64.6.64m-.09-.26h-.17v-.73h.3c.06,0,.12,0,.17.04.09.04.09.09.09.17s-.04.17-.13.17l.17.34h-.21l-.09-.3h-.13v-.13h.17s.04-.04.04-.09,0-.04-.04-.09h-.17v.6Z"/><path id="Path_4" class="cls-4" d="m58.5,27.88c-.09-.9-.26-1.75-.43-2.65h-15.1c.18-.88.41-1.75.68-2.6h13.7c-.3-.9-.64-1.78-1.02-2.65h-11.61c.43-.9.9-1.79,1.41-2.65h8.75c-.56-.91-1.19-1.78-1.88-2.6h-4.99c.77-.94,1.61-1.83,2.52-2.65-4.39-3.97-10.2-6.44-16.6-6.44-13.61,0-24.7,11.14-24.7,24.87s11.09,24.83,24.7,24.83c6.14,0,12.07-2.29,16.6-6.44.89-.8,1.72-1.67,2.48-2.6h-4.99c-.67-.85-1.3-1.73-1.88-2.65h8.75c.55-.84,1.04-1.73,1.45-2.65h-11.61c-.4-.85-.76-1.72-1.07-2.6h13.7c.29-.87.53-1.75.72-2.65.19-.87.33-1.76.43-2.65.09-.87.13-1.73.13-2.6,0-.89-.04-1.79-.13-2.64Z"/><path id="Path_5" class="cls-2" d="m88.5,36.28c-.02-.43.31-.79.74-.81,0,0,.02,0,.03,0,.43-.01.8.32.81.76,0,.02,0,.04,0,.05,0,.45-.36.81-.81.81h0c-.43,0-.77-.38-.77-.81m.77.6c.33.02.62-.23.64-.56.02-.33-.23-.62-.56-.64-.03,0-.05,0-.08,0-.33,0-.6.27-.6.6s.27.6.6.6m-.09-.26h-.17v-.68h.47c.09.04.09.13.09.21-.01.07-.06.14-.13.17l.17.3h-.21l-.09-.26h-.13v-.13h.09s.09,0,.09-.04c.04,0,.04-.04.04-.09,0-.02-.02-.04-.04-.04,0,0,0,0,0,0,0-.04-.04,0-.09,0h-.09v.55Z"/><path id="Path_6" class="cls-3" d="m42.12,37.69c-.81.21-1.41.34-2.01.34-1.28,0-2.05-.81-2.05-2.26,0-.31.04-.63.09-.94l.17-.98.13-.81,1.15-7h2.56l-.3,1.54h1.62l-.38,2.56h-1.62l-.68,4.18c-.03.14-.04.28-.04.43,0,.55.26.77.9.77.27,0,.54-.03.81-.09l-.34,2.26Zm8.28-.09c-.89.25-1.81.38-2.73.38-2.9,0-4.57-1.54-4.57-4.56,0-3.54,1.96-6.1,4.69-6.1,2.18,0,3.58,1.45,3.58,3.71,0,.77-.09,1.49-.3,2.52h-5.33c-.03.11-.04.23-.04.34,0,1.19.81,1.79,2.35,1.79.98,0,1.83-.21,2.77-.64l-.43,2.56Zm-1.58-6.1v-.51c0-.85-.47-1.32-1.28-1.32-.85,0-1.45.64-1.71,1.83h2.99Zm-27.18,6.31h-2.65l1.54-9.68-3.46,9.68h-1.83l-.21-9.64-1.62,9.64h-2.6l2.09-12.59h3.88l.09,7.77,2.6-7.77h4.27l-2.09,12.59Zm6.44-4.56c-.17-.03-.34-.05-.51-.04-1.54,0-2.3.6-2.3,1.54,0,.64.38,1.07.98,1.07,1.28,0,1.79-1.07,1.83-2.56h0Zm2.13,4.56h-2.3l.04-1.07c-.6.81-1.41,1.24-2.82,1.24-1.28,0-2.39-1.15-2.39-2.82,0-.45.08-.89.21-1.32.43-1.58,2.01-2.56,4.44-2.6.3,0,.77,0,1.19.04.06-.22.09-.45.08-.68,0-.68-.55-.9-1.79-.9-.75,0-1.5.11-2.22.34l-.38.09-.17.04.38-2.3c1.24-.38,2.13-.55,3.11-.55,2.3,0,3.54,1.07,3.54,3.03.03.67-.02,1.34-.13,2.01l-.6,3.67-.09.64-.04.51-.04.34-.04.3Zm33.07-10.15c.77,0,1.45.21,2.39.68l.47-2.73c-.26-.13-.34-.13-.68-.26l-1.07-.3c-.41-.09-.82-.13-1.24-.13-1.32,0-2.09.04-2.9.51-.58.38-1.11.84-1.58,1.37l-.34-.09-2.73,1.92.13-1.07h-2.82l-1.66,10.24h2.69l.98-5.5s.38-.77.55-1.02c.51-.64.94-.64,1.49-.64h.21c-.09.65-.13,1.31-.13,1.96,0,3.33,1.88,5.42,4.78,5.42.73,0,1.37-.09,2.35-.34l.47-2.9c-.85.47-1.62.68-2.26.68-1.58,0-2.52-1.19-2.52-3.07,0-2.77,1.41-4.74,3.41-4.74m22.66-2.43l-.6,3.58c-.64-.98-1.41-1.45-2.43-1.45-1.41,0-2.73.81-3.54,2.35v-.04l-1.71-1.02.17-1.07h-2.86l-1.62,10.24h2.65l.9-5.5s.68-.77.85-1.02c.29-.37.72-.61,1.19-.64-.32.98-.48,2-.47,3.03,0,2.56,1.32,4.27,3.28,4.27.98,0,1.75-.34,2.47-1.15l-.13,1.02h2.52l2.05-12.59h-2.73Zm-3.28,10.16c-.9,0-1.37-.68-1.37-2.01,0-2.01.85-3.46,2.09-3.46.94,0,1.41.73,1.41,2.01,0,2.05-.85,3.46-2.13,3.46m-12.33-2.13c-.17-.03-.34-.05-.51-.04-1.54,0-2.3.6-2.3,1.54,0,.64.38,1.07.98,1.07,1.28,0,1.79-1.07,1.84-2.56m2.13,4.56h-2.35l.09-1.07c-.6.81-1.41,1.24-2.82,1.24-1.32,0-2.47-1.11-2.47-2.82,0-2.43,1.83-3.92,4.74-3.92.38,0,.77,0,1.15.04.09-.34.13-.47.13-.68,0-.68-.55-.9-1.83-.9-.73,0-1.62.13-2.22.34l-.34.09-.17.04.38-2.3c1.24-.38,2.13-.55,3.12-.55,2.3,0,3.5,1.07,3.5,3.03,0,.51.09.9-.13,2.01l-.55,3.67-.09.64-.09.51-.04.34v.3h0Zm-36.65-8.06c.67,0,1.34.06,2.01.17l.38-2.39c-.77-.09-1.79-.21-2.39-.21-2.99,0-3.97,1.62-3.97,3.5,0,1.24.55,2.13,2.01,2.82,1.07.51,1.24.6,1.24,1.07,0,.64-.55,1.02-1.58,1.02-.83,0-1.65-.14-2.43-.43l-.3,2.35.04.04.51.09c.23.05.45.1.68.13.64.04,1.19.09,1.54.09,2.99,0,4.22-1.15,4.22-3.41,0-1.41-.68-2.26-2.01-2.86-1.15-.51-1.28-.6-1.28-1.07s.51-.9,1.32-.9"/><path id="Path_7" class="cls-2" d="m66.86,24.8l-.47,2.73c-.94-.47-1.62-.68-2.39-.68-2.01,0-3.41,1.96-3.41,4.74,0,1.92.94,3.07,2.52,3.07.64,0,1.41-.21,2.26-.64l-.47,2.86c-.98.26-1.62.38-2.35.38-2.9,0-4.69-2.09-4.69-5.46,0-4.48,2.47-7.64,6.02-7.64.42,0,.83.04,1.24.13l1.07.26c.34.13.43.17.68.25Zm-8.62,1.88h-.26c-.9,0-1.41.43-2.22,1.66l.26-1.58h-2.43l-1.66,10.24h2.69c.98-6.27,1.24-7.34,2.52-7.34h.17c.2-1.03.54-2.02,1.02-2.94l-.09-.04Zm-15.45,10.2c-.61.23-1.26.34-1.92.34-1.37,0-2.13-.77-2.13-2.26,0-.3.04-.6.09-.9l.17-1.02.13-.81,1.15-7h2.65l-.3,1.54h1.37l-.34,2.52h-1.37l-.73,4.27c-.03.14-.05.28-.04.43,0,.51.26.73.9.73.3,0,.55,0,.73-.09l-.34,2.26Zm-10.28-6.87c0,1.28.6,2.18,2.01,2.86,1.11.51,1.28.68,1.28,1.11,0,.64-.47.94-1.54.94-.81,0-1.62-.13-2.39-.38l-.38,2.35.13.04.47.09c.24.06.48.09.73.09.48.06.97.09,1.45.09,2.82,0,4.14-1.07,4.14-3.41,0-1.41-.55-2.22-1.88-2.86-1.15-.51-1.28-.64-1.28-1.11,0-.55.47-.81,1.32-.81.64,0,1.28.05,1.92.13l.38-2.35c-.78-.13-1.56-.2-2.35-.21-2.99,0-4.05,1.58-4.01,3.46h0Zm54.79,7h-2.52l.13-.98c-.73.77-1.49,1.11-2.48,1.11-1.96,0-3.24-1.66-3.24-4.22,0-3.41,2.01-6.32,4.35-6.32,1.07,0,1.83.47,2.56,1.41l.6-3.58h2.65l-2.05,12.59Zm-3.93-2.39c1.24,0,2.09-1.45,2.09-3.46,0-1.32-.47-2.01-1.41-2.01-1.19,0-2.09,1.41-2.09,3.41,0,1.37.47,2.05,1.41,2.05Zm-32.38,2.18c-.9.29-1.83.43-2.77.43-2.99,0-4.52-1.58-4.52-4.61,0-3.5,1.96-6.1,4.65-6.1,2.22,0,3.63,1.45,3.63,3.71,0,.77-.09,1.49-.34,2.56h-5.29c-.03.1-.05.2-.04.3,0,1.19.81,1.79,2.35,1.79.96.02,1.92-.2,2.77-.64l-.43,2.56Zm-1.49-6.1v-.51c0-.85-.47-1.32-1.28-1.32-.85,0-1.45.64-1.71,1.83h2.99Zm-27.18,6.32h-2.65l1.54-9.69-3.46,9.69h-1.83l-.21-9.6-1.62,9.6h-2.47l2.09-12.59h3.84l.13,7.81,2.56-7.81h4.18l-2.09,12.59Zm6.61-4.57c-.26,0-.38-.04-.6-.04-1.49,0-2.26.55-2.26,1.58,0,.64.34,1.02.94,1.02,1.11,0,1.88-1.02,1.92-2.56Zm1.96,4.57h-2.22l.04-1.07c-.68.85-1.58,1.24-2.82,1.24-1.45,0-2.43-1.11-2.43-2.77,0-2.52,1.71-3.97,4.69-3.97.3,0,.68.04,1.11.08.06-.21.09-.42.09-.64,0-.68-.47-.94-1.71-.94-.77,0-1.62.09-2.22.26l-.38.13-.26.04.38-2.3c1.32-.38,2.22-.51,3.2-.51,2.3,0,3.54,1.02,3.54,2.99,0,.51-.04.9-.21,2.05l-.6,3.63-.09.64-.04.51-.04.38-.04.26Zm40.28-4.57c-.3,0-.43-.04-.6-.04-1.54,0-2.3.55-2.3,1.58,0,.64.38,1.02.98,1.02,1.07,0,1.88-1.02,1.92-2.56Zm1.96,4.57h-2.22l.04-1.07c-.68.85-1.58,1.24-2.82,1.24-1.45,0-2.43-1.11-2.43-2.77,0-2.52,1.71-3.97,4.69-3.97.3,0,.68.04,1.07.08.09-.34.13-.47.13-.64,0-.68-.47-.94-1.71-.94-.77,0-1.66.09-2.26.26l-.34.13-.26.04.38-2.3c1.32-.38,2.22-.51,3.2-.51,2.3,0,3.5,1.02,3.5,2.99,0,.51,0,.9-.21,2.05l-.55,3.63-.09.64-.09.51-.04.38v.26h0Zm7.17-10.33h-.26c-.9,0-1.41.43-2.22,1.66l.26-1.58h-2.43l-1.62,10.24h2.65c.98-6.27,1.24-7.34,2.52-7.34h.17c.2-1.03.54-2.02,1.02-2.94l-.09-.04Z"/></g></g></svg>