<?xml version="1.0" encoding="UTF-8"?><svg id="Layer_2" xmlns="http://www.w3.org/2000/svg" viewBox="0 0 101 61"><defs><style>.cls-1{fill:#fff;stroke:#d4d4d6;stroke-miterlimit:10;}.cls-2{fill:#231f20;}.cls-2,.cls-3,.cls-4{stroke-width:0px;}.cls-3{fill:#f6921e;}.cls-4{fill:#ec1c24;}</style></defs><g id="Layer_1-2"><rect class="cls-1" x=".5" y=".5" width="100" height="60" rx="7.82" ry="7.82"/><g id="Group_6"><path id="Path_9" class="cls-4" d="m64.36,24.25h-14.59c-.26,0-.48.2-.49.47,0,0,0,.02,0,.02v1.12c0,.26.2.48.47.49,0,0,.02,0,.02,0h10.88v6.03c-.31-.45-.66-.88-1.05-1.26-1.26-1.33-2.67-1.96-4.07-1.96-1.12,0-2.1.56-2.88,1.61-.63.84-.98,1.89-.98,2.81,0,.98.14,2.18.91,3.3.91,1.33,2.32,1.75,3.58,1.75,1.68,0,3.09-1.19,3.09-2.67,0-.91-.42-1.61-1.26-2.03l-.77-.42v1.19c-.07.35-.7.84-1.33.84-.56,0-1.12-.21-1.4-.56-.21-.28-.35-.63-.28-.98,0-.42.14-.77.49-1.19s.7-.63,1.26-.63c1.47,0,2.67.7,3.65,2.11.77,1.19,1.19,2.39,1.19,3.65v3.02l2.18,1.33c.06.05.13.08.21.07.26,0,.48-.2.49-.47,0,0,0-.02,0-.02v-15.51h.84c.26,0,.48-.2.49-.47,0,0,0-.02,0-.02v-1.12c-.21-.28-.42-.49-.63-.49"/><path id="Path_10" class="cls-4" d="m93.48,24.25h-18.45c-.26,0-.48.2-.49.47,0,0,0,.02,0,.02v2.03c-1.75-1.89-3.37-2.81-4.84-2.81s-2.53.35-3.51,1.05c-.98.77-1.47,1.68-1.47,2.74,0,3.23,3.65,3.23,4.49,2.74.14-.07.35-.21.63-.21.7,0,.98.56.98,1.05,0,.77-1.05,1.4-2.32,1.4-.7,0-1.19-.21-1.47-.63l-.56-.84-.42.98c-.07.21-.21.49-.21.84,0,.77.35,1.47,1.05,2.03.65.54,1.47.84,2.32.84,1.4,0,2.53-.49,3.3-1.47.63-.77.91-1.75.91-2.81,0-.63-.21-1.19-.7-1.89-.56-.84-1.26-1.26-2.1-1.26-.36.02-.71.09-1.05.21-.14-.07-.35,0-.42,0-.2,0-.38-.11-.49-.28-.19-.18-.29-.44-.28-.7,0-.77.77-1.61,2.03-1.61h.07c.84,0,1.68.42,2.53,1.26.63.63,1.19,1.26,1.54,1.96v11.51l2.18,1.26c.06.05.13.08.21.07.26,0,.48-.2.49-.47,0,0,0-.02,0-.02v-15.44h3.3v9.96l2.6,1.05h.14c.21,0,.42-.21.49-.42v-.07c.42-2.95,1.75-4.98,3.93-6.24v.56c0,.42,0,1.47.07,2.1,0,.35,0,.56.07.77,0,1.12.14,2.95.56,4.21.7,2.46,1.96,3.02,2.88,3.09h.07c.56,0,.91-.14,1.19-.42.22-.25.35-.58.35-.91,0-.49-.07-.84-.21-1.05l-.21-.35-.42.07c-.49.14-.63.14-.63.07h-.07q-.14,0-.21-.07c-.14-.07-.42-.35-.63-1.12-.13-.6-.2-1.21-.21-1.82,0-3.23.7-5.68,1.68-6.24h.07c.17-.07.28-.24.28-.42,0-.08-.02-.15-.07-.21v-.07c-.49-.98-1.54-1.68-3.02-2.1h-.28c-1.12.21-2.53.98-4.28,2.46-.42.35-.84.77-1.26,1.12v-4h9.96c.26,0,.48-.2.49-.47,0,0,0-.02,0-.02v-1.12c-.11-.21-.33-.34-.56-.35Z"/><path id="Path_11" class="cls-4" d="m41.13,31.69c.01.47-.01.94-.07,1.4-.14,2.03-.7,3.93-1.47,5.68-.35.7-.7,1.4-1.12,2.03-3.02,4.77-8.35,8-14.45,8-9.38.04-17.01-7.53-17.05-16.91,0-.07,0-.14,0-.21,0-6.67,3.86-12.49,9.47-15.3-.44.58-.84,1.19-1.19,1.82,0,.07-.07.07-.07.14-.21.21-.42.35-.63.56-.28.21-.49.49-.77.77-.07.07-.14.14-.14.21-.07.07-.14.14-.14.21l-.28.28c-.19.19-.35.4-.49.63-.7.91-1.26,1.96-1.75,3.02-.07.14-.07.21-.14.35s-.07.28-.14.35c-.21.14-.21.21-.21.28l-.21.63c-.07.14-.07.28-.14.42,0,.07-.07.14-.07.21,0,.14-.07.28-.07.42-.07.35-.21.77-.21,1.19.01.12-.01.24-.07.35v1.75c-.01,4.47,2,8.7,5.47,11.51,5.23,4.27,12.68,4.5,18.17.56,1.82-1.27,3.31-2.95,4.35-4.91.14-.28.28-.49.42-.77.86-1.85,1.34-3.85,1.4-5.89v-.49c.01-.49-.01-.98-.07-1.47l.07.07c.2.22.44.41.7.56.21-.35.42-.7.7-.98.13.65.22,1.31.28,1.96-.14.56-.07,1.05-.07,1.54"/><path id="Path_12" class="cls-3" d="m39.45,30.01v.49c0,3.02-1.26,5.54-1.4,5.89-.14.28-.28.49-.42.77-1.06,1.94-2.55,3.62-4.35,4.91-5.49,3.94-12.94,3.71-18.17-.56-3.47-2.81-5.48-7.04-5.47-11.51v-1.75c-.01-.12.01-.24.07-.35.07-.42.21-.84.28-1.26,0-.14.07-.28.07-.42,0-.07.07-.14.07-.21.07-.14.07-.28.14-.42.07-.21.14-.35.21-.56,0-.07.07-.14.07-.21.07-.14.07-.28.14-.35.07-.14.07-.21.14-.35.46-1.07,1.05-2.09,1.75-3.02.14-.21.35-.42.49-.63.07-.07.14-.21.28-.28.07-.07.07-.14.14-.21s.14-.14.14-.21c.21-.28.49-.49.77-.77.19-.21.4-.39.63-.56,0,.05-.03.1-.07.14,0,.07-.07.14-.07.21-.84,1.75-1.4,3.79-1.61,6.03-.06.61-.08,1.22-.07,1.82,0,7.79,4.56,14.1,10.24,14.1h.63c.81,0,1.61-.13,2.39-.35,3.93-1.07,6.66-4.63,6.67-8.7v-.28c-.06-2.37-1.07-4.63-2.81-6.24,1.19,0,2.32.21,3.37.49,2.04.55,3.95,1.5,5.61,2.81l.07.07c0,.49.07.98.07,1.47"/><path id="Path_13" class="cls-3" d="m39.45,30.01v.49c0,3.23-1.4,5.89-1.4,5.96-.14.28-.28.49-.42.77-1.05,1.96-2.6,3.65-4.35,4.98-6.71,4.83-16.07,3.3-20.9-3.41-4.63-6.44-3.44-15.38,2.73-20.38l.14-.14c0,.07-.07.07-.07.14,0,.05-.03.1-.07.14-3.44,2.81-5.33,7.02-5.33,11.44s1.96,8.63,5.47,11.51c2.53,2.18,5.82,3.37,9.26,3.37,3.16,0,6.1-.98,8.7-2.81,1.79-1.31,3.27-2.98,4.35-4.91.14-.28.28-.49.42-.77,0,0,1.47-2.74,1.4-5.89v-.49c.01-.47-.01-.94-.07-1.4v-.07l.07.07.07.07v1.33Z"/><path id="Path_14" class="cls-4" d="m35.38,20.75s-12.21-2.32-17.89,8.28c0,0,.98-7.3,9.68-10.67l-1.75-3.23s3.51-3.16,9.61-2.32l.35,7.93Z"/><path id="Path_15" class="cls-3" d="m20.29,26.36s4.84-6.39,16-4.7l-.14-3.72s4.63-.14,8.42,3.09l-4.63,7.02s-3.16-3.72-9.75-3.79c-2.74-.07-6.03.28-9.89,2.1"/><path id="Path_16" class="cls-4" d="m22.89,28.82s-1.05.21-.98-.28c0-.21.14-.28.21-.21,0-.07-.21-.35.28-.49.13-.18.24-.37.35-.56.07-.14.14-.35.56-.21.42.07.84.49.91.63.21,0,.49.07.42.07l-.14.14s.14.07-.28.07c0,.08.07.14.14.14.07.07,0,.07,0,.14,0,0,.07.21-.14.14s-.21-.14-.28-.14-.21,0-.21.07.21.21,0,.21c-.07.07.07.14,0,.14-.07.07-.56.42-.77.49-.21,0-.28-.07-.28-.14s.14-.14.28-.14c-.07,0,0-.07-.07-.07"/><path id="Path_17" class="cls-4" d="m22.82,29.94c-.07,0-.42-.21-.21-.28.14-.14.84-.56.98-.63s.35.14.14.28c-.21.21-.91.63-.91.63"/><path id="Path_18" class="cls-4" d="m23.87,29.45c0-.14.14-.56.14-.63s.35-.14.28.28c-.14.35-.42.49-.42.35"/><path id="Path_19" class="cls-4" d="m24.36,28.61s1.96-.07,2.1,0,.84,1.12.63,2.03c-.14.91-.42,1.12-1.68,1.26,0-.28-.07-1.05-.21-1.26s-.56-.7-.7-.7c0,.21-.07.84-.07.84,0,0-.63.07-.7-.07v-.98s.56-.49.63-.63c.07.07.14.35.77.28,0,.07-.77.14-.77-.77"/><path id="Path_20" class="cls-4" d="m23.59,29.52s-.63.49-.77.63c-.07.14-.14.7.63.7.14-.35.14-1.33.14-1.33"/><path id="Path_21" class="cls-4" d="m22.12,30.29c-.21,0-.35-.07-.35-.21s.28-.35.49-.28c.14.07.49.14.49.77.26.26.61.41.98.42.49,0,.77,0,.77.14v.91s-.56,0-1.96-.98c-.14-.12-.22-.3-.21-.49,0-.21-.14-.28-.21-.28"/><path id="Path_22" class="cls-4" d="m21.7,30.36c-.21,0-.91.56-.42.77l.28-.28s-.14.35.14.42.14-.14.28-.14c.07.14.07.21.21.21s.14-.42,0-.63c-.06-.22-.26-.37-.49-.35"/><path id="Path_23" class="cls-4" d="m24.64,30.43v1.82s.56-.21.63-.35c0-.28-.14-1.47-.63-1.47"/><path id="Path_24" class="cls-4" d="m23.17,31.62s.7.49,1.12.63c-.07.07-.35.49-.49.42-.07,0-.56-.7-.63-1.05"/><path id="Path_25" class="cls-4" d="m19.73,32.32h.98v.35h-.91l-.07-.35Z"/><path id="Path_26" class="cls-4" d="m30.19,32.11h-4l.63.49h3.37v-.49Z"/><path id="Path_27" class="cls-4" d="m25.42,32.11c.07-.07.56.28.42.35s-1.4.56-1.47.56c-.14-.07-.07-.35.07-.42.07-.07.77-.28.98-.49"/><path id="Path_28" class="cls-4" d="m24.01,32.96c-.14-.07-.91.7-.56.77s1.19.21,1.4.35c.21-.07.35-.28.35-.35.14,0,.35.21.56.14s1.19-.77,1.19-.91c-.21-.14-.63-.42-.84-.42-.14-.07-1.4.7-2.1.42"/><path id="Path_29" class="cls-4" d="m23.59,33.94c.07,0,1.12.35,1.33.35.28-.07.28-.28.42-.28s.21.14.42,0c.27-.2.53-.41.77-.63,0,.14,0,.56-.91.98s-3.09,1.05-3.16,1.33c.19-.03.38-.08.56-.14.14.07.35.35.28.84s-.42,1.26-.42,1.47v1.33c0,.07.21.7-.07.63s-.42-.07-.56,0c-.14,0-.35.21-.49.14-.21,0-.49-.14-.49-.21s.21-.07.42-.14.28-.28.63-.42c0-.21-.14-1.96-.14-2.32s-.14-1.12.07-1.4c.14-.42.98-1.61,1.33-1.54"/><path id="Path_30" class="cls-4" d="m24.92,34.92c0,.14.63,1.68.91,1.68s2.88-.56,3.37-.35c.14.21.42.56.42.77,0,0,.07.49,0,.56.14-.01.27-.09.35-.21.07-.14,0-.84,0-.98s.35-.77-.07-.7c-.42,0-1.61,0-2.03-.07-.35-.07-1.26-.28-1.47-.14s-.49.49-.49.56c-.07,0-.14-.07,0-.35.07-.28.42-1.05.35-1.47-.21.07-1.33.7-1.33.7"/><path id="Path_31" class="cls-4" d="m23.45,32.46c.02.11.07.2.14.28l-2.03-.14s-.21-.14-.14-.21l2.03.07Z"/><path id="Path_32" class="cls-4" d="m21.21,32.32h2.03s-.14-.21-.21-.35h-1.89s-.21,0-.21.42c0,.07.14.21.28-.07"/><path id="Path_33" class="cls-4" d="m19.24,32.67h.42s.14-.07,0-.21-.42-.28-.21-.56c-.21,0-.49-.07-.42.56h-.21s-.07-.35-.56-.35-1.68.49-1.68.49c0,0,1.33.35,1.68.35s.56-.35.56-.35h.14s.07.28.14.35v.42c-.11.04-.18.16-.14.27,0,0,0,0,0,0,0,.21.14.21.21.21s.07-.07.28-.07c.07-.07,0-.35-.14-.42v-.28s.14-.14.14-.21c-.07-.14-.21-.07-.21-.21"/><path id="Path_34" class="cls-4" d="m21.7,34.64c.1-.07.17-.17.21-.28v-1.19c0-.28-.49-.49-.56-.49-.08.07-.18.12-.28.14-.13.02-.27-.04-.35-.14-.42,0-.63.49-.63.56s-.07.98,0,1.12c0,.14.14.28.21.35-.07.28-.49,1.89.07,2.1v.28h1.4v-.28c.42-.35.07-1.75-.07-2.18m-1.61-1.47c0-.07.21-.42.49-.42.11.11.27.16.42.14.14,0,.28-.14.35-.14.14.07.42.21.42.42v1.19c0,.07-.07.14-.14.21h-.28v-.56h-.91v.49h-.21c-.09-.07-.14-.17-.14-.28v-1.05m.98,3.3h-.28c-.08,0-.14-.07-.14-.14,0-.07.06-.13.14-.14h.28c.08,0,.14.06.14.14,0,.08-.06.14-.14.14,0,0,0,0,0,0m.56.14l-.7-.77-.63.77c-.42-.14-.14-1.4,0-1.96h1.33c.14.56.35,1.75,0,1.96"/><path id="Path_35" class="cls-4" d="m21.42,35.2c.08-.11.05-.27-.06-.34,0,0,0,0,0,0h-.84c-.28,0-.21.35-.21.35l.49.42c.14,0,.49-.21.63-.42"/><path id="Path_36" class="cls-4" d="m21.06,35.69l.49.56s-.07-.7-.07-.91c-.07.07-.42.35-.42.35"/><path id="Path_37" class="cls-4" d="m20.36,35.34c0,.21-.07.91-.07.91l.49-.56c-.13-.13-.27-.25-.42-.35"/><path id="Path_38" class="cls-4" d="m21.35,33.87h.07v-.07s-.03-.07-.07-.07c0,0,0,0,0,0h-.77s-.07.03-.07.07c0,0,0,0,0,0v.07h.84Z"/><path id="Path_39" class="cls-4" d="m20.22,37.1h-.07v.07s.03.07.07.07c0,0,0,0,0,0h1.4s.07-.03.07-.07c0,0,0,0,0,0v-.07h-1.47Z"/><path id="Path_40" class="cls-3" d="m15.52,32.11s-5.54-12.14,7.37-19.93l3.09,5.68s-2.11.7-4.35,2.67c-2.46,2.11-5.05,5.61-6.1,11.58"/><path id="Path_41" class="cls-2" d="m50.75,46.57v.91l.77-.28.21.21v.28c.01.28-.09.56-.28.77-.14.21-.42.28-.7.28-.33,0-.65-.15-.84-.42-.21-.21-.35-.49-.49-.84l.21-.14c.28.77.63,1.12,1.12,1.12.38,0,.69-.32.7-.7,0-.08-.02-.15-.07-.21l-.7.28-.21-.28v-.98h-1.19v-.21h2.67v.21h-1.19Z"/><path id="Path_42" class="cls-2" d="m52.22,48.67v-2.1h-.35v-.21h.91v.21h-.28v2.1h-.28Z"/><path id="Path_43" class="cls-2" d="m54.25,46.57v.14c.23,0,.45.08.63.21.21.14.35.28.35.49-.01.16-.09.31-.21.42-.13.08-.27.13-.42.14h-.07v-.28h.14c.21,0,.28-.07.28-.28s-.21-.35-.7-.42v1.68h-.28l-.42-.63c-.18-.19-.44-.29-.7-.28l-.07-.35c.14-.14.56-.35,1.19-.7v-.14h-1.26v-.21h2.67v.21h-1.12Zm-.28.42c-.13.05-.24.13-.35.21l-.35.35c.15.08.27.2.35.35.13.13.25.27.35.42v-1.33Z"/><path id="Path_44" class="cls-2" d="m58.96,45.94c-.42-.28-.84-.42-1.12-.42-.25,0-.5.07-.7.21-.21.14-.28.35-.28.63h.28v.21h-.28v2.03h-.28v-2.03h-.28v-.21h.28c0-.32.12-.62.35-.84.21-.21.49-.28.84-.28.21,0,.42.07.7.14.14.07.35.21.63.35l-.14.21Z"/><path id="Path_45" class="cls-2" d="m59.17,46.57v2.1h-.28c-.18-.26-.42-.48-.7-.63-.27-.18-.59-.28-.91-.28l-.07-.35c.14-.14.42-.28.84-.42.14-.07.42-.14.91-.35v-.14h-1.89v-.21h2.46v.21h-.35v.07Zm-.28.42c-.28.07-.7.28-1.26.56.49.21.91.42,1.26.7v-1.26Z"/><path id="Path_46" class="cls-2" d="m59.38,46.36h2.6v.21h-2.6v-.21Zm1.47,2.32c-.28,0-.56-.14-.84-.42-.21-.21-.35-.49-.49-.84l.14-.14c.07.29.21.56.42.77.21.28.42.42.7.42.38,0,.69-.32.7-.7-.21.14-.35.21-.56.21-.15,0-.3-.05-.42-.14-.12-.11-.2-.26-.21-.42.01-.15.06-.29.14-.42.12-.1.27-.15.42-.14.14,0,.21,0,.28.07.09.07.14.17.14.28-.02.11-.07.2-.14.28l-.21-.14q.07-.07.07-.14c0-.08-.07-.14-.14-.14-.14-.02-.26.08-.28.21,0,.02,0,.05,0,.07.03.22.2.39.42.42.22.01.44-.1.56-.28l.28.28c0,.28-.07.56-.28.7-.21.07-.42.21-.7.21"/><path id="Path_47" class="cls-2" d="m62.25,48.67v-2.1h-.35v-.21h.91v.21h-.35v2.1h-.21Z"/><path id="Path_48" class="cls-2" d="m63.87,48.81c-.22,0-.43-.04-.63-.14-.23-.25-.35-.57-.35-.91,0-.23.08-.45.21-.63.11-.21.25-.4.42-.56h-.84v-.21h1.33v.21c-.25.08-.45.26-.56.49-.18.19-.28.44-.28.7,0,.56.21.84.7.84.08,0,.15-.02.21-.07v.28h-.21Z"/><path id="Path_49" class="cls-2" d="m65.62,46.57v2.03h-.28v-1.33c0-.07-.07-.14-.14-.21-.14-.28-.35-.42-.63-.42-.11.02-.2.07-.28.14l-.14.14c.09-.05.18-.07.28-.07.12-.01.24.01.35.07.09.07.14.17.14.28-.01.16-.09.31-.21.42-.14.14-.28.28-.42.28l-.14-.21c.14-.07.21-.14.35-.21.14-.14.21-.21.21-.35,0-.07-.07-.14-.21-.14s-.21-.07-.28-.07h-.07l-.14-.28.28-.28c.14-.07.21-.14.35-.14.28,0,.56.14.77.49v-.49h.49v.21h-.28v.14Z"/><path id="Path_50" class="cls-2" d="m67.94,46.57v2.1h-.28c-.17-.26-.41-.45-.7-.56-.27-.18-.59-.28-.91-.28l-.07-.35c.42-.28.98-.49,1.68-.77v-.14h-1.82v-.21h2.39v.21h-.28Zm-.28.42c-.42.14-.82.33-1.19.56.45.14.86.38,1.19.7v-1.26Zm-.7,1.75c-.12-.13-.26-.22-.42-.28l.14-.21c.16.07.3.16.42.28l-.14.21Z"/><path id="Path_51" class="cls-2" d="m71.8,45.94c-.42-.28-.84-.42-1.12-.42-.25,0-.5.07-.7.21-.21.14-.28.35-.28.63h.28v.21h-.28v2.03h-.28v-2.03h-.28v-.21h.28c0-.32.12-.62.35-.84.21-.21.49-.28.84-.28.21,0,.42.07.7.14.14.07.35.21.63.35l-.14.21Z"/><path id="Path_52" class="cls-2" d="m71.3,46.57v.91l.77-.28.21.21v.28c.01.28-.09.56-.28.77-.14.21-.42.28-.7.28-.33,0-.65-.15-.84-.42-.21-.21-.35-.49-.49-.84l.21-.14c.28.77.63,1.12,1.12,1.12.38,0,.69-.32.7-.7,0-.08-.02-.15-.07-.21l-.7.28-.28-.21v-.98h-1.19v-.21h2.67v.21h-1.12v-.07Z"/><path id="Path_53" class="cls-2" d="m75.09,45.94c-.42-.28-.84-.42-1.12-.42-.25,0-.5.07-.7.21-.21.14-.28.35-.28.63h.28v.21h-.28v2.03h-.28v-2.03h-.28v-.21h.28c0-.32.12-.62.35-.84.21-.21.49-.28.84-.28.21,0,.42.07.7.14.14.07.35.21.63.35l-.14.21Z"/><path id="Path_54" class="cls-2" d="m74.88,46.57c.07.28.28.42.63.42h.14l.21.28c-.14.35-.21.56-.21.7-.01.24.04.48.14.7l-.21.07c-.13-.18-.21-.4-.21-.63-.01-.14.01-.29.07-.42,0-.07.07-.21.14-.42-.21,0-.41-.07-.56-.21-.18-.11-.3-.29-.35-.49-.28.21-.42.42-.42.7-.01.1.06.2.16.21.02,0,.04,0,.05,0,.08,0,.15-.02.21-.07.07-.07.14-.07.14-.14h.21c.07.07.07.21.07.42,0,.56-.28.77-.84.77-.12,0-.24-.02-.35-.07-.07,0-.14-.07-.28-.14-.07-.14-.21-.35-.35-.63l.14-.14c.07.21.21.42.42.7l.21.07c.06.05.13.08.21.07.15-.01.29-.06.42-.14.14-.07.14-.21.14-.35,0-.08-.02-.15-.07-.21-.11.12-.26.2-.42.21-.26,0-.48-.2-.49-.47,0,0,0-.02,0-.02,0-.24.1-.47.28-.63h-1.05v-.21h2.88v.21h-1.05v-.14Z"/><path id="Path_55" class="cls-2" d="m76.43,46.57v1.82h.14c.21,0,.42-.07.7-.21s.42-.35.42-.56c.01-.18-.13-.34-.31-.35-.01,0-.03,0-.04,0-.12.03-.24.08-.35.14l-.14-.21c.14-.14.35-.14.56-.14.16.01.31.09.42.21.08.13.13.27.14.42,0,.21-.14.42-.35.63-.21.14-.42.28-.63.28-.21.07-.42.07-.77.07v-2.11h-.21v-.21h1.61v-.07c0-.15-.08-.28-.21-.35-.13-.08-.27-.13-.42-.14-.28,0-.55.11-.77.28l-.07-.21c.27-.18.59-.28.91-.28.23,0,.45.08.63.21.14.14.28.35.28.56h.28v.21h-1.82Z"/><path id="Path_56" class="cls-2" d="m78.39,48.67v-2.1h-.35v-.21h.98v.21h-.35v2.1h-.28Z"/><path id="Path_57" class="cls-2" d="m81.41,46.57v2.1h-.28v-.42c0-.49-.14-.7-.35-.7-.07,0-.14.07-.21.14s-.07.14-.07.28h-.28c0-.07-.07-.21-.07-.28-.12-.15-.34-.19-.49-.07-.03.02-.05.04-.07.07-.07.07-.07.21-.07.28,0,.28.14.35.49.35h.07l-.07.28h-.07c-.39,0-.7-.33-.69-.71,0-.38.31-.68.69-.69.21,0,.35.14.49.35.14-.21.35-.35.49-.35s.28.14.35.35v-.91h-2.25v-.21h2.74v.21h-.35v-.07Z"/><path id="Path_58" class="cls-2" d="m83.02,47.76c-.01.14.01.29.07.42.04.16.18.28.35.28.08,0,.15-.02.21-.07l.07.21c-.07.07-.21.07-.28.07-.42,0-.7-.35-.7-1.05,0-.42.28-.84.77-1.26h.42v.21c-.26.05-.48.2-.63.42-.19.21-.3.49-.28.77"/><path id="Path_59" class="cls-2" d="m86.25,46.57v2.1h-.28v-.42c0-.49-.14-.7-.35-.7-.07,0-.14.07-.21.14s-.07.14-.07.28h-.28c0-.07-.07-.21-.07-.28-.12-.15-.34-.19-.49-.07-.03.02-.05.04-.07.07-.07.07-.07.21-.07.28,0,.28.14.35.49.35h.07l-.07.28h-.07c-.39,0-.7-.33-.69-.71,0-.38.31-.68.69-.69.21,0,.35.14.49.35.14-.21.35-.35.49-.35s.28.14.35.35v-.91h-2.25v-.21h2.74v.21h-.35v-.07Z"/><path id="Path_60" class="cls-2" d="m88.57,46.57v2.1h-.28v-.14c0-.21-.14-.42-.35-.63s-.49-.35-.63-.35c-.07,0-.21,0-.28.07s-.14.14-.14.21,0,.21.07.21c.07.07.14.07.28.07.08,0,.15-.02.21-.07l.07.28c-.07.07-.21.07-.35.07-.16-.01-.31-.09-.42-.21-.08-.13-.13-.27-.14-.42,0-.15.04-.3.14-.42.11-.12.26-.2.42-.21.42,0,.77.21,1.05.7v-1.33h-1.89v-.21h2.39v.21h-.14v.07Z"/><path id="Path_61" class="cls-2" d="m89.83,48.81c-.22,0-.44-.04-.63-.14-.23-.25-.35-.57-.35-.91,0-.23.08-.45.21-.63.11-.21.25-.4.42-.56h-.84v-.21h1.33v.21c-.25.08-.45.26-.56.49-.18.19-.28.44-.28.7,0,.56.21.84.7.84.08,0,.15-.02.21-.07v.28h-.21Z"/><path id="Path_62" class="cls-2" d="m90.11,46.57v.91c.42-.28.77-.49,1.05-.56l.28.35c-.14.35-.21.56-.21.77.02.19.07.38.14.56l-.21.07c-.07-.28-.14-.42-.14-.56-.01-.28.01-.57.07-.84-.38.19-.73.43-1.05.7l-.21-.21v-1.19h-.21v-.21h2.03v.21h-1.54Z"/><path id="Path_63" class="cls-2" d="m93.69,46.57v2.1h-.28v-.14c0-.21-.14-.42-.35-.63s-.49-.35-.63-.35c-.07,0-.21,0-.28.07s-.14.14-.14.21,0,.21.07.21c.07.07.14.07.28.07.08,0,.15-.02.21-.07l.07.28c-.07.07-.21.07-.35.07-.16-.01-.31-.09-.42-.21-.11-.11-.16-.27-.14-.42,0-.15.04-.3.14-.42.11-.12.26-.2.42-.21.42,0,.77.21,1.05.7v-1.33h-1.89v-.21h2.39v.21h-.14v.07Z"/></g></g></svg>