<?xml version="1.0" encoding="UTF-8"?><svg id="Layer_2" xmlns="http://www.w3.org/2000/svg" viewBox="0 0 101 61"><defs><style>.cls-1{fill:#fff;stroke:#d4d4d6;stroke-miterlimit:10;}.cls-2{fill-rule:evenodd;}.cls-2,.cls-3{fill:#8b3392;stroke-width:0px;}</style></defs><g id="Layer_1-2"><rect class="cls-1" x=".5" y=".5" width="100" height="60" rx="7.82" ry="7.82"/><g id="Group_1"><path id="Path_73" class="cls-2" d="m69.93,11.87l-11.8,11.8.83,6.63,2.17-4.56,6.73,8.59,9.42-28.99-31.38,13.05,8.49,4.45,15.53-10.98Z"/><path id="Path_74" class="cls-3" d="m59.68,32.58h-12.43c-9.47,1.45-10.46,15.22-.1,17.09h12.53v-12.43c4.18.14,5.04,5.35,1.97,7.25.62.72,3.11,3.42,3.11,3.42,6.52-5.63,2.8-14.88-5.07-15.33m-4.55,12.43h-6.94c-4.3.26-5.7-6.83-.41-7.77h7.35v7.77Z"/><path id="Path_75" class="cls-2" d="m85.67,38.8h-4.56l-1.97,4.56h5.8c1.17-.05,1.22,1.66,0,1.76h-10.04v-7.87h15.43v-4.66h-2.28c-.67-9.63-12.19-9.91-15.22-4.66.6.49,3.42,3,3.42,3,1.73-2.72,6.55-2.59,7.25,1.66h-13.15v17.09h14.81c3.37-.05,4.92-2.54,5.28-4.66.21-3.42-1.86-5.7-4.76-6.21"/><path id="Path_76" class="cls-2" d="m41.35,32.58h-6.01c-1.92,2.33-5.23,11.75,1.35,18.85,0,0,2.85-2.43,3.42-2.9-2.02-1.97-5.38-9.99,1.24-15.95"/><path id="Path_77" class="cls-2" d="m26.06,51.59c0,2.08-1.69,3.76-3.76,3.76-2.08,0-3.76-1.69-3.76-3.76,0-2.08,1.69-3.76,3.76-3.76,2.08,0,3.76,1.69,3.76,3.76h0"/><path id="Path_78" class="cls-2" d="m18.05,32.58c-9.47,1.45-10.46,15.22-.1,17.09h.07c1.06-2.36,3.84-3.42,6.2-2.36,1.05.47,1.89,1.31,2.36,2.36h3.9v-17.09h-12.43Zm7.87,12.43h-6.94c-4.3.26-5.7-6.83-.41-7.77h7.35v7.77Z"/><path id="Path_79" class="cls-2" d="m22.5,28.55c1.53-.26,2.28-3.39-.21-4.09h-4.04v5.95h1.66v-1.86l1.86,1.86h2.59l-1.86-1.86Zm-.2-2.1c0,.22-.18.39-.39.39h-1.98v-.83h1.98c.22,0,.39.18.39.39v.04Z"/><path id="Path_80" class="cls-2" d="m27.25,24.36c-1.67,0-3.02,1.35-3.02,3.02s1.35,3.02,3.02,3.02c1.67,0,3.02-1.35,3.02-3.02s-1.35-3.02-3.02-3.02h0m0,4.34c-.73,0-1.33-.59-1.33-1.33s.59-1.33,1.33-1.33c.73,0,1.33.59,1.33,1.33s-.59,1.33-1.33,1.33h0"/><path id="Path_81" class="cls-2" d="m44.37,26.07h2.71v-1.75h-2.29c-1.8,0-3.28,1.36-3.28,3.03s1.48,3.03,3.28,3.03h2.29v-1.75h-2.71c-.38,0-.75-.18-.98-.48h3.69v-1.59h-3.69c.23-.3.6-.48.98-.48"/><path id="Path_82" class="cls-2" d="m33.59,28.63c-.69,0-1.24-.56-1.24-1.24v-.07c0-.69.56-1.24,1.24-1.24h2.58v-1.75h-2.31c-1.8,0-3.28,1.36-3.28,3.03s1.48,3.03,3.28,3.03h2.31v-1.75h-2.58Z"/><path id="Path_83" class="cls-2" d="m53.38,24.44h-5.84v1.56h2.14v4.28h1.56v-4.28h2.14v-1.56Z"/><path id="Path_84" class="cls-3" d="m39.47,27.34l2.88-2.9h-2.33l-1.62,1.63v-1.63h-1.56v5.84h1.56v-1.68l1.66,1.68h2.33l-2.92-2.95Z"/><path id="Path_85" class="cls-3" d="m63,52.57c-.28.07-.53.24-.68.49-.18.23-.28.5-.28.79,0,.16.03.32.1.47.08.19.2.29.34.29.1-.01.2-.05.28-.12l.16.43c-.13.08-.28.13-.43.13-.2,0-.39-.08-.54-.21-.13-.13-.23-.29-.29-.47-.05-.16-.08-.33-.07-.51v-.16c0-.35.19-.75.56-1.2.13-.14.26-.27.4-.39h.59v.43c-.06,0-.11.01-.15.02"/><path id="Path_86" class="cls-3" d="m65.62,52.55v2.46h-.49v-.32c0-.11-.08-.25-.25-.42-.12-.13-.25-.24-.4-.34-.15-.1-.32-.16-.5-.16-.17,0-.33.08-.4.24-.01.02-.02.04-.02.07,0,.07.04.14.1.18.05.05.12.08.2.08.13-.02.26-.06.37-.11l.15.45c-.17.1-.36.15-.55.17-.16,0-.32-.05-.45-.14-.13-.09-.24-.21-.3-.36-.03-.08-.04-.16-.04-.24-.01-.26.12-.5.35-.64.15-.1.33-.16.51-.16h.05c-.01-.11-.06-.21-.14-.29-.06-.09-.15-.15-.26-.16h-.54v-.3h-.22v-.43h3.17v.43h-.34Zm-.49,0h-1.16c.3.17.49.48.51.83.25.11.47.28.65.49v-1.32Z"/><path id="Path_87" class="cls-3" d="m66.57,52.55v2.46h-.49v-2.46h-.36v-.43h1.18v.43h-.33Z"/><path id="Path_88" class="cls-3" d="m68.95,52.55h-2.22v-.43h3.07v.43h-.34v2.46h-.44c-.04-.13-.25-.32-.64-.59-.2-.13-.42-.24-.65-.32-.22-.09-.46-.15-.7-.16l-.13-.49c.3-.19.62-.35.95-.47.22-.1.58-.24,1.09-.43m.03.53c-.09.03-.19.07-.29.11-.15.07-.43.19-.84.37l-.09.04c.4.14.78.35,1.11.6.05.03.08.06.12.09v-1.21Z"/><path id="Path_89" class="cls-3" d="m70.41,52.55v2.46h-.49v-2.46h-.36v-.43h1.18v.43h-.33Z"/><path id="Path_90" class="cls-3" d="m70.57,52.55v-.43h1.45s0-.02,0-.04c.01-.21-.12-.39-.32-.45-.03,0-.06-.01-.09-.01-.07,0-.13.01-.19.03-.1.03-.17.04-.19.05-.08.01-.15.04-.22.08-.09.06-.18.11-.28.15l-.16-.37c.23-.15.48-.26.74-.33.12-.04.24-.06.37-.06.15,0,.29.05.41.13.26.16.4.43.41.81h.28v.43h-2.22Zm1.71,2.87c-.2-.18-.41-.35-.64-.5-.17-.1-.35-.19-.54-.25-.11-.05-.23-.08-.35-.11v-.58s.11,0,.2,0c.09,0,.15,0,.19,0,.18,0,.37-.02.54-.09.26-.11.4-.24.4-.39,0-.11-.06-.22-.15-.28-.1-.06-.2-.11-.3-.17-.03-.01-.05-.02-.08-.02-.07,0-.13.02-.19.05-.09.04-.13.09-.12.14.02.13.15.18.4.16l-.27.41c-.12,0-.23-.03-.33-.1-.18-.1-.3-.29-.3-.5,0-.2.12-.38.31-.46.18-.09.37-.14.58-.14.08,0,.17.01.24.05.07.03.14.06.21.1.31.13.51.44.5.77,0,.24-.11.47-.31.6-.2.13-.43.22-.67.25.09.04.21.11.38.21.24.17.46.36.67.57l-.36.27Z"/><path id="Path_91" class="cls-3" d="m75.73,52.55v2.46h-.49v-.98c0-.1-.04-.19-.11-.26-.05-.08-.14-.13-.23-.13-.09,0-.17.06-.22.14-.07.09-.11.21-.1.32h-.53c0-.13-.03-.25-.11-.35-.05-.09-.14-.14-.24-.15-.08,0-.16.03-.22.08-.06.04-.11.11-.12.19l-.02.13v.05c0,.25.15.38.46.38.08,0,.17-.01.25-.03l-.17.5c-.1.01-.16.02-.18.02-.24,0-.46-.09-.64-.26-.09-.08-.15-.18-.19-.3-.04-.11-.07-.23-.07-.35,0-.24.08-.47.25-.65.17-.17.4-.26.64-.25.25,0,.49.14.62.35.18-.24.38-.35.59-.35.13,0,.25.06.33.16v-.73h-2.66v-.43h3.43v.43h-.28Z"/><path id="Path_92" class="cls-3" d="m79.42,52.55h-2.22v-.43h3.07v.43h-.34v2.46h-.43c-.04-.13-.25-.32-.64-.59-.2-.13-.42-.24-.65-.32-.22-.09-.46-.15-.7-.16l-.13-.49c.3-.19.62-.35.95-.47.22-.1.58-.24,1.09-.43m.03.53c-.09.03-.19.07-.29.11-.15.07-.43.19-.84.37l-.09.04c.4.14.78.35,1.11.6.05.03.08.06.12.09v-1.21Z"/><path id="Path_93" class="cls-3" d="m81.1,52.55c-.13.15-.21.34-.23.53.06.27.14.53.24.78.07.18.11.37.12.57,0,.29-.16.49-.48.6-.17.05-.35.08-.52.09l.07-.42c.29-.06.44-.16.44-.31-.02-.21-.08-.42-.18-.61-.1-.19-.16-.4-.18-.61.02-.22.09-.43.21-.61h-.51v-.43h1.37v.43h-.34Z"/><path id="Path_94" class="cls-3" d="m82.15,52.55v2.46h-.49v-2.46h-.36v-.43h1.18v.43h-.33Z"/><path id="Path_95" class="cls-3" d="m83.29,53.72c-.21,0-.41-.07-.55-.22-.14-.15-.22-.35-.21-.56,0-.2.07-.39.21-.53.14-.14.33-.22.53-.21.28,0,.53.17.63.43.05.11.08.24.08.36.01.19-.05.38-.18.53-.14.14-.32.21-.51.19m.54,1.59c-.62-.52-1.05-.84-1.27-.95v-.68c.86.61,1.42,1.1,1.69,1.47v.51l-.42-.35Zm-.44-2.59s-.09-.05-.15-.04c-.19.03-.28.12-.28.28,0,.08.03.16.09.22.05.06.13.1.21.1h.07c.12-.03.21-.14.21-.27,0-.12-.06-.22-.15-.29"/><path id="Path_96" class="cls-3" d="m87.33,51.83c-.57-.36-1.04-.54-1.41-.54-.43,0-.75.14-.95.41-.08.13-.12.27-.11.42h.35v.43h-.35v2.46h-.5v-2.46h-.33v-.43h.33c0-.32.12-.62.35-.85.25-.23.56-.37.89-.4.04,0,.11-.01.22-.03h.1c.31,0,.61.07.89.19.16.07.42.22.79.45l-.28.35Z"/><path id="Path_97" class="cls-3" d="m86.93,52.55v.02c.23.02.45.08.64.19.31.17.47.4.47.7,0,.16-.05.32-.16.44-.11.13-.25.21-.41.25-.14.04-.29.04-.43.02v-.46c.05,0,.1.01.16.01.25,0,.37-.09.37-.27,0-.21-.21-.34-.64-.4v1.96h-.43c-.06-.11-.13-.22-.21-.32-.02-.03-.09-.11-.19-.24-.05-.06-.11-.12-.17-.17-.06-.05-.12-.11-.17-.17-.03-.03-.07-.05-.12-.07-.17-.06-.34-.1-.52-.11l-.13-.49c.11-.08.35-.22.73-.44.03-.02.14-.09.35-.2.07-.04.2-.12.37-.21v-.04h-1.55v-.43h3.38v.43h-1.33Zm-.49.57c-.08.06-.2.14-.37.25-.05.03-.1.06-.14.1-.05.05-.11.1-.15.15.05.05.14.11.25.2.11.12.25.27.41.45v-1.15Z"/><path id="Path_98" class="cls-3" d="m88.99,53.72c-.21,0-.41-.07-.55-.22-.14-.15-.22-.35-.21-.56,0-.2.07-.39.21-.53.14-.14.33-.22.53-.21.28,0,.53.17.63.43.05.11.08.24.08.36.01.19-.05.38-.18.53-.14.14-.32.21-.51.19m.54,1.59c-.62-.52-1.05-.84-1.27-.95v-.68c.86.61,1.42,1.1,1.69,1.47v.51l-.42-.35Zm-.44-2.59s-.09-.05-.15-.04c-.19.03-.28.12-.28.28,0,.08.03.16.09.22.05.06.13.1.21.1h.07c.12-.03.21-.14.21-.27,0-.12-.06-.22-.15-.29"/><path id="Path_99" class="cls-3" d="m34.62,55.22l.92.31.37-.31-.92-.32-.37.32Z"/><path id="Path_100" class="cls-3" d="m34.93,52.68v-.55h-7.2v.55h1.21v1.24h1.04s.3-.1.37-.24v.49c0,.21-.15.39-.37.41h-1.53c-.09,0-.18-.04-.18-.41v-1.15h-.54v1.48c0,.12.08.55.46.55h2.07c.32-.01.55-.34.57-.62v-1.42h-.49c-.05.22-.02.37-.24.42h-.61v-.75h1.77v2.36h.61v-2.36h.43v2.36h2.02c.34,0,.62-.29.61-.64v-1.4h-.49c0,.14-.02.34-.24.34h-1.34v-.67h2.08Zm-.79,1.16c.09.03.21-.12.31-.24v.57c0,.22-.17.41-.31.41h-1.28v-.73h1.28Z"/><rect id="Rectangle_2" class="cls-3" x="35.6" y="53.35" width="1.22" height=".65"/><path id="Path_101" class="cls-3" d="m37.49,52.12v.55h2.01v.33h-2.01v1.32c.04.43.26.72.68.72h1.82v-2.36h.43v2.36h.55v-2.92h-3.48Zm2.01,2.53h-1.22c-.18-.03-.31-.24-.31-.49v-.65h1.53v1.14Z"/><path id="Path_102" class="cls-3" d="m43.61,52.68h2.49v.33h-.73c-.01.13-.13.23-.27.22-.12-.01-.21-.1-.22-.22h-1.27v1.4c0,.14.02.58.39.64h1v-.47h-.67c-.15-.03-.26-.17-.24-.33v-.73h.67v.41h.61v-.33c-.04-.15.64-.14.67,0v1.45h.55v-2.36h.37v2.36h.55v-2.92h-3.9v.55Z"/><path id="Path_103" class="cls-3" d="m42.75,52.29h-1.3v.77c.05.24.18.55.63.57h1.04v-.95c-.02-.2-.17-.35-.37-.39m-.4.82c-.23,0-.42-.09-.42-.19s.19-.19.42-.19.42.09.42.19-.19.19-.42.19"/><path id="Path_104" class="cls-3" d="m41.53,53.91v.48l1.57.65v-.51l-1.57-.62Z"/><path id="Path_105" class="cls-3" d="m55.91,52.29h-1.3v.77c.05.24.18.55.63.57h1.04v-.95c-.02-.2-.17-.35-.37-.39m-.4.82c-.23,0-.42-.09-.42-.19s.19-.19.42-.19.42.09.42.19-.19.19-.42.19"/><path id="Path_106" class="cls-3" d="m54.69,53.91v.48l1.57.65v-.51l-1.57-.62Z"/><path id="Path_107" class="cls-3" d="m59.24,53.01v-.33h1.01v-.55h-3.51v.55h2.01v.33h-2.01v1.32c.04.43.26.72.68.72h1.82v-1.45h.49c.08,0,.1-.04.12.08v.24c-.03.12-.04.2-.12.24h-.18v.49h.36c.18-.03.32-.16.37-.33v-1.32h-1.04Zm-.49,1.64h-1.22c-.18-.03-.31-.24-.31-.49v-.65h1.52v.08h0v1.06Z"/><path id="Path_108" class="cls-3" d="m49.16,52.12v.55h2.01v.33h-2.01v1.32c.04.43.26.72.68.72h1.82v-2.36h.64l-.23.46v.33h.43c.23.03.31.18.31.57,0,.27-.06.47-.27.49h-.4v.49h.43c.12,0,.68.05.73-.49.06-1.1.11-1.39-.67-1.47l.11-.38h.86v2.36h.55v-2.92h-4.98Zm2.01,2.53h-1.22c-.18-.03-.31-.24-.31-.49v-.65h1.53v1.14Z"/></g></g></svg>