<?xml version="1.0" encoding="UTF-8"?><svg id="Layer_2" xmlns="http://www.w3.org/2000/svg" viewBox="0 0 101 61"><defs><style>.cls-1{fill:#fff;stroke:#d4d4d6;stroke-miterlimit:10;}.cls-2,.cls-3,.cls-4{stroke-width:0px;}.cls-3{fill:#144a95;}.cls-4{fill:#fdd500;}</style></defs><g id="Layer_1-2"><rect class="cls-1" x=".5" y=".5" width="100" height="60" rx="7.82" ry="7.82"/><path class="cls-2" d="m51.3,47.71c-1.7,1.08-3.36,2.19-5.06,3.21-.78.47-1.61.28-2.23-.34-.44-.44-.61-.93-.39-1.55.19-.53.34-1.09.44-1.64.15-.81-.06-1.56-.53-2.24-.1-.14-.21-.28-.29-.44-.72-1.29-.34-2.51,1.07-2.95,2.16-.68,4.24-.4,6.17.85.24.16.46.34.69.5.01,0,.04,0,.14-.04,0-.36,0-.74,0-1.13,0-.48.21-.74.71-.74,1.87,0,3.74,0,5.6,0,.46,0,.67.23.67.7,0,3.3,0,6.59,0,9.89,0,.5-.21.72-.71.72-1.98-.02-1.82.2-1.82-1.72,0-2.11,0-4.22,0-6.33,0-.75-.04-.74-1.01-.77-.59-.02-.87.11-.86.8.04,2.37.02,4.75.01,7.12,0,.74-.15.89-.87.9-1.79,0-1.74.15-1.72-1.7,0-1.07,0-2.14,0-3.08Zm-5.18.34c.19,0,.31.02.4-.02,1.31-.64,2.44-1.52,3.42-2.61.31-.34.06-.57-.22-.73-1.05-.59-2.19-.87-3.39-.85-.63.01-.74.27-.35.77.55.72.67,1.5.44,2.35-.09.33-.18.67-.29,1.1Z"/><path class="cls-2" d="m35.64,43.66c-1.02,0-2.03-.02-3.04,0-.58.02-.84-.18-.84-.79,0-1.69-.02-1.69,1.68-1.69,1.34,0,2.68,0,4.02,0,.42,0,.88-.04.87-.56,0-.53-.43-.73-.93-.69-.96.08-1.92.25-2.88.26-.57,0-1.18-.14-1.71-.37-.88-.38-1.07-1.78-.35-2.41.15-.13.56-.2.7-.09,1.29.97,2.67.58,4.05.37.45-.07.93-.12,1.37-.05,1.58.26,2.35,1.56,1.9,3.13-.03.1-.05.21-.1.4.4,0,.77,0,1.13,0,.5,0,.77.2.77.75-.02,1.9.19,1.73-1.67,1.73-.66,0-1.32.01-1.98,0-.37-.01-.55.08-.57.5-.07,1.66.17,1.87,1.78,1.51.45-.1.89-.23,1.35-.31.55-.09,1.03.2,1.05.73.04,1.01.13,2.04-.06,3.02-.34,1.79-1.69,2.72-3.32,3.22-1.31.4-2.65.33-3.96-.04-1.91-.55-3.16-2.28-3.26-4.56-.04-.85.05-1.71.13-2.56.05-.47.34-.75.86-.69.15.02.31,0,.46,0,.88,0,.96.12,1,.98.05.92.12,1.84.27,2.74.18,1.03.86,1.64,1.9,1.68.75.03,1.52-.04,2.26-.17.34-.06.7-.32.92-.59.22-.28.28-.69.42-1.04-.31-.01-.63-.05-.94-.03-.54.05-1.09.2-1.63.19-1.15,0-1.57-.46-1.59-1.62-.01-.92-.01-1.85-.02-2.77,0-.04-.03-.08-.08-.2Z"/><path class="cls-2" d="m69.34,46.41c0,1.41,0,2.81,0,4.22-.01,1.36-1,2.17-2.28,1.77-1.95-.61-3.92-.65-5.93-.54-1.42.08-1.91-.4-1.92-1.83,0-.04,0-.09,0-.13,0-1.95,0-1.93,1.82-2.65.35-.14.88-.48.88-.72-.01-.57-.61-.56-1.07-.62-1.25-.16-1.6-.53-1.63-1.78-.02-.73,0-1.45,0-2.18,0-.53.26-.75.77-.75,2.86,0,5.72,0,8.57,0,.56,0,.79.25.78.8-.01,1.47,0,2.95,0,4.42Zm-5.02-2.74c-.53,0-1.06-.02-1.58,0-.17,0-.33.13-.5.2.09.16.15.4.29.48.32.18.68.28,1.03.42,1.41.56,1.64,2.09.44,3.02-.36.28-.81.43-1.19.69-.2.14-.32.37-.47.57.22.1.43.27.65.29,1.09.11,2.18.17,3.27.27.44.04.61-.15.59-.56-.02-.44-.07-.87-.08-1.31-.03-1.05-.05-2.11-.07-3.16-.02-.59-.27-.95-.93-.92-.48.02-.97,0-1.45,0Z"/><path class="cls-2" d="m64.01,56.18c-.95,0-1.72-.75-1.72-1.7,0-.97.73-1.7,1.7-1.71.97,0,1.72.74,1.73,1.69,0,.94-.77,1.71-1.71,1.72Z"/><path class="cls-3" d="m65.45,29.26s0,.01,0,.01c-1.52,1.95-3.49,3.59-5.78,4.8-2.42,1.16-5.27,1.59-7.96,1.64,1.36-.58,2.31-1.94,2.31-3.52,0-1.94-1.43-3.54-3.29-3.79,5-.18,9.01-3.79,9.21-8.29,0-.11,0-.23,0-.34,0-.24-.01-.48-.03-.71,0-.4,0-.86.03-1.24.07-.93,1.36-1.59,1.36-1.59h5.21c1.15.18,1.5,1.41,1.5,1.41.64,6.52-2.39,11.36-2.56,11.63Z"/><circle class="cls-4" cx="36.89" cy="9.22" r="4.4"/><circle class="cls-3" cx="63.69" cy="9.22" r="4.4"/><path class="cls-4" d="m54.01,32.19c0,1.58-.95,2.94-2.31,3.52-1.11.02-2.18-.02-3.2-.1-3.61-.28-6.37-1.01-6.47-1.04,0,0,0,0,0,0-3.67-1.67-6.64-4.42-8.38-7.78h0s-.03-.06-.05-.09c-1.32-2.59-1.09-9.05-1.09-9.05.03-1.06,1.31-1.46,1.31-1.46h5.19c1.01.11,1.51,1.31,1.51,1.31l.22,1.6c-.17.79,0,1.74.23,2.55,0,0,0,0,0,0,.16.64.39,1.25.7,1.82,0,0,0,.01,0,.02,0,0,0,.01,0,.02,0,0,0,0,0,0,1.47,2.74,4.51,4.68,8.07,4.87.19.01.39.02.58.02.13,0,.26,0,.39,0,1.86.26,3.29,1.86,3.29,3.79Z"/></g></svg>