<?xml version="1.0" encoding="UTF-8"?><svg id="Layer_2" xmlns="http://www.w3.org/2000/svg" viewBox="0 0 101 61"><defs><style>.cls-1{fill:#fff;stroke:#d4d4d6;stroke-miterlimit:10;}.cls-2{fill:#0057a0;stroke-width:0px;}</style></defs><g id="Layer_1-2"><rect class="cls-1" x=".5" y=".5" width="100" height="60" rx="7.82" ry="7.82"/><g id="Group_3"><path id="Path_1" class="cls-2" d="m61.2,19.05c-5.02,0-9.51,2.6-9.51,7.41,0,5.51,7.96,5.89,7.96,8.66,0,1.17-1.34,2.21-3.62,2.21-1.98-.01-3.92-.51-5.66-1.46l-1.04,4.85s2.79,1.23,6.49,1.23c5.49,0,9.81-2.73,9.81-7.62,0-5.83-7.99-6.2-7.99-8.77,0-.91,1.1-1.91,3.37-1.91,2.57,0,4.66,1.06,4.66,1.06l1.01-4.69s-2.28-.98-5.5-.98m-45.93.35l-.12.71s2.11.39,4.01,1.16c2.45.88,2.62,1.4,3.04,3l4.5,17.33h6.03l9.28-22.19h-6.01l-5.96,15.09-2.43-12.79c-.22-1.46-1.35-2.3-2.74-2.3h-9.58Zm29.15,0l-4.72,22.19h5.73l4.7-22.19h-5.72,0Zm31.97,0c-1.38,0-2.11.74-2.65,2.03l-8.4,20.16h6.01l1.16-3.36h7.32l.71,3.36h5.3l-4.63-22.19h-4.83Zm.78,6l1.78,8.33h-4.77l2.99-8.33Z"/></g></g></svg>