<svg xmlns="http://www.w3.org/2000/svg" width="52" height="49" viewBox="0 0 52 49" fill="none">
  <path d="M36.1771 0.0217266C36.3423 0.0153829 36.5076 0.0036019 36.673 0.0036019C41.4658 0.00224255 46.2584 0.00133632 51.0512 0.00246911C51.6708 0.00246911 51.6078 -0.0688967 51.6078 0.555724C51.6087 10.6779 51.6081 20.8001 51.6087 30.922C51.6087 34.5449 50.6827 37.9043 48.67 40.9248C46.011 44.9145 42.335 47.466 37.6604 48.5582C37.5298 48.5888 37.4037 48.6522 37.2631 48.6282C37.2631 47.2131 37.2629 45.798 37.2627 44.383C37.3163 44.3571 37.3677 44.3229 37.4241 44.3068C40.1089 43.5424 42.3656 42.1004 44.1633 39.9678C46.2817 37.455 47.4011 34.5467 47.4063 31.2496C47.4203 22.3914 47.4115 13.533 47.4103 4.67478C47.4103 4.11427 47.471 4.17703 46.8961 4.17658C43.4584 4.17477 40.0208 4.17545 36.5834 4.17409C36.4179 4.17409 36.2525 4.16344 36.087 4.158C36.087 3.01524 36.0893 1.87271 36.0845 0.729948C36.0836 0.487983 36.0945 0.250777 36.1771 0.0215V0.0217266Z" fill="#FF6E1F"/>
  <path d="M8.04392 39.3333C7.90064 39.4003 7.74762 39.3759 7.59846 39.3759C5.23284 39.3759 2.86722 39.3734 0.501825 39.3741C-0.0323685 39.3741 0.00543263 39.3605 0.00543263 38.8788C0.00543263 31.8661 -0.0101867 24.8535 0.0115432 17.8408C0.0239927 13.8722 1.23385 10.2851 3.60988 7.10084C4.4612 5.95989 5.44742 4.94604 6.54297 4.03845C6.6111 3.98204 6.6935 3.94261 6.76933 3.89526C6.77114 5.57814 6.77295 7.26079 6.77498 8.94366C6.77498 9.07892 6.77453 9.21417 6.7811 9.3492C6.78743 9.4797 6.88363 9.52003 6.99319 9.54132C6.91148 9.66729 6.83406 9.79643 6.74759 9.91922C5.05628 12.3214 4.20089 14.9835 4.20723 17.9301C4.21877 23.4364 4.21063 28.9429 4.21063 34.4491C4.21063 34.5699 4.20881 34.6907 4.21108 34.8112C4.21545 35.0456 4.33308 35.1653 4.56396 35.1703C4.65428 35.1721 4.74482 35.1705 4.83536 35.1705C5.73964 35.17 6.64415 35.1685 7.54843 35.1705C7.71344 35.171 7.87823 35.1873 8.04324 35.1963C8.04369 36.5754 8.04415 37.9544 8.04437 39.3333H8.04392Z" fill="#FF6E1F"/>
  <path d="M17.9024 48.9815C17.4567 48.9872 17.0108 48.998 16.5651 48.9976C15.9558 48.9967 15.3462 48.9872 14.7369 48.9815C14.7367 39.0873 14.7362 29.1932 14.7357 19.299C14.7357 19.1483 14.7346 18.9974 14.731 18.8468C14.729 18.7659 14.6882 18.7049 14.6196 18.6626C14.6647 18.5679 14.7025 18.4689 14.7557 18.3789C15.6939 16.7976 16.849 15.3936 18.2189 14.1692C18.6333 13.7991 19.0417 13.4173 19.5267 13.135C19.5281 14.7495 19.5292 16.3641 19.5308 17.9786C19.5308 18.0994 19.5297 18.2201 19.5363 18.3406C19.5426 18.4575 19.6141 18.5323 19.7155 18.5815C19.5897 18.7496 19.4659 18.9188 19.338 19.0853C17.4588 21.5315 16.468 24.2903 16.4504 27.3821C16.4366 29.7943 16.4477 32.2067 16.4477 34.6191C16.4477 34.7396 16.4452 34.8606 16.4508 34.9809C16.4578 35.1293 16.492 35.1685 16.6419 35.1701C17.1389 35.1751 17.636 35.1712 18.1331 35.1753C18.2976 35.1766 18.4647 35.1506 18.6263 35.2063C18.6261 36.5813 18.6256 37.9563 18.6254 39.3313C18.4812 39.3942 18.3287 39.3689 18.1793 39.3698C17.7578 39.3727 17.3361 39.37 16.9144 39.3707C16.8091 39.3707 16.7037 39.3716 16.5986 39.3786C16.514 39.3843 16.461 39.4325 16.456 39.5207C16.4511 39.6108 16.4481 39.7012 16.4481 39.7916C16.4477 41.3288 16.4477 42.866 16.4481 44.4032C16.4481 44.4936 16.4468 44.5842 16.4538 44.6742C16.4601 44.7576 16.5058 44.8144 16.5948 44.8183C16.715 44.8235 16.8354 44.8235 16.9558 44.8258C17.3017 44.8321 17.6476 44.8382 17.9932 44.8443C17.911 45.0738 17.8997 45.311 17.9006 45.553C17.9054 46.6958 17.9027 47.8387 17.9027 48.9817L17.9024 48.9815Z" fill="#FF6E1F"/>
  <path d="M14.6197 18.6626C14.6883 18.705 14.729 18.7659 14.731 18.8468C14.7347 18.9975 14.7358 19.1483 14.7358 19.299C14.7362 29.193 14.7367 39.0873 14.7369 48.9815C13.9847 48.9867 13.2326 48.9942 12.4806 48.9958C12.3109 48.996 12.2803 48.9573 12.2731 48.7763C12.2679 48.6408 12.2706 48.5051 12.2706 48.3696C12.2706 45.5523 12.2706 42.7353 12.2706 39.9181C12.2706 39.3422 12.3127 39.37 11.7425 39.3703C10.6739 39.3707 9.60526 39.3705 8.53642 39.368C8.37209 39.3675 8.20481 39.3915 8.0441 39.3338C8.04365 37.9547 8.0432 36.5757 8.04297 35.1966C8.20798 35.1898 8.37299 35.1773 8.53801 35.1771C9.60639 35.1748 10.6748 35.1751 11.7429 35.1746C12.3204 35.1744 12.2703 35.212 12.2703 34.6311C12.271 32.2817 12.271 29.9323 12.2703 27.5826C12.2703 26.784 12.2957 25.9865 12.4028 25.1943C12.6547 23.332 13.1656 21.5446 13.977 19.848C14.1708 19.4426 14.3435 19.024 14.6197 18.6628V18.6626Z" fill="#FF6E1F"/>
  <path d="M37.2629 44.3833C37.2629 45.7984 37.2631 47.2135 37.2634 48.6285C36.6816 48.7942 36.0809 48.8422 35.4842 48.9124C34.5996 49.0166 33.711 48.9992 32.8228 48.9987C31.3322 48.9978 29.8417 48.9987 28.3512 48.9972C28.1859 48.9972 28.0207 48.987 27.8554 48.9813C27.855 48.0096 27.8604 47.0379 27.8516 46.0662C27.8478 45.647 27.8453 45.2327 28.0354 44.8448C28.2006 44.8387 28.3661 44.8274 28.5313 44.8271C30.2195 44.8255 31.9074 44.8276 33.5955 44.8244C34.4709 44.8228 35.3403 44.7499 36.2011 44.5847C36.5549 44.5167 36.9089 44.4504 37.2629 44.3833Z" fill="#FF6E1F"/>
  <path d="M6.9934 9.54153C6.88384 9.52046 6.78764 9.48013 6.7813 9.3494C6.77474 9.21438 6.77542 9.07912 6.77519 8.94386C6.77293 7.26099 6.77134 5.57834 6.76953 3.89547C6.88656 3.73212 7.06198 3.63674 7.21771 3.52074C9.40428 1.89269 11.8396 0.826735 14.5119 0.300441C14.5552 0.291831 14.6018 0.300441 14.6469 0.300894C14.6466 1.42553 14.6462 2.54994 14.6462 3.67457C14.6462 3.82455 14.6507 3.97454 14.6462 4.12429C14.641 4.29489 14.7154 4.41021 14.8689 4.47795C14.758 4.56812 14.6152 4.56789 14.4875 4.60097C11.8752 5.27906 9.65825 6.61711 7.82343 8.59293C7.53777 8.90059 7.26977 9.2248 6.99385 9.5413L6.9934 9.54153Z" fill="#FF6E1F"/>
  <path d="M36.1775 0.0217782C36.0949 0.251282 36.0838 0.488262 36.085 0.730226C36.0897 1.87276 36.0872 3.01552 36.0874 4.15828C35.9679 4.16417 35.8484 4.17527 35.7289 4.17527C33.3445 4.17595 30.9603 4.1755 28.5759 4.17414C28.4564 4.17414 28.3367 4.16394 28.2171 4.15851C28.2169 3.25658 28.2149 2.35442 28.2169 1.45249C28.2178 1.01886 28.1809 0.582283 28.3038 0.156354C28.3158 0.114667 28.3063 0.0666367 28.307 0.0215516C28.4415 0.0154345 28.5761 0.00410661 28.7106 0.00410661C31.0651 0.0025207 33.4199 0.00206759 35.7744 0.00274726C35.9089 0.00274726 36.0433 0.015208 36.1778 0.0217782H36.1775Z" fill="#FF6E1F"/>
  <path d="M28.3066 0.0215749C28.3061 0.06666 28.3154 0.11469 28.3034 0.156377C28.1805 0.582307 28.2174 1.01888 28.2165 1.45252C28.2145 2.35445 28.2165 3.2566 28.2167 4.15853C28.0972 4.16465 27.9779 4.17597 27.8584 4.1762C25.7148 4.17665 23.5715 4.1762 21.4279 4.17461C21.3084 4.17461 21.1889 4.16419 21.0694 4.15853C21.0694 3.25637 21.0674 2.35445 21.0694 1.45229C21.0703 1.01866 21.0336 0.58208 21.1563 0.156151C21.1683 0.114464 21.1588 0.0664335 21.1593 0.0213484C21.2788 0.0152313 21.3983 0.0039034 21.5176 0.0039034C23.6611 0.00231749 25.8047 0.00163781 27.9483 0.00209093C28.0676 0.00209093 28.1871 0.0147782 28.3064 0.0215749H28.3066Z" fill="#FF6E1F"/>
  <path d="M21.1595 0.021505C21.1591 0.0665901 21.1686 0.11462 21.1566 0.156307C21.0339 0.582463 21.0706 1.01881 21.0697 1.45245C21.0676 2.3546 21.0694 3.25653 21.0697 4.15869C20.9198 4.1648 20.7698 4.17568 20.6199 4.1759C19.7627 4.17726 18.9055 4.18111 18.0483 4.17454C17.2649 4.16865 16.4865 4.21193 15.7139 4.34854C15.4332 4.39816 15.1505 4.43531 14.8687 4.47813C14.715 4.41016 14.6406 4.29507 14.6458 4.12425C14.6505 3.97449 14.6458 3.82451 14.6458 3.67453C14.6458 2.5499 14.6462 1.42549 14.6464 0.300851C14.9862 0.24036 15.3237 0.160838 15.6659 0.123683C16.2481 0.060473 16.831 0.000208553 17.4186 0.00224758C18.5909 0.00655218 19.7634 0.00224758 20.9357 0.00270069C21.0104 0.00270069 21.0848 0.0147083 21.1595 0.0212785V0.021505Z" fill="#FF6E1F"/>
  <path d="M28.0354 44.8447C27.8453 45.2326 27.8478 45.6469 27.8516 46.0661C27.8604 47.0378 27.855 48.0095 27.8555 48.9812C27.7511 48.9873 27.6468 48.9986 27.5424 48.9986C25.7006 48.9993 23.8587 48.9986 22.0169 48.9973C21.9126 48.9973 21.808 48.9871 21.7036 48.9814C21.7032 48.0491 21.7018 47.1171 21.703 46.1848C21.7034 45.736 21.6724 45.2849 21.7933 44.844C21.8827 44.8381 21.9721 44.8268 22.0615 44.8268C23.9635 44.8252 25.8656 44.8245 27.7676 44.8252C27.857 44.8252 27.9462 44.8379 28.0356 44.8445L28.0354 44.8447Z" fill="#FF6E1F"/>
  <path d="M21.7928 44.8441C21.6719 45.2847 21.7032 45.736 21.7025 46.1848C21.7014 47.1171 21.7027 48.0492 21.7032 48.9815C21.5096 48.9876 21.3163 48.9985 21.1228 48.9987C20.1982 49.0003 19.2733 48.9998 18.3486 48.998C18.1999 48.9978 18.0512 48.9871 17.9025 48.9815C17.9025 47.8385 17.905 46.6957 17.9004 45.5527C17.8995 45.3105 17.9108 45.0736 17.993 44.8441C18.1268 44.8377 18.2606 44.8264 18.3943 44.8262C19.3935 44.8243 20.3928 44.8239 21.3919 44.8253C21.5257 44.8253 21.6593 44.8375 21.793 44.8443L21.7928 44.8441Z" fill="#FF6E1F"/>
  <path d="M28.2281 13.9212C27.3571 14.0793 26.4922 14.2608 25.6545 14.556C23.412 15.3462 21.4966 16.6252 19.9096 18.3973C19.8503 18.4635 19.7806 18.5203 19.7156 18.5815C19.6142 18.5323 19.5427 18.4578 19.5364 18.3407C19.5298 18.2204 19.5312 18.0994 19.5309 17.9786C19.5293 16.3642 19.5282 14.7495 19.5269 13.135C19.7736 12.8901 20.0717 12.7134 20.3592 12.5254C22.3576 11.2177 24.5352 10.3522 26.8797 9.91133C27.3209 9.82841 27.765 9.74844 28.2166 9.73462C28.2163 10.2299 28.2143 10.7251 28.2159 11.2202C28.2188 12.1205 28.2238 13.0206 28.2279 13.921L28.2281 13.9212Z" fill="#FF6E1F"/>
  <path d="M18.6264 35.206C18.6701 35.1973 18.7138 35.181 18.7575 35.1808C20.0407 35.1731 21.3236 35.167 22.6068 35.1606C22.4201 35.5347 22.4185 35.9343 22.4226 36.341C22.4325 37.3308 22.426 38.3207 22.426 39.3107C22.1734 39.33 21.921 39.364 21.6681 39.3658C20.7718 39.3724 19.8756 39.3683 18.9793 39.3669C18.8604 39.3669 18.7396 39.3798 18.6255 39.3309C18.6257 37.9559 18.6262 36.5809 18.6264 35.206Z" fill="#FF6E1F"/>
  <path d="M28.2285 13.9212C28.2244 13.0208 28.2194 12.1207 28.2165 11.2204C28.2149 10.7251 28.2167 10.2298 28.2171 9.73481C28.7556 9.67024 29.295 9.6213 29.8383 9.6213C32.8524 9.62221 35.8665 9.6213 38.8806 9.62085C38.9861 9.62085 39.0916 9.62176 39.1969 9.62515C39.282 9.62787 39.3388 9.67001 39.344 9.75905C39.3501 9.8644 39.3512 9.96998 39.3512 10.0753C39.3515 13.8917 39.3605 17.7081 39.349 21.5244C39.3372 25.4004 38.186 28.9132 35.9057 32.0442C34.2259 34.3504 32.1029 36.147 29.5585 37.4406C29.5062 37.4674 29.4469 37.4805 29.391 37.5C29.3901 35.8987 29.3892 34.2973 29.3883 32.696C29.539 32.5732 29.688 32.4477 29.841 32.3281C32.1412 30.5283 33.7311 28.2362 34.5892 25.4423C34.9856 24.1518 35.1761 22.8283 35.175 21.4769C35.1732 19.1091 35.1746 16.7411 35.1746 14.3734C35.1746 14.3131 35.1741 14.2526 35.1746 14.1923C35.1784 13.7852 35.1743 13.795 34.7769 13.7952C33.1797 13.7959 31.5823 13.7839 29.9852 13.8006C29.3992 13.8067 28.8138 13.8792 28.2282 13.9214L28.2285 13.9212Z" fill="#FF6E1F"/>
  <path d="M29.3881 32.696C29.389 34.2973 29.3899 35.8987 29.3908 37.5C28.8876 37.806 28.3387 38.0124 27.7925 38.2213C26.5517 38.6962 25.2692 39.0195 23.9538 39.1985C23.4488 39.2671 22.9411 39.3591 22.4257 39.3106C22.4257 38.3208 22.4325 37.3307 22.4223 36.3409C22.4182 35.9342 22.4196 35.5346 22.6066 35.1605C23.1668 35.0543 23.7361 35.0096 24.2958 34.8916C26.0216 34.5273 27.6117 33.8494 29.0798 32.8764C29.179 32.8107 29.2645 32.7203 29.3879 32.6958L29.3881 32.696Z" fill="#FF6E1F"/>
</svg>