<svg width="19" height="18" viewBox="0 0 19 18" fill="none" xmlns="http://www.w3.org/2000/svg">
<path d="M9.65809 0C4.86387 0 0.976562 3.88557 0.976562 8.67765C0.976562 12.2301 3.11594 15.2827 6.17385 16.627C6.1506 16.0227 6.16997 15.2944 6.325 14.6358C6.49166 13.9307 7.4412 9.90569 7.4412 9.90569C7.4412 9.90569 7.16215 9.35172 7.16215 8.53431C7.16215 7.24816 7.90628 6.28742 8.83644 6.28742C9.62708 6.28742 10.0069 6.88013 10.0069 7.58907C10.0069 8.38323 9.49918 9.56866 9.23951 10.6689C9.02247 11.5909 9.70072 12.3385 10.6115 12.3385C12.2548 12.3385 13.3633 10.2272 13.3633 7.72466C13.3633 5.82255 12.0804 4.40081 9.7511 4.40081C7.11952 4.40081 5.47623 6.3649 5.47623 8.55756C5.47623 9.31297 5.70102 9.84758 6.04983 10.2582C6.20873 10.448 6.23199 10.5255 6.17385 10.7425C6.13122 10.9013 6.0382 11.2848 5.99557 11.4398C5.93743 11.6606 5.75915 11.7381 5.56149 11.6567C4.34841 11.1608 3.78256 9.83596 3.78256 8.34061C3.78256 5.87678 5.8638 2.92096 9.98752 2.92096C13.3013 2.92096 15.4833 5.31893 15.4833 7.89124C15.4833 11.2964 13.5881 13.8377 10.7975 13.8377C9.85962 13.8377 8.97984 13.3303 8.67754 12.7569C8.67754 12.7569 8.1737 14.7559 8.06518 15.1433C7.88302 15.8135 7.52259 16.4798 7.19315 17.0028C7.99227 17.2384 8.82104 17.3584 9.65421 17.3592C14.4485 17.3592 18.3358 13.4736 18.3358 8.68152C18.3358 3.88945 14.4523 0 9.65809 0Z" fill="white"/>
</svg>
