<svg width="23" height="20" viewBox="0 0 23 20" fill="none" xmlns="http://www.w3.org/2000/svg">
<g clip-path="url(#clip0_109_1270)">
<path d="M21.5132 0C21.5942 0.0229508 21.672 0.052459 21.7529 0.0721311C22.5305 0.268852 23.0359 0.980328 22.9938 1.81311C22.9517 2.57049 22.362 3.21311 21.6007 3.32131C21.4516 3.34098 21.3026 3.35082 21.1536 3.35082C14.7191 3.35082 8.28471 3.35082 1.85029 3.35082C1.32866 3.35082 0.8524 3.24262 0.476572 2.8459C0.0424265 2.39344 -0.100129 1.84918 0.0683456 1.23934C0.23682 0.626229 0.651526 0.24918 1.25091 0.0721311C1.3319 0.0491803 1.40966 0.0229508 1.49066 0C8.16484 0 14.839 0 21.5164 0H21.5132Z" fill="black"/>
<path d="M1.51616 20C1.44488 19.977 1.37685 19.9508 1.30557 19.9377C0.531234 19.7672 -0.0260277 19.0557 -0.000108531 18.2721C0.0290505 17.4492 0.612231 16.7869 1.41248 16.6754C1.54856 16.6557 1.68788 16.6492 1.82719 16.6492C4.99257 16.6492 8.15794 16.6492 11.3233 16.6492C11.8125 16.6492 12.2596 16.7508 12.6193 17.1049C13.0793 17.5574 13.2413 18.1049 13.0826 18.7344C12.9238 19.3639 12.5059 19.7508 11.8935 19.9311C11.8125 19.9541 11.7348 19.9803 11.6538 20.0033H1.51616V20Z" fill="black"/>
<path d="M11.5241 8.33447C14.7413 8.33447 17.9618 8.33447 21.179 8.33447C22.1056 8.33447 22.7309 8.78037 22.9447 9.58365C23.1942 10.5214 22.5754 11.4853 21.6293 11.6328C21.4706 11.6558 21.3086 11.6656 21.1498 11.6656C14.7121 11.6656 8.27448 11.6656 1.84005 11.6656C0.897242 11.6656 0.262223 11.2132 0.0548698 10.4C-0.181642 9.47546 0.430697 8.5148 1.36055 8.37054C1.54846 8.34103 1.74285 8.33447 1.93401 8.33447C5.13178 8.33447 8.32956 8.33447 11.5241 8.33447Z" fill="black"/>
</g>
<defs>
<clipPath id="clip0_109_1270">
<rect width="23" height="20" fill="white"/>
</clipPath>
</defs>
</svg>
