<svg width="19" height="16" viewBox="0 0 19 16" fill="none" xmlns="http://www.w3.org/2000/svg">
<path d="M18.8124 2.50698C18.1256 2.80539 17.3989 3.00199 16.6554 3.09057C17.4368 2.633 18.0244 1.90607 18.3081 1.04612C17.5693 1.47812 16.7624 1.78123 15.9219 1.94247C15.568 1.57154 15.1423 1.27646 14.6708 1.07516C14.1993 0.873861 13.6917 0.770544 13.1791 0.771491C11.1033 0.771491 9.42358 2.42688 9.42358 4.46752C9.42211 4.75136 9.45463 5.03436 9.52046 5.31047C8.03202 5.24069 6.57452 4.86099 5.24123 4.19566C3.90793 3.53032 2.7282 2.59401 1.77749 1.44661C1.44397 2.00888 1.26758 2.65041 1.26676 3.30416C1.26676 4.58576 1.93541 5.7186 2.94504 6.38228C2.34686 6.36808 1.76094 6.20976 1.23701 5.92075V5.96652C1.23701 7.75923 2.53386 9.25061 4.25029 9.59008C3.92752 9.67612 3.59491 9.71972 3.26086 9.71977C3.02384 9.72018 2.78735 9.69718 2.55484 9.65111C3.03201 11.1196 4.42078 12.1876 6.06588 12.2181C4.72912 13.2483 3.08793 13.8051 1.40026 13.801C1.1007 13.8006 0.801406 13.7827 0.503906 13.7476C2.22078 14.8439 4.21651 15.4238 6.25354 15.4183C13.1711 15.4183 16.9502 9.78461 16.9502 4.89853C16.9502 4.73833 16.946 4.57813 16.9384 4.42175C17.6719 3.89998 18.3065 3.25157 18.8124 2.50698Z" fill="white"/>
</svg>
