<svg width="20" height="20" viewBox="0 0 20 20" fill="none" xmlns="http://www.w3.org/2000/svg">
<g clip-path="url(#clip0_102_682)">
<path d="M19.9999 19.022C19.8838 19.3773 19.7114 19.6904 19.3596 19.8628C18.9198 20.0774 18.5047 20.0352 18.1107 19.7502C18.0227 19.6869 17.9453 19.606 17.8644 19.5286C15.2998 16.9639 12.7351 14.4028 10.174 11.8382C10.1212 11.7854 10.065 11.7326 9.96645 11.6376C9.91368 11.7115 9.8785 11.7819 9.82573 11.8382C7.25053 14.4169 4.67181 16.9956 2.0931 19.5708C1.63575 20.0281 1.09046 20.1231 0.587381 19.8382C-0.021238 19.4899 -0.183067 18.6667 0.24965 18.1143C0.316493 18.0264 0.39389 17.949 0.471286 17.8681C3.03593 15.3034 5.59706 12.7388 8.1617 10.1777C8.21447 10.1249 8.28835 10.0862 8.35167 10.044C8.35167 10.0158 8.35167 9.98769 8.35167 9.95954C8.28835 9.91733 8.21447 9.88215 8.15818 9.82586C5.58298 7.24714 3.00779 4.67194 0.42907 2.09323C-0.0353101 1.62885 -0.126779 1.07652 0.172254 0.569921C0.355191 0.260334 0.647188 0.105541 0.974365 0H1.36487C1.73426 0.0914688 1.99811 0.334213 2.25845 0.594547C4.77736 3.12049 7.29978 5.6394 9.82221 8.16183C9.87498 8.2146 9.91016 8.28848 9.95589 8.3518C9.98404 8.3518 10.0122 8.3518 10.0403 8.3518C10.0861 8.28848 10.1212 8.2146 10.174 8.16183C12.6929 5.6394 15.2189 3.11697 17.7378 0.594547C17.9981 0.334213 18.262 0.0914688 18.6314 0C18.7615 0 18.8917 0 19.0219 0C19.1168 0.0386983 19.2154 0.0703606 19.3068 0.112577C19.6868 0.281442 19.8767 0.601583 19.9964 0.978012V1.36851C19.9049 1.73791 19.6621 2.00176 19.4018 2.26209C16.8759 4.781 14.357 7.30343 11.8345 9.82586C11.7818 9.87863 11.7079 9.91381 11.6445 9.95954C11.6445 9.98769 11.6445 10.0158 11.6445 10.044C11.7079 10.0897 11.7818 10.1249 11.8345 10.1777C14.3534 12.6931 16.8688 15.212 19.3877 17.7274C19.6516 17.9912 19.9049 18.2586 19.9964 18.635V19.0255L19.9999 19.022Z" fill="black"/>
</g>
<defs>
<clipPath id="clip0_102_682">
<rect width="20" height="20" fill="white"/>
</clipPath>
</defs>
</svg>
