<svg xmlns="http://www.w3.org/2000/svg" width="14" height="14" viewBox="0 0 14 14" fill="none">
<path d="M3.2498 12.0009C3.13929 12.0009 3.03332 11.957 2.95518 11.8789C2.87704 11.8007 2.83315 11.6947 2.83315 11.5842V2.41757C2.83316 2.34517 2.85204 2.27402 2.88792 2.21113C2.92381 2.14824 2.97546 2.0958 3.03778 2.05895C3.10011 2.02211 3.17096 2.00215 3.24336 2.00103C3.31575 1.99991 3.38719 2.01767 3.45062 2.05257L11.7837 6.6359C11.849 6.67187 11.9035 6.72472 11.9414 6.78892C11.9793 6.85312 11.9993 6.92633 11.9993 7.00091C11.9993 7.07548 11.9793 7.14869 11.9414 7.21289C11.9035 7.27709 11.849 7.32994 11.7837 7.3659L3.45062 11.9492C3.3891 11.9831 3.32002 12.0009 3.2498 12.0009Z" fill="#515B6F"/>
</svg>