<svg width="17" height="20" viewBox="0 0 17 20" fill="none" xmlns="http://www.w3.org/2000/svg">
<g clip-path="url(#clip0_1304_746)">
<path d="M16.3636 4.33111V4.50463C16.2295 4.97362 15.9002 5.16356 15.4109 5.11901V5.42619C15.4109 9.25548 15.4132 13.0848 15.4109 16.9141C15.4109 18.6915 14.1006 19.9953 12.3151 19.9977C9.56035 20.0023 6.80328 20.0023 4.04856 19.993C3.73804 19.993 3.42046 19.9554 3.1217 19.8687C1.79962 19.4911 0.952742 18.3281 0.952742 16.9141C0.95039 13.0777 0.952742 9.24141 0.952742 5.40274C0.952742 5.31129 0.952742 5.21984 0.952742 5.10963C0.449318 5.16121 0.136442 4.96189 0 4.50229V4.32876C0.204663 3.81522 0.350515 3.71908 0.919808 3.71908C1.62789 3.71908 2.33363 3.71908 3.04172 3.71908C3.11935 3.71908 3.19463 3.71908 3.28167 3.71908C3.28167 3.34623 3.28167 3.00387 3.28167 2.66385C3.28402 1.09978 4.37791 0.00703482 5.94934 0.00234494C7.43609 0 8.92284 -0.00234494 10.4119 0.00468988C10.6566 0.00468988 10.9107 0.0234494 11.1483 0.0820729C12.2727 0.358776 13.0561 1.35303 13.0796 2.50909C13.0867 2.90538 13.0796 3.30402 13.0796 3.71908C13.1761 3.71908 13.249 3.71908 13.3196 3.71908C14.0277 3.71908 14.7334 3.71908 15.4415 3.71908C16.0084 3.71908 16.159 3.81991 16.3636 4.32876V4.33111ZM2.35245 5.12839C2.35245 5.21046 2.35245 5.28315 2.35245 5.3535C2.35245 9.18982 2.35245 13.0285 2.35245 16.8648C2.35245 17.9341 3.02525 18.6024 4.10032 18.6024C6.81975 18.6024 9.53918 18.6024 12.2586 18.6024C12.4115 18.6024 12.5668 18.6024 12.715 18.5696C13.5219 18.3961 14.0112 17.7535 14.0112 16.8695C14.0112 13.0332 14.0112 9.19451 14.0112 5.35819C14.0112 5.28315 14.0112 5.20577 14.0112 5.13073H2.35245V5.12839ZM11.6823 3.71204C11.6823 3.31106 11.687 2.93352 11.6823 2.55599C11.6729 1.90409 11.1882 1.40462 10.5319 1.40227C8.96518 1.39289 7.39845 1.39524 5.82937 1.40227C5.25772 1.40462 4.78253 1.78215 4.71431 2.34494C4.65785 2.79282 4.70255 3.25243 4.70255 3.71204H11.6823Z" fill="#515B6F"/>
<path d="M11.2117 11.8607C11.2117 12.9347 11.2141 14.0087 11.2117 15.085C11.2117 15.4907 10.9459 15.7838 10.5766 15.8096C10.1672 15.8377 9.82142 15.5587 9.81907 15.1413C9.80966 12.9558 9.80966 10.7703 9.81907 8.58483C9.81907 8.18385 10.1484 7.90246 10.5319 7.90949C10.9106 7.91653 11.2094 8.21668 11.2094 8.61766C11.2141 9.69868 11.2094 10.782 11.2094 11.8631L11.2117 11.8607Z" fill="#515B6F"/>
<path d="M5.15182 11.8537C5.15182 10.7727 5.15182 9.6893 5.15182 8.60828C5.15182 8.29875 5.30237 8.08067 5.58231 7.96108C5.85755 7.84618 6.13279 7.88838 6.32098 8.11115C6.43861 8.2495 6.53741 8.45586 6.53741 8.63408C6.55152 10.782 6.54917 12.9324 6.54447 15.0803C6.54447 15.5118 6.24335 15.8119 5.84108 15.8096C5.43881 15.8096 5.14946 15.5094 5.14711 15.0756C5.14241 14.0016 5.14711 12.9277 5.14711 11.8513L5.15182 11.8537Z" fill="#515B6F"/>
</g>
<defs>
<clipPath id="clip0_1304_746">
<rect width="16.3636" height="20" fill="white"/>
</clipPath>
</defs>
</svg>
