<svg xmlns="http://www.w3.org/2000/svg" width="15" height="20" viewBox="0 0 15 20" fill="none">
  <g clip-path="url(#clip0_400_665)">
    <path
      d="M14.8758 8.59262C14.5135 7.6742 13.7982 7.21054 12.7517 7.12732V6.90143C12.7517 6.23268 12.7517 5.56393 12.7517 4.89519C12.7517 2.36286 10.9493 0.395261 8.31606 0.0385962C8.27858 0.0326518 8.24422 0.0148185 8.20986 0.00292969H6.80419C6.4356 0.0861516 6.05763 0.145596 5.69528 0.25854C3.66175 0.89162 2.27795 2.70467 2.25921 4.7436C2.25296 5.45693 2.25921 6.17026 2.25921 6.88359C2.25921 6.96384 2.25921 7.04409 2.25921 7.13029C1.59386 7.16298 1.03784 7.38293 0.600527 7.83767C0.225683 8.22703 0.016395 8.68773 0.0132713 9.21381C0.0070239 11.5024 -0.014842 13.794 0.016395 16.0826C0.0445083 18.1602 1.92185 19.9494 4.10844 19.9792C6.37312 20.0089 8.6378 20.0089 10.8994 19.9792C12.9079 19.9524 14.6697 18.4187 14.9508 16.5225C14.9602 16.4571 14.982 16.3947 14.9977 16.3293V8.96711C14.957 8.84228 14.9227 8.71448 14.8727 8.58964L14.8758 8.59262ZM3.87104 4.04513C4.12718 2.53822 5.60782 1.46228 7.21027 1.42365C8.05992 1.40284 8.87833 1.49201 9.60615 1.94973C10.6588 2.60956 11.2149 3.5458 11.2461 4.74658C11.268 5.53421 11.2492 6.31887 11.2492 7.12137H3.71173C3.75546 6.08407 3.69924 5.04677 3.86792 4.04513H3.87104ZM13.4983 15.8775C13.4983 17.3993 12.2769 18.5584 10.6776 18.5614C8.56283 18.5644 6.44497 18.5614 4.33022 18.5614C2.72152 18.5614 1.50952 17.3963 1.5064 15.8597C1.5064 13.7018 1.5064 11.547 1.5064 9.38917C1.5064 8.84228 1.79378 8.56884 2.37166 8.56884C4.08033 8.56884 5.79211 8.56884 7.50078 8.56884C9.20944 8.56884 10.9212 8.56884 12.6299 8.56884C13.2047 8.56884 13.4983 8.84525 13.4983 9.3862C13.4983 11.55 13.4983 13.7137 13.4983 15.8775Z"
      fill="#979797" />
    <path
      d="M7.86969 10.7447C7.1856 10.5782 6.47027 10.8903 6.1579 11.4907C5.83928 12.103 6.00796 12.8282 6.58897 13.2473C6.71704 13.3394 6.75765 13.4345 6.75453 13.5802C6.74516 13.922 6.7514 14.2638 6.7514 14.6056C6.7514 14.9474 6.7514 15.2892 6.7514 15.631C6.7514 16.0887 7.05753 16.4097 7.49172 16.4156C7.93528 16.4216 8.25078 16.0976 8.25078 15.628C8.25078 14.9355 8.2539 14.2459 8.25078 13.5534C8.25078 13.4226 8.28514 13.3394 8.40072 13.2592C8.77556 12.9976 8.97548 12.635 9.00047 12.1951C9.04107 11.5085 8.5694 10.9081 7.87281 10.7387L7.86969 10.7447Z"
      fill="#979797" />
  </g>
  <defs>
    <clipPath id="clip0_400_665">
      <rect width="15" height="20" fill="white" />
    </clipPath>
  </defs>
</svg>