<svg width="96" height="96" viewBox="0 0 96 96" fill="none" xmlns="http://www.w3.org/2000/svg">
<rect width="96" height="96" rx="12" fill="#FF6E1F"/>
<path d="M67.3238 57.1691V43.6447L48.8711 53.6734C48.1834 54.0554 47.4575 54.2464 46.6934 54.2464C45.9293 54.2464 45.2034 54.0554 44.5158 53.6734L25.1461 43.1289C24.7259 42.8997 24.4298 42.6132 24.2579 42.2693C24.086 41.9255 24 41.5435 24 41.1232C24 40.703 24.086 40.3209 24.2579 39.9771C24.4298 39.6332 24.7259 39.3467 25.1461 39.1175L44.5158 28.5731C44.8596 28.382 45.213 28.2388 45.5759 28.1433C45.9389 28.0478 46.3114 28 46.6934 28C47.0755 28 47.4479 28.0478 47.8109 28.1433C48.1738 28.2388 48.5272 28.382 48.8711 28.5731L70.7049 40.4928C71.0869 40.6839 71.383 40.9608 71.5931 41.3238C71.8032 41.6867 71.9083 42.0783 71.9083 42.4986V57.1691C71.9083 57.8185 71.6886 58.3629 71.2493 58.8023C70.8099 59.2416 70.2655 59.4613 69.616 59.4613C68.9666 59.4613 68.4222 59.2416 67.9828 58.8023C67.5434 58.3629 67.3238 57.8185 67.3238 57.1691ZM44.5158 67.4269L33.0544 61.2378C32.2904 60.8176 31.6982 60.2445 31.2779 59.5186C30.8577 58.7927 30.6476 58.0096 30.6476 57.1691V48.4585L44.5158 55.9656C45.2034 56.3477 45.9293 56.5387 46.6934 56.5387C47.4575 56.5387 48.1834 56.3477 48.8711 55.9656L62.7393 48.4585V57.1691C62.7393 58.0096 62.5291 58.7927 62.1089 59.5186C61.6886 60.2445 61.0965 60.8176 60.3324 61.2378L48.8711 67.4269C48.5272 67.618 48.1738 67.7612 47.8109 67.8567C47.4479 67.9522 47.0755 68 46.6934 68C46.3114 68 45.9389 67.9522 45.5759 67.8567C45.213 67.7612 44.8596 67.618 44.5158 67.4269Z" fill="white"/>
</svg>
