<svg width="27" height="20" viewBox="0 0 27 20" fill="none" xmlns="http://www.w3.org/2000/svg">
<g id="Layer_1" clip-path="url(#clip0_910_215)">
<path id="Vector" d="M19.9042 15.04C19.9042 12.4658 19.9042 9.89159 19.9167 7.3174C19.9167 7.07997 19.9167 6.8238 19.9913 6.60512C20.2898 5.74914 20.8992 5.68666 21.6889 5.76163C22.2548 5.81787 22.7336 6.45517 22.7398 7.11746C22.7522 8.7357 22.7398 10.3477 22.7398 11.9659C22.7398 12.9906 22.7398 14.0153 22.746 15.04C22.746 15.0587 22.746 15.0712 22.746 15.09C22.7585 15.0775 22.7771 15.065 22.7896 15.0525C23.3803 14.4714 24.0021 13.9091 24.5556 13.2968C25.252 12.5283 26.5454 12.8282 26.8999 13.8091C27.0864 14.3215 26.9994 14.8026 26.6076 15.1962C25.451 16.3646 24.2882 17.5267 23.1316 18.6951C22.8393 18.995 22.5657 19.3136 22.2734 19.6136C21.7449 20.1634 20.638 20.1571 20.1281 19.4324C20.0659 19.3449 20.0037 19.2512 19.9291 19.1762C18.6481 17.8828 17.3547 16.5957 16.0738 15.2962C15.6633 14.8775 15.4768 14.3839 15.7193 13.7904C15.9432 13.253 16.3349 12.9094 16.9008 12.8594C17.3672 12.8157 17.7838 13.0156 18.1258 13.353C18.7041 13.9216 19.2762 14.4902 19.8545 15.0587C19.8669 15.0712 19.8856 15.0837 19.898 15.0962C19.898 15.0775 19.898 15.065 19.898 15.0462L19.9042 15.04Z" fill="white"/>
<path id="Vector_2" d="M9.90643 2.86141C7.02113 2.86141 4.14204 2.86141 1.25673 2.86141C0.74683 2.86141 0.124997 2.38656 0.0441583 1.83674C-0.0428984 1.28691 -0.0366801 0.69959 0.473223 0.337204C0.728175 0.15601 1.0764 0.0185533 1.38732 0.0123052C7.06466 -0.000190866 12.742 -0.000190866 18.4193 0.00605718C18.9665 0.00605718 19.4889 0.168506 19.7314 0.737079C19.9739 1.3119 19.9677 1.90546 19.5573 2.39906C19.2899 2.72396 18.8919 2.86141 18.4566 2.86141C15.6086 2.86141 12.7544 2.86141 9.90643 2.86141Z" fill="white"/>
<path id="Vector_3" d="M7.79204 9.98427C5.7089 9.98427 3.61954 9.97177 1.5364 9.99051C0.833723 9.99051 0.311383 9.74684 0.0937418 9.0658C-0.186083 8.20982 0.224327 7.24762 1.22548 7.16015C1.63589 7.12266 2.0463 7.1414 2.45671 7.1414C6.34317 7.1414 10.2234 7.1414 14.1099 7.1414C14.8561 7.1414 15.366 7.46006 15.5463 8.07236C15.8013 8.93459 15.4157 9.93428 14.3835 9.95303C12.1884 10.003 9.99333 9.96552 7.79204 9.96552V9.97802V9.98427Z" fill="white"/>
<path id="Vector_4" d="M5.64662 17.1253C4.20396 17.1253 2.76131 17.119 1.31866 17.1253C0.603549 17.1253 0.0438991 16.5067 0.00658908 15.8257C-0.0431576 14.7385 0.603549 14.2637 1.56117 14.2637C4.30968 14.2637 7.0644 14.2637 9.8129 14.2637C10.6026 14.2637 11.1436 14.5886 11.2991 15.2571C11.5105 16.2068 11.1125 17.094 9.97458 17.1128C8.53192 17.144 7.08927 17.119 5.64662 17.119V17.1253Z" fill="white"/>
<path id="Vector_5" d="M19.9049 15.0395C19.9049 15.0395 19.9049 15.0707 19.9049 15.0894C19.8924 15.0769 19.8738 15.0644 19.8613 15.0519L19.88 15.0332L19.9049 15.0457V15.0395Z" fill="#AAAAAA"/>
<path id="Vector_6" d="M22.7896 15.0523C22.7896 15.0523 22.7585 15.0773 22.7461 15.0898C22.7461 15.0711 22.7461 15.0586 22.7461 15.0398L22.771 15.0273L22.7896 15.0461V15.0523Z" fill="#AAAAAA"/>
</g>
<defs>
<clipPath id="clip0_910_215">
<rect width="27" height="20" fill="white"/>
</clipPath>
</defs>
</svg>
