<svg width="65" height="50" viewBox="0 0 65 50" fill="none" xmlns="http://www.w3.org/2000/svg">
  <g>
    <path
      d="M64.9999 28.4373C64.8744 28.7605 64.7032 29.0764 64.6303 29.4083C64.1725 31.5054 63.0686 33.3041 61.4121 34.8864C59.2502 36.9513 56.5695 38.187 53.4395 38.709C52.6069 38.848 51.7303 38.8275 50.874 38.8275C44.1918 38.8363 37.5095 38.8465 30.8272 38.8143C29.9133 38.8099 29.1418 38.981 28.3822 39.392C24.3094 41.5987 20.2282 43.7937 16.1452 45.9873C13.7019 47.3005 11.2636 48.621 8.79147 49.8933C8.49475 50.0454 7.94877 50.0249 7.61813 49.8947C7.10776 49.6958 7.01111 49.2089 7.14167 48.7643C7.87077 46.2739 8.627 43.7893 9.36627 41.3018C9.64604 40.3615 9.90377 39.4168 10.1802 38.4487C8.34893 37.9954 6.672 37.2964 5.18837 36.2537C3.25032 34.8937 1.79721 33.2412 0.903639 31.2246C0.250841 29.7579 -0.0119738 28.2501 -0.000104791 26.6722C0.0422847 21.5291 -0.0136694 16.3859 0.0287201 11.2427C0.0473714 8.98045 0.962984 6.92728 2.44322 5.08176C4.42705 2.60743 7.17558 1.03684 10.543 0.330513C11.7028 0.0877587 12.9338 0.0190271 14.1342 0.0175647C26.356 -0.00437086 38.5794 -0.00437086 50.8028 0.0102529C53.921 0.0131776 56.8493 0.682945 59.3604 2.3208C62.0666 4.08589 63.9063 6.3862 64.6252 9.29486C64.7252 9.69701 64.8744 10.0904 64.9999 10.4867V28.4388V28.4373ZM10.0004 46.8837C10.0479 46.9056 10.0954 46.9276 10.1428 46.951C12.2589 45.8147 14.375 44.6814 16.4894 43.5436C20.0688 41.6192 23.6346 39.6757 27.236 37.7834C27.9159 37.4265 28.5331 36.9176 29.4487 36.9206C36.6414 36.9352 43.8323 36.9147 51.0249 36.941C52.4085 36.9454 53.7582 36.7846 55.0248 36.3809C57.9276 35.4582 60.1472 33.8013 61.5613 31.4045C62.5413 29.7432 62.8024 27.9445 62.8007 26.1048C62.8007 21.5803 62.7923 17.0557 62.8041 12.5311C62.8092 10.535 62.3735 8.64264 61.2035 6.89803C60.4117 5.71936 59.4028 4.72202 58.1226 3.9104C55.8353 2.45973 53.2682 1.91573 50.4671 1.92011C38.4098 1.93766 26.3526 1.92596 14.2953 1.93327C13.5662 1.93327 12.8337 1.99323 12.1063 2.0605C9.02037 2.3442 6.56348 3.65595 4.66443 5.69304C2.97903 7.50199 2.1855 9.61805 2.20245 11.9725C2.23975 16.9343 2.20245 21.8976 2.22619 26.8594C2.22958 27.6798 2.28893 28.5236 2.51444 29.3162C3.13333 31.4805 4.41857 33.3012 6.46005 34.7197C7.95894 35.7624 9.63417 36.438 11.5112 36.7509C12.3674 36.8928 12.7846 37.352 12.5743 38.0861C11.9809 40.1524 11.3671 42.2143 10.7617 44.2778C10.5074 45.1464 10.2531 46.0165 10.0004 46.8852V46.8837Z"
      fill="black" />
  </g>
</svg>