<svg width="35" height="35" viewBox="0 0 35 35" fill="none" xmlns="http://www.w3.org/2000/svg">
<path id="auto_awesome_mosaic" d="M15.3129 34.3746H4.04282C3.00973 34.3746 2.12534 34.0068 1.38966 33.2711C0.653975 32.5354 0.286133 31.651 0.286133 30.6179V4.32114C0.286133 3.28805 0.653975 2.40366 1.38966 1.66798C2.12534 0.932295 3.00973 0.564453 4.04282 0.564453H15.3129V34.3746ZM19.0695 15.5912V0.564453H30.3396C31.3727 0.564453 32.2571 0.932295 32.9927 1.66798C33.7284 2.40366 34.0963 3.28805 34.0963 4.32114V15.5912H19.0695ZM19.0695 34.3746V19.3479H34.0963V30.6179C34.0963 31.651 33.7284 32.5354 32.9927 33.2711C32.2571 34.0068 31.3727 34.3746 30.3396 34.3746H19.0695Z" fill="#FF6E1F"/>
</svg>
