<svg width="33" height="35" viewBox="0 0 33 35" fill="none" xmlns="http://www.w3.org/2000/svg">
<path id="calendar_clock" d="M3.50615 32.4811C2.62064 32.4811 1.8626 32.1658 1.23201 31.5353C0.601426 30.9047 0.286133 30.1466 0.286133 29.2611V6.72103C0.286133 5.83553 0.601426 5.07748 1.23201 4.4469C1.8626 3.81631 2.62064 3.50102 3.50615 3.50102H5.11615V0.281006H8.33617V3.50102H21.2162V0.281006H24.4362V3.50102H26.0462C26.9317 3.50102 27.6898 3.81631 28.3204 4.4469C28.951 5.07748 29.2663 5.83553 29.2663 6.72103V15.8578C28.7564 15.6163 28.2332 15.4151 27.6965 15.2541C27.1598 15.0931 26.6097 14.9723 26.0462 14.8918V13.1611H3.50615V29.2611H13.6492C13.837 29.8515 14.0584 30.415 14.3133 30.9516C14.5682 31.4883 14.8701 31.9981 15.2189 32.4811H3.50615ZM24.4362 34.0911C22.2091 34.0911 20.3106 33.3063 18.7408 31.7365C17.1711 30.1668 16.3862 28.2683 16.3862 26.0411C16.3862 23.8139 17.1711 21.9155 18.7408 20.3457C20.3106 18.776 22.2091 17.9911 24.4362 17.9911C26.6634 17.9911 28.5619 18.776 30.1316 20.3457C31.7014 21.9155 32.4863 23.8139 32.4863 26.0411C32.4863 28.2683 31.7014 30.1668 30.1316 31.7365C28.5619 33.3063 26.6634 34.0911 24.4362 34.0911ZM27.133 29.8649L28.26 28.7379L25.2412 25.7191V21.2111H23.6312V26.3631L27.133 29.8649Z" fill="#FF6E1F"/>
</svg>
