<svg width="23" height="34" viewBox="0 0 23 34" fill="none" xmlns="http://www.w3.org/2000/svg">
<g clip-path="url(#clip0_732_1771)">
<path d="M21.6987 8.58744C20.6271 4.10839 16.7702 0.765149 12.1924 0.340454C12.1085 0.330578 12.0245 0.305886 11.9406 0.286133H10.3603C9.58992 0.439221 8.79485 0.513295 8.0541 0.755273C3.94049 2.09849 1.40713 4.90346 0.483665 9.13559C0.394776 9.54053 0.350331 9.95041 0.286133 10.3603V12.0048C0.360208 12.469 0.419467 12.9332 0.513295 13.3974C0.863916 15.1653 1.75775 16.6566 2.90344 18.0147C3.19974 18.3653 3.50098 18.7159 3.79727 19.0715C5.35284 20.9283 5.72322 21.6987 6.18248 24.0394H16.1233C16.1875 23.6937 16.2418 23.3382 16.3208 22.9925C16.6418 21.5406 17.4517 20.3505 18.3752 19.2196C19.1258 18.306 19.8863 17.3925 20.553 16.4196C21.4073 15.1653 21.8369 13.743 21.9604 12.227C21.9653 12.1529 21.995 12.0788 22.0147 12.0097V10.3652C21.911 9.77263 21.8369 9.1751 21.6987 8.59238V8.58744ZM8.82942 13.3628C8.40472 13.8616 7.98496 14.3505 7.55039 14.864C6.10841 13.6295 4.68123 12.4048 3.21949 11.1504C4.68123 9.89609 6.10347 8.68127 7.55039 7.44175C7.98003 7.94546 8.39978 8.43435 8.83435 8.93806C7.97509 9.67881 7.13557 10.3998 6.25655 11.1504C7.11088 11.8862 7.95533 12.6122 8.83435 13.3628H8.82942ZM11.1208 15.3332C10.4887 15.1751 9.8714 15.027 9.20473 14.8591C9.86152 12.2319 10.5134 9.62448 11.1801 6.95779C11.822 7.11582 12.4344 7.26891 13.0961 7.43187C12.4393 10.064 11.7875 12.6665 11.1257 15.3282L11.1208 15.3332ZM14.7554 14.864C14.3307 14.3702 13.9159 13.8813 13.4714 13.3677C14.3307 12.627 15.1751 11.906 16.0492 11.1504C15.185 10.4097 14.3406 9.68374 13.4714 8.93806C13.9011 8.43435 14.3208 7.94546 14.7554 7.44175C16.1974 8.68127 17.6196 9.89609 19.0863 11.1504C17.6344 12.3949 16.2122 13.6146 14.7554 14.864Z" fill="#FF6E1F"/>
<path d="M8.1875 34H14.1135V30.9926H8.1875V34Z" fill="#FF6E1F"/>
<path d="M6.23682 28.9777H16.0739V26.0543H6.23682V28.9777Z" fill="#FF6E1F"/>
</g>
<defs>
<clipPath id="clip0_732_1771">
<rect width="21.7286" height="33.7139" fill="white" transform="translate(0.286133 0.286133)"/>
</clipPath>
</defs>
</svg>

