<svg width="35" height="35" viewBox="0 0 35 35" fill="none" xmlns="http://www.w3.org/2000/svg">
<path d="M15.3129 34.0962H4.04282C3.00973 34.0962 2.12534 33.7283 1.38966 32.9927C0.653975 32.257 0.286133 31.3726 0.286133 30.3395V4.04272C0.286133 3.00964 0.653975 2.12525 1.38966 1.38957C2.12534 0.653883 3.00973 0.286041 4.04282 0.286041H15.3129V34.0962ZM19.0695 15.3128V0.286041H30.3396C31.3727 0.286041 32.2571 0.653883 32.9927 1.38957C33.7284 2.12525 34.0963 3.00964 34.0963 4.04272V15.3128H19.0695ZM19.0695 34.0962V19.0695H34.0963V30.3395C34.0963 31.3726 33.7284 32.257 32.9927 32.9927C32.2571 33.7283 31.3727 34.0962 30.3396 34.0962H19.0695Z" fill="#FF6E1F"/>
</svg>
