<svg width="68" height="35" viewBox="0 0 68 35" fill="none" xmlns="http://www.w3.org/2000/svg">
<path id="groups_2" d="M29.1462 17.4695C27.8314 17.4695 26.7513 16.9765 25.9061 15.9903C25.0608 15.0042 24.7556 13.8537 24.9904 12.5389L25.8356 7.46736C26.2113 5.44814 27.1622 3.79285 28.6884 2.50149C30.2145 1.21013 31.9872 0.564453 34.0064 0.564453C36.0726 0.564453 37.8688 1.21013 39.3949 2.50149C40.9211 3.79285 41.872 5.44814 42.2477 7.46736L43.0929 12.5389C43.3277 13.8537 43.0225 15.0042 42.1772 15.9903C41.332 16.9765 40.2519 17.4695 38.9371 17.4695H29.1462ZM30.8367 11.8345H37.2466L36.6831 8.38305C36.5891 7.72563 36.2839 7.19735 35.7674 6.7982C35.2508 6.39905 34.6638 6.19948 34.0064 6.19948C33.349 6.19948 32.7738 6.39905 32.2807 6.7982C31.7876 7.19735 31.4941 7.72563 31.4002 8.38305L30.8367 11.8345ZM8.93058 20.2166C7.85053 20.2636 6.9231 20.0522 6.14828 19.5827C5.37347 19.1131 4.86866 18.3852 4.63387 17.3991C4.53995 16.9765 4.51647 16.5538 4.56343 16.1312C4.61039 15.7086 4.72779 15.3094 4.91562 14.9338C4.91562 14.9807 4.89214 14.8868 4.84518 14.652C4.75127 14.5581 4.51647 13.9946 4.14081 12.9615C4.04689 12.398 4.11733 11.858 4.35212 11.3414C4.58691 10.8249 4.89214 10.3788 5.26781 10.0031L5.40869 9.86224C5.5026 8.97003 5.86653 8.21869 6.50047 7.60823C7.13441 6.99777 7.92097 6.69254 8.86014 6.69254C9.00101 6.69254 9.44712 6.78646 10.1985 6.97429L10.4098 6.90385C10.6446 6.66906 10.9498 6.49297 11.3255 6.37557C11.7011 6.25817 12.1003 6.19948 12.5229 6.19948C13.0394 6.19948 13.4973 6.28165 13.8964 6.44601C14.2956 6.61036 14.6126 6.8569 14.8474 7.18561C14.8943 7.18561 14.9295 7.19735 14.953 7.22082C14.9765 7.2443 15.0117 7.25604 15.0587 7.25604C15.7161 7.303 16.2913 7.50258 16.7844 7.85476C17.2775 8.20695 17.6414 8.68828 17.8762 9.29874C17.9701 9.62745 18.0053 9.94442 17.9818 10.2497C17.9584 10.5549 17.8997 10.8484 17.8057 11.1301C17.8057 11.1771 17.8292 11.271 17.8762 11.4119C18.2049 11.7406 18.4632 12.1045 18.651 12.5037C18.8388 12.9028 18.9327 13.3137 18.9327 13.7363C18.9327 13.9242 18.7919 14.4172 18.5101 15.2155C18.4632 15.3094 18.4632 15.4033 18.5101 15.4973L18.651 16.6243C18.651 17.6104 18.2401 18.4557 17.4183 19.16C16.5966 19.8644 15.5987 20.2166 14.4247 20.2166H8.93058ZM56.5465 20.287C54.9969 20.287 53.6703 19.7353 52.5668 18.6317C51.4633 17.5282 50.9115 16.2016 50.9115 14.652C50.9115 14.0885 50.9937 13.5602 51.158 13.0672C51.3224 12.5741 51.5454 12.0928 51.8272 11.6232L49.8549 9.86224C49.3853 9.48657 49.3032 9.01699 49.6084 8.45349C49.9136 7.88998 50.348 7.60823 50.9115 7.60823H56.5465C58.0962 7.60823 59.4227 8.16 60.5263 9.26352C61.6298 10.367 62.1815 11.6936 62.1815 13.2433V14.652C62.1815 16.2016 61.6298 17.5282 60.5263 18.6317C59.4227 19.7353 58.0962 20.287 56.5465 20.287ZM0.196289 31.5571V29.937C0.196289 27.8708 1.24112 26.2156 3.33077 24.9711C5.42043 23.7267 8.13228 23.1045 11.4663 23.1045C12.0768 23.1045 12.6638 23.1163 13.2273 23.1398C13.7908 23.1632 14.3308 23.2219 14.8474 23.3159C14.1899 24.255 13.6969 25.2646 13.3682 26.3447C13.0394 27.4247 12.8751 28.5752 12.8751 29.7961V34.3746H3.0138C2.21551 34.3746 1.54635 34.1046 1.00632 33.5646C0.466301 33.0245 0.196289 32.3554 0.196289 31.5571ZM17.1014 31.5571V29.7961C17.1014 26.7438 18.6627 24.2785 21.7855 22.4002C24.9082 20.5218 28.9819 19.5827 34.0064 19.5827C39.078 19.5827 43.1633 20.5218 46.2626 22.4002C49.3619 24.2785 50.9115 26.7438 50.9115 29.7961V31.5571C50.9115 32.3554 50.6415 33.0245 50.1015 33.5646C49.5614 34.1046 48.8923 34.3746 48.094 34.3746H19.9189C19.1206 34.3746 18.4514 34.1046 17.9114 33.5646C17.3714 33.0245 17.1014 32.3554 17.1014 31.5571ZM56.5465 23.1045C59.9275 23.1045 62.6511 23.7267 64.7173 24.9711C66.7835 26.2156 67.8166 27.8708 67.8166 29.937V31.5571C67.8166 32.3554 67.5466 33.0245 67.0065 33.5646C66.4665 34.1046 65.7974 34.3746 64.9991 34.3746H55.1378V29.7961C55.1378 28.5752 54.9852 27.4247 54.6799 26.3447C54.3747 25.2646 53.9168 24.255 53.3064 23.3159C53.8229 23.2219 54.3512 23.1632 54.8912 23.1398C55.4313 23.1163 55.983 23.1045 56.5465 23.1045ZM30.8367 11.8345L31.4002 8.38305C31.4941 7.72563 31.7876 7.19735 32.2807 6.7982C32.7738 6.39905 33.349 6.19948 34.0064 6.19948C34.6638 6.19948 35.2508 6.39905 35.7674 6.7982C36.2839 7.19735 36.5891 7.72563 36.6831 8.38305L37.2466 11.8345H30.8367Z" fill="#FF6E1F"/>
</svg>
