<svg width="68" height="35" viewBox="0 0 68 35" fill="none" xmlns="http://www.w3.org/2000/svg">
<path d="M29.2361 17.1911C27.9212 17.1911 26.8412 16.698 25.9959 15.7119C25.1507 14.7258 24.8454 13.5753 25.0802 12.2605L25.9255 7.18895C26.3012 5.16973 27.2521 3.51444 28.7782 2.22308C30.3044 0.931721 32.0771 0.286041 34.0963 0.286041C36.1624 0.286041 37.9586 0.931721 39.4848 2.22308C41.0109 3.51444 41.9618 5.16973 42.3375 7.18895L43.1828 12.2605C43.4175 13.5753 43.1123 14.7258 42.2671 15.7119C41.4218 16.698 40.3418 17.1911 39.0269 17.1911H29.2361ZM30.9266 11.5561H37.3364L36.7729 8.10464C36.679 7.44722 36.3738 6.91893 35.8572 6.51979C35.3407 6.12064 34.7537 5.92106 34.0963 5.92106C33.4389 5.92106 32.8636 6.12064 32.3705 6.51979C31.8775 6.91893 31.584 7.44722 31.4901 8.10464L30.9266 11.5561ZM9.02042 19.9382C7.94037 19.9851 7.01294 19.7738 6.23813 19.3042C5.46331 18.8347 4.95851 18.1068 4.72371 17.1207C4.6298 16.698 4.60632 16.2754 4.65328 15.8528C4.70023 15.4302 4.81763 15.031 5.00547 14.6554C5.00547 14.7023 4.98199 14.6084 4.93503 14.3736C4.84111 14.2797 4.60632 13.7162 4.23065 12.6831C4.13673 12.1196 4.20717 11.5796 4.44196 11.063C4.67676 10.5465 4.98199 10.1004 5.35765 9.72471L5.49853 9.58383C5.59245 8.69162 5.95638 7.94028 6.59032 7.32982C7.22426 6.71936 8.01081 6.41413 8.94998 6.41413C9.09086 6.41413 9.53696 6.50805 10.2883 6.69588L10.4996 6.62544C10.7344 6.39065 11.0396 6.21456 11.4153 6.09716C11.791 5.97976 12.1901 5.92106 12.6127 5.92106C13.1293 5.92106 13.5871 6.00324 13.9863 6.1676C14.3854 6.33195 14.7024 6.57848 14.9372 6.90719C14.9842 6.90719 15.0194 6.91893 15.0429 6.94241C15.0663 6.96589 15.1015 6.97763 15.1485 6.97763C15.8059 7.02459 16.3812 7.22416 16.8742 7.57635C17.3673 7.92854 17.7312 8.40987 17.966 9.02033C18.0599 9.34904 18.0952 9.66601 18.0717 9.97124C18.0482 10.2765 17.9895 10.57 17.8956 10.8517C17.8956 10.8987 17.9191 10.9926 17.966 11.1335C18.2947 11.4622 18.553 11.8261 18.7408 12.2252C18.9287 12.6244 19.0226 13.0353 19.0226 13.4579C19.0226 13.6457 18.8817 14.1388 18.6 14.9371C18.553 15.031 18.553 15.1249 18.6 15.2189L18.7408 16.3459C18.7408 17.332 18.3299 18.1772 17.5082 18.8816C16.6864 19.586 15.6885 19.9382 14.5146 19.9382H9.02042ZM56.6364 20.0086C55.0867 20.0086 53.7602 19.4569 52.6566 18.3533C51.5531 17.2498 51.0013 15.9232 51.0013 14.3736C51.0013 13.8101 51.0835 13.2818 51.2479 12.7887C51.4122 12.2957 51.6353 11.8144 51.917 11.3448L49.9448 9.58383C49.4752 9.20816 49.393 8.73858 49.6982 8.17507C50.0035 7.61157 50.4378 7.32982 51.0013 7.32982H56.6364C58.186 7.32982 59.5126 7.88158 60.6161 8.98511C61.7196 10.0886 62.2714 11.4152 62.2714 12.9648V14.3736C62.2714 15.9232 61.7196 17.2498 60.6161 18.3533C59.5126 19.4569 58.186 20.0086 56.6364 20.0086ZM0.286133 31.2787V29.6586C0.286133 27.5924 1.33096 25.9371 3.42061 24.6927C5.51027 23.4483 8.22212 22.8261 11.5562 22.8261C12.1666 22.8261 12.7536 22.8379 13.3171 22.8614C13.8806 22.8848 14.4207 22.9435 14.9372 23.0374C14.2798 23.9766 13.7867 24.9862 13.458 26.0663C13.1293 27.1463 12.9649 28.2968 12.9649 29.5177V34.0962H3.10364C2.30535 34.0962 1.63619 33.8262 1.09617 33.2861C0.556144 32.7461 0.286133 32.077 0.286133 31.2787ZM17.1912 31.2787V29.5177C17.1912 26.4654 18.7526 24.0001 21.8753 22.1218C24.9981 20.2434 29.0717 19.3042 34.0963 19.3042C39.1678 19.3042 43.2532 20.2434 46.3525 22.1218C49.4517 24.0001 51.0013 26.4654 51.0013 29.5177V31.2787C51.0013 32.077 50.7313 32.7461 50.1913 33.2861C49.6513 33.8262 48.9821 34.0962 48.1838 34.0962H20.0087C19.2104 34.0962 18.5413 33.8262 18.0012 33.2861C17.4612 32.7461 17.1912 32.077 17.1912 31.2787ZM56.6364 22.8261C60.0174 22.8261 62.741 23.4483 64.8072 24.6927C66.8733 25.9371 67.9064 27.5924 67.9064 29.6586V31.2787C67.9064 32.077 67.6364 32.7461 67.0964 33.2861C66.5564 33.8262 65.8872 34.0962 65.0889 34.0962H55.2276V29.5177C55.2276 28.2968 55.075 27.1463 54.7698 26.0663C54.4645 24.9862 54.0067 23.9766 53.3962 23.0374C53.9128 22.9435 54.4411 22.8848 54.9811 22.8614C55.5211 22.8379 56.0729 22.8261 56.6364 22.8261ZM30.9266 11.5561L31.4901 8.10464C31.584 7.44722 31.8775 6.91893 32.3705 6.51979C32.8636 6.12064 33.4389 5.92106 34.0963 5.92106C34.7537 5.92106 35.3407 6.12064 35.8572 6.51979C36.3738 6.91893 36.679 7.44722 36.7729 8.10464L37.3364 11.5561H30.9266Z" fill="#FF6E1F"/>
</svg>
