<svg width="33" height="33" viewBox="0 0 33 33" fill="none" xmlns="http://www.w3.org/2000/svg">
<g clip-path="url(#clip0_732_1732)">
<path d="M9.65016 19.9817C11.0965 21.4394 12.5828 22.9315 14.0634 24.4178C16.5101 21.9654 18.9339 19.5301 21.3863 17.0777C22.3696 18.0724 23.2899 18.9985 24.2846 19.9989V12.0014H16.3786C17.3275 12.9446 18.2593 13.865 19.1568 14.7568C17.4361 16.4832 15.7669 18.1524 14.0919 19.8331C12.6399 18.3754 11.1422 16.8719 9.63301 15.357C6.96909 18.0324 4.35089 20.6563 1.72698 23.2859C-0.81118 18.2267 -0.491053 9.29743 6.78044 3.88955C14.0691 -1.52977 24.1874 0.173769 29.4524 7.63962C34.5516 14.8711 32.6651 25.0638 25.2564 30.0772C17.9049 35.0563 8.20387 33.0098 3.39051 26.2528C5.47134 24.1663 7.54646 22.0911 9.65016 19.9817Z" fill="#FF6E1F"/>
</g>
<defs>
<clipPath id="clip0_732_1732">
<rect width="32.03" height="32.1215" fill="white" transform="translate(0.286133 0.716751)"/>
</clipPath>
</defs>
</svg>
