<svg width="29" height="33" viewBox="0 0 29 33" fill="none" xmlns="http://www.w3.org/2000/svg">
<g clip-path="url(#clip0_732_1739)">
<path d="M26.6438 28.5121C26.2223 26.815 25.1792 25.6801 23.493 25.1559C22.1905 24.7505 20.8881 24.3452 19.591 23.9236C19.3586 23.848 19.2559 23.8966 19.1316 24.0966C18.4722 25.1829 17.8021 26.2584 17.1319 27.3339C16.8563 27.7716 16.5266 27.8149 16.1591 27.4582C15.8349 27.1447 15.516 26.8259 15.1917 26.5124C14.7702 26.1017 14.3486 25.6909 13.9109 25.2694C13.165 25.999 12.4462 26.7015 11.722 27.4095C11.2843 27.8365 10.9708 27.7933 10.6411 27.269C9.9926 26.2205 9.33325 25.1721 8.69552 24.1128C8.56041 23.8912 8.44692 23.8642 8.20912 23.9399C6.91204 24.356 5.60956 24.7613 4.30708 25.1613C2.73437 25.6477 1.6859 26.7015 1.25354 28.258C0.8482 29.7119 0.604998 31.2143 0.286133 32.7167H27.568C27.5572 32.6357 27.5518 32.5708 27.5356 32.506C27.2437 31.1765 26.9735 29.8362 26.6438 28.5121ZM13.4299 27.9176H14.4081V28.912H13.4299V27.9176ZM14.4081 31.2954H13.4245V30.3226H14.4081V31.2954Z" fill="#FF6E1F"/>
<path d="M18.9153 6.49415C19.9476 7.36428 20.4556 8.48301 20.4718 9.82873C20.4772 10.4719 20.4718 11.1204 20.4934 11.7635C20.5475 13.2714 20.3853 14.7468 19.7854 16.152C19.753 16.2222 19.7314 16.3357 19.7692 16.3898C20.2178 17.0275 20.4556 17.7409 20.5853 18.4921H22.0499C22.0499 18.3354 22.0499 18.2003 22.0499 18.0598C22.0499 16.2655 22.0499 14.4658 22.0499 12.6715C22.0499 12.0986 22.4012 11.9095 22.8984 12.2013C23.12 12.331 23.3524 12.4553 23.5578 12.6012C23.7415 12.7309 23.8874 12.7472 24.0766 12.612C24.2928 12.4553 24.5306 12.331 24.763 12.1959C25.0872 12.0121 25.4007 12.0662 25.552 12.3256C25.6979 12.5796 25.5845 12.8931 25.2764 13.0822C25.0656 13.2119 24.8386 13.32 24.6441 13.4659C24.1739 13.8172 23.7091 13.9902 23.2065 13.5308C23.1957 13.52 23.1686 13.5308 23.1362 13.5308V18.5083C23.5794 18.5083 23.9955 18.5192 24.4117 18.4975C24.4873 18.4975 24.6008 18.3678 24.617 18.2868C24.8386 17.0924 25.4385 16.1574 26.3627 15.3683C28.0921 13.8929 28.7623 11.9743 28.3245 9.75306C27.6976 6.53739 24.6981 4.51611 21.4608 5.05656C20.4448 5.2241 19.5476 5.67267 18.7532 6.35364C18.818 6.41309 18.8613 6.45632 18.9099 6.49415H18.9153Z" fill="#FF6E1F"/>
<path d="M19.2938 13.6119C18.3858 13.1741 17.6454 12.5256 16.9915 11.7743C16.6023 11.3204 16.2456 10.834 15.8727 10.3584C14.4622 11.3582 12.9435 11.5203 11.3276 10.8502C10.6304 12.0716 9.92239 13.2714 8.49561 13.7902C8.49561 13.8605 8.49561 13.9037 8.50101 13.947C8.92797 16.0007 9.90618 17.7247 11.6032 18.9893C12.7814 19.8703 14.1109 20.1189 15.4674 19.492C17.867 18.3786 18.9749 16.3141 19.4235 13.8172C19.4343 13.7578 19.3532 13.6443 19.2884 13.6119H19.2938Z" fill="#FF6E1F"/>
<path d="M9.06315 12.2445C9.71169 11.6122 10.1495 10.8394 10.5116 10.0179C10.7007 9.58552 10.9817 9.48284 11.3871 9.69361C12.9274 10.5043 14.3217 10.3259 15.5864 9.14776C15.9431 8.81809 16.2944 8.88294 16.5322 9.29909C16.77 9.71523 17.0132 10.1368 17.305 10.5205C17.8887 11.2933 18.5642 11.9851 19.429 12.531C19.429 11.4501 19.429 10.4232 19.429 9.39637C19.429 9.26666 19.4019 9.14236 19.3749 9.01265C19.0993 7.76961 18.2616 7.04001 17.1375 6.59143C15.9269 6.10503 14.6622 5.99154 13.3705 6.06179C9.31176 6.28878 8.13898 9.75306 8.47947 12.7039C8.69565 12.5364 8.90102 12.4067 9.07396 12.2445H9.06315Z" fill="#FF6E1F"/>
<path d="M13.8406 23.6912C14.6567 22.9184 15.4349 22.1239 16.2726 21.4106C16.7698 20.9836 16.6401 20.4972 16.6455 19.9405C14.8026 21.0701 13.0083 21.0917 11.1654 19.9243C11.1654 20.1783 11.1816 20.3621 11.1654 20.5404C11.1275 20.8539 11.241 21.0809 11.468 21.3025C12.0247 21.8375 12.5543 22.405 13.1002 22.9562C13.3704 23.2265 13.646 23.4967 13.846 23.6912H13.8406Z" fill="#FF6E1F"/>
<path d="M9.44141 23.2859C10.0683 24.3182 10.6898 25.3396 11.2843 26.3232C11.9221 25.6855 12.5328 25.0748 13.1327 24.4749C12.3274 23.6696 11.5005 22.8427 10.6412 21.9834C10.2467 22.4104 9.84674 22.8427 9.44141 23.2859Z" fill="#FF6E1F"/>
<path d="M18.4668 23.2319C18.0182 22.8373 17.5805 22.4536 17.2021 22.1185C16.3969 22.8752 15.5376 23.675 14.635 24.5235C15.2998 25.1397 15.9267 25.7179 16.559 26.3016C17.1697 25.318 17.802 24.302 18.4668 23.2319Z" fill="#FF6E1F"/>
<path d="M21.4285 20.5891C22.1905 20.6593 22.9688 20.6485 23.7362 20.5891C24.2496 20.5512 24.5523 20.0648 24.5036 19.5298H20.5962C20.6556 20.0756 20.8718 20.535 21.4285 20.5891Z" fill="#FF6E1F"/>
<path d="M18.9804 3.1812C19.0614 3.33793 19.2506 3.44062 19.3911 3.56492C19.8343 3.51087 20.0991 3.21363 19.9748 2.85153C19.8397 2.44619 19.6613 2.05166 19.4668 1.67335C19.3317 1.40312 19.0506 1.33286 18.8074 1.45176C18.575 1.56526 18.4615 1.84089 18.5588 2.10571C18.6885 2.46781 18.8128 2.84072 18.9858 3.1812H18.9804Z" fill="#FF6E1F"/>
<path d="M25.979 3.419C26.2817 2.96502 26.5249 2.46781 26.7897 1.98681C26.7627 1.97059 26.7357 1.95978 26.7032 1.94357C26.7032 1.69496 26.5627 1.495 26.3303 1.45176C26.0817 1.40312 25.8764 1.48959 25.7683 1.72199C25.5845 2.12192 25.3845 2.51645 25.2548 2.93259C25.2062 3.08392 25.2873 3.34333 25.4062 3.46764C25.5683 3.64598 25.8655 3.59734 25.979 3.419Z" fill="#FF6E1F"/>
<path d="M22.1096 2.37052C22.1312 2.66777 22.3041 2.83531 22.5744 2.84072C22.85 2.84612 23.0824 2.66777 23.0986 2.38133C23.1202 1.98681 23.1202 1.58687 23.0986 1.19235C23.0824 0.900503 22.8608 0.711346 22.5906 0.711346C22.3258 0.711346 22.1204 0.911312 22.1042 1.20856C22.0934 1.39231 22.1042 1.57606 22.1042 1.75441C22.1042 1.95978 22.0934 2.16515 22.1042 2.36512L22.1096 2.37052Z" fill="#FF6E1F"/>
</g>
<defs>
<clipPath id="clip0_732_1739">
<rect width="28.1682" height="32" fill="white" transform="translate(0.286133 0.716751)"/>
</clipPath>
</defs>
</svg>
