<svg width="34" height="33" viewBox="0 0 34 33" fill="none" xmlns="http://www.w3.org/2000/svg">
<g clip-path="url(#clip0_732_1791)">
<path d="M0.286343 29.5287C0.392396 29.5287 0.50403 29.5399 0.610083 29.5399C11.3828 29.5399 22.1555 29.5399 32.9282 29.5399C33.0343 29.5399 33.1459 29.5343 33.252 29.5287V32.2637C33.118 32.2693 32.9896 32.2805 32.8557 32.2805C22.1276 32.2805 11.4051 32.2805 0.677064 32.2805C0.543103 32.2805 0.414723 32.2693 0.280762 32.2637C0.280762 31.3539 0.280762 30.4385 0.280762 29.5287H0.286343Z" fill="#FF6E1F"/>
<path d="M19.3366 0.302817V17.115C18.3487 16.2498 17.2546 15.887 15.9932 16.1661C15.128 16.3558 14.4247 16.8135 13.8889 17.5168C12.7 19.0797 12.9567 20.877 14.6368 22.6576C12.6162 23.0037 11.2878 24.1423 10.6905 26.0513C10.2942 25.5936 9.94259 25.041 9.46256 24.6559C8.97137 24.2651 8.34622 24.0363 7.78247 23.7405C8.21226 23.3442 8.58065 22.7971 8.72019 22.1162C8.98253 20.8547 8.46344 19.5988 7.36384 18.9234C7.16289 18.8006 7.09033 18.6723 7.09033 18.4434C7.09591 14.4636 7.09033 10.4783 7.1015 6.49853C7.11266 3.30578 9.27278 0.821917 12.432 0.336307C12.7055 0.297235 12.979 0.291653 13.2581 0.291653C15.1894 0.286072 17.1207 0.286072 19.052 0.286072C19.1357 0.286072 19.2194 0.297235 19.3366 0.302817ZM9.99841 12.0356C9.79747 12.0356 9.59094 12.0244 9.39 12.0356C9.1444 12.0579 8.96021 12.2198 9.01044 12.4542C9.04393 12.6161 9.22255 12.8449 9.36209 12.8617C9.76956 12.9175 10.1938 12.9008 10.6124 12.8784C10.8524 12.8617 11.0031 12.6831 10.992 12.4375C10.9808 12.1975 10.8245 12.0468 10.5733 12.03C10.3835 12.0188 10.1938 12.03 9.99841 12.03V12.0356ZM9.98166 15.9205C10.1826 15.9205 10.3891 15.9316 10.5901 15.9205C10.8412 15.8981 10.9864 15.7419 10.9864 15.4963C10.9864 15.2507 10.8357 15.0832 10.5901 15.072C10.1993 15.0553 9.80305 15.0553 9.40675 15.072C9.16115 15.0832 9.00486 15.2283 8.9937 15.4795C8.98254 15.7474 9.14441 15.9037 9.40675 15.9261C9.59652 15.9428 9.7863 15.9261 9.98166 15.9261V15.9205ZM9.99283 18.9458C10.1938 18.9458 10.4003 18.9625 10.6012 18.9458C10.8524 18.9234 11.0254 18.7504 10.9808 18.5215C10.9473 18.3653 10.7631 18.1364 10.618 18.1197C10.2105 18.0639 9.7863 18.0806 9.36767 18.1085C9.12766 18.1252 8.94904 18.315 9.01044 18.5495C9.0551 18.7057 9.23371 18.8788 9.39 18.9346C9.56862 19.0016 9.79188 18.9513 9.99283 18.9513V18.9458ZM10.0152 9.0103C9.81421 9.0103 9.60769 8.99914 9.40675 9.0103C9.15557 9.02146 8.97137 9.17775 9.01044 9.41777C9.03835 9.57964 9.21139 9.81965 9.34535 9.8364C9.76956 9.89221 10.2049 9.89221 10.6236 9.8364C10.7631 9.81965 10.9473 9.57964 10.9696 9.42335C11.0087 9.1945 10.8357 9.02705 10.5789 9.0103C10.3891 8.99914 10.1993 9.0103 10.004 9.0103H10.0152ZM16.4341 5.97943C16.2276 5.97943 16.0267 5.96826 15.8257 5.97943C15.5857 5.99617 15.4183 6.15804 15.4573 6.37573C15.4852 6.5376 15.6583 6.78319 15.7922 6.79994C16.2164 6.85576 16.6574 6.85576 17.0816 6.79994C17.2156 6.78319 17.4109 6.52643 17.4053 6.38131C17.4053 6.24177 17.1988 6.05199 17.0425 5.99059C16.8639 5.92361 16.6407 5.97384 16.4397 5.97384L16.4341 5.97943ZM10.0152 5.97943C9.81421 5.97943 9.60769 5.96826 9.40675 5.97943C9.15557 5.99617 8.97137 6.14688 9.01044 6.38689C9.03835 6.54876 9.21697 6.78319 9.35093 6.79994C9.76956 6.85576 10.2105 6.85576 10.6291 6.79994C10.7687 6.78319 10.9529 6.54876 10.9752 6.38689C11.0143 6.15804 10.8357 5.99059 10.5845 5.97384C10.3947 5.96268 10.2049 5.97384 10.0152 5.97384V5.97943ZM16.462 12.0356C16.2611 12.0356 16.0546 12.03 15.8536 12.0356C15.6025 12.0468 15.4517 12.1975 15.4406 12.4431C15.4294 12.7054 15.5913 12.8729 15.8536 12.8896C16.2332 12.9063 16.6183 12.9063 16.9979 12.8896C17.2546 12.8784 17.4277 12.7389 17.4277 12.4598C17.4277 12.1863 17.2658 12.0468 16.9979 12.0356C16.8193 12.0244 16.6407 12.0356 16.462 12.0356ZM13.2191 2.94855C13.0181 2.94855 12.8116 2.93739 12.6107 2.94855C12.3762 2.9653 12.1976 3.11042 12.2367 3.33927C12.2646 3.50114 12.432 3.74674 12.5604 3.76348C12.9846 3.8193 13.42 3.8193 13.8442 3.76348C13.9782 3.74674 14.1568 3.51231 14.1847 3.35044C14.2294 3.11042 14.0452 2.95413 13.7884 2.94297C13.5986 2.93181 13.4033 2.94297 13.2135 2.94297L13.2191 2.94855ZM16.423 3.80256C16.6239 3.80256 16.8304 3.8193 17.0314 3.80256C17.277 3.77465 17.4277 3.62952 17.4221 3.36718C17.4165 3.11042 17.2658 2.9653 17.0146 2.95972C16.6295 2.94855 16.2499 2.95413 15.8648 2.95972C15.608 2.95972 15.4517 3.11042 15.4406 3.35602C15.4238 3.62394 15.5857 3.78023 15.848 3.80814C16.0378 3.82488 16.2332 3.80814 16.423 3.80814V3.80256ZM16.4341 9.8643C16.6239 9.8643 16.8193 9.88105 17.0035 9.8643C17.2602 9.84198 17.4277 9.69685 17.4221 9.42335C17.4109 9.14984 17.2491 9.01588 16.9811 9.0103C16.6127 9.00472 16.2444 9.0103 15.876 9.0103C15.6025 9.0103 15.4462 9.16659 15.4406 9.42893C15.4406 9.69685 15.608 9.84198 15.8648 9.8643C16.0546 9.88105 16.2444 9.8643 16.4341 9.8643ZM13.2135 5.97943C13.0125 5.97943 12.806 5.96826 12.6051 5.97943C12.3706 5.99617 12.192 6.15246 12.2367 6.37573C12.2702 6.5376 12.4376 6.78319 12.566 6.79994C12.9902 6.85576 13.4312 6.85576 13.8554 6.79994C13.9893 6.78319 14.1847 6.52643 14.1847 6.38131C14.1847 6.24177 13.9782 6.05199 13.8219 5.99059C13.6433 5.92361 13.42 5.97384 13.2191 5.97384L13.2135 5.97943ZM13.2191 9.00472C13.0293 9.00472 12.8339 9.00472 12.6441 9.00472C12.393 9.01588 12.2367 9.14426 12.2199 9.40102C12.2032 9.67452 12.3651 9.84198 12.6218 9.85314C13.0014 9.87547 13.3865 9.86988 13.7717 9.85314C14.034 9.84198 14.2014 9.69127 14.1959 9.41777C14.1903 9.14426 14.0228 9.00472 13.7549 8.99914C13.5763 8.99914 13.3977 8.99914 13.2135 8.99914L13.2191 9.00472ZM13.1912 12.8952C13.3921 12.8952 13.5986 12.9119 13.7996 12.8952C14.0452 12.8729 14.1959 12.7221 14.1959 12.471C14.1959 12.2198 14.0507 12.0579 13.7996 12.0468C13.4033 12.03 13.007 12.03 12.6162 12.0468C12.3651 12.0579 12.2199 12.2142 12.2199 12.4654C12.2199 12.7221 12.3706 12.8673 12.6162 12.8896C12.806 12.9119 13.0014 12.8896 13.1912 12.8896V12.8952Z" fill="#FF6E1F"/>
<path d="M22.8865 26.1852C22.2446 24.1479 20.9217 23.0037 18.8677 22.652C18.9737 22.5571 19.0519 22.4901 19.13 22.4176C20.2408 21.385 20.6203 20.1347 20.2296 18.6667C20.1682 18.4378 20.0789 18.2257 20.1961 17.9801C20.2464 17.8796 20.2073 17.7457 20.2073 17.6229C20.2073 14.2627 20.2073 10.9025 20.2073 7.54788V7.08459H26.4309C26.4365 7.18507 26.4477 7.30228 26.4477 7.41392C26.4477 11.0867 26.4477 14.7539 26.4477 18.4266C26.4477 18.6332 26.4142 18.7671 26.2132 18.8899C24.4996 19.9393 24.2317 22.1887 25.6439 23.6121C25.6997 23.6679 25.789 23.6958 25.8392 23.7739C24.4606 24.1033 23.4893 24.8624 22.8809 26.1741L22.8865 26.1852ZM23.3275 9.81964C23.5898 9.81964 23.8522 9.82522 24.1145 9.81964C24.3824 9.81964 24.5499 9.68009 24.561 9.40659C24.5666 9.13309 24.3992 8.9768 24.1424 8.96563C23.5954 8.94889 23.0428 8.94889 22.4902 8.96563C22.2335 8.9768 22.0716 9.13867 22.0827 9.41217C22.0939 9.66893 22.2502 9.80289 22.5014 9.80847C22.7749 9.81964 23.054 9.80847 23.3275 9.80847V9.81964ZM23.3275 12.8673C23.5786 12.8673 23.8298 12.8728 24.081 12.8673C24.3713 12.8561 24.5722 12.7333 24.561 12.4151C24.5499 12.1193 24.3489 12.0077 24.0754 12.0077C23.5731 12.0077 23.0707 12.0077 22.5684 12.0077C22.2949 12.0077 22.0939 12.1193 22.0883 12.4207C22.0772 12.7445 22.2893 12.8561 22.5739 12.8673C22.8251 12.8728 23.0763 12.8673 23.3275 12.8673ZM23.6456 15.0553C23.4782 15.0553 23.3107 15.0497 23.1433 15.0553C22.8921 15.0665 22.7414 15.206 22.7302 15.4628C22.7191 15.7195 22.8698 15.887 23.1098 15.9037C23.467 15.9316 23.8298 15.9316 24.1871 15.9037C24.4326 15.887 24.5778 15.7139 24.5666 15.4628C24.5554 15.2116 24.4047 15.072 24.148 15.0609C23.9805 15.0553 23.8131 15.0609 23.6456 15.0609V15.0553Z" fill="#FF6E1F"/>
<path d="M11.3994 28.6579C11.3994 27.603 11.2822 26.5648 11.7901 25.6047C12.432 24.3935 13.42 23.64 14.7931 23.5563C16.0824 23.4781 17.383 23.4725 18.6724 23.5507C20.6036 23.6623 22.0326 25.1973 22.1051 27.1397C22.1219 27.6365 22.1051 28.1388 22.1051 28.6579H11.3938H11.3994Z" fill="#FF6E1F"/>
<path d="M23.4448 28.6468C23.4839 28.0551 23.4616 27.4858 23.5788 26.9388C23.8411 25.6829 24.8793 24.7675 26.191 24.6838C27.2292 24.6168 28.2786 24.6112 29.3168 24.6838C30.7848 24.7898 31.8341 25.8615 31.996 27.3295C32.0407 27.7537 32.0016 28.1891 32.0016 28.6468H23.4448Z" fill="#FF6E1F"/>
<path d="M1.53096 28.6468C1.53096 28.1835 1.49189 27.7481 1.53654 27.3239C1.68725 25.9062 2.73103 24.8066 4.15437 24.6949C5.27071 24.6112 6.40938 24.6224 7.53131 24.7117C8.83743 24.8177 9.88679 25.9508 10.0152 27.2569C10.0598 27.7035 10.0208 28.1612 10.0208 28.6412H1.53096V28.6468Z" fill="#FF6E1F"/>
<path d="M19.5098 19.6825C19.5098 21.2063 18.3041 22.4232 16.7803 22.4343C15.2454 22.4455 14.0174 21.2175 14.023 19.677C14.023 18.1643 15.2565 16.9363 16.7692 16.9419C18.2818 16.9419 19.5042 18.1699 19.5098 19.6881V19.6825Z" fill="#FF6E1F"/>
<path d="M7.91643 21.491C7.91085 22.6743 6.93405 23.6344 5.75073 23.6232C4.58415 23.6121 3.64084 22.652 3.63525 21.4799C3.63525 20.2965 4.60089 19.3253 5.78422 19.3309C6.97312 19.3309 7.92201 20.3021 7.91643 21.491Z" fill="#FF6E1F"/>
<path d="M25.6162 21.4743C25.6162 20.2854 26.5818 19.3197 27.7652 19.3253C28.9318 19.3309 29.8862 20.2854 29.8974 21.4575C29.9086 22.6409 28.9429 23.6177 27.7652 23.6232C26.5818 23.6232 25.6162 22.6632 25.6162 21.4743Z" fill="#FF6E1F"/>
</g>
<defs>
<clipPath id="clip0_732_1791">
<rect width="32.9656" height="32" fill="white" transform="translate(0.286133 0.286072)"/>
</clipPath>
</defs>
</svg>
