<svg width="34" height="35" viewBox="0 0 34 35" fill="none" xmlns="http://www.w3.org/2000/svg">
<path id="recommend" d="M12.0298 27.3291H21.3276C21.8066 27.3291 22.2504 27.2094 22.6589 26.9699C23.0674 26.7304 23.3562 26.3993 23.5253 25.9767L27.0754 17.6932C27.1317 17.5524 27.174 17.4115 27.2021 17.2706C27.2303 17.1297 27.2444 16.9889 27.2444 16.848V15.4956C27.2444 15.0166 27.0824 14.6151 26.7584 14.2911C26.4344 13.9671 26.0329 13.8051 25.5539 13.8051H17.7776L18.7919 8.05734C18.8482 7.77559 18.8341 7.50792 18.7496 7.25435C18.6651 7.00077 18.5242 6.77537 18.327 6.57815L17.1014 5.35253L9.32503 13.8051C9.09963 14.0305 8.93058 14.284 8.81788 14.5658C8.70518 14.8475 8.64882 15.1575 8.64882 15.4956V23.9481C8.64882 24.8779 8.97988 25.6738 9.642 26.3359C10.3041 26.9981 11.1001 27.3291 12.0298 27.3291ZM17.1014 34.0911C14.7628 34.0911 12.5652 33.6474 10.5084 32.7599C8.4516 31.8724 6.66248 30.6679 5.14102 29.1464C3.61957 27.625 2.41508 25.8358 1.52756 23.7791C0.640047 21.7223 0.196289 19.5246 0.196289 17.1861C0.196289 14.8475 0.640047 12.6499 1.52756 10.5931C2.41508 8.53632 3.61957 6.7472 5.14102 5.22574C6.66248 3.70428 8.4516 2.4998 10.5084 1.61228C12.5652 0.724764 14.7628 0.281006 17.1014 0.281006C19.4399 0.281006 21.6376 0.724764 23.6943 1.61228C25.7511 2.4998 27.5402 3.70428 29.0617 5.22574C30.5832 6.7472 31.7876 8.53632 32.6752 10.5931C33.5627 12.6499 34.0064 14.8475 34.0064 17.1861C34.0064 19.5246 33.5627 21.7223 32.6752 23.7791C31.7876 25.8358 30.5832 27.625 29.0617 29.1464C27.5402 30.6679 25.7511 31.8724 23.6943 32.7599C21.6376 33.6474 19.4399 34.0911 17.1014 34.0911Z" fill="#FF6E1F"/>
</svg>
