<svg width="33" height="35" viewBox="0 0 33 35" fill="none" xmlns="http://www.w3.org/2000/svg">
<path d="M3.50615 32.4862C2.62064 32.4862 1.8626 32.1709 1.23201 31.5403C0.601426 30.9097 0.286133 30.1517 0.286133 29.2662V6.72607C0.286133 5.84056 0.601426 5.08252 1.23201 4.45193C1.8626 3.82135 2.62064 3.50605 3.50615 3.50605H5.11615V0.286041H8.33617V3.50605H21.2162V0.286041H24.4362V3.50605H26.0462C26.9317 3.50605 27.6898 3.82135 28.3204 4.45193C28.951 5.08252 29.2663 5.84056 29.2663 6.72607V15.8629C28.7564 15.6214 28.2332 15.4201 27.6965 15.2591C27.1598 15.0981 26.6097 14.9774 26.0462 14.8969V13.1661H3.50615V29.2662H13.6492C13.837 29.8565 14.0584 30.42 14.3133 30.9567C14.5682 31.4933 14.8701 32.0032 15.2189 32.4862H3.50615ZM24.4362 34.0962C22.2091 34.0962 20.3106 33.3113 18.7408 31.7416C17.1711 30.1718 16.3862 28.2733 16.3862 26.0462C16.3862 23.819 17.1711 21.9205 18.7408 20.3508C20.3106 18.781 22.2091 17.9961 24.4362 17.9961C26.6634 17.9961 28.5619 18.781 30.1316 20.3508C31.7014 21.9205 32.4863 23.819 32.4863 26.0462C32.4863 28.2733 31.7014 30.1718 30.1316 31.7416C28.5619 33.3113 26.6634 34.0962 24.4362 34.0962ZM27.133 29.8699L28.26 28.7429L25.2412 25.7241V21.2161H23.6312V26.3682L27.133 29.8699Z" fill="#FF6E1F"/>
</svg>
