<svg width="33" height="34" viewBox="0 0 33 34" fill="none" xmlns="http://www.w3.org/2000/svg">
<g clip-path="url(#clip0_732_1779)">
<path d="M21.1326 21.7578C21.3681 19.9398 21.5984 18.1218 21.8182 16.2985C21.9177 15.4557 21.6298 14.7667 20.9599 14.2525C20.3789 13.802 19.8032 13.3356 19.2065 12.9009C18.9867 12.7419 18.9448 12.5882 19.0024 12.3338C19.2431 11.2737 19.4682 10.2083 19.7037 9.14298C19.7247 9.05817 19.7613 8.97867 19.7979 8.87266C20.2794 9.20128 20.7296 9.5087 21.1797 9.81082C21.656 10.1341 22.1741 10.2189 22.6975 9.96453C24.1421 9.24898 25.5761 8.51223 27.0102 7.77018C27.3347 7.60057 27.3871 7.35146 27.1986 7.01753C27.005 6.67301 26.8009 6.33909 26.5968 5.99987C26.3403 5.57584 26.1728 5.52283 25.7227 5.74015C24.7806 6.19068 23.8071 6.58821 22.9173 7.11824C22.2003 7.54227 21.6507 7.53167 21.0698 6.93273C20.5725 6.41859 19.9078 6.23308 19.2117 6.13237C18.1964 5.97866 17.181 5.78255 16.1708 5.59174C15.6998 5.50693 15.2392 5.44333 14.7734 5.63944C13.8313 6.03167 12.8735 6.37619 11.9523 6.80552C11.5912 6.96983 11.2353 7.25605 11.005 7.57937C10.4607 8.33202 9.99485 9.14298 9.50287 9.93273C9.30398 10.2561 9.36679 10.4999 9.68605 10.6801C10.0053 10.8603 10.3351 11.0299 10.6596 11.1995C10.9527 11.3532 11.1829 11.2843 11.3609 11.0087C11.5598 10.696 11.7901 10.3992 11.9419 10.0652C12.3187 9.24368 12.9101 8.76665 13.8104 8.63944C14.2186 8.58114 14.6111 8.41153 15.0456 8.28432C15.0246 8.40623 15.0194 8.46453 14.9985 8.52283C14.2709 10.9504 13.5434 13.3833 12.8055 15.8055C12.7583 15.9539 12.6432 16.097 12.5333 16.2083C11.408 17.3267 10.2775 18.4345 9.14696 19.5476C8.80153 19.8868 8.79629 20.067 9.10509 20.438C9.41913 20.8144 9.73316 21.1854 10.0524 21.5564C10.3717 21.9327 10.5915 21.9433 10.9422 21.6041C11.6645 20.9098 12.3815 20.2154 13.0985 19.5158C13.6795 18.9486 14.3704 18.461 14.8048 17.7932C15.2287 17.1412 15.391 16.3091 15.6632 15.5617C15.6998 15.461 15.7417 15.3603 15.7783 15.2596C15.951 14.7932 16.1185 14.3214 16.2965 13.8285C17.2857 14.5599 18.2435 15.2596 19.1908 15.9804C19.285 16.0493 19.3426 16.2455 19.3269 16.3727C19.1385 18.1006 18.9396 19.8285 18.7354 21.5511C18.6988 21.8691 18.6412 22.1765 18.9553 22.4151C18.636 22.4151 18.3167 22.4151 18.0027 22.4151C17.0763 22.4151 16.6314 22.8656 16.6314 23.8038C16.6314 26.8409 16.6314 29.8727 16.6314 32.9098C16.6314 33.0264 16.6419 33.143 16.6471 33.2808H24.0897V22.4151H20.9127C20.9913 22.1818 21.1012 21.9751 21.1326 21.7578Z" fill="#FF6E1F"/>
<path d="M32.286 19.2561C32.286 18.3497 31.8307 17.8886 30.9252 17.8886C29.3393 17.8886 27.7535 17.8886 26.1676 17.8886C25.2621 17.8886 24.812 18.3497 24.812 19.2614C24.812 23.8038 24.812 28.3515 24.812 32.8939C24.812 33.0211 24.812 33.1483 24.812 33.2861H32.286V32.9257C32.286 28.3674 32.286 23.8144 32.286 19.2561Z" fill="#FF6E1F"/>
<path d="M9.73836 25.8232C8.90094 25.8232 8.45605 26.3002 8.45605 27.1536C8.45605 29.0829 8.45605 31.0175 8.45605 32.9469C8.45605 33.0529 8.46652 33.1589 8.47699 33.2808H15.9196V25.8497C15.8358 25.8391 15.7521 25.8232 15.6736 25.8179C13.6952 25.8179 11.7168 25.8126 9.73836 25.8179V25.8232Z" fill="#FF6E1F"/>
<path d="M1.39562 28.3833C0.762323 28.3833 0.296507 28.9027 0.291273 29.5546C0.280806 30.7313 0.291273 31.9027 0.291273 33.0794C0.291273 33.1483 0.312209 33.2172 0.327911 33.2861H7.74433V28.4098C7.69723 28.3939 7.67629 28.3833 7.65536 28.3833C5.57227 28.3833 3.48918 28.3727 1.40086 28.3833H1.39562Z" fill="#FF6E1F"/>
<path d="M18.6311 5.37443C20.0338 5.37443 21.159 4.23485 21.1538 2.81966C21.1433 1.40976 20.0338 0.286087 18.6415 0.286087C17.2336 0.286087 16.1188 1.41506 16.124 2.84086C16.1293 4.25075 17.2389 5.36913 18.6311 5.37443Z" fill="#FF6E1F"/>
<path d="M29.24 11.8409C29.1615 12.1324 29.1039 12.3603 29.0411 12.5882C28.9783 12.8214 29.0359 13.0016 29.2714 13.0652C29.4965 13.1288 29.6378 12.9963 29.6953 12.7896C29.8419 12.2861 29.9989 11.7826 30.1036 11.2684C30.1298 11.1359 29.9989 10.8709 29.8838 10.8285C29.3761 10.643 28.8422 10.5105 28.3188 10.3727C28.1042 10.3144 27.9054 10.4045 27.8949 10.6218C27.8949 10.7543 28.0257 10.9451 28.1461 11.0193C28.3241 11.1253 28.5439 11.1518 28.837 11.2366C28.6852 11.332 28.5858 11.3956 28.4863 11.4539C27.361 12.0635 26.2357 12.6677 25.1052 13.2773C24.7598 13.4628 24.4144 13.6483 24.0742 13.8391C23.8753 13.9504 23.7968 14.1518 23.9381 14.3161C24.0218 14.4168 24.2364 14.4274 24.3934 14.438C24.4719 14.4433 24.5609 14.3585 24.6446 14.3161C26.0316 13.5688 27.4186 12.8161 28.8056 12.0688C28.926 12.0052 29.0516 11.9416 29.24 11.8462V11.8409Z" fill="#FF6E1F"/>
</g>
<defs>
<clipPath id="clip0_732_1779">
<rect width="32" height="33" fill="white" transform="translate(0.286133 0.286087)"/>
</clipPath>
</defs>
</svg>
