<svg width="35" height="35" viewBox="0 0 35 35" fill="none" xmlns="http://www.w3.org/2000/svg">
<path d="M12.1197 27.3342H21.4175C21.8965 27.3342 22.3402 27.2144 22.7487 26.9749C23.1573 26.7354 23.4461 26.4044 23.6151 25.9818L27.1652 17.6983C27.2215 17.5574 27.2638 17.4165 27.292 17.2756C27.3202 17.1348 27.3342 16.9939 27.3342 16.853V15.5006C27.3342 15.0216 27.1722 14.6201 26.8482 14.2961C26.5242 13.9721 26.1227 13.8101 25.6437 13.8101H17.8674L18.8817 8.06237C18.9381 7.78062 18.924 7.51296 18.8394 7.25938C18.7549 7.00581 18.614 6.78041 18.4168 6.58318L17.1912 5.35756L9.41487 13.8101C9.18947 14.0355 9.02042 14.2891 8.90772 14.5708C8.79502 14.8526 8.73867 15.1625 8.73867 15.5006V23.9531C8.73867 24.8829 9.06973 25.6789 9.73184 26.341C10.394 27.0031 11.1899 27.3342 12.1197 27.3342ZM17.1912 34.0962C14.8527 34.0962 12.655 33.6524 10.5982 32.7649C8.54144 31.8774 6.75232 30.6729 5.23087 29.1515C3.70941 27.63 2.50492 25.8409 1.61741 23.7841C0.729891 21.7273 0.286133 19.5296 0.286133 17.1911C0.286133 14.8526 0.729891 12.6549 1.61741 10.5981C2.50492 8.54135 3.70941 6.75223 5.23087 5.23077C6.75232 3.70932 8.54144 2.50483 10.5982 1.61732C12.655 0.729799 14.8527 0.286041 17.1912 0.286041C19.5297 0.286041 21.7274 0.729799 23.7842 1.61732C25.841 2.50483 27.6301 3.70932 29.1515 5.23077C30.673 6.75223 31.8775 8.54135 32.765 10.5981C33.6525 12.6549 34.0963 14.8526 34.0963 17.1911C34.0963 19.5296 33.6525 21.7273 32.765 23.7841C31.8775 25.8409 30.673 27.63 29.1515 29.1515C27.6301 30.6729 25.841 31.8774 23.7842 32.7649C21.7274 33.6524 19.5297 34.0962 17.1912 34.0962Z" fill="#FF6E1F"/>
</svg>
