<svg width="70" height="70" viewBox="0 0 70 70" fill="none" xmlns="http://www.w3.org/2000/svg">
<circle cx="35" cy="35" r="35" fill="#4C4FEC"/>
<g clip-path="url(#clip0_1517_1368)">
<path d="M50.8509 46.9036C50.6468 46.9474 50.6565 47.171 50.5982 47.3216C49.9031 49.1298 48.6782 49.995 46.9575 49.995C38.7795 49.995 30.6014 49.995 22.4258 49.995C21.5193 49.995 20.6152 50.0096 19.7087 49.9902C17.6089 49.9513 16.017 48.1723 16.0122 45.7808C15.9951 38.6284 15.9976 31.4783 16.0097 24.3259C16.0146 21.8056 17.6113 20.0533 19.8958 20.0412C23.2521 20.0242 26.6084 20.0363 29.9647 20.0363C35.292 20.0363 40.6217 20.1092 45.9465 20.0023C48.2578 19.9561 49.9857 20.6755 50.8534 23.2638V46.9036H50.8509ZM44.6123 47.2366C45.356 47.2463 46.1021 47.2682 46.8458 47.2658C47.9977 47.2609 48.4473 46.7578 48.4522 45.4649C48.4595 43.314 48.4522 41.1656 48.4522 39.0148C48.4522 34.2003 48.4546 29.3858 48.4522 24.5713C48.4522 23.3197 47.9953 22.7802 46.9162 22.7656C46.1458 22.7559 45.3754 22.7948 44.605 22.8142C44.5005 22.7972 44.396 22.7656 44.289 22.7656C36.1717 22.7632 28.052 22.7583 19.9347 22.7656C18.8556 22.7656 18.4036 23.3221 18.4036 24.5762C18.3987 31.5099 18.4012 38.4436 18.4036 45.3774C18.4036 46.787 18.8338 47.2633 20.1 47.2633C24.2777 47.2657 28.4579 47.2682 32.6356 47.2633C36.6286 47.2585 40.6192 47.2439 44.6123 47.2342V47.2366Z" fill="white"/>
<path d="M30.65 44.4175C29.7411 44.4321 29.2089 43.4891 29.5807 42.4392C30.3973 40.145 31.243 37.8653 32.0815 35.5808C33.0512 32.9342 34.0185 30.2876 34.9955 27.6434C35.3795 26.6056 36.0065 26.2265 36.7137 26.5764C37.3699 26.9021 37.5692 27.6968 37.2119 28.669C35.4281 33.5466 33.6345 38.417 31.8531 43.2971C31.6222 43.9339 31.3038 44.4005 30.6476 44.4199L30.65 44.4175Z" fill="white"/>
<path d="M26.8374 41.5886C26.4874 41.5716 26.186 41.4015 25.9138 41.1415C24.3195 39.6274 22.7179 38.1254 21.1334 36.5992C20.3921 35.8846 20.397 35.0073 21.148 34.2855C22.7325 32.7592 24.3268 31.2451 25.9308 29.7456C26.5822 29.1356 27.2335 29.1721 27.7074 29.7797C28.1838 30.3921 28.1011 31.2087 27.4522 31.843C26.361 32.9075 25.2649 33.9671 24.1397 34.983C23.7192 35.3646 23.7581 35.5614 24.1518 35.9211C25.2941 36.9613 26.4072 38.0476 27.5276 39.117C27.9577 39.5277 28.1206 40.0551 27.9407 40.6627C27.7706 41.2338 27.3696 41.5133 26.8398 41.5886H26.8374Z" fill="white"/>
<path d="M44.7386 33.2891C45.091 33.6439 45.4507 33.989 45.7934 34.356C46.4228 35.034 46.4228 35.8604 45.7934 36.5409C45.4531 36.9078 45.091 37.2529 44.7386 37.6078C43.487 38.7743 42.2378 39.9482 40.9789 41.1074C40.2473 41.7806 39.4794 41.7077 39.0468 40.9519C38.6846 40.32 38.8013 39.6444 39.4235 39.0417C40.5366 37.9626 41.6569 36.8932 42.7919 35.8458C43.1346 35.5298 43.1273 35.3524 42.787 35.0413C41.6715 34.0157 40.573 32.961 39.4794 31.9062C38.7721 31.2257 38.6579 30.4334 39.1464 29.7894C39.6446 29.1332 40.296 29.1478 41.0445 29.8429C42.2791 30.99 43.5089 32.1395 44.741 33.2866L44.7386 33.2891Z" fill="white"/>
</g>
<defs>
<clipPath id="clip0_1517_1368">
<rect width="34.8509" height="30" fill="white" transform="translate(16 20)"/>
</clipPath>
</defs>
</svg>
