<svg width="70" height="70" viewBox="0 0 70 70" fill="none" xmlns="http://www.w3.org/2000/svg">
<circle cx="35" cy="35" r="35" fill="#1CD1B2"/>
<g clip-path="url(#clip0_1517_1364)">
<path d="M34.0087 12C34.3691 12.2842 34.4661 12.6515 34.4592 13.109C34.4384 14.4675 34.4523 15.826 34.4523 17.1844C34.4523 17.3023 34.4523 17.427 34.4453 17.5449C34.383 17.9677 34.0711 18.231 33.6691 18.2033C33.2879 18.1756 33.0106 17.8983 33.0106 17.4755C33.0037 15.8883 32.9898 14.308 33.0245 12.7208C33.0245 12.4782 33.3156 12.2357 33.4681 12C33.6483 12 33.8285 12 34.0156 12H34.0087Z" fill="white"/>
<path d="M25.3106 22.3341C25.7057 21.3014 26.7454 20.6637 27.9098 20.7261C29.1366 20.7954 30.1901 21.6202 30.4604 22.7569C30.5297 23.048 30.5575 23.353 30.5575 23.651C30.5575 30.395 30.5575 37.1458 30.5644 43.8898C30.5644 44.7492 30.3149 45.4978 29.6703 46.08C29.5317 46.2047 29.3099 46.3018 29.1158 46.3087C28.2217 46.3295 27.3345 46.3295 26.4404 46.3087C26.2533 46.3087 26.0245 46.2186 25.8859 46.0869C25.4146 45.6572 25.1304 45.1027 25.0403 44.472C24.9156 43.6472 25.1859 43.1343 25.9275 42.7115C26.3434 42.4758 26.4958 42.1431 26.3572 41.7827C26.2047 41.3807 25.8097 41.2144 25.3453 41.3946C24.4304 41.755 23.8967 42.4481 23.6749 43.3907C23.6264 43.5917 23.5987 43.8066 23.564 44.0076C22.0392 44.2155 20.3965 42.8778 20.1331 41.2213C19.842 39.4192 20.7569 37.8667 22.4689 37.2498C22.5659 37.2151 22.6699 37.1874 22.7739 37.1528C23.3006 36.9864 23.5224 36.6537 23.4046 36.224C23.2937 35.8289 22.9055 35.621 22.4204 35.7388C21.3668 35.9883 20.5559 36.6329 19.8004 37.3676C19.7173 37.4508 19.641 37.5478 19.537 37.6657C18.1924 37.0696 17.3953 36.0507 17.1042 34.6229C16.6884 32.6129 17.7696 30.5544 19.6479 29.8266C20.8124 29.3761 21.8728 29.5286 22.7669 30.4573C23.0026 30.6999 23.259 30.8663 23.6125 30.7415C24.1185 30.5613 24.2571 29.9444 23.869 29.5147C23.0026 28.5513 21.9005 28.1008 20.6044 28.1216C20.5143 28.1216 20.4242 28.1354 20.3341 28.1354C20.3203 28.1354 20.3064 28.1285 20.2579 28.1146C19.9806 27.4701 19.9668 26.7839 20.1608 26.1046C20.7777 23.9144 23.5917 22.5213 25.7196 24.2402C25.9968 24.462 26.1632 24.8155 26.4335 25.0511C26.6414 25.2313 26.9464 25.4254 27.1959 25.4046C27.7642 25.363 27.9722 24.864 27.6672 24.3164C27.2028 23.4639 26.4543 22.9025 25.6156 22.4589C25.5255 22.4104 25.4285 22.3757 25.3314 22.3341H25.3106Z" fill="white"/>
<path d="M37.7169 46.2949H33.7246V45.7959C33.7246 37.5964 33.7246 29.4039 33.7246 21.2044C33.7246 20.2063 34.1127 19.8875 35.1108 20.0123C40.9745 20.7539 44.8074 25.5641 44.953 31.0465C45.0431 34.4428 43.7816 37.3122 41.2448 39.5718C39.5952 41.0481 38.4655 42.8224 37.9595 44.978C37.8625 45.4008 37.8001 45.8375 37.7169 46.288V46.2949ZM42.9637 30.9911C42.7558 28.4197 41.7924 26.271 39.9695 24.5175C39.0546 23.6372 37.9942 22.9788 36.7881 22.5837C36.3861 22.452 36.0119 22.6391 35.8663 23.0134C35.7346 23.3738 35.8802 23.7273 36.2475 23.9214C36.3376 23.9699 36.4416 24.0115 36.5386 24.0462C38.4377 24.7947 39.7962 26.1255 40.6834 27.9553C41.1755 28.9741 41.3696 30.0693 41.432 31.1921C41.4458 31.4208 41.633 31.7327 41.827 31.8228C42.028 31.9199 42.4023 31.8852 42.5756 31.7466C42.7766 31.5872 42.839 31.2475 42.9637 30.9911Z" fill="white"/>
<path d="M31.9715 51.9438C34.5082 51.9438 37.045 51.9507 39.5887 51.9369C39.9353 51.9369 40.1085 52.0755 40.2472 52.3527C40.8571 53.5726 39.9422 55.0351 38.5421 55.0351C34.6884 55.0489 30.8348 55.0351 26.9811 55.0351C26.3919 55.0351 25.8028 55.0489 25.2137 55.0281C23.9106 54.9796 23.065 53.5102 23.6472 52.3458C23.7859 52.0616 23.9591 51.9299 24.3126 51.9299C26.8633 51.9438 29.4208 51.9369 31.9715 51.9369V51.9438Z" fill="white"/>
<path d="M31.9363 50.6754C29.4134 50.6754 26.8904 50.6615 24.3606 50.6893C23.917 50.6893 23.7299 50.4952 23.5912 50.1556C23.0922 48.9426 24.0071 47.5911 25.3448 47.5841C28.3806 47.5703 31.4234 47.5841 34.4592 47.5841C35.8523 47.5841 37.2385 47.5634 38.6317 47.5911C40.011 47.6188 40.8566 49.0882 40.2328 50.3081C40.0941 50.5784 39.9209 50.6962 39.5951 50.6962C37.0375 50.6823 34.4869 50.6893 31.9293 50.6893L31.9363 50.6754Z" fill="white"/>
<path d="M36.9889 56.3311C36.9265 57.3361 35.9631 58.2648 34.8749 58.2856C32.9273 58.3203 30.9797 58.3203 29.032 58.2856C27.9439 58.2648 27.022 57.3707 26.9111 56.3311H36.9889Z" fill="white"/>
<path d="M47.684 44.4722C47.49 44.7009 47.3444 45.0059 47.1226 45.0821C46.9008 45.1584 46.5265 45.096 46.3533 44.9504C45.7919 44.4722 45.2928 43.9246 44.7661 43.3979C44.1977 42.8295 43.6294 42.2681 43.0679 41.6998C42.6729 41.2978 42.6521 40.9165 42.9778 40.5908C43.2967 40.272 43.7056 40.2927 44.0937 40.674C45.1542 41.7275 46.2146 42.7879 47.2612 43.8484C47.4137 44.0009 47.5108 44.2088 47.684 44.4722Z" fill="white"/>
<path d="M47.6635 18.0995C47.5526 18.342 47.5179 18.5222 47.407 18.6331C46.2703 19.7837 45.1336 20.9343 43.9762 22.064C43.6643 22.369 43.2345 22.3274 42.9642 22.0294C42.6939 21.7313 42.6939 21.3224 42.9989 21.0174C44.1078 19.9015 45.2099 18.7787 46.3466 17.6974C46.5129 17.538 46.8872 17.4687 47.109 17.538C47.3308 17.6073 47.4833 17.9054 47.6566 18.0995H47.6635Z" fill="white"/>
<path d="M49.8948 32.0377C49.1532 32.0377 48.4185 32.0377 47.6768 32.0377C47.1362 32.0377 46.8243 31.7535 46.8174 31.3099C46.8174 30.8664 47.1223 30.5891 47.6699 30.5891C49.167 30.5891 50.6572 30.5891 52.1543 30.5891C52.7157 30.5891 52.9999 30.8456 52.9999 31.3099C52.9999 31.7743 52.7157 32.0308 52.1612 32.0377C51.4058 32.0446 50.6503 32.0377 49.8948 32.0377Z" fill="white"/>
</g>
<defs>
<clipPath id="clip0_1517_1364">
<rect width="36" height="46.3065" fill="white" transform="translate(17 12)"/>
</clipPath>
</defs>
</svg>
