<svg width="70" height="70" viewBox="0 0 70 70" fill="none" xmlns="http://www.w3.org/2000/svg">
<circle cx="35" cy="35" r="35" fill="#AA66FC"/>
<g clip-path="url(#clip0_1517_1369)">
<path d="M32.1742 43.4674C31.6729 41.804 31.2018 40.2415 30.7295 38.6788C29.7107 35.3064 28.6817 31.9374 27.6755 28.5609C27.0497 26.4637 28.4494 24.5166 30.6099 24.4399C31.979 24.3919 33.2236 25.3121 33.662 26.7325C34.281 28.7346 34.8797 30.7435 35.4873 32.7487C35.8684 34.0066 36.7206 34.4437 37.9862 34.1011C39.1439 33.7876 40.3061 33.3928 41.4894 33.2879C45.2519 32.952 48.7569 35.2891 49.9503 38.8819C50.6622 41.0251 51.3268 43.1881 51.9053 45.3712C52.551 47.8075 51.9948 50.0266 50.3772 51.963C50.2272 52.1427 49.99 52.2919 49.7643 52.3607C45.8672 53.5417 41.967 54.7101 38.066 55.876C36.8051 56.253 35.9164 55.8433 35.4948 54.5989C34.8954 52.8299 33.5805 51.7959 32.0183 50.9554C29.5587 49.6316 27.1185 48.2733 24.6708 46.9259C23.2732 46.1561 22.5578 44.767 22.8131 43.3341C23.0714 41.8884 24.1963 40.7794 25.6419 40.5434C26.5035 40.4032 27.293 40.5974 28.035 41.0379C29.3124 41.7965 30.5943 42.5484 31.8734 43.3036C31.9368 43.3404 32.0006 43.3749 32.1704 43.468L32.1742 43.4674Z" fill="white"/>
<path d="M17.6601 30.6372C17.7397 30.2002 18.0261 29.776 18.5693 29.6033C19.8553 29.1937 21.1458 28.7956 22.4452 28.4277C23.1978 28.2152 23.944 28.6599 24.1639 29.3871C24.3855 30.1182 24.0127 30.9012 23.2667 31.1425C21.9822 31.5583 20.6932 31.9626 19.3903 32.3131C18.4098 32.5761 17.5134 31.7421 17.6612 30.6374L17.6601 30.6372Z" fill="white"/>
<path d="M37.6639 26.6889C36.9493 26.5862 36.4599 26.1072 36.3693 25.4878C36.2748 24.845 36.5959 24.1786 37.2122 23.9754C38.5638 23.5294 39.9268 23.1128 41.3001 22.7423C41.9673 22.5621 42.6538 23.0284 42.8727 23.6867C43.0991 24.3678 42.8195 25.1727 42.1487 25.4031C40.7752 25.876 39.3737 26.2666 37.9808 26.6813C37.8586 26.718 37.7158 26.6879 37.6615 26.6885L37.6639 26.6889Z" fill="white"/>
<path d="M22.2419 25.562C22.1879 25.5434 22.0256 25.5068 21.8846 25.4311C20.7184 24.8127 19.5493 24.1987 18.3958 23.5592C17.785 23.2207 17.5509 22.5843 17.7332 21.9198C17.8974 21.3225 18.4352 20.9019 19.0938 20.9073C19.3227 20.9088 19.572 20.9687 19.7751 21.0739C20.9327 21.6766 22.085 22.2905 23.2264 22.9211C23.844 23.2629 24.1158 23.9807 23.9067 24.5968C23.6733 25.2818 23.0503 25.6745 22.2442 25.5623L22.2419 25.562Z" fill="white"/>
<path d="M38.1066 17.324C38.0692 17.4163 38.0068 17.6159 37.9108 17.7974C37.3485 18.8582 36.7793 19.9169 36.208 20.974C35.7581 21.8063 34.9363 22.097 34.1972 21.6954C33.458 21.2939 33.2521 20.453 33.6966 19.6163C34.2802 18.5163 34.8627 17.4149 35.4632 16.3234C35.8137 15.6878 36.5454 15.4108 37.1732 15.6396C37.8514 15.8865 38.2331 16.5188 38.1053 17.325L38.1066 17.324Z" fill="white"/>
<path d="M27.4498 15.8292C27.9177 15.9374 28.3455 16.2159 28.5165 16.7625C28.9196 18.0512 29.3203 19.3408 29.6821 20.6405C29.8929 21.3966 29.4354 22.1397 28.7025 22.3491C27.9643 22.5613 27.199 22.1825 26.9576 21.4294C26.5495 20.158 26.1555 18.8814 25.8028 17.5938C25.5298 16.5986 26.374 15.6735 27.45 15.8281L27.4498 15.8292Z" fill="white"/>
</g>
<defs>
<clipPath id="clip0_1517_1369">
<rect width="37.7817" height="40" fill="white" transform="translate(19 13) rotate(8.17504)"/>
</clipPath>
</defs>
</svg>
