<svg width="194" height="55" viewBox="0 0 194 55" fill="none" xmlns="http://www.w3.org/2000/svg">
<path d="M75.0368 36H70.7535V11.1501H75.0708L86.7309 28.7592V11.1501H91.0142V36H86.7309L75.0368 18.3909V36ZM98.6566 36H94.1353L103.11 11.1501H107.563L116.538 36H111.948L109.943 30.2549H100.662L98.6566 36ZM104.776 18.5609L101.954 26.5836H108.685L105.829 18.5609C105.625 17.915 105.387 17.1671 105.319 16.6572C105.217 17.1331 105.014 17.881 104.776 18.5609ZM123.869 36H119.654V11.1501H123.869L131.892 30.9348L139.914 11.1501H144.198V36H139.982V28.3513C139.982 23.3541 139.982 21.8923 140.22 20.1246L133.897 36H129.886L123.597 20.1586C123.835 21.6544 123.869 24 123.869 27.0935V36ZM165.131 36H149.698V11.1501H165.131V15.1614H154.049V21.5524H163.975V25.3937H154.049V31.9887H165.131V36Z" fill="black"/>
<path d="M73.1439 49.0949H71.2124V51.6221H70.5206V44.7419H73.1439C74.4699 44.7419 75.3059 45.6067 75.3059 46.904C75.3059 48.1532 74.4603 49.0949 73.1439 49.0949ZM73.0478 45.3665H71.2124V48.4703H73.0093C74.0087 48.4703 74.5852 47.8361 74.5852 46.8944C74.5852 45.9431 73.9991 45.3665 73.0478 45.3665ZM77.1149 44.7419V50.9879H80.2763V51.6221H76.4231V44.7419H77.1149ZM81.4998 51.6221H80.7983L83.3255 44.7419H84.1807L86.7367 51.6221H86.0161L85.3434 49.7963H82.1724L81.4998 51.6221ZM83.6618 45.7124L82.3838 49.191H85.1224L83.8348 45.7124C83.806 45.6164 83.7579 45.501 83.7483 45.4338C83.7387 45.4914 83.7003 45.6164 83.6618 45.7124ZM90.2269 51.7278C88.3051 51.7278 86.9982 50.296 86.9982 48.182C86.9982 46.068 88.3243 44.6266 90.2653 44.6266C91.7451 44.6266 92.9078 45.5203 93.1865 46.8848H92.4466C92.1583 45.895 91.3127 45.2896 90.2365 45.2896C88.7279 45.2896 87.7189 46.4427 87.7189 48.182C87.7189 49.9116 88.7279 51.0647 90.2365 51.0647C91.3223 51.0647 92.1872 50.4786 92.485 49.5561H93.2249C92.9078 50.8533 91.7067 51.7278 90.2269 51.7278ZM98.5438 51.6221H94.4214V44.7419H98.5342V45.3761H95.1133V47.8553H98.217V48.4799H95.1133V50.9879H98.5438V51.6221ZM104.209 48.7489L101.874 44.7419H102.652L104.353 47.7111C104.43 47.8553 104.487 47.9706 104.555 48.1243C104.641 47.9514 104.641 47.9514 104.766 47.7111L106.448 44.7419H107.207L104.901 48.7489V51.6221H104.209V48.7489ZM113.812 48.182C113.812 50.2672 112.457 51.7374 110.535 51.7374C108.603 51.7374 107.258 50.2672 107.258 48.182C107.258 46.0968 108.613 44.617 110.535 44.617C112.466 44.617 113.812 46.0872 113.812 48.182ZM113.1 48.182C113.1 46.462 112.053 45.2896 110.535 45.2896C109.017 45.2896 107.979 46.462 107.979 48.182C107.979 49.902 109.017 51.0743 110.535 51.0743C112.053 51.0743 113.1 49.8924 113.1 48.182ZM115.018 49.2294V44.7419H115.71V49.2006C115.71 50.4113 116.373 51.0647 117.574 51.0647C118.746 51.0647 119.409 50.3921 119.409 49.2006V44.7419H120.101V49.2294C120.101 50.7861 119.14 51.7374 117.574 51.7374C115.979 51.7374 115.018 50.7957 115.018 49.2294ZM122.421 51.6221H121.729V44.7419H124.294C125.688 44.7419 126.533 45.5107 126.533 46.731C126.533 47.7208 126.014 48.4126 125.13 48.6528L126.601 51.6221H125.832L124.429 48.7682H122.421V51.6221ZM122.421 45.3665V48.1436H124.314C125.265 48.1436 125.822 47.6247 125.822 46.7502C125.822 45.8566 125.236 45.3665 124.294 45.3665H122.421ZM129.82 45.3761V44.7419H134.749V45.3761H132.625V51.6221H131.934V45.3761H129.82ZM135.073 51.6221H134.371L136.898 44.7419H137.754L140.31 51.6221H139.589L138.916 49.7963H135.745L135.073 51.6221ZM137.235 45.7124L135.957 49.191H138.695L137.408 45.7124C137.379 45.6164 137.331 45.501 137.321 45.4338C137.312 45.4914 137.273 45.6164 137.235 45.7124ZM143.877 45.28C142.291 45.28 141.292 46.4523 141.292 48.2108C141.292 49.9981 142.349 51.084 143.896 51.084C145.049 51.084 146.173 50.5266 146.173 48.8739V48.5183H143.684V47.9033H146.827V51.6317H146.279L146.212 50.5362C145.847 51.2185 144.982 51.7374 143.867 51.7374C141.916 51.7374 140.571 50.3344 140.571 48.2108C140.571 46.1064 141.916 44.6266 143.886 44.6266C145.337 44.6266 146.461 45.453 146.731 46.7022H145.981C145.693 45.7605 144.886 45.28 143.877 45.28ZM148.893 44.7419V50.9879H152.054V51.6221H148.201V44.7419H148.893ZM153.782 44.7419V51.6221H153.09V44.7419H153.782ZM156.146 51.6221H155.455V44.7419H156.156L159.942 50.469V44.7419H160.624V51.6221H159.942L156.146 45.895V51.6221ZM166.427 51.6221H162.305V44.7419H166.418V45.3761H162.997V47.8553H166.1V48.4799H162.997V50.9879H166.427V51.6221ZM171.189 51.6221H170.497V44.7419H171.189V47.8072H174.908V44.7419H175.59V51.6221H174.908V48.4511H171.189V51.6221ZM181.394 51.6221H177.272V44.7419H181.385V45.3761H177.964V47.8553H181.068V48.4799H177.964V50.9879H181.394V51.6221ZM183.491 51.6221H182.799V44.7419H185.365C186.758 44.7419 187.604 45.5107 187.604 46.731C187.604 47.7208 187.085 48.4126 186.201 48.6528L187.671 51.6221H186.902L185.499 48.7682H183.491V51.6221ZM183.491 45.3665V48.1436H185.384C186.335 48.1436 186.893 47.6247 186.893 46.7502C186.893 45.8566 186.307 45.3665 185.365 45.3665H183.491ZM193.068 51.6221H188.946V44.7419H193.058V45.3761H189.638V47.8553H192.741V48.4799H189.638V50.9879H193.068V51.6221Z" fill="black"/>
<path d="M36.1771 5.02173C36.3423 5.01538 36.5076 5.0036 36.673 5.0036C41.4658 5.00224 46.2584 5.00134 51.0512 5.00247C51.6708 5.00247 51.6078 4.9311 51.6078 5.55572C51.6087 15.6779 51.6081 25.8001 51.6087 35.922C51.6087 39.5449 50.6827 42.9043 48.67 45.9248C46.011 49.9145 42.335 52.466 37.6604 53.5582C37.5298 53.5888 37.4037 53.6522 37.2631 53.6282C37.2631 52.2131 37.2629 50.798 37.2627 49.383C37.3163 49.3571 37.3677 49.3229 37.4241 49.3068C40.1089 48.5424 42.3656 47.1004 44.1633 44.9678C46.2817 42.455 47.4011 39.5467 47.4063 36.2496C47.4203 27.3914 47.4115 18.533 47.4103 9.67478C47.4103 9.11427 47.471 9.17703 46.8961 9.17658C43.4584 9.17477 40.0208 9.17545 36.5834 9.17409C36.4179 9.17409 36.2525 9.16344 36.087 9.158C36.087 8.01524 36.0893 6.87271 36.0845 5.72995C36.0836 5.48798 36.0945 5.25078 36.1771 5.0215V5.02173Z" fill="#FF6E1F"/>
<path d="M8.04392 44.333C7.90064 44.4001 7.74762 44.3756 7.59846 44.3756C5.23284 44.3756 2.86722 44.3731 0.501825 44.3738C-0.0323685 44.3738 0.00543263 44.3602 0.00543263 43.8786C0.00543263 36.8659 -0.0101867 29.8532 0.0115432 22.8406C0.0239927 18.872 1.23385 15.2849 3.60988 12.1006C4.4612 10.9596 5.44742 9.9458 6.54297 9.0382C6.6111 8.98179 6.6935 8.94237 6.76933 8.89502C6.77114 10.5779 6.77295 12.2605 6.77498 13.9434C6.77498 14.0787 6.77453 14.2139 6.7811 14.349C6.78743 14.4795 6.88363 14.5198 6.99319 14.5411C6.91148 14.667 6.83406 14.7962 6.74759 14.919C5.05628 17.3212 4.20089 19.9832 4.20723 22.9299C4.21877 28.4361 4.21063 33.9426 4.21063 39.4489C4.21063 39.5697 4.20881 39.6904 4.21108 39.8109C4.21545 40.0453 4.33308 40.165 4.56396 40.17C4.65428 40.1718 4.74482 40.1703 4.83536 40.1703C5.73964 40.1698 6.64415 40.1682 7.54843 40.1703C7.71344 40.1707 7.87823 40.187 8.04324 40.1961C8.04369 41.5751 8.04415 42.9542 8.04437 44.333H8.04392Z" fill="#FF6E1F"/>
<path d="M17.9024 53.9813C17.4567 53.9869 17.0108 53.9978 16.5651 53.9974C15.9558 53.9964 15.3462 53.9869 14.7369 53.9813C14.7367 44.087 14.7362 34.193 14.7357 24.2987C14.7357 24.1481 14.7346 23.9972 14.731 23.8465C14.729 23.7656 14.6882 23.7047 14.6196 23.6623C14.6647 23.5676 14.7025 23.4686 14.7557 23.3787C15.6939 21.7973 16.849 20.3933 18.2189 19.169C18.6333 18.7988 19.0417 18.4171 19.5267 18.1348C19.5281 19.7492 19.5292 21.3639 19.5308 22.9784C19.5308 23.0991 19.5297 23.2199 19.5363 23.3404C19.5426 23.4573 19.6141 23.5321 19.7155 23.5812C19.5897 23.7493 19.4659 23.9186 19.338 24.0851C17.4588 26.5312 16.468 29.29 16.4504 32.3819C16.4366 34.794 16.4477 37.2064 16.4477 39.6188C16.4477 39.7394 16.4452 39.8603 16.4508 39.9806C16.4578 40.129 16.492 40.1682 16.6419 40.1698C17.1389 40.1748 17.636 40.171 18.1331 40.175C18.2976 40.1764 18.4647 40.1503 18.6263 40.2061C18.6261 41.5811 18.6256 42.956 18.6254 44.331C18.4812 44.394 18.3287 44.3686 18.1793 44.3695C17.7578 44.3725 17.3361 44.3698 16.9144 44.3704C16.8091 44.3704 16.7037 44.3713 16.5986 44.3784C16.514 44.384 16.461 44.4323 16.456 44.5204C16.4511 44.6106 16.4481 44.701 16.4481 44.7914C16.4477 46.3286 16.4477 47.8658 16.4481 49.403C16.4481 49.4934 16.4468 49.584 16.4538 49.6739C16.4601 49.7573 16.5058 49.8142 16.5948 49.818C16.715 49.8232 16.8354 49.8232 16.9558 49.8255C17.3017 49.8319 17.6476 49.838 17.9932 49.8441C17.911 50.0736 17.8997 50.3108 17.9006 50.5528C17.9054 51.6955 17.9027 52.8385 17.9027 53.9815L17.9024 53.9813Z" fill="#FF6E1F"/>
<path d="M14.6197 23.6626C14.6883 23.705 14.729 23.7659 14.731 23.8468C14.7347 23.9975 14.7358 24.1483 14.7358 24.299C14.7362 34.193 14.7367 44.0873 14.7369 53.9815C13.9847 53.9867 13.2326 53.9942 12.4806 53.9958C12.3109 53.996 12.2803 53.9573 12.2731 53.7763C12.2679 53.6408 12.2706 53.5051 12.2706 53.3696C12.2706 50.5523 12.2706 47.7353 12.2706 44.9181C12.2706 44.3422 12.3127 44.37 11.7425 44.3703C10.6739 44.3707 9.60526 44.3705 8.53642 44.368C8.37209 44.3675 8.20481 44.3915 8.0441 44.3338C8.04365 42.9547 8.0432 41.5757 8.04297 40.1966C8.20798 40.1898 8.37299 40.1773 8.53801 40.1771C9.60639 40.1748 10.6748 40.1751 11.7429 40.1746C12.3204 40.1744 12.2703 40.212 12.2703 39.6311C12.271 37.2817 12.271 34.9323 12.2703 32.5826C12.2703 31.784 12.2957 30.9865 12.4028 30.1943C12.6547 28.332 13.1656 26.5446 13.977 24.848C14.1708 24.4426 14.3435 24.024 14.6197 23.6628V23.6626Z" fill="#FF6E1F"/>
<path d="M37.2629 49.3833C37.2629 50.7984 37.2631 52.2135 37.2634 53.6285C36.6816 53.7942 36.0809 53.8422 35.4842 53.9124C34.5996 54.0166 33.711 53.9992 32.8228 53.9987C31.3322 53.9978 29.8417 53.9987 28.3512 53.9972C28.1859 53.9972 28.0207 53.987 27.8554 53.9813C27.855 53.0096 27.8604 52.0379 27.8516 51.0662C27.8478 50.647 27.8453 50.2327 28.0354 49.8448C28.2006 49.8387 28.3661 49.8274 28.5313 49.8271C30.2195 49.8255 31.9074 49.8276 33.5955 49.8244C34.4709 49.8228 35.3403 49.7499 36.2011 49.5847C36.5549 49.5167 36.9089 49.4504 37.2629 49.3833Z" fill="#FF6E1F"/>
<path d="M6.9934 14.5413C6.88384 14.5202 6.78764 14.4799 6.7813 14.3492C6.77474 14.2141 6.77542 14.0789 6.77519 13.9436C6.77293 12.2607 6.77134 10.5781 6.76953 8.89522C6.88656 8.73187 7.06198 8.63649 7.21771 8.5205C9.40428 6.89245 11.8396 5.82649 14.5119 5.3002C14.5552 5.29159 14.6018 5.3002 14.6469 5.30065C14.6466 6.42528 14.6462 7.54969 14.6462 8.67433C14.6462 8.82431 14.6507 8.97429 14.6462 9.12405C14.641 9.29465 14.7154 9.40996 14.8689 9.4777C14.758 9.56787 14.6152 9.56765 14.4875 9.60073C11.8752 10.2788 9.65825 11.6169 7.82343 13.5927C7.53777 13.9003 7.26977 14.2246 6.99385 14.5411L6.9934 14.5413Z" fill="#FF6E1F"/>
<path d="M36.1775 5.02178C36.0949 5.25128 36.0838 5.48826 36.085 5.73023C36.0897 6.87276 36.0872 8.01552 36.0874 9.15828C35.9679 9.16417 35.8484 9.17527 35.7289 9.17527C33.3445 9.17595 30.9603 9.1755 28.5759 9.17414C28.4564 9.17414 28.3367 9.16394 28.2171 9.15851C28.2169 8.25658 28.2149 7.35442 28.2169 6.45249C28.2178 6.01886 28.1809 5.58228 28.3038 5.15635C28.3158 5.11467 28.3063 5.06664 28.307 5.02155C28.4415 5.01543 28.5761 5.00411 28.7106 5.00411C31.0651 5.00252 33.4199 5.00207 35.7744 5.00275C35.9089 5.00275 36.0433 5.01521 36.1778 5.02178H36.1775Z" fill="#FF6E1F"/>
<path d="M28.3066 5.02157C28.3061 5.06666 28.3154 5.11469 28.3034 5.15638C28.1805 5.58231 28.2174 6.01888 28.2165 6.45252C28.2145 7.35445 28.2165 8.2566 28.2167 9.15853C28.0972 9.16465 27.9779 9.17597 27.8584 9.1762C25.7148 9.17665 23.5715 9.1762 21.4279 9.17461C21.3084 9.17461 21.1889 9.16419 21.0694 9.15853C21.0694 8.25637 21.0674 7.35445 21.0694 6.45229C21.0703 6.01866 21.0336 5.58208 21.1563 5.15615C21.1683 5.11446 21.1588 5.06643 21.1593 5.02135C21.2788 5.01523 21.3983 5.0039 21.5176 5.0039C23.6611 5.00232 25.8047 5.00164 27.9483 5.00209C28.0676 5.00209 28.1871 5.01478 28.3064 5.02157H28.3066Z" fill="#FF6E1F"/>
<path d="M21.1595 5.02126C21.1591 5.06635 21.1686 5.11438 21.1566 5.15606C21.0339 5.58222 21.0706 6.01857 21.0697 6.4522C21.0676 7.35436 21.0694 8.25629 21.0697 9.15844C20.9198 9.16456 20.7698 9.17543 20.6199 9.17566C19.7627 9.17702 18.9055 9.18087 18.0483 9.1743C17.2649 9.16841 16.4865 9.21168 15.7139 9.3483C15.4332 9.39791 15.1505 9.43507 14.8687 9.47789C14.715 9.40992 14.6406 9.29483 14.6458 9.124C14.6505 8.97425 14.6458 8.82427 14.6458 8.67429C14.6458 7.54965 14.6462 6.42524 14.6464 5.30061C14.9862 5.24012 15.3237 5.16059 15.6659 5.12344C16.2481 5.06023 16.831 4.99996 17.4186 5.002C18.5909 5.00631 19.7634 5.002 20.9357 5.00246C21.0104 5.00246 21.0848 5.01446 21.1595 5.02103V5.02126Z" fill="#FF6E1F"/>
<path d="M28.0354 49.8449C27.8453 50.2328 27.8478 50.6472 27.8516 51.0663C27.8604 52.038 27.855 53.0097 27.8555 53.9814C27.7511 53.9876 27.6468 53.9989 27.5424 53.9989C25.7006 53.9996 23.8587 53.9989 22.0169 53.9975C21.9126 53.9975 21.808 53.9873 21.7036 53.9817C21.7032 53.0494 21.7018 52.1173 21.703 51.185C21.7034 50.7362 21.6724 50.2851 21.7933 49.8443C21.8827 49.8384 21.9721 49.827 22.0615 49.827C23.9635 49.8255 25.8656 49.8248 27.7676 49.8255C27.857 49.8255 27.9462 49.8381 28.0356 49.8447L28.0354 49.8449Z" fill="#FF6E1F"/>
<path d="M21.7928 49.8438C21.6719 50.2845 21.7032 50.7358 21.7025 51.1846C21.7014 52.1169 21.7027 53.0489 21.7032 53.9812C21.5096 53.9873 21.3163 53.9982 21.1228 53.9984C20.1982 54 19.2733 53.9996 18.3486 53.9978C18.1999 53.9975 18.0512 53.9869 17.9025 53.9812C17.9025 52.8382 17.905 51.6955 17.9004 50.5525C17.8995 50.3103 17.9108 50.0733 17.993 49.8438C18.1268 49.8375 18.2606 49.8261 18.3943 49.8259C19.3935 49.8241 20.3928 49.8236 21.3919 49.825C21.5257 49.825 21.6593 49.8372 21.793 49.844L21.7928 49.8438Z" fill="#FF6E1F"/>
<path d="M28.2281 18.9209C27.3571 19.0791 26.4922 19.2606 25.6545 19.5558C23.412 20.346 21.4966 21.6249 19.9096 23.3971C19.8503 23.4632 19.7806 23.5201 19.7156 23.5812C19.6142 23.5321 19.5427 23.4575 19.5364 23.3404C19.5298 23.2201 19.5312 23.0991 19.5309 22.9784C19.5293 21.3639 19.5282 19.7492 19.5269 18.1348C19.7736 17.8899 20.0717 17.7132 20.3592 17.5251C22.3576 16.2174 24.5352 15.352 26.8797 14.9111C27.3209 14.8282 27.765 14.7482 28.2166 14.7344C28.2163 15.2296 28.2143 15.7249 28.2159 16.2199C28.2188 17.1203 28.2238 18.0204 28.2279 18.9207L28.2281 18.9209Z" fill="#FF6E1F"/>
<path d="M18.6264 40.206C18.6701 40.1973 18.7138 40.181 18.7575 40.1808C20.0407 40.1731 21.3236 40.167 22.6068 40.1606C22.4201 40.5347 22.4185 40.9343 22.4226 41.341C22.4325 42.3308 22.426 43.3207 22.426 44.3107C22.1734 44.33 21.921 44.364 21.6681 44.3658C20.7718 44.3724 19.8756 44.3683 18.9793 44.3669C18.8604 44.3669 18.7396 44.3798 18.6255 44.3309C18.6257 42.9559 18.6262 41.5809 18.6264 40.206Z" fill="#FF6E1F"/>
<path d="M28.2285 18.9209C28.2244 18.0206 28.2194 17.1204 28.2165 16.2201C28.2149 15.7248 28.2167 15.2296 28.2171 14.7346C28.7556 14.67 29.295 14.6211 29.8383 14.6211C32.8524 14.622 35.8665 14.6211 38.8806 14.6206C38.9861 14.6206 39.0916 14.6215 39.1969 14.6249C39.282 14.6276 39.3388 14.6698 39.344 14.7588C39.3501 14.8642 39.3512 14.9697 39.3512 15.0751C39.3515 18.8915 39.3605 22.7078 39.349 26.5242C39.3372 30.4002 38.186 33.9129 35.9057 37.044C34.2259 39.3501 32.1029 41.1467 29.5585 42.4404C29.5062 42.4671 29.4469 42.4802 29.391 42.4997C29.3901 40.8984 29.3892 39.2971 29.3883 37.6958C29.539 37.573 29.688 37.4475 29.841 37.3279C32.1412 35.5281 33.7311 33.236 34.5892 30.4421C34.9856 29.1516 35.1761 27.828 35.175 26.4766C35.1732 24.1089 35.1746 21.7409 35.1746 19.3731C35.1746 19.3129 35.1741 19.2524 35.1746 19.1921C35.1784 18.785 35.1743 18.7947 34.7769 18.7949C33.1797 18.7956 31.5823 18.7836 29.9852 18.8004C29.3992 18.8065 28.8138 18.879 28.2282 18.9211L28.2285 18.9209Z" fill="#FF6E1F"/>
<path d="M29.3881 37.696C29.389 39.2973 29.3899 40.8987 29.3908 42.5C28.8876 42.806 28.3387 43.0124 27.7925 43.2213C26.5517 43.6962 25.2692 44.0195 23.9538 44.1985C23.4488 44.2671 22.9411 44.3591 22.4257 44.3106C22.4257 43.3208 22.4325 42.3307 22.4223 41.3409C22.4182 40.9342 22.4196 40.5346 22.6066 40.1605C23.1668 40.0543 23.7361 40.0096 24.2958 39.8916C26.0216 39.5273 27.6117 38.8494 29.0798 37.8764C29.179 37.8107 29.2645 37.7203 29.3879 37.6958L29.3881 37.696Z" fill="#FF6E1F"/>
</svg>
