<svg width="32" height="31" viewBox="0 0 32 31" fill="none" xmlns="http://www.w3.org/2000/svg">
<g id="Group 1171274929">
<g id="Group 1171274924">
<path id="Vector" d="M20.664 12.9443L15.7125 19.5462C15.6323 19.6531 15.5301 19.7415 15.4128 19.8054C15.2955 19.8693 15.1657 19.9072 15.0325 19.9166C14.8993 19.926 14.7655 19.9068 14.6404 19.86C14.5152 19.8133 14.4015 19.7402 14.307 19.6458L11.3357 16.6756" stroke="#FF6E1F" stroke-width="2.3" stroke-linecap="round" stroke-linejoin="round"/>
<path id="Vector_2" d="M14.4202 2.50651C14.6101 2.27035 14.8507 2.07981 15.124 1.94888C15.3974 1.81796 15.6966 1.75 15.9997 1.75C16.3029 1.75 16.6021 1.81796 16.8755 1.94888C17.1488 2.07981 17.3894 2.27035 17.5793 2.50651L19.4599 4.84606C19.6729 5.11148 19.9493 5.31898 20.2637 5.4494C20.578 5.57983 20.9201 5.62898 21.2585 5.59232L24.2435 5.2677C24.5457 5.23413 24.8515 5.26895 25.1384 5.3696C25.4253 5.47023 25.6859 5.63411 25.9009 5.8491C26.1159 6.06409 26.2798 6.32467 26.3804 6.61157C26.481 6.89846 26.5159 7.20432 26.4823 7.50649L26.1576 10.4916C26.121 10.8299 26.1702 11.172 26.3006 11.4863C26.431 11.8007 26.6385 12.077 26.904 12.2901L29.2435 14.1707C29.4796 14.3606 29.6702 14.6012 29.8011 14.8745C29.9321 15.1479 30 15.4471 30 15.7503C30 16.0534 29.9321 16.3526 29.8011 16.626C29.6702 16.8993 29.4796 17.1399 29.2435 17.3298L26.8965 19.2017C26.6312 19.4151 26.4237 19.6917 26.2933 20.0062C26.1629 20.3207 26.1137 20.663 26.1503 21.0015L26.4749 23.9865C26.5087 24.2887 26.474 24.5948 26.3735 24.8818C26.2728 25.1687 26.109 25.4294 25.8939 25.6444C25.6789 25.8595 25.4183 26.0234 25.1313 26.1239C24.8443 26.2245 24.5383 26.2591 24.2361 26.2253L21.251 25.9007C20.9127 25.8639 20.5705 25.913 20.2562 26.0435C19.9418 26.1739 19.6653 26.3814 19.4524 26.647L17.5793 28.9778C17.3895 29.2142 17.149 29.405 16.8756 29.5359C16.6022 29.667 16.3029 29.7351 15.9997 29.7351C15.6966 29.7351 15.3973 29.667 15.1239 29.5359C14.8505 29.405 14.61 29.2142 14.4202 28.9778L12.5408 26.6395C12.3275 26.3741 12.0509 26.1666 11.7364 26.0362C11.4219 25.9057 11.0796 25.8566 10.7411 25.8933L7.75599 26.2179C7.45372 26.2519 7.14766 26.2175 6.86055 26.1169C6.57342 26.0165 6.31263 25.8526 6.09754 25.6375C5.88245 25.4225 5.71858 25.1616 5.61811 24.8745C5.51764 24.5874 5.48314 24.2813 5.5172 23.9791L5.84182 20.994C5.87846 20.6555 5.82932 20.3132 5.6989 19.9987C5.56848 19.6842 5.361 19.4076 5.09556 19.1942L2.75725 17.315C2.52089 17.1251 2.33016 16.8845 2.1991 16.6112C2.06804 16.3378 2 16.0385 2 15.7354C2 15.4321 2.06804 15.1328 2.1991 14.8594C2.33016 14.5861 2.52089 14.3456 2.75725 14.1558L5.09556 12.2752C5.36107 12.0623 5.56863 11.7858 5.69907 11.4715C5.8295 11.1571 5.8786 10.815 5.84182 10.4766L5.5172 7.49157C5.48339 7.18935 5.51805 6.88338 5.6186 6.59638C5.71916 6.30937 5.88303 6.04869 6.09808 5.83365C6.31311 5.61861 6.5738 5.45473 6.8608 5.35417C7.14781 5.25362 7.45377 5.21896 7.75599 5.25277L10.7411 5.57739C11.0796 5.61392 11.4218 5.56472 11.7363 5.43431C12.0508 5.3039 12.3274 5.09648 12.5408 4.83113L14.4202 2.50651Z" stroke="#FF6E1F" stroke-width="2.3" stroke-linecap="round" stroke-linejoin="round"/>
</g>
</g>
</svg>
