<svg width="32" height="32" viewBox="0 0 32 32" fill="none" xmlns="http://www.w3.org/2000/svg">
<g id="Group 1171274927">
<path id="Vector" d="M19.2153 24.2686C18.8914 24.8388 18.4234 25.3129 17.8587 25.6427C17.2939 25.9724 16.6526 26.1461 15.9998 26.1461C15.3468 26.1461 14.7055 25.9724 14.1407 25.6427C13.5761 25.3129 13.108 24.8388 12.7842 24.2686H2V26.1464C2 27.1425 2.39333 28.0977 3.09345 28.802C3.79358 29.5065 4.74314 29.9021 5.73326 29.9021H26.2663C27.2564 29.9021 28.2059 29.5065 28.906 28.802C29.6061 28.0977 29.9995 27.1425 29.9995 26.1464V24.2686H19.2153Z" stroke="#FF6E1F" stroke-width="2.3" stroke-linecap="round" stroke-linejoin="round"/>
<path id="Vector_2" d="M28.1333 24.269V18.4727" stroke="#FF6E1F" stroke-width="2.3" stroke-linecap="round" stroke-linejoin="round"/>
<path id="Vector_3" d="M3.86621 24.2689V13.0018C3.86621 12.0057 4.25954 11.0504 4.95966 10.3461C5.65979 9.64178 6.60935 9.24609 7.59947 9.24609H18.7993" stroke="#FF6E1F" stroke-width="2.3" stroke-linecap="round" stroke-linejoin="round"/>
<path id="Vector_4" d="M27.2001 1.73438H21.6002C20.0539 1.73438 18.8003 2.99549 18.8003 4.55115V15.8182C18.8003 17.3739 20.0539 18.635 21.6002 18.635H27.2001C28.7464 18.635 30.0001 17.3739 30.0001 15.8182V4.55115C30.0001 2.99549 28.7464 1.73438 27.2001 1.73438Z" stroke="#FF6E1F" stroke-width="2.3" stroke-linecap="round" stroke-linejoin="round"/>
<path id="Vector_5" d="M30.0001 14.8799H18.8003" stroke="#FF6E1F" stroke-width="2.3" stroke-linecap="round" stroke-linejoin="round"/>
<path id="Vector_6" d="M30.0001 5.49023H18.8003" stroke="#FF6E1F" stroke-width="2.3" stroke-linecap="round" stroke-linejoin="round"/>
</g>
</svg>
