<svg width="32" height="31" viewBox="0 0 32 31" fill="none" xmlns="http://www.w3.org/2000/svg">
<g id="Group 1171274926">
<path id="Vector" d="M22.8907 19.75C22.1969 20.9652 21.194 21.9753 19.9839 22.6779C18.7738 23.3804 17.3993 23.7505 16 23.7505C14.6007 23.7505 13.2263 23.3804 12.0161 22.6779C10.806 21.9753 9.80313 20.9652 9.10933 19.75H4C3.46957 19.75 2.96085 19.9607 2.58578 20.3358C2.21071 20.7109 2 21.2195 2 21.75V27.7501C2 28.2804 2.21071 28.7891 2.58578 29.1642C2.96085 29.5393 3.46957 29.75 4 29.75H28C28.5305 29.75 29.0391 29.5393 29.4142 29.1642C29.7893 28.7891 30 28.2804 30 27.7501V21.75C30 21.2195 29.7893 20.7109 29.4142 20.3358C29.0391 19.9607 28.5305 19.75 28 19.75H22.8907Z" stroke="#FF6E1F" stroke-width="2.3" stroke-linecap="round" stroke-linejoin="round"/>
<path id="Vector_2" d="M16 15.75V1.75" stroke="#FF6E1F" stroke-width="2.3" stroke-linecap="round" stroke-linejoin="round"/>
<path id="Vector_3" d="M10.9995 11.75L15.9995 15.75L20.9995 11.75" stroke="#FF6E1F" stroke-width="2.3" stroke-linecap="round" stroke-linejoin="round"/>
</g>
</svg>
