<svg width="28" height="28" viewBox="0 0 28 28" fill="none" xmlns="http://www.w3.org/2000/svg">
<g id="Group 1171274928">
<path id="Vector" d="M6.2222 17.7584C6.2222 16.0419 4.82931 14.6504 3.1111 14.6504C1.39289 14.6504 0 16.0419 0 17.7584V24.8623C0 26.5788 1.39289 27.9703 3.1111 27.9703C4.82931 27.9703 6.2222 26.5788 6.2222 24.8623V17.7584Z" fill="#FF6E1F"/>
<path id="Vector_2" d="M17.1111 12.4322C17.1111 10.7157 15.7182 9.32422 14 9.32422C12.2818 9.32422 10.8889 10.7157 10.8889 12.4322V24.8641C10.8889 26.5806 12.2818 27.9721 14 27.9721C15.7182 27.9721 17.1111 26.5806 17.1111 24.8641V12.4322Z" fill="#FF6E1F"/>
<path id="Vector_3" d="M28 3.10798C28 1.39149 26.6071 0 24.8889 0C23.1707 0 21.7778 1.39149 21.7778 3.10798V24.8638C21.7778 26.5803 23.1707 27.9718 24.8889 27.9718C26.6071 27.9718 28 26.5803 28 24.8638V3.10798Z" fill="#FF6E1F"/>
</g>
</svg>
