<svg width="30" height="29" viewBox="0 0 30 29" fill="none" xmlns="http://www.w3.org/2000/svg">
<g id="star" clip-path="url(#clip0_2_9733)">
<path id="Vector" d="M29.2649 11.3618C29.0776 10.7856 28.5665 10.3777 27.9643 10.3232L19.7503 9.57751L16.5041 1.97746C16.2644 1.41909 15.7191 1.05872 15.1121 1.05872C14.5051 1.05872 13.9595 1.41909 13.7214 1.97746L10.4752 9.57751L2.25986 10.3232C1.65764 10.3788 1.14768 10.7867 0.959246 11.3618C0.771894 11.938 0.944918 12.5699 1.40038 12.9694L7.6095 18.4139L5.77875 26.4772C5.6448 27.0701 5.87492 27.6832 6.36686 28.0388C6.63128 28.2309 6.94194 28.3269 7.25369 28.3269C7.52158 28.3269 7.78969 28.2557 8.02915 28.1124L15.1121 23.8773L22.1937 28.1124C22.7132 28.4228 23.3664 28.3944 23.8573 28.0388C24.3492 27.6832 24.5794 27.0701 24.4454 26.4772L22.6146 18.4139L28.8238 12.9694C29.279 12.5699 29.4523 11.9393 29.2649 11.3618Z" fill="#726FFC"/>
</g>
<defs>
<clipPath id="clip0_2_9733">
<rect width="28.4545" height="28.4545" fill="white" transform="translate(0.884033 0.447754)"/>
</clipPath>
</defs>
</svg>
