<svg width="29" height="29" viewBox="0 0 29 29" fill="none" xmlns="http://www.w3.org/2000/svg">
<g id="star" clip-path="url(#clip0_2_9725)">
<path id="Vector" d="M28.6441 11.3618C28.4567 10.7856 27.9457 10.3777 27.3434 10.3232L19.1294 9.57751L15.8832 1.97746C15.6436 1.41909 15.0982 1.05872 14.4912 1.05872C13.8842 1.05872 13.3387 1.41909 13.1005 1.97746L9.8543 9.57751L1.63901 10.3232C1.03679 10.3788 0.526835 10.7867 0.338397 11.3618C0.151044 11.938 0.324068 12.5699 0.779533 12.9694L6.98865 18.4139L5.1579 26.4772C5.02395 27.0701 5.25407 27.6832 5.74601 28.0388C6.01043 28.2309 6.32109 28.3269 6.63284 28.3269C6.90073 28.3269 7.16884 28.2557 7.4083 28.1124L14.4912 23.8773L21.5728 28.1124C22.0924 28.4228 22.7456 28.3944 23.2364 28.0388C23.7284 27.6832 23.9585 27.0701 23.8246 26.4772L21.9938 18.4139L28.2029 12.9694C28.6582 12.5699 28.8314 11.9393 28.6441 11.3618Z" fill="#FCDC02"/>
</g>
<defs>
<clipPath id="clip0_2_9725">
<rect width="28.4545" height="28.4545" fill="white" transform="translate(0.262939 0.447754)"/>
</clipPath>
</defs>
</svg>
