<svg width="24" height="24" viewBox="0 0 24 24" fill="none" xmlns="http://www.w3.org/2000/svg">
<path fill-rule="evenodd" clip-rule="evenodd" d="M24 12C24 18.6274 18.6274 24 12 24C5.37258 24 0 18.6274 0 12C0 5.37258 5.37258 0 12 0C18.6274 0 24 5.37258 24 12ZM18.0833 6L13.4333 11.4042L18.4896 18.7646H14.7708L11.3646 13.8083L7.10208 18.7646H6L10.8771 13.0958L6 6H9.71875L12.9438 10.6938L16.9813 6H18.0833ZM11.4312 12.4521L11.925 13.1583L15.2896 17.9708H16.9813L12.8583 12.0729L12.3646 11.3667L9.19167 6.82917H7.5L11.4312 12.4521Z" fill="#515B6F"/>
</svg>
