<svg width="24" height="31" viewBox="0 0 24 31" fill="none" xmlns="http://www.w3.org/2000/svg">
<path id="Vector" d="M12 31C12 31 24 19.9834 24 11.625C24 8.54186 22.7357 5.58499 20.4853 3.40488C18.2348 1.22477 15.1826 0 12 0C8.8174 0 5.76515 1.22477 3.51472 3.40488C1.26428 5.58499 4.74244e-08 8.54186 0 11.625C0 19.9834 12 31 12 31ZM12 17.4375C10.4087 17.4375 8.88258 16.8251 7.75736 15.7351C6.63214 14.645 6 13.1666 6 11.625C6 10.0834 6.63214 8.605 7.75736 7.51494C8.88258 6.42489 10.4087 5.8125 12 5.8125C13.5913 5.8125 15.1174 6.42489 16.2426 7.51494C17.3679 8.605 18 10.0834 18 11.625C18 13.1666 17.3679 14.645 16.2426 15.7351C15.1174 16.8251 13.5913 17.4375 12 17.4375Z" fill="#FF6E1F"/>
</svg>
