<svg width="35" height="31" viewBox="0 0 35 31" fill="none" xmlns="http://www.w3.org/2000/svg">
<path id="Vector" fill-rule="evenodd" clip-rule="evenodd" d="M26.1432 0C28.49 0 30.7475 0.912796 32.4082 2.55066C34.0708 4.18504 35 6.38948 35 8.69729V22.3028C35 27.1078 31.0275 31 26.1432 31H8.85499C3.97073 31 0 27.1078 0 22.3028V8.69729C0 3.89225 3.95324 0 8.85499 0H26.1432ZM28.9273 11.263L29.0673 11.1252C29.4856 10.6258 29.4856 9.9025 29.0481 9.40298C28.8049 9.1464 28.4706 8.98971 28.1223 8.95528C27.7548 8.93628 27.4049 9.05855 27.1406 9.29971L19.2499 15.4997C18.2348 16.3281 16.7806 16.3281 15.7499 15.4997L7.87491 9.29971C7.33063 8.90355 6.5781 8.95528 6.12491 9.42029C5.6524 9.88529 5.59984 10.6258 6.00066 11.1425L6.22984 11.3664L14.1923 17.4803C15.1723 18.2381 16.3606 18.6513 17.6049 18.6513C18.8456 18.6513 20.0549 18.2381 21.0331 17.4803L28.9273 11.263Z" fill="#FF6E1F"/>
</svg>
