<svg width="31" height="31" viewBox="0 0 31 31" fill="none" xmlns="http://www.w3.org/2000/svg">
<path id="Vector" d="M25.0586 19.1878C24.0174 18.9638 23.1938 19.4471 22.4645 19.8693C21.7177 20.3044 20.2975 21.4565 19.4835 21.1616C15.3157 19.4456 11.3959 15.7976 9.69895 11.6132C9.39992 10.7817 10.5466 9.35255 10.9784 8.59691C11.3974 7.86541 11.8708 7.03399 11.6549 5.98499C11.4598 5.04241 8.93606 1.83114 8.04372 0.953011C7.45515 0.372977 6.85226 0.0539867 6.23332 0.00235384C3.90631 -0.0974759 1.30748 3.00737 0.851703 3.7502C-0.290258 5.3341 -0.28385 7.44157 0.870833 9.99712C3.65362 16.8611 14.1786 27.2199 21.0684 30.1074C22.3398 30.7019 23.5025 31 24.5469 31C25.5687 31 26.4788 30.7148 27.2608 30.1493C27.851 29.8093 31.0832 27.0814 30.9984 24.6919C30.9472 24.0828 30.629 23.4738 30.0564 22.8841C29.1848 21.9833 25.9942 19.3844 25.0586 19.1878Z" fill="#FF6E1F"/>
</svg>
