<svg width="67" height="41" viewBox="0 0 67 41" fill="none" xmlns="http://www.w3.org/2000/svg">
<g id="Group 1171275269">
<path id="Vector" d="M61.4729 0H5.215C2.33483 0 0 2.33483 0 5.215V34.7978C0 37.6779 2.33483 40.0128 5.215 40.0128H61.4729C64.3531 40.0128 66.688 37.6779 66.688 34.7978V5.215C66.688 2.33483 64.3531 0 61.4729 0Z" fill="white"/>
<g id="Group_5">
<path id="Path_64" d="M55.0174 21.2534L43.5337 19.4528L45.0542 26.295L55.0174 21.2534Z" fill="#D12053"/>
<path id="Path_65" d="M55.0175 21.2535L46.3681 9.22962L43.5405 19.4529L55.0175 21.2468V21.2535Z" fill="#E2136E"/>
<path id="Path_66" d="M43.2737 19.3128L34.2108 7.72914L46.0813 9.14959L43.2737 19.3195V19.3128Z" fill="#D12053"/>
<path id="Path_67" d="M39.1391 14.4713L34.1041 9.72977H35.4312L39.1391 14.4713Z" fill="#9E1638"/>
<path id="Path_68" d="M57.4718 15.405L55.3445 21.1869L51.89 16.412L57.4718 15.4117V15.405Z" fill="#D12053"/>
<path id="Path_69" d="M46.4014 25.9483L54.764 22.5873L55.1175 21.5203L46.408 25.9483H46.4014Z" fill="#E2136E"/>
<path id="Path_70" d="M39.7125 32.2837L43.2937 19.7197L45.1076 27.8956L39.7125 32.2837Z" fill="#9E1638"/>
<path id="Path_71" d="M57.8051 15.4515L56.9249 17.839L60.0925 17.7856L57.7985 15.4515H57.8051ZM6.59546 16.4118C6.74884 16.4252 6.90222 16.4518 7.06894 16.4518C7.23566 16.4518 7.36904 16.4252 7.54243 16.4118V21.4935C8.04259 20.6399 8.66945 20.0797 9.59642 20.0797C11.2703 20.0797 11.9905 21.7402 11.9905 23.2607C11.9905 25.0879 11.0169 26.8352 9.30966 26.8352C8.60943 26.8485 7.96256 26.475 7.62912 25.8682C7.34236 26.1216 7.08895 26.4217 6.8222 26.6951H6.6088V16.4118H6.59546ZM7.52242 23.8809C7.52242 25.3614 8.14929 26.395 9.18295 26.395C10.5234 26.395 10.9569 24.5944 10.9569 23.314C10.9569 21.8336 10.47 20.6665 9.30966 20.6532C7.95589 20.6399 7.52909 22.247 7.52909 23.8809H7.52242Z" fill="#E2136E"/>
<path id="Path_72" d="M16.3653 19.6929L15.3583 20.9933C16.3053 22.3804 17.2923 23.7342 18.2392 25.1413L19.1995 26.6551V26.7285C18.9661 26.7151 18.746 26.6818 18.5527 26.6818C18.3593 26.6818 18.0992 26.7151 17.8924 26.7285C17.6324 26.2417 17.3723 25.7949 17.0722 25.3547L14.4714 21.5135C14.4113 21.4535 14.2713 21.4068 14.2713 21.4668V26.7285C14.0779 26.7151 13.9112 26.6818 13.7511 26.6818C13.5911 26.6818 13.3977 26.7151 13.231 26.7285V16.4052C13.3977 16.4185 13.5777 16.4519 13.7511 16.4519C13.9245 16.4519 14.0846 16.4185 14.2713 16.4052V21.0667C14.2713 21.16 14.4513 21.1 14.5647 20.9733C14.7915 20.7399 14.9982 20.4932 15.1983 20.2331L18.1192 16.3985C18.2726 16.4119 18.4259 16.4452 18.5927 16.4452C18.7594 16.4452 18.8861 16.4119 19.0528 16.3985L16.3586 19.6862L16.3653 19.6929ZM24.2211 25.5681C24.2211 26.1083 24.1878 26.375 24.888 26.2017V26.5017C24.7746 26.5618 24.6546 26.6018 24.5279 26.6351C23.9077 26.7618 23.4009 26.6485 23.3075 25.8415L23.2008 25.9616C22.7807 26.5084 22.1338 26.8285 21.4402 26.8285C20.6 26.8285 19.8664 26.1683 19.8664 25.148C19.8664 23.5808 20.9468 23.3741 22.0604 23.174C23.0007 22.994 23.3208 22.9139 23.3208 22.2537C23.3208 21.2334 22.8207 20.6465 21.9337 20.6465C21.3135 20.6332 20.7467 21.0133 20.5199 21.5935H20.3932V20.8333C20.9267 20.3665 21.607 20.0997 22.3139 20.0797C23.5609 20.0797 24.2345 20.8333 24.2345 22.3871L24.2211 25.5748V25.5681ZM23.2742 23.3007L22.854 23.3941C22.0471 23.5741 20.8334 23.7075 20.8334 24.9613C20.8334 25.8282 21.2669 26.2617 21.9938 26.2617C22.3672 26.215 22.714 26.0283 22.9541 25.7348C23.0408 25.6348 23.2808 25.4014 23.2808 25.3014L23.2675 23.3007H23.2742ZM26.3418 25.3881C26.6219 25.9282 27.1487 26.4084 27.7089 26.4084C28.3691 26.375 28.8893 25.8215 28.8759 25.1546C28.8759 23.3007 26.0751 24.5078 26.0751 22.107C26.0751 20.7933 26.942 20.0797 28.009 20.0797C28.4825 20.0664 28.9493 20.1931 29.3494 20.4331C29.2294 20.7532 29.136 21.0733 29.0693 21.4068H28.9626C28.8093 20.9533 28.3958 20.4998 27.9557 20.4998C27.3621 20.4998 26.8753 20.9 26.8753 21.6402C26.8753 23.3941 29.6762 22.4605 29.6762 24.6612C29.6762 26.1283 28.5358 26.8285 27.4888 26.8285C26.962 26.8285 26.4485 26.6751 26.0084 26.395C26.1151 26.0683 26.1951 25.7282 26.2551 25.3881H26.3485H26.3418ZM31.2634 16.4119C31.4234 16.4252 31.5768 16.4519 31.7369 16.4519C31.8969 16.4519 32.037 16.4252 32.2103 16.4119V21.4135C32.6238 20.5732 33.2774 20.0864 34.1243 20.0864C35.4981 20.0864 36.0382 21.0333 36.0382 22.7606V26.7352C35.8582 26.7218 35.7181 26.6951 35.5648 26.6951C35.4114 26.6951 35.2446 26.7218 35.0913 26.7352V23.074C35.0913 21.5602 34.7845 20.7933 33.7775 20.7933C32.7105 20.7933 32.2237 21.5668 32.2237 22.994V26.7418C32.0436 26.7285 31.9036 26.7018 31.7502 26.7018C31.5968 26.7018 31.4368 26.7285 31.2767 26.7418V16.4185L31.2634 16.4119Z" fill="#231F20"/>
</g>
</g>
</svg>
