<svg width="12" height="14" viewBox="0 0 12 14" fill="none" xmlns="http://www.w3.org/2000/svg">
<g id="Layer_1" clip-path="url(#clip0_202_954)">
<path id="Vector" d="M11.157 14.0001H0.84751C0.234064 13.8505 -0.00508372 13.4366 -4.4209e-05 12.8561C0.0159906 11.0519 0.00545344 9.2478 0.00728599 7.44323C0.00728599 7.32555 0.00911854 7.20393 0.0379812 7.09106C0.147018 6.66584 0.505282 6.39067 0.963419 6.37054C1.08483 6.36529 1.20715 6.36967 1.33589 6.36967C1.33589 5.74321 1.33772 5.14212 1.33589 4.54103C1.33176 3.48979 1.63734 2.53785 2.33829 1.71671C2.99068 0.952008 3.79334 0.394231 4.80674 0.147934C5.70652 -0.0708027 6.60264 -0.0484916 7.48638 0.228429C8.33989 0.495724 9.03168 0.992693 9.6039 1.64234C10.2334 2.35717 10.6036 3.18093 10.6448 4.118C10.6755 4.8092 10.6627 5.5026 10.6691 6.19468C10.6695 6.24762 10.6691 6.30055 10.6691 6.36661C10.7717 6.36661 10.8564 6.36617 10.9412 6.36661C11.5881 6.37186 11.9963 6.75465 11.9972 7.37454C12.0009 9.24693 12.0013 11.1197 11.994 12.9921C11.9935 13.1553 11.9532 13.3294 11.884 13.4782C11.7475 13.773 11.4758 13.9226 11.157 13.9996V14.0001ZM3.36544 6.35611H8.6583C8.6583 5.63559 8.67113 4.9247 8.6528 4.21512C8.64364 3.8577 8.52819 3.51429 8.32798 3.20762C7.70033 2.24474 6.80055 1.80289 5.61031 1.94113C4.47092 2.07325 3.46897 3.00201 3.37735 4.09481C3.31458 4.8407 3.36544 5.59534 3.36544 6.35611Z" fill="white"/>
</g>
<defs>
<clipPath id="clip0_202_954">
<rect width="12" height="14" fill="white"/>
</clipPath>
</defs>
</svg>
