<svg width="67" height="41" viewBox="0 0 67 41" fill="none" xmlns="http://www.w3.org/2000/svg">
<g id="Layer_1" clip-path="url(#clip0_202_1081)">
<path id="Vector" d="M61.1518 0.327974H5.81615C2.9832 0.327974 0.686646 2.62453 0.686646 5.45748V34.5553C0.686646 37.3882 2.9832 39.6848 5.81615 39.6848H61.1518C63.9848 39.6848 66.2813 37.3882 66.2813 34.5553V5.45748C66.2813 2.62453 63.9848 0.327974 61.1518 0.327974Z" fill="white"/>
<g id="Group_2">
<path id="Path_2" fill-rule="evenodd" clip-rule="evenodd" d="M33.4971 32.0824C36.4554 34.8046 40.3321 36.3132 44.353 36.3067C53.3067 36.3067 60.5549 28.9994 60.5549 20.0195C60.5549 11.0396 53.3067 3.69954 44.353 3.69954C40.3321 3.69954 36.4554 5.20166 33.4971 7.92384C26.8261 13.9782 26.3342 24.2963 32.3886 30.9673C32.7428 31.3543 33.1101 31.7216 33.4971 32.0758V32.0824Z" fill="#E9B040"/>
<path id="Path_3" fill-rule="evenodd" clip-rule="evenodd" d="M58.41 29.0913C58.41 28.8158 58.633 28.5862 58.9085 28.5862C59.1906 28.5731 59.4267 28.7895 59.4398 29.0716C59.4398 29.0716 59.4398 29.0847 59.4398 29.0913C59.4464 29.3733 59.2299 29.616 58.9413 29.6226C58.9282 29.6226 58.9151 29.6226 58.9085 29.6226C58.6265 29.6226 58.4034 29.393 58.4034 29.1109C58.4034 29.1109 58.4034 29.0978 58.4034 29.0913M58.9085 29.5111C59.1381 29.5111 59.3218 29.3208 59.3283 29.0913C59.3218 28.8682 59.1315 28.6911 58.9085 28.6977C58.6921 28.6977 58.5215 28.8748 58.515 29.0913C58.515 29.3143 58.7117 29.5111 58.9085 29.5111ZM58.856 29.3405H58.7445V28.8617H58.9413C58.9807 28.8617 59.02 28.8617 59.0528 28.8879C59.1119 28.9141 59.1119 28.9469 59.1119 28.9994C59.1119 29.0519 59.0856 29.1109 59.0266 29.1109L59.1381 29.334H59.0004L58.9413 29.1372H58.856V29.0519H58.9676C58.9676 29.0519 58.9938 29.0257 58.9938 28.9929C58.9938 28.9601 58.9938 28.9666 58.9676 28.9338H58.856V29.3274V29.3405Z" fill="#E9B040"/>
<path id="Path_4" fill-rule="evenodd" clip-rule="evenodd" d="M38.7316 18.2878C38.6726 17.6975 38.561 17.1399 38.4495 16.5495H28.5447C28.6628 15.9723 28.8137 15.4016 28.9908 14.8441H37.9773C37.7805 14.2537 37.5574 13.6765 37.3082 13.1058H29.6926C29.9747 12.5155 30.283 11.9317 30.6175 11.3676H36.3571C35.9897 10.7707 35.5765 10.2 35.1239 9.6621H31.8507C32.3558 9.04551 32.9068 8.46172 33.5037 7.92384C30.6241 5.31973 26.813 3.69954 22.615 3.69954C13.6875 3.69954 6.41309 11.0068 6.41309 20.0129C6.41309 29.0191 13.6875 36.3001 22.615 36.3001C26.6425 36.3001 30.5323 34.798 33.5037 32.0758C34.0875 31.5511 34.6319 30.9804 35.1304 30.3703H31.8573C31.4178 29.8128 31.0045 29.2356 30.6241 28.6321H36.3636C36.7244 28.0811 37.0458 27.4973 37.3147 26.8938H29.6992C29.4368 26.3363 29.2007 25.7656 28.9973 25.1884H37.9838C38.174 24.6177 38.3315 24.0405 38.4561 23.4501C38.5807 22.8794 38.6726 22.2956 38.7382 21.7118C38.7972 21.1412 38.8234 20.5771 38.8234 20.0064C38.8234 19.4226 38.7972 18.8322 38.7382 18.2747L38.7316 18.2878Z" fill="#CC2131"/>
<path id="Path_5" fill-rule="evenodd" clip-rule="evenodd" d="M58.41 23.7978C58.3969 23.5157 58.6133 23.2796 58.8954 23.2664C58.8954 23.2664 58.9085 23.2664 58.9151 23.2664C59.1971 23.2599 59.4398 23.4763 59.4464 23.765C59.4464 23.7781 59.4464 23.7912 59.4464 23.7978C59.4464 24.0929 59.2102 24.3291 58.9151 24.3291C58.633 24.3291 58.41 24.0798 58.41 23.7978ZM58.9085 24.1913C59.125 24.2044 59.3152 24.0405 59.3283 23.824C59.3414 23.6075 59.1774 23.4173 58.961 23.4042C58.9413 23.4042 58.9282 23.4042 58.9085 23.4042C58.692 23.4042 58.5149 23.5813 58.5149 23.7978C58.5149 24.0142 58.692 24.1913 58.9085 24.1913ZM58.856 24.0208H58.7445V23.5747H59.0528C59.1119 23.601 59.1119 23.66 59.1119 23.7125C59.1053 23.7584 59.0725 23.8043 59.0266 23.824L59.1381 24.0208H59.0003L58.9413 23.8502H58.856V23.765H58.9151C58.9151 23.765 58.9741 23.765 58.9741 23.7387C59.0003 23.7387 59.0003 23.7125 59.0003 23.6797C59.0003 23.6666 58.9872 23.6535 58.9741 23.6535C58.9741 23.6272 58.9479 23.6535 58.9151 23.6535H58.856V24.0142V24.0208Z" fill="white"/>
<path id="Path_6" fill-rule="evenodd" clip-rule="evenodd" d="M27.9872 24.7226C27.4558 24.8604 27.0623 24.9457 26.6687 24.9457C25.8291 24.9457 25.324 24.4143 25.324 23.4632C25.324 23.2599 25.3503 23.05 25.3831 22.8466L25.4946 22.2038L25.5798 21.6725L26.3342 17.0809H28.0134L27.8166 18.091H28.8793L28.63 19.7702H27.5674L27.1213 22.5121C27.1016 22.6039 27.0951 22.6958 27.0951 22.7942C27.0951 23.1549 27.2656 23.2992 27.6854 23.2992C27.8625 23.2992 28.0396 23.2796 28.2167 23.2402L27.9937 24.7226H27.9872ZM33.4118 24.6636C32.8281 24.8276 32.2246 24.9129 31.6211 24.9129C29.7189 24.9129 28.6234 23.9027 28.6234 21.9217C28.6234 19.5997 29.9091 17.9205 31.6998 17.9205C33.1298 17.9205 34.0481 18.8716 34.0481 20.354C34.0481 20.8591 33.9891 21.3314 33.8513 22.007H30.3551C30.3355 22.0792 30.3289 22.1579 30.3289 22.23C30.3289 23.0106 30.8602 23.4042 31.8704 23.4042C32.5132 23.4042 33.0708 23.2664 33.6873 22.9844L33.4053 24.6636H33.4118ZM32.382 20.6623V20.3278C32.382 19.7702 32.0737 19.4619 31.5424 19.4619C30.9848 19.4619 30.5913 19.8818 30.4207 20.6623H32.382ZM14.5534 24.8079H12.8151L13.8253 18.4583L11.5557 24.8079H10.3553L10.2176 18.4846L9.15492 24.8079H7.44946L8.82039 16.5495H11.3655L11.4245 21.6463L13.13 16.5495H15.9309L14.5599 24.8079H14.5534ZM18.7777 21.8102C18.6662 21.7906 18.5546 21.7774 18.4431 21.784C17.433 21.784 16.9345 22.1776 16.9345 22.7942C16.9345 23.214 17.1837 23.496 17.5773 23.496C18.4169 23.496 18.7514 22.7942 18.7777 21.8168V21.8102ZM20.1748 24.8079H18.6662L18.6924 24.1061C18.2988 24.6374 17.7675 24.9194 16.8426 24.9194C16.003 24.9194 15.2749 24.1651 15.2749 23.0697C15.2749 22.7745 15.3274 22.4859 15.4127 22.2038C15.6947 21.1674 16.7311 20.5246 18.3251 20.4983C18.5218 20.4983 18.8301 20.4983 19.1056 20.5246C19.145 20.3803 19.1647 20.2294 19.1581 20.0785C19.1581 19.6325 18.7973 19.4882 17.984 19.4882C17.492 19.4882 17.0001 19.5603 16.5278 19.7112L16.2785 19.7702L16.167 19.7965L16.4163 18.2878C17.2296 18.0385 17.8134 17.927 18.4563 17.927C19.9649 17.927 20.7783 18.6289 20.7783 19.9146C20.798 20.354 20.7652 20.7935 20.693 21.233L20.2995 23.6403L20.2404 24.0601L20.2142 24.3947L20.188 24.6177L20.1617 24.8145L20.1748 24.8079ZM41.867 18.1435C42.3721 18.1435 42.8181 18.2812 43.4347 18.5895L43.743 16.7988C43.5725 16.7135 43.52 16.7135 43.297 16.6283L42.5951 16.4315C42.3262 16.3724 42.0572 16.3462 41.7817 16.3462C40.9159 16.3462 40.4108 16.3724 39.8795 16.6807C39.499 16.93 39.1514 17.2317 38.8431 17.5794L38.6201 17.5203L36.8293 18.7798L36.9146 18.0779H35.0648L33.976 24.7948H35.7405L36.3833 21.1871C36.3833 21.1871 36.6325 20.682 36.7441 20.518C37.0786 20.0982 37.3606 20.0982 37.7214 20.0982H37.8592C37.8001 20.5246 37.7739 20.9575 37.7739 21.3839C37.7739 23.5682 39.0071 24.9391 40.9093 24.9391C41.3882 24.9391 41.808 24.8801 42.4508 24.7161L42.7591 22.8138C42.2015 23.1221 41.6965 23.2599 41.2766 23.2599C40.2403 23.2599 39.6237 22.4793 39.6237 21.2461C39.6237 19.4291 40.5485 18.1369 41.8604 18.1369M56.7308 16.5495L56.3372 18.8978C55.9174 18.255 55.4123 17.9467 54.7432 17.9467C53.8184 17.9467 52.9525 18.478 52.4212 19.4882V19.4619L51.2995 18.7929L51.411 18.091H49.535L48.4724 24.8079H50.2107L50.801 21.2002C50.801 21.2002 51.247 20.6951 51.3586 20.5311C51.5488 20.2884 51.8308 20.131 52.1391 20.1113C51.9292 20.7542 51.8243 21.4232 51.8308 22.0989C51.8308 23.7781 52.6967 24.8997 53.9823 24.8997C54.6252 24.8997 55.1303 24.6767 55.6025 24.1454L55.5173 24.8145H57.1702L58.5149 16.5561H56.7242L56.7308 16.5495ZM54.5727 23.214C53.9823 23.214 53.674 22.7679 53.674 21.8955C53.674 20.5771 54.2316 19.6259 55.045 19.6259C55.6616 19.6259 55.9699 20.1048 55.9699 20.9444C55.9699 22.2891 55.4123 23.214 54.5727 23.214ZM46.4849 21.8102C46.3734 21.7906 46.2618 21.7774 46.1503 21.784C45.1402 21.784 44.6417 22.1776 44.6417 22.7942C44.6417 23.214 44.8909 23.496 45.2845 23.496C46.1241 23.496 46.4586 22.7942 46.4914 21.8168M47.882 24.8079H46.3406L46.3996 24.1061C46.006 24.6374 45.4747 24.9194 44.5498 24.9194C43.684 24.9194 42.9296 24.1913 42.9296 23.0697C42.9296 21.4757 44.13 20.4983 46.0388 20.4983C46.2881 20.4983 46.5439 20.4983 46.7932 20.5246C46.8522 20.3016 46.8784 20.2163 46.8784 20.0785C46.8784 19.6325 46.5177 19.4882 45.6781 19.4882C45.1992 19.4882 44.6154 19.5735 44.2219 19.7112L43.9988 19.7702L43.8873 19.7965L44.1366 18.2878C44.95 18.0385 45.5337 17.927 46.1831 17.927C47.6918 17.927 48.479 18.6289 48.479 19.9146C48.479 20.2491 48.538 20.5049 48.3937 21.233L48.0329 23.6403L47.9739 24.0601L47.9148 24.3947L47.8886 24.6177V24.8145L47.882 24.8079ZM23.8416 19.5144C24.2811 19.5144 24.7205 19.5538 25.16 19.6259L25.4093 18.0582C24.9042 17.9992 24.2351 17.9205 23.8416 17.9205C21.8803 17.9205 21.2375 18.9831 21.2375 20.2163C21.2375 21.0297 21.5982 21.6135 22.5559 22.0661C23.2578 22.4006 23.3693 22.4596 23.3693 22.7679C23.3693 23.1877 23.0085 23.437 22.3329 23.437C21.7885 23.437 21.2506 23.3452 20.7389 23.1549L20.5422 24.6964L20.5684 24.7226L20.9029 24.7817C21.0538 24.8145 21.1981 24.8473 21.349 24.867C21.7688 24.8932 22.1296 24.926 22.3591 24.926C24.3204 24.926 25.1272 24.1716 25.1272 22.6892C25.1272 21.7643 24.6812 21.2068 23.8088 20.8132C23.0544 20.4787 22.9692 20.4196 22.9692 20.1113C22.9692 19.803 23.3037 19.521 23.835 19.521" fill="#1B3771"/>
<path id="Path_7" fill-rule="evenodd" clip-rule="evenodd" d="M44.2154 16.2675L43.9071 18.0582C43.2905 17.7499 42.8444 17.6122 42.3393 17.6122C41.0209 17.6122 40.1026 18.8978 40.1026 20.7214C40.1026 21.9808 40.7192 22.7351 41.7556 22.7351C42.1754 22.7351 42.6804 22.5974 43.238 22.3153L42.9297 24.1913C42.2869 24.3619 41.8671 24.4406 41.3882 24.4406C39.486 24.4406 38.3118 23.0697 38.3118 20.8591C38.3118 17.9205 39.932 15.8477 42.2606 15.8477C42.5361 15.8477 42.8051 15.8739 43.074 15.933L43.7759 16.1035C43.9989 16.1888 44.0579 16.215 44.2219 16.2675H44.2154ZM38.5611 17.5007H38.3905C37.8002 17.5007 37.4657 17.7827 36.9343 18.5895L37.1049 17.5531H35.5109L34.4221 24.27H36.1866C36.8294 20.1573 36.9999 19.4554 37.8395 19.4554H37.9511C38.0822 18.7798 38.3053 18.1304 38.6201 17.5269L38.5611 17.5007ZM28.4333 24.1913C28.0331 24.3422 27.6068 24.4143 27.1738 24.4143C26.2752 24.4143 25.7767 23.9093 25.7767 22.9319C25.7767 22.7351 25.8029 22.5383 25.8357 22.3416L25.9472 21.6725L26.0325 21.1412L26.7868 16.5495H28.5251L28.3283 17.5597H29.227L29.0039 19.2127H28.1053L27.6264 22.0136C27.6068 22.1054 27.5937 22.1972 27.6002 22.2956C27.6002 22.6302 27.7708 22.7745 28.1906 22.7745C28.3873 22.7745 28.5513 22.7745 28.6694 22.7154L28.4464 24.1979L28.4333 24.1913ZM21.6901 19.685C21.6901 20.5246 22.0837 21.1149 23.0086 21.561C23.7367 21.8955 23.8482 22.007 23.8482 22.2891C23.8482 22.7089 23.5399 22.9057 22.838 22.9057C22.3067 22.9057 21.7754 22.8204 21.2703 22.6564L21.0211 24.1979L21.1063 24.2241L21.4146 24.2832C21.5721 24.3225 21.7295 24.3422 21.8935 24.3422C22.2083 24.3816 22.5297 24.4012 22.8446 24.4012C24.6944 24.4012 25.5602 23.6994 25.5602 22.1645C25.5602 21.2396 25.1994 20.7082 24.327 20.2884C23.5727 19.9539 23.4874 19.8686 23.4874 19.5603C23.4874 19.1996 23.7957 19.029 24.3533 19.029C24.7731 19.029 25.1929 19.0618 25.6127 19.1143L25.862 17.5728C25.3503 17.4875 24.8387 17.4416 24.3205 17.4351C22.3592 17.4351 21.6639 18.4715 21.6901 19.7046V19.685ZM57.6229 24.2766H55.9699L56.0552 23.6338C55.5764 24.1388 55.0778 24.3619 54.4284 24.3619C53.1428 24.3619 52.3032 23.273 52.3032 21.5938C52.3032 19.357 53.6216 17.4482 55.1565 17.4482C55.8584 17.4482 56.3569 17.7565 56.8358 18.3731L57.2293 16.0248H58.9676L57.6229 24.2832V24.2766ZM55.0516 22.7089C55.865 22.7089 56.4225 21.7578 56.4225 20.4393C56.4225 19.5735 56.1142 19.1209 55.4976 19.1209C54.7171 19.1209 54.1267 20.0457 54.1267 21.3576C54.1267 22.2563 54.435 22.7023 55.0516 22.7023V22.7089ZM33.8055 24.1323C33.2151 24.3225 32.6051 24.4143 31.9885 24.4143C30.0272 24.4143 29.0236 23.378 29.0236 21.3904C29.0236 19.0946 30.3093 17.3892 32.0738 17.3892C33.53 17.3892 34.4549 18.3403 34.4549 19.8227C34.4549 20.3278 34.3958 20.8001 34.2318 21.5019H30.7619C30.7422 21.5675 30.7291 21.6331 30.7356 21.6987C30.7356 22.4793 31.267 22.8729 32.2771 22.8729C32.9068 22.886 33.5365 22.7417 34.0941 22.4531L33.812 24.1323H33.8055ZM32.8281 20.131V19.7965C32.8281 19.2389 32.5198 18.9306 31.9885 18.9306C31.4309 18.9306 31.0374 19.3504 30.8668 20.131H32.8281ZM14.9995 24.2766H13.2612L14.2714 17.9205L12.0018 24.2766H10.8014L10.6637 17.9795L9.60102 24.2766H7.98083L9.35176 16.0182H11.8706L11.9559 21.1412L13.6351 16.0182H16.377L15.006 24.2766H14.9995ZM19.3353 21.2789C19.1647 21.2789 19.086 21.2527 18.9417 21.2527C17.9643 21.2527 17.4593 21.6135 17.4593 22.2891C17.4593 22.7089 17.6823 22.9581 18.0759 22.9581C18.804 22.9581 19.309 22.2891 19.3353 21.2789ZM20.6209 24.2766H19.1647L19.191 23.5747C18.7449 24.1323 18.1546 24.3881 17.3412 24.3881C16.3901 24.3881 15.7472 23.66 15.7472 22.5711C15.7472 20.9181 16.8689 19.967 18.8236 19.967C19.0204 19.967 19.2697 19.9933 19.5517 20.0195C19.5911 19.8818 19.6108 19.744 19.6108 19.5997C19.6108 19.1537 19.3025 18.9831 18.4891 18.9831C17.984 18.9831 17.4265 19.0421 17.0329 19.1537L16.7836 19.2389L16.6131 19.2652L16.8624 17.7565C17.7282 17.5072 18.3186 17.422 18.9614 17.422C20.4701 17.422 21.2834 18.091 21.2834 19.3832C21.2834 19.7178 21.2572 19.9736 21.1457 20.7279L20.7521 23.109L20.6931 23.5288L20.6669 23.8634L20.6406 24.1126L20.6144 24.2832L20.6209 24.2766ZM47.0425 21.2789C46.8457 21.2789 46.7604 21.2527 46.6489 21.2527C45.6388 21.2527 45.1402 21.6135 45.1402 22.2891C45.1402 22.7089 45.3895 22.9581 45.7831 22.9581C46.4849 22.9581 47.0162 22.2891 47.0425 21.2789ZM48.3347 24.2766H46.8785L46.9047 23.5747C46.4587 24.1323 45.8683 24.3881 45.055 24.3881C44.1038 24.3881 43.461 23.66 43.461 22.5711C43.461 20.9181 44.5827 19.967 46.5374 19.967C46.7342 19.967 46.9834 19.9933 47.2393 20.0195C47.2983 19.7965 47.3245 19.7112 47.3245 19.5997C47.3245 19.1537 47.0162 18.9831 46.2029 18.9831C45.6978 18.9831 45.114 19.0421 44.7204 19.1537L44.4974 19.2389L44.3269 19.2652L44.5761 17.7565C45.442 17.5072 46.0323 17.422 46.6752 17.422C48.1838 17.422 48.971 18.091 48.971 19.3832C48.971 19.7178 48.971 19.9736 48.8332 20.7279L48.4724 23.109L48.4134 23.5288L48.3544 23.8634L48.3281 24.1126V24.2832L48.3347 24.2766ZM53.0313 17.5007H52.8607C52.2704 17.5007 51.9358 17.7827 51.4045 18.5895L51.5751 17.5531H49.9811L48.9185 24.27H50.6567C51.2996 20.1573 51.4701 19.4554 52.3097 19.4554H52.4212C52.5524 18.7798 52.7755 18.1304 53.0903 17.5269L53.0313 17.5007Z" fill="white"/>
</g>
</g>
<defs>
<clipPath id="clip0_202_1081">
<rect width="66.2506" height="40.0128" fill="white" transform="translate(0.358643)"/>
</clipPath>
</defs>
</svg>
