<svg width="67" height="41" viewBox="0 0 67 41" fill="none" xmlns="http://www.w3.org/2000/svg">
<g id="Layer_1" clip-path="url(#clip0_202_1011)">
<path id="Vector" d="M61.508 0.327974H6.17235C3.3394 0.327974 1.04285 2.62453 1.04285 5.45748V34.5553C1.04285 37.3882 3.3394 39.6848 6.17235 39.6848H61.508C64.341 39.6848 66.6376 37.3882 66.6376 34.5553V5.45748C66.6376 2.62453 64.341 0.327974 61.508 0.327974Z" fill="white"/>
<g id="Group_6">
<path id="Path_9" d="M42.9316 15.9067H33.3613C33.1908 15.9067 33.0465 16.0379 33.0399 16.215V16.2281V16.9628C33.0399 17.1333 33.1711 17.2776 33.3482 17.2842H33.3613H40.498V21.2396C40.2947 20.9444 40.0651 20.6623 39.8093 20.4131C38.9828 19.5407 38.0579 19.1274 37.1396 19.1274C36.4049 19.1274 35.7621 19.4947 35.2505 20.1835C34.8372 20.7345 34.6076 21.4232 34.6076 22.0267C34.6076 22.6695 34.6995 23.4567 35.2045 24.1913C35.8015 25.0637 36.7263 25.3392 37.5528 25.3392C38.6548 25.3392 39.5797 24.5587 39.5797 23.5879C39.5797 22.9909 39.3042 22.5318 38.7532 22.2563L38.2481 21.9808V22.7614C38.2022 22.9909 37.789 23.3124 37.3757 23.3124C37.0084 23.3124 36.6411 23.1746 36.4574 22.945C36.3197 22.7614 36.2278 22.5318 36.2737 22.3022C36.2737 22.0267 36.3656 21.7971 36.5952 21.5216C36.8247 21.2461 37.0543 21.1084 37.4216 21.1084C38.3859 21.1084 39.173 21.5675 39.8159 22.4924C40.3209 23.273 40.5964 24.0601 40.5964 24.8866V26.8676L42.0264 27.74C42.0658 27.7728 42.1117 27.7925 42.1641 27.7859C42.3347 27.7859 42.479 27.6547 42.4856 27.4776V27.4645V17.2908H43.0366C43.2071 17.2908 43.3514 17.1596 43.358 16.9825V16.9694V16.2347C43.2202 16.051 43.0825 15.9133 42.9447 15.9133" fill="#EC1C24"/>
<path id="Path_10" d="M62.0328 15.9067H49.9305C49.76 15.9067 49.6157 16.0379 49.6091 16.215V16.2281V17.5597C48.4612 16.32 47.3986 15.7165 46.4343 15.7165C45.4701 15.7165 44.7748 15.9461 44.132 16.4052C43.4891 16.9103 43.1677 17.5072 43.1677 18.2025C43.1677 20.3212 45.5619 20.3212 46.1129 19.9998C46.2048 19.9539 46.3425 19.8621 46.5262 19.8621C46.9853 19.8621 47.169 20.2294 47.169 20.5508C47.169 21.0559 46.4803 21.4691 45.6472 21.4691C45.188 21.4691 44.8666 21.3314 44.683 21.0559L44.3156 20.5049L44.0401 21.1477C43.9942 21.2855 43.9024 21.4691 43.9024 21.6987C43.9024 22.2038 44.132 22.663 44.5911 23.0303C45.0175 23.3845 45.5554 23.5813 46.1129 23.5813C47.0313 23.5813 47.7725 23.2599 48.2776 22.6171C48.6908 22.112 48.8745 21.4691 48.8745 20.7738C48.8745 20.3606 48.7367 19.9933 48.4153 19.5341C48.048 18.9831 47.5888 18.7076 47.0378 18.7076C46.8017 18.7207 46.5721 18.7666 46.3491 18.8454C46.2572 18.7994 46.1195 18.8454 46.0736 18.8454C45.9424 18.8454 45.8243 18.7732 45.7522 18.6617C45.6275 18.5436 45.5619 18.3731 45.5685 18.2025C45.5685 17.6975 46.0736 17.1465 46.9001 17.1465H46.946C47.497 17.1465 48.048 17.422 48.6055 17.9729C49.0188 18.3862 49.3861 18.7994 49.6157 19.2586V26.8086L51.0457 27.6351C51.085 27.6678 51.1309 27.6875 51.1834 27.681C51.3539 27.681 51.4983 27.5498 51.5048 27.3727V27.3596V17.2317H53.6694V23.765L55.3749 24.4537H55.4667C55.6045 24.4537 55.7422 24.316 55.7881 24.1782V24.1323C56.0636 22.1972 56.9361 20.8657 58.366 20.0392V20.4065C58.366 20.682 58.366 21.3708 58.4119 21.784C58.4119 22.0136 58.4119 22.1513 58.4578 22.2891C58.4578 23.0237 58.5497 24.2241 58.8252 25.0506C59.2843 26.6642 60.1108 27.0316 60.7143 27.0775H60.7602C61.1276 27.0775 61.3571 26.9857 61.5408 26.802C61.6851 26.638 61.7704 26.4215 61.7704 26.2051C61.7704 25.8837 61.7245 25.6541 61.6326 25.5163L61.4949 25.2868L61.2194 25.3327C60.898 25.4245 60.8061 25.4245 60.8061 25.3786H60.7602C60.699 25.3786 60.6531 25.3633 60.6225 25.3327C60.5306 25.2868 60.347 25.1031 60.2092 24.598C60.124 24.2044 60.078 23.8043 60.0715 23.4042C60.0715 21.2855 60.5306 19.6784 61.1735 19.3111H61.2194C61.3309 19.2652 61.4031 19.1537 61.4031 19.0356C61.4031 18.9831 61.3899 18.9372 61.3571 18.8978V18.8519C61.0357 18.2091 60.347 17.7499 59.3762 17.4744H59.1925C58.4579 17.6122 57.533 18.1173 56.3851 19.0881C56.1096 19.3176 55.8341 19.5931 55.5586 19.8227V17.1989H62.0918C62.2623 17.1989 62.4067 17.0677 62.4132 16.8906V16.8775V16.1429C62.3411 16.0051 62.1967 15.9198 62.0459 15.9133L62.0328 15.9067Z" fill="#EC1C24"/>
<path id="Path_11" d="M27.6939 20.787C27.7005 21.0953 27.6873 21.4036 27.648 21.7053C27.5561 23.0369 27.1888 24.2832 26.6837 25.4311C26.4542 25.8902 26.2246 26.3494 25.9491 26.7626C23.9681 29.8915 20.4719 32.0102 16.4706 32.0102C10.3179 32.0365 5.31298 27.0709 5.28674 20.9182C5.28674 20.8722 5.28674 20.8263 5.28674 20.7804C5.28674 16.4052 7.8187 12.5876 11.4986 10.7444C11.2099 11.1249 10.9476 11.525 10.718 11.9382C10.718 11.9842 10.6721 11.9842 10.6721 12.0301C10.5343 12.1678 10.3966 12.2597 10.2588 12.3974C10.0752 12.5351 9.93741 12.7188 9.75374 12.9025C9.70783 12.9484 9.66191 12.9943 9.66191 13.0402C9.61599 13.0861 9.57008 13.1321 9.57008 13.178L9.38641 13.3616C9.26178 13.4863 9.15683 13.624 9.065 13.7749C8.60584 14.3718 8.2385 15.0605 7.91709 15.7558C7.87117 15.8477 7.87118 15.8936 7.82526 15.9854C7.77934 16.0773 7.77934 16.1691 7.73343 16.215C7.59568 16.3068 7.59568 16.3528 7.59568 16.3987L7.45793 16.8119C7.41201 16.9038 7.41201 16.9956 7.3661 17.0874C7.3661 17.1333 7.32018 17.1793 7.32018 17.2252C7.32018 17.317 7.27426 17.4088 7.27426 17.5007C7.22835 17.7303 7.13651 18.0057 7.13651 18.2812C7.14307 18.36 7.12995 18.4387 7.0906 18.5108V19.6587C7.08404 22.5908 8.40249 25.3655 10.6786 27.2087C14.1092 30.0096 18.996 30.1604 22.5972 27.576C23.791 26.743 24.7684 25.641 25.4506 24.3553C25.5424 24.1717 25.6342 24.0339 25.7261 23.8502C26.2902 22.6367 26.605 21.3248 26.6444 19.9867V19.6653C26.6509 19.3439 26.6378 19.0225 26.5985 18.7011L26.6444 18.747C26.7756 18.8913 26.933 19.0159 27.1035 19.1143C27.2413 18.8847 27.379 18.6551 27.5627 18.4715C27.648 18.8978 27.707 19.3308 27.7464 19.7571C27.6545 20.1245 27.7005 20.4459 27.7005 20.7673" fill="#EC1C24"/>
<path id="Path_12" d="M26.5919 19.685V20.0064C26.5919 21.9873 25.7654 23.6403 25.6736 23.8699C25.5817 24.0536 25.4899 24.1913 25.3981 24.375C24.7028 25.6475 23.7254 26.7495 22.5447 27.5957C18.9435 30.1801 14.0567 30.0293 10.6261 27.2284C8.35 25.3852 7.03155 22.6105 7.03811 19.6784V18.5305C7.03155 18.4518 7.04467 18.3731 7.08403 18.3009C7.12994 18.0254 7.22177 17.7499 7.26769 17.4744C7.26769 17.3826 7.31361 17.2908 7.31361 17.1989C7.31361 17.153 7.35952 17.1071 7.35952 17.0612C7.40544 16.9694 7.40544 16.8775 7.45136 16.7857C7.49727 16.6479 7.54319 16.5561 7.5891 16.4184C7.5891 16.3724 7.63502 16.3265 7.63502 16.2806C7.68094 16.1888 7.68094 16.0969 7.72685 16.051C7.77277 15.9592 7.77277 15.9133 7.81869 15.8214C8.12042 15.1196 8.50743 14.4505 8.96659 13.8405C9.05843 13.7027 9.19618 13.565 9.28801 13.4272C9.33392 13.3813 9.37984 13.2895 9.47167 13.2436C9.51759 13.1977 9.51759 13.1517 9.56351 13.1058C9.60942 13.0599 9.65534 13.014 9.65534 12.9681C9.79309 12.7844 9.97675 12.6467 10.1604 12.463C10.285 12.3252 10.4228 12.2072 10.5737 12.0957C10.5737 12.1285 10.554 12.1613 10.5277 12.1875C10.5277 12.2334 10.4818 12.2793 10.4818 12.3252C9.93084 13.4732 9.56351 14.8113 9.42576 16.2806C9.3864 16.6807 9.37328 17.0809 9.37984 17.4744C9.37984 22.5843 12.371 26.7233 16.0967 26.7233H16.51C17.0413 26.7233 17.5661 26.638 18.0777 26.4937C20.6556 25.7918 22.4463 23.4567 22.4529 20.787V20.6033C22.4135 19.0487 21.751 17.5663 20.6097 16.5102C21.3902 16.5102 22.1315 16.6479 22.8202 16.8316C24.1583 17.1924 25.4112 17.8155 26.5001 18.6748L26.546 18.7207C26.546 19.0421 26.5919 19.3636 26.5919 19.685Z" fill="#F6921E"/>
<path id="Path_13" d="M26.5919 19.685V20.0064C26.5919 22.1251 25.6735 23.8699 25.6735 23.9158C25.5817 24.0995 25.4899 24.2372 25.398 24.4209C24.7093 25.7066 23.6926 26.8151 22.5447 27.6875C18.1433 30.8557 12.0036 29.8521 8.83537 25.4507C5.79833 21.2264 6.57891 15.3623 10.6261 12.0825L10.7179 11.9907C10.7179 12.0366 10.672 12.0366 10.672 12.0825C10.672 12.1153 10.6523 12.1481 10.6261 12.1744C8.36964 14.0176 7.1299 16.7791 7.1299 19.6784C7.1299 22.5777 8.41556 25.3392 10.7179 27.2284C12.3775 28.6583 14.5355 29.4389 16.792 29.4389C18.8648 29.4389 20.7933 28.7961 22.4987 27.5957C23.6729 26.7364 24.6437 25.641 25.3521 24.375C25.4439 24.1913 25.5358 24.0536 25.6276 23.8699C25.6276 23.8699 26.5919 22.0726 26.5459 20.0064V19.685C26.5525 19.3767 26.5394 19.0684 26.5 18.7666V18.7207L26.5459 18.7666L26.5919 18.8126V19.685Z" fill="#F6921E"/>
<path id="Path_14" d="M23.9222 13.6109C23.9222 13.6109 15.913 12.0891 12.1873 19.0421C12.1873 19.0421 12.8301 14.2537 18.5368 12.0432L17.3889 9.92448C17.3889 9.92448 19.6913 7.85169 23.6926 8.40268L23.9222 13.6043V13.6109Z" fill="#EC1C24"/>
<path id="Path_15" d="M14.0239 17.2908C14.0239 17.2908 17.1987 13.0993 24.5191 14.2078L24.4272 11.7677C24.4272 11.7677 27.4643 11.6759 29.9503 13.7946L26.9133 18.3993C26.9133 18.3993 24.8405 15.9592 20.5178 15.9133C18.7205 15.8674 16.5624 16.0969 14.0305 17.2908" fill="#F6921E"/>
<path id="Path_16" d="M15.7294 18.9044C15.7294 18.9044 15.0406 19.0421 15.0865 18.7207C15.0865 18.583 15.1784 18.5371 15.2243 18.583C15.2243 18.5371 15.0865 18.3534 15.408 18.2616C15.4932 18.1435 15.5654 18.0189 15.6375 17.8942C15.6835 17.8024 15.7294 17.6647 16.0049 17.7565C16.2804 17.8024 16.5559 18.0779 16.6018 18.1697C16.7395 18.1697 16.9232 18.2157 16.8773 18.2157L16.7855 18.3075C16.7855 18.3075 16.8773 18.3534 16.6018 18.3534C16.6018 18.4059 16.6477 18.4452 16.6936 18.4452C16.7395 18.4912 16.6936 18.4911 16.6936 18.5371C16.6936 18.5371 16.7395 18.6748 16.6018 18.6289C16.464 18.583 16.464 18.5371 16.4181 18.5371C16.3722 18.5371 16.2804 18.5371 16.2804 18.583C16.2804 18.6289 16.4181 18.7207 16.2804 18.7207C16.2345 18.7666 16.3263 18.8126 16.2804 18.8126C16.2345 18.8585 15.913 19.0881 15.7753 19.134C15.6375 19.134 15.5916 19.0881 15.5916 19.0421C15.5916 18.9962 15.6835 18.9503 15.7753 18.9503C15.7294 18.9503 15.7753 18.9044 15.7294 18.9044Z" fill="#EC1C24"/>
<path id="Path_17" d="M15.6835 19.6391C15.6376 19.6391 15.408 19.5013 15.5458 19.4554C15.6376 19.3636 16.0968 19.0881 16.1886 19.0421C16.2804 18.9962 16.4182 19.134 16.2804 19.2258C16.1427 19.3636 15.6835 19.6391 15.6835 19.6391Z" fill="#EC1C24"/>
<path id="Path_18" d="M16.3722 19.3176C16.3722 19.2258 16.464 18.9503 16.464 18.9044C16.464 18.8585 16.6936 18.8126 16.6477 19.0881C16.5559 19.3176 16.3722 19.4095 16.3722 19.3176Z" fill="#EC1C24"/>
<path id="Path_19" d="M16.6936 18.7666C16.6936 18.7666 17.9793 18.7207 18.0711 18.7666C18.163 18.8126 18.6221 19.5013 18.4844 20.0982C18.3925 20.6951 18.2089 20.8329 17.3824 20.9247C17.3824 20.741 17.3365 20.236 17.2446 20.0982C17.1528 19.9605 16.8773 19.6391 16.7855 19.6391C16.7855 19.7768 16.7396 20.1901 16.7396 20.1901C16.7396 20.1901 16.3263 20.236 16.2804 20.1441V19.5013C16.2804 19.5013 16.6477 19.1799 16.6936 19.0881C16.7396 19.134 16.7855 19.3176 17.1987 19.2717C17.1987 19.3176 16.6936 19.3636 16.6936 18.7666Z" fill="#EC1C24"/>
<path id="Path_20" d="M16.1886 19.3636C16.1886 19.3636 15.7753 19.685 15.6835 19.7768C15.6376 19.8686 15.5917 20.236 16.0967 20.236C16.1886 20.0064 16.1886 19.3636 16.1886 19.3636Z" fill="#EC1C24"/>
<path id="Path_21" d="M15.2243 19.8686C15.0866 19.8686 14.9948 19.8227 14.9948 19.7309C14.9948 19.6391 15.1784 19.5013 15.3162 19.5472C15.408 19.5931 15.6376 19.6391 15.6376 20.0523C15.8081 20.2228 16.0377 20.3212 16.2804 20.3278C16.6018 20.3278 16.7855 20.3278 16.7855 20.4196V21.0165C16.7855 21.0165 16.4182 21.0165 15.4998 20.3737C15.408 20.295 15.3555 20.1769 15.3621 20.0523C15.3621 19.9146 15.2702 19.8686 15.2243 19.8686Z" fill="#EC1C24"/>
<path id="Path_22" d="M14.9488 19.9146C14.8111 19.9146 14.3519 20.2819 14.6733 20.4196L14.857 20.236C14.857 20.236 14.7652 20.4656 14.9488 20.5115C15.1325 20.5574 15.0407 20.4196 15.1325 20.4196C15.1784 20.5115 15.1784 20.5574 15.2702 20.5574C15.3621 20.5574 15.3621 20.2819 15.2702 20.1441C15.2309 19.9998 15.0997 19.9014 14.9488 19.9146Z" fill="#EC1C24"/>
<path id="Path_23" d="M16.8773 19.9605V21.1543C16.8773 21.1543 17.2447 21.0165 17.2906 20.9247C17.2906 20.741 17.1987 19.9605 16.8773 19.9605Z" fill="#EC1C24"/>
<path id="Path_24" d="M15.9131 20.741C15.9131 20.741 16.3722 21.0625 16.6477 21.1543C16.6018 21.2002 16.4182 21.4757 16.3263 21.4298C16.2804 21.4298 15.959 20.9706 15.9131 20.741Z" fill="#EC1C24"/>
<path id="Path_25" d="M13.6566 21.2002H14.2994V21.4298H13.7025L13.6566 21.2002Z" fill="#EC1C24"/>
<path id="Path_26" d="M20.5178 21.0625H17.894L18.3073 21.3839H20.5178V21.0625Z" fill="#EC1C24"/>
<path id="Path_27" d="M17.3889 21.0625C17.4349 21.0165 17.7563 21.2461 17.6644 21.292C17.5726 21.338 16.7461 21.6594 16.7002 21.6594C16.6084 21.6135 16.6543 21.4298 16.7461 21.3839C16.792 21.338 17.2512 21.2002 17.3889 21.0625Z" fill="#EC1C24"/>
<path id="Path_28" d="M16.4641 21.62C16.3722 21.5741 15.8672 22.0792 16.0967 22.1251C16.3263 22.171 16.8773 22.2628 17.0151 22.3547C17.1528 22.3088 17.2447 22.171 17.2447 22.1251C17.3365 22.1251 17.4742 22.2628 17.612 22.2169C17.7497 22.171 18.3926 21.7118 18.3926 21.62C18.2548 21.5282 17.9793 21.3445 17.8416 21.3445C17.7497 21.2986 16.9232 21.8037 16.4641 21.62Z" fill="#EC1C24"/>
<path id="Path_29" d="M16.1885 22.2628C16.2345 22.2628 16.9232 22.4924 17.061 22.4924C17.2446 22.4465 17.2446 22.3088 17.3365 22.3088C17.4283 22.3088 17.4742 22.4006 17.612 22.3088C17.7891 22.1776 17.9596 22.0398 18.117 21.8955C18.117 21.9873 18.117 22.2628 17.5201 22.5383C16.9232 22.8138 15.4932 23.2271 15.4473 23.4108C15.572 23.3911 15.6966 23.3583 15.8147 23.3189C15.9065 23.3648 16.0442 23.5485 15.9983 23.8699C15.9524 24.1913 15.7228 24.6964 15.7228 24.8342V25.7066C15.7228 25.7525 15.8606 26.1657 15.6769 26.1198C15.4932 26.0739 15.4014 26.0739 15.3096 26.1198C15.2177 26.1198 15.08 26.2576 14.9882 26.2116C14.8504 26.2116 14.6667 26.1198 14.6667 26.0739C14.6667 26.028 14.8045 26.028 14.9422 25.9821C15.08 25.9361 15.1259 25.7984 15.3555 25.7066C15.3555 25.5688 15.2637 24.4209 15.2637 24.1848C15.2637 23.9486 15.1718 23.4501 15.3096 23.2664C15.4014 22.9909 15.9524 22.2104 16.182 22.2563" fill="#EC1C24"/>
<path id="Path_30" d="M17.061 22.9057C17.061 22.9975 17.4743 24.0077 17.6579 24.0077C17.8416 24.0077 19.5471 23.6403 19.8685 23.7781C19.9603 23.9158 20.144 24.1454 20.144 24.2832C20.144 24.2832 20.1899 24.6046 20.144 24.6505C20.2358 24.6439 20.3211 24.5915 20.3736 24.5127C20.4195 24.4209 20.3736 23.9617 20.3736 23.8699C20.3736 23.7781 20.6031 23.3648 20.3277 23.4108C20.0522 23.4108 19.2716 23.4108 18.9961 23.3648C18.7665 23.3189 18.1696 23.1812 18.0318 23.273C17.8941 23.3648 17.7104 23.5944 17.7104 23.6403C17.6645 23.6403 17.6186 23.5944 17.7104 23.4108C17.7563 23.2271 17.9859 22.722 17.94 22.4465C17.8023 22.4924 17.0676 22.9057 17.0676 22.9057" fill="#EC1C24"/>
<path id="Path_31" d="M16.0968 21.292C16.1099 21.3642 16.1427 21.4232 16.1886 21.4757L14.8571 21.3839C14.8571 21.3839 14.7193 21.292 14.7652 21.2461L16.0968 21.292Z" fill="#EC1C24"/>
<path id="Path_32" d="M14.6274 21.2002H15.959C15.959 21.2002 15.8671 21.0625 15.8212 20.9706H14.5815C14.5815 20.9706 14.4437 20.9706 14.4437 21.2461C14.4437 21.292 14.5356 21.3839 14.6274 21.2002Z" fill="#EC1C24"/>
<path id="Path_33" d="M13.3353 21.4298H13.6108C13.6108 21.4298 13.7026 21.3839 13.6108 21.292C13.5189 21.2002 13.3353 21.1084 13.473 20.9247C13.3353 20.9247 13.1516 20.8788 13.1975 21.292H13.0598C13.0598 21.292 13.0139 21.0625 12.6924 21.0625C12.371 21.0625 11.5905 21.3839 11.5905 21.3839C11.5905 21.3839 12.4629 21.6135 12.6924 21.6135C12.922 21.6135 13.0598 21.3839 13.0598 21.3839H13.1516C13.1516 21.3839 13.1975 21.5675 13.2434 21.6135V21.889C13.1713 21.9152 13.1254 21.9939 13.1516 22.0661C13.1516 22.2038 13.2434 22.2038 13.2894 22.2038C13.3353 22.2038 13.3353 22.1579 13.473 22.1579C13.5189 22.112 13.473 21.9283 13.3812 21.8824V21.6987C13.3812 21.6987 13.473 21.6069 13.473 21.561C13.4271 21.4691 13.3353 21.5151 13.3353 21.4232" fill="#EC1C24"/>
<path id="Path_34" d="M14.9488 22.722C15.0144 22.6761 15.0603 22.6105 15.0865 22.5383V21.7578C15.0865 21.5741 14.7651 21.4364 14.7192 21.4364C14.6667 21.4823 14.6011 21.5151 14.5355 21.5282C14.4503 21.5413 14.3584 21.5019 14.306 21.4364C14.0305 21.4364 13.8927 21.7578 13.8927 21.8037C13.8927 21.8496 13.8468 22.4465 13.8927 22.5383C13.8927 22.6302 13.9846 22.722 14.0305 22.7679C13.9846 22.9516 13.7091 24.0077 14.0764 24.1454V24.3291H14.9947V24.1454C15.2702 23.9158 15.0406 22.9975 14.9488 22.7154M13.8862 21.7578C13.8862 21.7118 14.0239 21.4823 14.2076 21.4823C14.2797 21.5544 14.3847 21.5872 14.4831 21.5741C14.5749 21.5741 14.6667 21.4823 14.7127 21.4823C14.8045 21.5282 14.9882 21.62 14.9882 21.7578V22.5383C14.9882 22.5843 14.9422 22.6302 14.8963 22.6761H14.7127V22.3088H14.1157V22.6302H13.978C13.919 22.5843 13.8862 22.5187 13.8862 22.4465V21.7578ZM14.529 23.9158H14.3453C14.2928 23.9158 14.2535 23.8699 14.2535 23.824C14.2535 23.7781 14.2928 23.7387 14.3453 23.7322H14.529C14.5815 23.7322 14.6208 23.7715 14.6208 23.824C14.6208 23.8765 14.5815 23.9158 14.529 23.9158ZM14.9029 24.0077L14.4437 23.5026L14.0305 24.0077C13.755 23.9158 13.9386 23.0893 14.0305 22.722H14.9029C14.9947 23.0893 15.1325 23.8699 14.9029 24.0077Z" fill="#EC1C24"/>
<path id="Path_35" d="M14.7652 23.0893C14.8177 23.0172 14.798 22.9122 14.7258 22.8663H14.1748C13.9912 22.8663 14.0371 23.0959 14.0371 23.0959L14.3585 23.3714C14.4503 23.3714 14.6799 23.2336 14.7717 23.0959" fill="#EC1C24"/>
<path id="Path_36" d="M14.5291 23.4107L14.8505 23.7781C14.8505 23.7781 14.8046 23.3189 14.8046 23.1812C14.7586 23.2271 14.5291 23.4107 14.5291 23.4107Z" fill="#EC1C24"/>
<path id="Path_37" d="M14.0698 23.1812C14.0698 23.3189 14.0239 23.7781 14.0239 23.7781L14.3453 23.4107C14.2601 23.3255 14.1682 23.2468 14.0698 23.1812Z" fill="#EC1C24"/>
<path id="Path_38" d="M14.7192 22.2169H14.7651V22.171C14.7651 22.171 14.7454 22.1251 14.7192 22.1251H14.2141C14.2141 22.1251 14.1682 22.1448 14.1682 22.171V22.2169H14.7192Z" fill="#EC1C24"/>
<path id="Path_39" d="M13.978 24.3356H13.9321V24.3815C13.9321 24.3815 13.9518 24.4275 13.978 24.4275H14.8964C14.8964 24.4275 14.9423 24.4078 14.9423 24.3815V24.3356H13.978Z" fill="#EC1C24"/>
<path id="Path_40" d="M10.895 21.0625C10.895 21.0625 7.2611 13.0993 15.7294 7.98944L17.7563 11.7152C17.7563 11.7152 16.3722 12.1744 14.9029 13.4666C13.2893 14.8506 11.5903 17.1465 10.9016 21.0625" fill="#F6921E"/>
<path id="Path_41" d="M34.0042 30.5475V31.1444L34.5092 30.9607L34.647 31.0985V31.2821C34.6535 31.4658 34.588 31.6494 34.4633 31.7872C34.3715 31.9249 34.1878 31.9709 34.0042 31.9709C33.7877 31.9709 33.5778 31.8725 33.4532 31.6954C33.3154 31.5576 33.2236 31.3739 33.1317 31.1444L33.2695 31.0525C33.4532 31.5576 33.6827 31.7872 34.0042 31.7872C34.2534 31.7872 34.4568 31.5773 34.4633 31.328C34.4633 31.2756 34.4502 31.2296 34.4174 31.1903L33.9582 31.3739L33.8205 31.1903V30.5475H33.0399V30.4097H34.7913V30.5475H34.0107H34.0042Z" fill="#231F20"/>
<path id="Path_42" d="M34.9684 31.9249V30.5475H34.7388V30.4097H35.3357V30.5475H35.152V31.9249H34.9684Z" fill="#231F20"/>
<path id="Path_43" d="M36.3 30.5475V30.6393C36.4508 30.6393 36.5951 30.6918 36.7132 30.777C36.851 30.8689 36.9428 30.9607 36.9428 31.0985C36.9362 31.2034 36.8837 31.3018 36.805 31.3739C36.7198 31.4264 36.6279 31.4592 36.5295 31.4658H36.4836V31.2821H36.5755C36.7132 31.2821 36.7591 31.2362 36.7591 31.0985C36.7591 30.9607 36.6214 30.8689 36.3 30.823V31.9249H36.1163L35.8408 31.5117C35.7227 31.3871 35.5522 31.3215 35.3816 31.328L35.3357 31.0985C35.4275 31.0066 35.703 30.8689 36.1163 30.6393V30.5475H35.2898V30.4097H37.0412V30.5475H36.3065H36.3ZM36.1163 30.823C36.031 30.8558 35.9589 30.9082 35.8867 30.9607L35.6571 31.1903C35.7555 31.2428 35.8342 31.3215 35.8867 31.4199C35.972 31.5051 36.0507 31.597 36.1163 31.6954V30.823Z" fill="#231F20"/>
<path id="Path_44" d="M39.3895 30.1342C39.114 29.9505 38.8385 29.8587 38.6548 29.8587C38.4908 29.8587 38.3268 29.9046 38.1956 29.9965C38.0579 30.0883 38.012 30.226 38.012 30.4097H38.1956V30.5475H38.012V31.879H37.8283V30.5475H37.6447V30.4097H37.8283C37.8283 30.1998 37.907 30.003 38.0579 29.8587C38.1956 29.721 38.3793 29.675 38.6089 29.675C38.7466 29.675 38.8844 29.721 39.0681 29.7669C39.1599 29.8128 39.2976 29.9046 39.4813 29.9965L39.3895 30.1342Z" fill="#231F20"/>
<path id="Path_45" d="M39.5271 30.5475V31.9249H39.3435C39.2254 31.7544 39.068 31.6101 38.8843 31.5117C38.7072 31.3936 38.4973 31.328 38.2874 31.328L38.2415 31.0985C38.3333 31.0066 38.517 30.9148 38.7925 30.823C38.8843 30.777 39.068 30.7311 39.3894 30.5934V30.5015H38.1497V30.3638H39.7633V30.5015H39.5337V30.5475H39.5271ZM39.3435 30.823C39.1598 30.8689 38.8843 31.0066 38.517 31.1903C38.8384 31.328 39.1139 31.4658 39.3435 31.6494V30.823Z" fill="#231F20"/>
<path id="Path_46" d="M39.6649 30.4097H41.3704V30.5475H39.6649V30.4097ZM40.6292 31.9249C40.4455 31.9249 40.2618 31.8331 40.0782 31.6494C39.9404 31.5117 39.8486 31.328 39.7567 31.0985L39.8486 31.0066C39.8945 31.1968 39.9863 31.3739 40.1241 31.5117C40.2618 31.6954 40.3996 31.7872 40.5832 31.7872C40.8325 31.7872 41.0358 31.5773 41.0424 31.328C40.9047 31.4199 40.8128 31.4658 40.6751 31.4658C40.5767 31.4658 40.4783 31.433 40.3996 31.3739C40.3209 31.3018 40.2684 31.2034 40.2618 31.0985C40.2684 31.0001 40.3012 30.9082 40.3537 30.823C40.4324 30.7574 40.5308 30.7246 40.6292 30.7311C40.721 30.7311 40.7669 30.7311 40.8128 30.777C40.8719 30.823 40.9047 30.8885 40.9047 30.9607C40.8915 31.0329 40.8587 31.0919 40.8128 31.1444L40.6751 31.0525C40.7057 31.0219 40.721 30.9913 40.721 30.9607C40.721 30.9082 40.6751 30.8689 40.6292 30.8689C40.5373 30.8558 40.4586 30.9213 40.4455 31.0066C40.4455 31.0197 40.4455 31.0394 40.4455 31.0525C40.4652 31.1968 40.5767 31.3084 40.721 31.328C40.8653 31.3346 41.0096 31.2624 41.0883 31.1444L41.272 31.328C41.272 31.5117 41.2261 31.6954 41.0883 31.7872C40.9506 31.8331 40.8128 31.9249 40.6292 31.9249Z" fill="#231F20"/>
<path id="Path_47" d="M41.5475 31.9249V30.5475H41.3179V30.4097H41.9148V30.5475H41.6852V31.9249H41.5475Z" fill="#231F20"/>
<path id="Path_48" d="M42.6102 32.0168C42.4659 32.0168 42.3281 31.9905 42.1969 31.9249C42.0461 31.761 41.9673 31.5511 41.9673 31.328C41.9673 31.1772 42.0198 31.0329 42.1051 30.9148C42.1772 30.777 42.2691 30.6524 42.3806 30.5475H41.8296V30.4097H42.702V30.5475C42.538 30.5999 42.4068 30.718 42.3347 30.8689C42.2166 30.9935 42.151 31.1575 42.151 31.328C42.151 31.6954 42.2888 31.879 42.6102 31.879C42.6626 31.879 42.7086 31.8659 42.7479 31.8331V32.0168H42.6102Z" fill="#231F20"/>
<path id="Path_49" d="M43.758 30.5475V31.879H43.5743V31.0066C43.5743 30.9607 43.5284 30.9148 43.4825 30.8689C43.3906 30.6852 43.2529 30.5934 43.0692 30.5934C42.9971 30.6065 42.938 30.6393 42.8856 30.6852L42.7937 30.777C42.8528 30.7442 42.9118 30.7311 42.9774 30.7311C43.0561 30.7246 43.1348 30.7377 43.207 30.777C43.266 30.823 43.2988 30.8885 43.2988 30.9607C43.2923 31.0657 43.2398 31.164 43.1611 31.2362C43.0692 31.328 42.9774 31.4199 42.8856 31.4199L42.7937 31.2821C42.8856 31.2362 42.9315 31.1903 43.0233 31.1444C43.1151 31.0525 43.1611 31.0066 43.1611 30.9148C43.1611 30.8689 43.1151 30.823 43.0233 30.823C42.9315 30.823 42.8856 30.777 42.8397 30.777H42.7937L42.7019 30.5934L42.8856 30.4097C42.9774 30.3638 43.0233 30.3179 43.1151 30.3179C43.2988 30.3179 43.4825 30.4097 43.6202 30.6393V30.3179H43.9416V30.4556H43.758V30.5475Z" fill="#231F20"/>
<path id="Path_50" d="M45.2798 30.5475V31.9249H45.0962C44.9847 31.7544 44.8272 31.6298 44.637 31.5576C44.4599 31.4395 44.25 31.3739 44.0401 31.3739L43.9942 31.1444C44.2697 30.9607 44.637 30.823 45.0962 30.6393V30.5475H43.9023V30.4097H45.4701V30.5475H45.2864H45.2798ZM45.0962 30.823C44.8207 30.9148 44.5583 31.0394 44.3156 31.1903C44.6108 31.2821 44.8797 31.4395 45.0962 31.6494V30.823ZM44.6304 31.9709C44.5517 31.8856 44.4599 31.8266 44.3549 31.7872L44.4468 31.6494C44.5517 31.6954 44.6436 31.7544 44.7223 31.8331L44.6304 31.9709Z" fill="#231F20"/>
<path id="Path_51" d="M47.8118 30.1342C47.5363 29.9505 47.2608 29.8587 47.0772 29.8587C46.9132 29.8587 46.7492 29.9046 46.618 29.9965C46.4803 30.0883 46.4343 30.226 46.4343 30.4097H46.618V30.5475H46.4343V31.879H46.2507V30.5475H46.067V30.4097H46.2507C46.2507 30.1998 46.3294 30.003 46.4803 29.8587C46.618 29.721 46.8017 29.675 47.0313 29.675C47.169 29.675 47.3068 29.721 47.4904 29.7669C47.5823 29.8128 47.72 29.9046 47.9037 29.9965L47.8118 30.1342Z" fill="#231F20"/>
<path id="Path_52" d="M47.4838 30.5475V31.1444L47.9889 30.9607L48.1266 31.0984V31.2821C48.1332 31.4658 48.0676 31.6494 47.943 31.7872C47.8511 31.9249 47.6675 31.9709 47.4838 31.9709C47.2673 31.9709 47.0574 31.8725 46.9328 31.6954C46.795 31.5576 46.7032 31.3739 46.6114 31.1444L46.7491 31.0525C46.9328 31.5576 47.1624 31.7872 47.4838 31.7872C47.7331 31.7872 47.9364 31.5773 47.943 31.328C47.943 31.2756 47.9298 31.2296 47.897 31.1903L47.4379 31.3739L47.2542 31.2362V30.5934H46.4736V30.4556H48.225V30.5934H47.4903V30.5475H47.4838Z" fill="#231F20"/>
<path id="Path_53" d="M49.9699 30.1342C49.6944 29.9505 49.4189 29.8587 49.2353 29.8587C49.0713 29.8587 48.9073 29.9046 48.7761 29.9965C48.6383 30.0883 48.5924 30.226 48.5924 30.4097H48.7761V30.5475H48.5924V31.879H48.4088V30.5475H48.2251V30.4097H48.4088C48.4088 30.1998 48.4875 30.003 48.6383 29.8587C48.7761 29.721 48.9598 29.675 49.1893 29.675C49.3271 29.675 49.4648 29.721 49.6485 29.7669C49.7403 29.8128 49.8781 29.9046 50.0618 29.9965L49.9699 30.1342Z" fill="#231F20"/>
<path id="Path_54" d="M49.8321 30.5475C49.878 30.7311 50.0158 30.823 50.2454 30.823H50.3372L50.475 31.0066C50.3831 31.2362 50.3372 31.3739 50.3372 31.4658C50.3307 31.6232 50.3634 31.7806 50.429 31.9249L50.2913 31.9709C50.206 31.8528 50.1535 31.7085 50.1535 31.5576C50.147 31.4658 50.1601 31.3674 50.1995 31.2821C50.1995 31.2362 50.2454 31.1444 50.2913 31.0066C50.1535 31.0066 50.0224 30.9607 49.924 30.8689C49.8059 30.7967 49.7272 30.6786 49.6944 30.5475C49.5107 30.6852 49.4189 30.823 49.4189 31.0066C49.4123 31.0722 49.4582 31.1378 49.5238 31.1444C49.537 31.1444 49.5501 31.1444 49.5566 31.1444C49.6091 31.1444 49.655 31.1312 49.6944 31.0984C49.7403 31.0525 49.7862 31.0525 49.7862 31.0066H49.924C49.9699 31.0525 49.9699 31.1444 49.9699 31.2821C49.9699 31.6494 49.7862 31.7872 49.4189 31.7872C49.3402 31.7872 49.2615 31.7741 49.1893 31.7413C49.1434 31.7413 49.0975 31.6954 49.0056 31.6494C48.9597 31.5576 48.8679 31.4199 48.7761 31.2362L48.8679 31.1444C48.9138 31.2821 49.0056 31.4199 49.1434 31.6035L49.2811 31.6494C49.3205 31.6822 49.3664 31.7019 49.4189 31.6954C49.5173 31.6888 49.6091 31.656 49.6944 31.6035C49.7862 31.5576 49.7862 31.4658 49.7862 31.3739C49.7862 31.3215 49.7731 31.2756 49.7403 31.2362C49.6681 31.3149 49.5698 31.3674 49.4648 31.3739C49.2943 31.3739 49.1499 31.2428 49.1434 31.0657V31.0525C49.1434 30.8951 49.209 30.7442 49.3271 30.6393H48.6383V30.5015H50.5274V30.6393H49.8387V30.5475H49.8321Z" fill="#231F20"/>
<path id="Path_55" d="M50.8489 30.5475V31.7413H50.9407C51.0784 31.7413 51.2162 31.6954 51.3999 31.6035C51.5835 31.5117 51.6754 31.374 51.6754 31.2362C51.6819 31.1181 51.5901 31.0132 51.472 31.0066C51.4654 31.0066 51.4523 31.0066 51.4458 31.0066C51.3671 31.0263 51.2883 31.0591 51.2162 31.0985L51.1244 30.9607C51.2162 30.8689 51.3539 30.8689 51.4917 30.8689C51.5966 30.8754 51.695 30.9279 51.7672 31.0066C51.8197 31.0919 51.8525 31.1837 51.859 31.2821C51.859 31.4199 51.7672 31.5576 51.6294 31.6954C51.4917 31.7872 51.3539 31.879 51.2162 31.879C51.0784 31.9249 50.9407 31.9249 50.7111 31.9249V30.5409H50.5734V30.4031H51.6294V30.3572C51.6294 30.2588 51.577 30.1736 51.4917 30.1277C51.4064 30.0752 51.3146 30.0424 51.2162 30.0358C51.0325 30.0358 50.8554 30.108 50.7111 30.2195L50.6652 30.0817C50.8423 29.9637 51.0522 29.8981 51.2621 29.8981C51.413 29.8981 51.5573 29.9505 51.6754 30.0358C51.7672 30.1277 51.859 30.2654 51.859 30.4031H52.0427V30.5409H50.8489V30.5475Z" fill="#231F20"/>
<path id="Path_56" d="M52.1345 31.9249V30.5475H51.9049V30.4097H52.5477V30.5475H52.3182V31.9249H52.1345Z" fill="#231F20"/>
<path id="Path_57" d="M54.1154 30.5475V31.9249H53.9318V31.6494C53.9318 31.328 53.8399 31.1903 53.7022 31.1903C53.6563 31.1903 53.6104 31.2362 53.5644 31.2821C53.5185 31.328 53.5185 31.3739 53.5185 31.4658H53.3349C53.3349 31.4199 53.289 31.328 53.289 31.2821C53.2102 31.1837 53.0659 31.1575 52.9675 31.2362C52.9479 31.2493 52.9347 31.2624 52.9216 31.2821C52.8757 31.328 52.8757 31.4199 52.8757 31.4658C52.8757 31.6494 52.9675 31.6954 53.1971 31.6954H53.243L53.1971 31.879H53.1512C52.8954 31.879 52.692 31.6626 52.6986 31.4133C52.6986 31.164 52.9019 30.9673 53.1512 30.9607C53.289 30.9607 53.3808 31.0525 53.4726 31.1903C53.5644 31.0525 53.7022 30.9607 53.794 30.9607C53.8859 30.9607 53.9777 31.0525 54.0236 31.1903V30.5934H52.5477V30.4556H54.345V30.5934H54.1154V30.5475Z" fill="#231F20"/>
<path id="Path_58" d="M55.1715 31.328C55.1649 31.4199 55.178 31.5183 55.2174 31.6035C55.2436 31.7085 55.3354 31.7872 55.447 31.7872C55.4994 31.7872 55.5454 31.7741 55.5847 31.7413L55.6306 31.879C55.5847 31.9249 55.4929 31.9249 55.447 31.9249C55.1715 31.9249 54.9878 31.6954 54.9878 31.2362C54.9878 30.9607 55.1715 30.6852 55.4929 30.4097H55.7684V30.5475C55.5978 30.5803 55.4535 30.6786 55.3551 30.823C55.2305 30.9607 55.1583 31.1444 55.1715 31.328Z" fill="#231F20"/>
<path id="Path_59" d="M57.2902 30.5475V31.9249H57.1066V31.6494C57.1066 31.328 57.0148 31.1903 56.877 31.1903C56.8311 31.1903 56.7852 31.2362 56.7393 31.2821C56.6933 31.328 56.6933 31.3739 56.6933 31.4658H56.5097C56.5097 31.4199 56.4638 31.328 56.4638 31.2821C56.385 31.1837 56.2407 31.1575 56.1423 31.2362C56.1227 31.2493 56.1095 31.2624 56.0964 31.2821C56.0505 31.328 56.0505 31.4199 56.0505 31.4658C56.0505 31.6494 56.1423 31.6954 56.3719 31.6954H56.4178L56.3719 31.879H56.326C56.0702 31.879 55.8668 31.6626 55.8734 31.4133C55.8734 31.164 56.0767 30.9673 56.326 30.9607C56.4638 30.9607 56.5556 31.0525 56.6474 31.1903C56.7392 31.0525 56.877 30.9607 56.9688 30.9607C57.0607 30.9607 57.1525 31.0525 57.1984 31.1903V30.5934H55.7225V30.4556H57.5198V30.5934H57.2902V30.5475Z" fill="#231F20"/>
<path id="Path_60" d="M58.812 30.5475V31.9249H58.6283V31.8331C58.6283 31.6954 58.5365 31.5576 58.3987 31.4199C58.261 31.2821 58.0773 31.1903 57.9855 31.1903C57.9396 31.1903 57.8477 31.1903 57.8018 31.2362C57.7559 31.2821 57.71 31.328 57.71 31.374C57.71 31.4199 57.71 31.5117 57.7559 31.5117C57.8018 31.5576 57.8477 31.5576 57.9396 31.5576C57.992 31.5576 58.038 31.5445 58.0773 31.5117L58.1232 31.6954C58.0773 31.7413 57.9855 31.7413 57.8936 31.7413C57.7887 31.7347 57.6903 31.6822 57.6181 31.6035C57.5657 31.5183 57.5329 31.4264 57.5263 31.328C57.5263 31.2296 57.5526 31.1313 57.6181 31.0525C57.6903 30.9738 57.7887 30.9213 57.8936 30.9148C58.1691 30.9148 58.3987 31.0525 58.5824 31.374V30.5015H57.3427V30.3638H58.9104V30.5015H58.8185V30.5475H58.812Z" fill="#231F20"/>
<path id="Path_61" d="M59.6385 32.0168C59.4942 32.0168 59.3499 31.9905 59.2252 31.9249C59.0744 31.761 58.9957 31.5511 58.9957 31.328C58.9957 31.1772 59.0481 31.0329 59.1334 30.9148C59.2056 30.777 59.2974 30.6524 59.4089 30.5475H58.8579V30.4097H59.7303V30.5475C59.5663 30.5999 59.4351 30.718 59.363 30.8689C59.2449 30.9935 59.1793 31.1575 59.1793 31.328C59.1793 31.6954 59.3171 31.879 59.6385 31.879C59.691 31.879 59.7369 31.8659 59.7762 31.8331V32.0168H59.6385Z" fill="#231F20"/>
<path id="Path_62" d="M59.8221 30.5475V31.1444C60.0976 30.9607 60.3272 30.823 60.5109 30.777L60.6946 31.0066C60.6027 31.2362 60.5568 31.3739 60.5568 31.5117C60.5699 31.6363 60.6027 31.761 60.6486 31.879L60.5109 31.9249C60.465 31.7413 60.4191 31.6494 60.4191 31.5576C60.4125 31.3739 60.4256 31.1837 60.465 31.0066C60.2157 31.1312 59.9861 31.2887 59.7762 31.4658L59.6385 31.328V30.5475H59.5007V30.4097H60.8323V30.5475H59.8221Z" fill="#231F20"/>
<path id="Path_63" d="M62.1705 30.5475V31.9249H61.9868V31.8331C61.9868 31.6954 61.895 31.5576 61.7572 31.4199C61.6195 31.2821 61.4358 31.1903 61.344 31.1903C61.2981 31.1903 61.2063 31.1903 61.1603 31.2362C61.1144 31.2821 61.0685 31.328 61.0685 31.374C61.0685 31.4199 61.0685 31.5117 61.1144 31.5117C61.1603 31.5576 61.2063 31.5576 61.2981 31.5576C61.3506 31.5576 61.3965 31.5445 61.4358 31.5117L61.4818 31.6954C61.4358 31.7413 61.344 31.7413 61.2522 31.7413C61.1472 31.7347 61.0488 31.6822 60.9767 31.6035C60.9045 31.5314 60.8717 31.4264 60.8848 31.328C60.8848 31.2296 60.9111 31.1313 60.9767 31.0525C61.0488 30.9738 61.1472 30.9213 61.2522 30.9148C61.5277 30.9148 61.7572 31.0525 61.9409 31.374V30.5015H60.7012V30.3638H62.2689V30.5015H62.1771V30.5475H62.1705Z" fill="#231F20"/>
</g>
</g>
<defs>
<clipPath id="clip0_202_1011">
<rect width="66.2507" height="40.0128" fill="white" transform="translate(0.714844)"/>
</clipPath>
</defs>
</svg>
