<svg width="67" height="41" viewBox="0 0 67 41" fill="none" xmlns="http://www.w3.org/2000/svg">
<g id="Layer_1" clip-path="url(#clip0_202_970)">
<path id="Vector" d="M61.2546 0.327974H5.91893C3.08599 0.327974 0.789429 2.62453 0.789429 5.45748V34.5553C0.789429 37.3882 3.08599 39.6848 5.91893 39.6848H61.2546C64.0876 39.6848 66.3841 37.3882 66.3841 34.5553V5.45748C66.3841 2.62453 64.0876 0.327974 61.2546 0.327974Z" fill="white"/>
<g id="Group_1">
<path id="Path_73" fill-rule="evenodd" clip-rule="evenodd" d="M46.3317 7.78609L38.5916 15.5263L39.136 19.8752L40.5594 16.8841L44.9739 22.5187L51.153 3.50276L30.5693 12.0629L36.1383 14.9818L46.3252 7.77953L46.3317 7.78609Z" fill="#8B3392"/>
<path id="Path_74" d="M39.6083 21.3708H31.4549C25.2431 22.3219 24.5937 31.3543 31.3893 32.5809H39.6083V24.4275C42.3502 24.5193 42.9143 27.9368 40.9006 29.1831C41.3072 29.6554 42.9405 31.4264 42.9405 31.4264C47.2173 27.7334 44.7772 21.6659 39.6149 21.3708M36.6172 29.5242H32.0649C29.2444 29.6947 28.326 25.0441 31.796 24.4275H36.6172V29.5242Z" fill="#8B3392"/>
<path id="Path_75" fill-rule="evenodd" clip-rule="evenodd" d="M56.6564 25.4507H53.6653L52.3731 28.4419H56.1776C56.945 28.4091 56.9778 29.5307 56.1776 29.5963H49.5919V24.434H59.7131V21.3773H58.2176C57.7781 15.0605 50.2216 14.8769 48.2341 18.3206C48.6276 18.642 50.4774 20.2884 50.4774 20.2884C51.6122 18.5043 54.7738 18.5895 55.233 21.3773H46.6073V32.5875H56.3219C58.5324 32.5547 59.5491 30.9213 59.7853 29.5307C59.923 27.2874 58.5652 25.7918 56.663 25.4573" fill="#8B3392"/>
<path id="Path_76" fill-rule="evenodd" clip-rule="evenodd" d="M27.5848 21.3708H23.6426C22.3832 22.8991 20.212 29.0781 24.5281 33.7354C24.5281 33.7354 26.3976 32.1414 26.7715 31.8331C25.4465 30.5409 23.2425 25.2802 27.5848 21.3708Z" fill="#8B3392"/>
<path id="Path_77" fill-rule="evenodd" clip-rule="evenodd" d="M17.5554 33.8403C17.5554 35.2047 16.4469 36.3067 15.089 36.3067C13.7247 36.3067 12.6227 35.1981 12.6227 33.8403C12.6227 32.4759 13.7312 31.374 15.089 31.374C16.4534 31.374 17.5554 32.4825 17.5554 33.8403Z" fill="#8B3392"/>
<path id="Path_78" fill-rule="evenodd" clip-rule="evenodd" d="M12.3012 21.3708C6.08941 22.3219 5.44002 31.3543 12.2356 32.5809H12.2815C12.9769 31.0329 14.8004 30.3376 16.3484 31.0329C17.0372 31.3412 17.5882 31.8921 17.8965 32.5809H20.4546V21.3708H12.3012ZM17.4635 29.5242H12.9113C10.0907 29.6947 9.17236 25.0441 12.6423 24.4275H17.4635V29.5242Z" fill="#8B3392"/>
<path id="Path_79" fill-rule="evenodd" clip-rule="evenodd" d="M15.2201 18.7273C16.2237 18.5567 16.7157 16.5036 15.0824 16.0445H12.4324V19.9473H13.5212V18.7273L14.7413 19.9473H16.4402L15.2201 18.7273ZM15.0955 17.3432C15.0955 17.4875 14.9774 17.5991 14.8397 17.5991H13.5409V17.0546H14.8397C14.984 17.0546 15.0955 17.1727 15.0955 17.3104V17.3367V17.3432Z" fill="#8B3392"/>
<path id="Path_80" fill-rule="evenodd" clip-rule="evenodd" d="M18.3359 15.9789C17.2405 15.9789 16.355 16.8644 16.355 17.9598C16.355 19.0553 17.2405 19.9408 18.3359 19.9408C19.4314 19.9408 20.3169 19.0553 20.3169 17.9598C20.3169 16.8644 19.4314 15.9789 18.3359 15.9789ZM18.3359 18.8257C17.8571 18.8257 17.4635 18.4387 17.4635 17.9533C17.4635 17.4679 17.8505 17.0809 18.3359 17.0809C18.8148 17.0809 19.2084 17.4679 19.2084 17.9533C19.2084 18.4387 18.8213 18.8257 18.3359 18.8257Z" fill="#8B3392"/>
<path id="Path_81" fill-rule="evenodd" clip-rule="evenodd" d="M29.5657 17.1005H31.3433V15.9526H29.8412C28.6605 15.9526 27.6897 16.8447 27.6897 17.9402C27.6897 19.0356 28.6605 19.9277 29.8412 19.9277H31.3433V18.7798H29.5657C29.3164 18.7798 29.0737 18.6617 28.9229 18.4649H31.3433V17.422H28.9229C29.0737 17.2252 29.3164 17.1071 29.5657 17.1071" fill="#8B3392"/>
<path id="Path_82" fill-rule="evenodd" clip-rule="evenodd" d="M22.4947 18.7798C22.0421 18.7798 21.6813 18.4124 21.6813 17.9664V17.9205C21.6813 17.4679 22.0486 17.1071 22.4947 17.1071H24.187V15.9592H22.6718C21.4911 15.9592 20.5203 16.8513 20.5203 17.9467C20.5203 19.0421 21.4911 19.9342 22.6718 19.9342H24.187V18.7863H22.4947V18.7798Z" fill="#8B3392"/>
<path id="Path_83" fill-rule="evenodd" clip-rule="evenodd" d="M35.4759 16.0313H31.6451V17.0546H33.0489V19.8621H34.0721V17.0546H35.4759V16.0313Z" fill="#8B3392"/>
<path id="Path_84" d="M26.3516 17.9336L28.2407 16.0313H26.7124L25.6497 17.1005V16.0313H24.6265V19.8621H25.6497V18.7601L26.7386 19.8621H28.267L26.3516 17.927V17.9336Z" fill="#8B3392"/>
<path id="Path_85" d="M41.786 34.4831C41.6023 34.5291 41.4384 34.6406 41.34 34.8046C41.2219 34.9554 41.1563 35.1325 41.1563 35.3228C41.1563 35.4277 41.176 35.5327 41.2219 35.631C41.2744 35.7557 41.3531 35.8213 41.4449 35.8213C41.5105 35.8147 41.5761 35.7885 41.6286 35.7426L41.7335 36.0246C41.6483 36.0771 41.5499 36.1099 41.4515 36.1099C41.3203 36.1099 41.1957 36.0574 41.0973 35.9721C41.012 35.8869 40.9464 35.7819 40.907 35.6638C40.8742 35.5589 40.8546 35.4474 40.8611 35.3293V35.2244C40.8611 34.9948 40.9858 34.7324 41.2285 34.4372C41.3137 34.3454 41.399 34.2601 41.4908 34.1814H41.8778V34.4635C41.8385 34.4635 41.8057 34.47 41.7794 34.4766" fill="#8B3392"/>
<path id="Path_86" d="M43.5046 34.47V36.0836H43.1832V35.8737C43.1832 35.8016 43.1308 35.7098 43.0192 35.5982C42.9405 35.513 42.8553 35.4408 42.7569 35.3752C42.6585 35.3096 42.547 35.2703 42.4289 35.2703C42.3174 35.2703 42.2124 35.3227 42.1665 35.4277C42.16 35.4408 42.1534 35.4539 42.1534 35.4736C42.1534 35.5195 42.1796 35.5654 42.219 35.5917C42.2518 35.6245 42.2977 35.6442 42.3502 35.6442C42.4355 35.631 42.5207 35.6048 42.5929 35.572L42.6913 35.8672C42.5798 35.9328 42.4551 35.9656 42.3305 35.9787C42.2255 35.9787 42.1206 35.9459 42.0353 35.8869C41.9501 35.8278 41.8779 35.7491 41.8385 35.6507C41.8189 35.5982 41.8123 35.5458 41.8123 35.4933C41.8057 35.3227 41.891 35.1653 42.0419 35.0735C42.1403 35.0079 42.2583 34.9685 42.3764 34.9685H42.4092C42.4027 34.8964 42.3699 34.8308 42.3174 34.7783C42.278 34.7193 42.219 34.6799 42.1468 34.6734H41.7926V34.4766H41.6483V34.1945H43.7277V34.4766H43.5046V34.47ZM43.1832 34.47H42.4223C42.6191 34.5815 42.7437 34.7849 42.7569 35.0145C42.9209 35.0866 43.0652 35.1981 43.1832 35.3359V34.47Z" fill="#8B3392"/>
<path id="Path_87" d="M44.1277 34.47V36.0836H43.8063V34.47H43.5702V34.188H44.3442V34.47H44.1277Z" fill="#8B3392"/>
<path id="Path_88" d="M45.689 34.47H44.2328V34.188H46.2465V34.47H46.0235V36.0836H45.7349C45.7087 35.9984 45.5709 35.8737 45.3151 35.6966C45.1839 35.6114 45.0396 35.5392 44.8887 35.4867C44.7444 35.4277 44.587 35.3883 44.4296 35.3818L44.3443 35.0604C44.5411 34.9357 44.751 34.8308 44.9674 34.7521C45.1118 34.6865 45.3479 34.5946 45.6824 34.47M45.7021 34.8177C45.6431 34.8374 45.5775 34.8636 45.5119 34.8898C45.4135 34.9357 45.2298 35.0145 44.9609 35.1325L44.9019 35.1588C45.1642 35.2506 45.4135 35.3883 45.63 35.5523C45.6628 35.572 45.6824 35.5917 45.7087 35.6114V34.8177H45.7021Z" fill="#8B3392"/>
<path id="Path_89" d="M46.6467 34.47V36.0836H46.3253V34.47H46.0891V34.188H46.8631V34.47H46.6467Z" fill="#8B3392"/>
<path id="Path_90" d="M46.7516 34.47V34.188H47.7027C47.7027 34.188 47.7027 34.1748 47.7027 34.1617C47.7092 34.024 47.624 33.9059 47.4928 33.8665C47.4731 33.8665 47.4534 33.86 47.4337 33.86C47.3878 33.86 47.3485 33.8665 47.3091 33.8797C47.2435 33.8993 47.1976 33.9059 47.1845 33.9125C47.132 33.919 47.0861 33.9387 47.0402 33.9649C46.9811 34.0043 46.9221 34.0371 46.8565 34.0633L46.7516 33.8206C46.9024 33.7222 47.0664 33.6501 47.237 33.6042C47.3157 33.5779 47.3944 33.5648 47.4797 33.5648C47.578 33.5648 47.6699 33.5976 47.7486 33.6501C47.9191 33.755 48.011 33.9321 48.0175 34.1814H48.2012V34.4635H46.745L46.7516 34.47ZM47.8732 36.3591C47.742 36.2411 47.6043 36.1296 47.4534 36.0312C47.3419 35.9656 47.2238 35.9065 47.0992 35.8672C47.0271 35.8344 46.9483 35.8147 46.8696 35.795V35.4146C46.8696 35.4146 46.9418 35.4146 47.0008 35.4146C47.0598 35.4146 47.0992 35.4146 47.1254 35.4146C47.2435 35.4146 47.3681 35.4015 47.4797 35.3555C47.6502 35.2834 47.742 35.1981 47.742 35.0997C47.742 35.0276 47.7027 34.9554 47.6436 34.9161C47.578 34.8767 47.5125 34.8439 47.4469 34.8046C47.4272 34.798 47.4141 34.7914 47.3944 34.7914C47.3485 34.7914 47.3091 34.8046 47.2698 34.8242C47.2107 34.8505 47.1845 34.8833 47.191 34.9161C47.2042 35.0013 47.2894 35.0341 47.4534 35.021L47.2763 35.29C47.1976 35.29 47.1254 35.2703 47.0599 35.2244C46.9418 35.1588 46.8631 35.0341 46.8631 34.8964C46.8631 34.7652 46.9418 34.6471 47.0664 34.5947C47.1845 34.5356 47.3091 34.5028 47.4469 34.5028C47.4993 34.5028 47.5584 34.5094 47.6043 34.5356C47.6502 34.5553 47.6961 34.575 47.742 34.6012C47.9454 34.6865 48.0766 34.8898 48.07 35.1063C48.07 35.2637 47.9979 35.4146 47.8667 35.4999C47.7355 35.5851 47.5846 35.6442 47.4272 35.6638C47.4862 35.6901 47.5649 35.736 47.6764 35.8016C47.8339 35.9131 47.9782 36.0377 48.1159 36.1755L47.8798 36.3526L47.8732 36.3591Z" fill="#8B3392"/>
<path id="Path_91" d="M50.1363 34.47V36.0836H49.8149V35.4408C49.8149 35.3752 49.7886 35.3162 49.7427 35.2703C49.7099 35.2178 49.6509 35.185 49.5918 35.185C49.5328 35.185 49.4803 35.2244 49.4475 35.2768C49.4016 35.3359 49.3754 35.4146 49.3819 35.4867H49.0343C49.0343 35.4015 49.0146 35.3228 48.9621 35.2572C48.9293 35.1981 48.8703 35.1653 48.8047 35.1588C48.7522 35.1588 48.6997 35.1784 48.6604 35.2112C48.621 35.2375 48.5882 35.2834 48.5817 35.3359L48.5686 35.4211V35.4539C48.5686 35.6179 48.667 35.7032 48.8703 35.7032C48.9228 35.7032 48.9818 35.6966 49.0343 35.6835L48.9228 36.0115C48.8572 36.0181 48.8178 36.0246 48.8047 36.0246C48.6473 36.0246 48.503 35.9656 48.3849 35.8541C48.3259 35.8016 48.2865 35.736 48.2603 35.6573C48.234 35.5851 48.2143 35.5064 48.2143 35.4277C48.2143 35.2703 48.2668 35.1194 48.3783 35.0013C48.4898 34.8898 48.6407 34.8308 48.7981 34.8374C48.9621 34.8374 49.1195 34.9292 49.2048 35.0669C49.3229 34.9095 49.4541 34.8374 49.5918 34.8374C49.6771 34.8374 49.7558 34.8767 49.8083 34.9423V34.4635H48.0635V34.1814H50.3134V34.4635H50.1297L50.1363 34.47Z" fill="#8B3392"/>
<path id="Path_92" d="M52.5567 34.47H51.1005V34.188H53.1142V34.47H52.8912V36.0836H52.6091C52.5829 35.9984 52.4452 35.8737 52.1893 35.6966C52.0581 35.6114 51.9138 35.5392 51.763 35.4867C51.6187 35.4277 51.4612 35.3883 51.3038 35.3818L51.2185 35.0604C51.4153 34.9357 51.6252 34.8308 51.8417 34.7521C51.986 34.6865 52.2221 34.5946 52.5567 34.47ZM52.5763 34.8177C52.5173 34.8374 52.4517 34.8636 52.3861 34.8898C52.2877 34.9357 52.1041 35.0145 51.8351 35.1325L51.7761 35.1588C52.0385 35.2506 52.2877 35.3883 52.5042 35.5523C52.537 35.572 52.5567 35.5917 52.5829 35.6114V34.8177H52.5763Z" fill="#8B3392"/>
<path id="Path_93" d="M53.6587 34.47C53.5734 34.5684 53.5209 34.693 53.5078 34.8177C53.5472 34.9948 53.5997 35.1653 53.6652 35.3293C53.7112 35.4474 53.7374 35.572 53.744 35.7032C53.744 35.8934 53.639 36.0246 53.4291 36.0968C53.3176 36.1296 53.1995 36.1492 53.088 36.1558L53.1339 35.8803C53.3242 35.8409 53.4225 35.7754 53.4225 35.677C53.4094 35.5392 53.3701 35.4015 53.3045 35.2768C53.2389 35.1522 53.1995 35.0145 53.1864 34.8767C53.1995 34.7324 53.2454 34.5946 53.3242 34.4766H52.9896V34.1945H53.8883V34.4766H53.6652L53.6587 34.47Z" fill="#8B3392"/>
<path id="Path_94" d="M54.3475 34.47V36.0836H54.0261V34.47H53.7899V34.188H54.5639V34.47H54.3475Z" fill="#8B3392"/>
<path id="Path_95" d="M55.0953 35.2375C54.9575 35.2375 54.8263 35.1916 54.7345 35.0932C54.6427 34.9948 54.5902 34.8636 54.5967 34.7258C54.5967 34.5947 54.6427 34.47 54.7345 34.3782C54.8263 34.2864 54.951 34.2339 55.0821 34.2404C55.2658 34.2404 55.4298 34.352 55.4954 34.5225C55.5282 34.5947 55.5479 34.6799 55.5479 34.7586C55.5544 34.8833 55.5151 35.0079 55.4298 35.1063C55.338 35.1981 55.2199 35.244 55.0953 35.2309M55.4429 36.2739C55.0362 35.9328 54.7542 35.7229 54.6099 35.6507V35.2047C55.174 35.6048 55.5413 35.9262 55.7184 36.1689V36.5035L55.4429 36.2739ZM55.1609 34.5815C55.1609 34.5815 55.1018 34.5487 55.0625 34.5553C54.9378 34.575 54.8788 34.634 54.8788 34.739C54.8788 34.7914 54.8985 34.8439 54.9378 34.8833C54.9706 34.9226 55.0231 34.9489 55.0756 34.9489H55.1215C55.2002 34.9292 55.2592 34.857 55.2592 34.7718C55.2592 34.693 55.2199 34.6275 55.1609 34.5815Z" fill="#8B3392"/>
<path id="Path_96" d="M57.7452 33.9977C57.3713 33.7616 57.063 33.6435 56.8203 33.6435C56.5382 33.6435 56.3283 33.7354 56.1972 33.9125C56.1447 33.9977 56.1184 34.0896 56.125 34.188H56.3546V34.47H56.125V36.0836H55.797V34.47H55.5806V34.188H55.797C55.797 33.9781 55.8757 33.7813 56.0266 33.6304C56.1906 33.4795 56.3939 33.3877 56.6104 33.368C56.6366 33.368 56.6826 33.3615 56.7547 33.3484H56.8203C57.0236 33.3484 57.2204 33.3943 57.4041 33.473C57.5091 33.5189 57.6796 33.6173 57.9223 33.7682L57.7386 33.9977H57.7452Z" fill="#8B3392"/>
<path id="Path_97" d="M57.4829 34.47V34.4831C57.6338 34.4963 57.7781 34.5356 57.9027 34.6078C58.1061 34.7193 58.211 34.8701 58.211 35.0669C58.211 35.1719 58.1782 35.2768 58.1061 35.3555C58.0339 35.4408 57.9421 35.4933 57.8371 35.5195C57.7453 35.5458 57.6469 35.5458 57.5551 35.5327V35.2309C57.5879 35.2309 57.6207 35.2375 57.66 35.2375C57.824 35.2375 57.9027 35.1784 57.9027 35.0604C57.9027 34.9226 57.765 34.8373 57.4829 34.798V36.0836H57.2009C57.1615 36.0115 57.1156 35.9393 57.0631 35.8737C57.05 35.8541 57.0041 35.8016 56.9385 35.7163C56.9057 35.677 56.8663 35.6376 56.827 35.6048C56.7876 35.572 56.7482 35.5327 56.7155 35.4933C56.6958 35.4736 56.6695 35.4605 56.6367 35.4474C56.5252 35.408 56.4137 35.3818 56.2956 35.3752L56.2104 35.0538C56.2825 35.0013 56.44 34.9095 56.6892 34.7652C56.7089 34.7521 56.781 34.7062 56.9188 34.634C56.9647 34.6078 57.05 34.5553 57.1615 34.4963V34.47H56.1448V34.188H58.3619V34.47H57.4895H57.4829ZM57.1615 34.8439C57.109 34.8833 57.0303 34.9357 56.9188 35.0079C56.886 35.0276 56.8532 35.0473 56.827 35.0735C56.7942 35.1063 56.7548 35.1391 56.7286 35.1719C56.7614 35.2047 56.8204 35.244 56.8926 35.3031C56.9647 35.3818 57.0565 35.4802 57.1615 35.5982V34.8439Z" fill="#8B3392"/>
<path id="Path_98" d="M58.8341 35.2375C58.6964 35.2375 58.5652 35.1916 58.4734 35.0932C58.3815 34.9948 58.3291 34.8636 58.3356 34.7258C58.3356 34.5947 58.3815 34.47 58.4734 34.3782C58.5652 34.2864 58.6898 34.2339 58.821 34.2404C59.0047 34.2404 59.1687 34.352 59.2343 34.5225C59.2671 34.5947 59.2868 34.6799 59.2868 34.7586C59.2933 34.8833 59.254 35.0079 59.1687 35.1063C59.0769 35.1981 58.9588 35.244 58.8341 35.2309M59.1884 36.2739C58.7817 35.9328 58.4996 35.7229 58.3553 35.6507V35.2047C58.9194 35.6048 59.2868 35.9262 59.4639 36.1689V36.5035L59.1884 36.2739ZM58.8997 34.5815C58.8997 34.5815 58.8407 34.5487 58.8014 34.5553C58.6767 34.575 58.6177 34.634 58.6177 34.739C58.6177 34.7914 58.6374 34.8439 58.6767 34.8833C58.7095 34.9226 58.762 34.9489 58.8145 34.9489H58.8604C58.9391 34.9292 58.9981 34.857 58.9981 34.7718C58.9981 34.693 58.9588 34.6275 58.8997 34.5815Z" fill="#8B3392"/>
<path id="Path_99" d="M23.1703 36.2214L23.7738 36.4247L24.0165 36.2214L23.413 36.0115L23.1703 36.2214Z" fill="#8B3392"/>
<path id="Path_100" d="M23.3736 34.5553V34.1945H18.6508V34.5553H19.4445V35.3687H20.1266C20.1266 35.3687 20.3234 35.3031 20.3693 35.2112V35.5326C20.3693 35.6704 20.2709 35.7885 20.1266 35.8016H19.123C19.064 35.8016 19.005 35.7753 19.005 35.5326V34.7783H18.6508V35.7491C18.6508 35.8278 18.7032 36.1099 18.9525 36.1099H20.3103C20.5202 36.1033 20.6711 35.8869 20.6842 35.7032V34.7718H20.3628C20.33 34.9161 20.3497 35.0145 20.2054 35.0472H19.8052V34.5553H20.9663V36.1033H21.3664V34.5553H21.6484V36.1033H22.9734C23.1965 36.1033 23.3801 35.9131 23.3736 35.6835V34.7652H23.0522C23.0522 34.857 23.039 34.9882 22.8947 34.9882H22.0158V34.5487H23.3801L23.3736 34.5553ZM22.8488 35.3162C22.9079 35.3359 22.9866 35.2375 23.0522 35.1588V35.5326C23.0522 35.677 22.9407 35.8016 22.8488 35.8016H22.0092V35.3227H22.8488V35.3162Z" fill="#8B3392"/>
<path id="Rectangle_2" d="M24.6134 34.9948H23.8131V35.4211H24.6134V34.9948Z" fill="#8B3392"/>
<path id="Path_101" d="M25.0529 34.188V34.5487H26.3713V34.7652H25.0529V35.631C25.0791 35.9131 25.2234 36.1033 25.4989 36.1033H26.6927V34.5553H26.9748V36.1033H27.3356V34.188H25.0529ZM26.3779 35.8475H25.5776C25.4595 35.8278 25.3743 35.6901 25.3743 35.5261V35.0997H26.3779V35.8475Z" fill="#8B3392"/>
<path id="Path_102" d="M29.0673 34.5553H30.7006V34.7718H30.2217C30.2152 34.857 30.1365 34.9226 30.0446 34.9161C29.9659 34.9095 29.9069 34.8505 29.9003 34.7718H29.0673V35.6901C29.0673 35.7819 29.0804 36.0705 29.3231 36.1099H29.979V35.8016H29.5395C29.4412 35.7819 29.369 35.6901 29.3821 35.5851V35.1063H29.8216V35.3752H30.2217V35.1588C30.1955 35.0604 30.6415 35.0669 30.6612 35.1588V36.1099H31.022V34.5618H31.2647V36.1099H31.6255V34.1945H29.0673V34.5553Z" fill="#8B3392"/>
<path id="Path_103" d="M28.5031 34.2995H27.6504V34.8046C27.6832 34.962 27.7685 35.1653 28.0636 35.1784H28.7458V34.5553C28.7327 34.4241 28.6343 34.3257 28.5031 34.2995ZM28.2407 34.8308C28.0899 34.8308 27.9652 34.7718 27.9652 34.7062C27.9652 34.6406 28.0899 34.5815 28.2407 34.5815C28.3916 34.5815 28.5162 34.6406 28.5162 34.7062C28.5162 34.7718 28.3916 34.8308 28.2407 34.8308Z" fill="#8B3392"/>
<path id="Path_104" d="M27.7029 35.3621V35.677L28.7327 36.1033V35.7688L27.7029 35.3621Z" fill="#8B3392"/>
<path id="Path_105" d="M37.1354 34.2995H36.2827V34.8046C36.3155 34.962 36.4008 35.1653 36.696 35.1784H37.3781V34.5553C37.365 34.4241 37.2666 34.3257 37.1354 34.2995ZM36.8731 34.8308C36.7222 34.8308 36.5976 34.7718 36.5976 34.7062C36.5976 34.6406 36.7222 34.5815 36.8731 34.5815C37.0239 34.5815 37.1486 34.6406 37.1486 34.7062C37.1486 34.7718 37.0239 34.8308 36.8731 34.8308Z" fill="#8B3392"/>
<path id="Path_106" d="M36.3351 35.3621V35.677L37.3649 36.1033V35.7688L36.3351 35.3621Z" fill="#8B3392"/>
<path id="Path_107" d="M39.3197 34.7718V34.5553H39.9822V34.1945H37.6798V34.5553H38.9983V34.7718H37.6798V35.6376C37.706 35.9197 37.8504 36.1099 38.1259 36.1099H39.3197V35.1588H39.6411C39.6936 35.1588 39.7067 35.1325 39.7198 35.2112V35.3687C39.7001 35.4474 39.6936 35.4999 39.6411 35.5261H39.523V35.8475H39.7592C39.8772 35.8278 39.9691 35.7426 40.0019 35.631V34.7652H39.3197V34.7718ZM38.9983 35.8475H38.198C38.0799 35.8278 37.9947 35.6901 37.9947 35.5261V35.0997H38.9917V35.1522V35.8475H38.9983Z" fill="#8B3392"/>
<path id="Path_108" d="M32.7078 34.188V34.5487H34.0262V34.7652H32.7078V35.631C32.734 35.9131 32.8783 36.1033 33.1538 36.1033H34.3476V34.5553H34.7674L34.6166 34.857V35.0735H34.8986C35.0495 35.0932 35.102 35.1916 35.102 35.4474C35.102 35.6245 35.0626 35.7557 34.9249 35.7688H34.6625V36.0902H34.9445C35.0233 36.0902 35.3906 36.123 35.4234 35.7688C35.4627 35.0473 35.4955 34.857 34.9839 34.8046L35.0561 34.5553H35.6202V36.1033H35.9809V34.188H32.7143H32.7078ZM34.0262 35.8475H33.226C33.1079 35.8278 33.0226 35.6901 33.0226 35.5261V35.0997H34.0262V35.8475Z" fill="#8B3392"/>
</g>
</g>
<defs>
<clipPath id="clip0_202_970">
<rect width="66.2507" height="40.0128" fill="white" transform="translate(0.461426)"/>
</clipPath>
</defs>
</svg>
