<svg width="49" height="39" viewBox="0 0 49 39" fill="none" xmlns="http://www.w3.org/2000/svg">
<g id="Icons" clip-path="url(#clip0_202_1202)">
<rect width="48.8748" height="37.9669" transform="translate(0 0.333344)" fill="#FF6E1F"/>
<path id="Vector" d="M0 20.2571C0.238425 19.114 0.92565 18.2608 1.76598 17.5012C2.11894 17.1809 2.44152 16.8268 2.78163 16.4925C4.38632 14.9159 6.63383 14.9077 8.23034 16.496C11.0388 19.2893 13.8333 22.0955 16.6337 24.8947C16.7236 24.9847 16.816 25.07 16.9434 25.1915C17.0813 25.0606 17.218 24.9379 17.3466 24.8082C25.051 17.105 32.7554 9.40172 40.4598 1.69732C42.2737 -0.11658 44.4394 -0.121255 46.2498 1.68446C46.6892 2.12274 47.1287 2.56103 47.5658 3.00048C49.3072 4.75126 49.3131 6.95085 47.5751 8.69346C44.9349 11.3395 42.2901 13.9809 39.6475 16.6234C32.7647 23.5062 25.882 30.3901 18.9992 37.2729C17.6294 38.6427 16.2702 38.6438 14.9016 37.2752C10.5375 32.9111 6.18152 28.54 1.80455 24.1899C0.992269 23.3835 0.255956 22.556 0 21.4036V20.2582L0 20.2571Z" fill="white"/>
</g>
<defs>
<clipPath id="clip0_202_1202">
<rect width="48.8748" height="37.9669" fill="white" transform="translate(0 0.333344)"/>
</clipPath>
</defs>
</svg>
