<svg width="67" height="41" viewBox="0 0 67 41" fill="none" xmlns="http://www.w3.org/2000/svg">
<g id="Layer_1" clip-path="url(#clip0_202_1070)">
<path id="Vector" d="M61.5005 0.327974H6.16478C3.33184 0.327974 1.03528 2.62453 1.03528 5.45748V34.5553C1.03528 37.3882 3.33184 39.6848 6.16478 39.6848H61.5005C64.3334 39.6848 66.63 37.3882 66.63 34.5553V5.45748C66.63 2.62453 64.3334 0.327974 61.5005 0.327974Z" fill="white"/>
<path id="Vector_2" d="M34.3573 31.2952C33.2422 32.0037 32.1533 32.7318 31.0382 33.4008C30.5266 33.7091 29.9822 33.5845 29.5755 33.1778C29.2869 32.8892 29.1753 32.5678 29.3197 32.1611C29.4443 31.8134 29.5427 31.4461 29.6083 31.0853C29.7067 30.554 29.5689 30.0621 29.2606 29.616C29.195 29.5242 29.1229 29.4323 29.0704 29.3274C28.5981 28.4812 28.8474 27.681 29.7723 27.3923C31.1891 26.9463 32.5535 27.13 33.8195 27.9499C33.9769 28.0549 34.1212 28.1729 34.2721 28.2779C34.2786 28.2779 34.2983 28.2779 34.3639 28.2516C34.3639 28.0155 34.3639 27.7662 34.3639 27.5104C34.3639 27.1956 34.5016 27.025 34.8296 27.025C36.0562 27.025 37.2829 27.025 38.5029 27.025C38.8046 27.025 38.9424 27.1759 38.9424 27.4842C38.9424 29.6488 38.9424 31.8069 38.9424 33.9715C38.9424 34.2995 38.8047 34.4438 38.4767 34.4438C37.1779 34.4307 37.2829 34.575 37.2829 33.3155C37.2829 31.9315 37.2829 30.5475 37.2829 29.1634C37.2829 28.6714 37.2566 28.678 36.6203 28.6583C36.2333 28.6452 36.0497 28.7305 36.0562 29.1831C36.0825 30.7377 36.0694 32.2988 36.0628 33.8534C36.0628 34.3388 35.9644 34.4372 35.4921 34.4438C34.318 34.4438 34.3508 34.5422 34.3639 33.3287C34.3639 32.6268 34.3639 31.9249 34.3639 31.3084L34.3573 31.2952ZM30.9595 31.5183C31.0842 31.5183 31.1629 31.5314 31.2219 31.5051C32.0812 31.0853 32.8224 30.5081 33.4652 29.7931C33.6686 29.5701 33.5046 29.4192 33.3209 29.3143C32.6322 28.9273 31.8844 28.7436 31.0973 28.7567C30.684 28.7633 30.6119 28.9338 30.8677 29.2618C31.2285 29.7341 31.3072 30.2457 31.1563 30.8033C31.0973 31.0197 31.0382 31.2428 30.9661 31.5248L30.9595 31.5183Z" fill="black"/>
<path id="Vector_3" d="M24.0852 28.6386C23.4161 28.6386 22.7536 28.6255 22.0911 28.6386C21.7107 28.6518 21.5401 28.5206 21.5401 28.1204C21.5401 27.0119 21.527 27.0119 22.6421 27.0119C23.5211 27.0119 24.4 27.0119 25.279 27.0119C25.5545 27.0119 25.8562 26.9857 25.8497 26.6446C25.8497 26.2969 25.5676 26.1657 25.2397 26.192C24.6099 26.2444 23.9802 26.356 23.3505 26.3625C22.9766 26.3625 22.5765 26.2707 22.2289 26.1198C21.6516 25.8706 21.527 24.9522 21.9993 24.539C22.0977 24.4537 22.3666 24.4078 22.4584 24.4799C23.3046 25.1162 24.2098 24.8604 25.115 24.7226C25.4102 24.6767 25.7251 24.6439 26.0137 24.6898C27.0501 24.8604 27.5551 25.7131 27.26 26.743C27.2403 26.8086 27.2272 26.8807 27.1944 27.0053C27.4568 27.0053 27.6995 27.0053 27.9356 27.0053C28.2636 27.0053 28.4407 27.1365 28.4407 27.4973C28.4276 28.7436 28.5653 28.6321 27.3452 28.6321C26.9123 28.6321 26.4794 28.6386 26.0465 28.6321C25.8038 28.6255 25.6857 28.6846 25.6726 28.9601C25.6267 30.0489 25.7841 30.1867 26.8402 29.9505C27.1353 29.8849 27.424 29.7997 27.7257 29.7472C28.0865 29.6882 28.4013 29.8784 28.4144 30.226C28.4407 30.8885 28.4997 31.5642 28.3751 32.207C28.1521 33.3811 27.2665 33.9912 26.1973 34.3191C25.338 34.5815 24.4591 34.5356 23.5998 34.2929C22.3469 33.9321 21.527 32.7974 21.4614 31.3018C21.4352 30.7442 21.4942 30.1801 21.5467 29.6226C21.5795 29.3143 21.7697 29.1306 22.1108 29.17C22.2092 29.1831 22.3141 29.17 22.4125 29.17C22.9898 29.17 23.0422 29.2487 23.0685 29.8128C23.1013 30.4163 23.1472 31.0197 23.2456 31.6101C23.3636 32.2857 23.8097 32.6858 24.4919 32.7121C24.9838 32.7318 25.4889 32.6858 25.9743 32.6006C26.1973 32.5612 26.4335 32.3907 26.5778 32.2136C26.7221 32.0299 26.7614 31.761 26.8533 31.5314C26.6499 31.5248 26.44 31.4986 26.2367 31.5117C25.8825 31.5445 25.5217 31.6429 25.1675 31.6363C24.4132 31.6363 24.1377 31.3346 24.1245 30.5737C24.118 29.9702 24.118 29.3602 24.1114 28.7567C24.1114 28.7305 24.0917 28.7042 24.0589 28.6255L24.0852 28.6386Z" fill="black"/>
<path id="Vector_4" d="M46.1906 30.4425C46.1906 31.3674 46.1906 32.2857 46.1906 33.2106C46.1841 34.1027 45.5347 34.634 44.6951 34.3716C43.416 33.9715 42.1237 33.9453 40.8053 34.0174C39.8738 34.0699 39.5524 33.755 39.5459 32.817C39.5459 32.7908 39.5459 32.758 39.5459 32.7318C39.5459 31.4527 39.5459 31.4658 40.7397 30.9935C40.9693 30.9017 41.3169 30.6786 41.3169 30.5212C41.3104 30.1473 40.9168 30.1539 40.6151 30.1145C39.7951 30.0096 39.5655 29.7669 39.5459 28.9469C39.5328 28.4681 39.5459 27.9958 39.5459 27.517C39.5459 27.1693 39.7164 27.025 40.0509 27.025C41.927 27.025 43.803 27.025 45.6724 27.025C46.0397 27.025 46.1906 27.189 46.1841 27.5498C46.1775 28.514 46.1841 29.4848 46.1841 30.4491L46.1906 30.4425ZM42.8978 28.6386C42.5501 28.6386 42.2025 28.6255 41.8614 28.6386C41.7499 28.6386 41.6449 28.7239 41.5334 28.7698C41.5924 28.8748 41.6318 29.0322 41.7236 29.0847C41.9335 29.2028 42.1697 29.2684 42.3992 29.3602C43.3241 29.7275 43.475 30.7311 42.6879 31.3411C42.4517 31.5248 42.1565 31.6232 41.9073 31.7938C41.7761 31.8856 41.6974 32.0365 41.599 32.1676C41.7433 32.2332 41.881 32.3447 42.0254 32.3579C42.7403 32.43 43.4553 32.4694 44.1703 32.535C44.4589 32.5612 44.5704 32.4366 44.5573 32.1676C44.5442 31.879 44.5114 31.597 44.5048 31.3084C44.4851 30.6196 44.472 29.9243 44.4589 29.2356C44.4458 28.8485 44.2818 28.6124 43.8489 28.6321C43.534 28.6452 43.2126 28.6321 42.8978 28.6321V28.6386Z" fill="black"/>
<path id="Vector_5" d="M42.6944 36.8511C42.0712 36.8511 41.5662 36.3591 41.5662 35.736C41.5662 35.0997 42.045 34.6209 42.6813 34.6143C43.3175 34.6143 43.8095 35.0997 43.8161 35.7229C43.8161 36.3395 43.311 36.8446 42.6944 36.8511Z" fill="black"/>
<path id="Vector_6" d="M43.6391 19.1996C42.642 20.4787 41.3498 21.5544 39.8477 22.3481C38.2603 23.109 36.3908 23.3911 34.6263 23.4239C35.5184 23.0434 36.1416 22.1513 36.1416 21.1149C36.1416 19.8424 35.2036 18.7929 33.9835 18.6289C37.2633 18.5108 39.8936 16.1429 40.0248 13.1911C40.0248 13.1189 40.0248 13.0402 40.0248 12.9681C40.0248 12.8106 40.0182 12.6532 40.0051 12.5023C40.0051 12.24 40.0051 11.9382 40.0248 11.689C40.0707 11.0789 40.9169 10.646 40.9169 10.646H44.3344C45.0887 10.7641 45.3183 11.5709 45.3183 11.5709C45.7381 15.8477 43.7506 19.0225 43.6391 19.1996Z" fill="#144A95"/>
<path id="Vector_7" d="M24.9052 8.934C26.4992 8.934 27.7914 7.64182 27.7914 6.04783C27.7914 4.45385 26.4992 3.16166 24.9052 3.16166C23.3112 3.16166 22.019 4.45385 22.019 6.04783C22.019 7.64182 23.3112 8.934 24.9052 8.934Z" fill="#FDD500"/>
<path id="Vector_8" d="M42.4846 8.934C44.0785 8.934 45.3707 7.64182 45.3707 6.04783C45.3707 4.45385 44.0785 3.16166 42.4846 3.16166C40.8906 3.16166 39.5984 4.45385 39.5984 6.04783C39.5984 7.64182 40.8906 8.934 42.4846 8.934Z" fill="#144A95"/>
<path id="Vector_9" d="M36.135 21.1149C36.135 22.1513 35.5119 23.0434 34.6198 23.4239C33.8917 23.437 33.1898 23.4108 32.5208 23.3583C30.1528 23.1746 28.3424 22.6958 28.2768 22.6761C25.8695 21.5807 23.9213 19.7768 22.78 17.5728C22.78 17.5728 22.7603 17.5335 22.7472 17.5138C21.8813 15.8149 22.0322 11.5775 22.0322 11.5775C22.0518 10.8822 22.8915 10.6198 22.8915 10.6198H26.2958C26.9583 10.6919 27.2863 11.4791 27.2863 11.4791L27.4306 12.5286C27.3191 13.0468 27.4306 13.6699 27.5815 14.2013C27.6864 14.6211 27.8373 15.0212 28.0406 15.3951C28.0406 15.3951 28.0406 15.4016 28.0406 15.4082C28.0406 15.4082 28.0406 15.4148 28.0406 15.4213C29.0049 17.2186 30.999 18.4911 33.3341 18.6158C33.4588 18.6223 33.59 18.6289 33.7146 18.6289C33.7999 18.6289 33.8851 18.6289 33.9704 18.6289C35.1905 18.7994 36.1285 19.849 36.1285 21.1149H36.135Z" fill="#FDD500"/>
</g>
<defs>
<clipPath id="clip0_202_1070">
<rect width="66.2506" height="40.0128" fill="white" transform="translate(0.707275)"/>
</clipPath>
</defs>
</svg>
