<svg width="67" height="41" viewBox="0 0 67 41" fill="none" xmlns="http://www.w3.org/2000/svg">
<g id="Layer_1" clip-path="url(#clip0_202_1091)">
<path id="Vector" d="M61.5425 0.327974H6.20678C3.37383 0.327974 1.07727 2.62453 1.07727 5.45748V34.5553C1.07727 37.3882 3.37383 39.6848 6.20678 39.6848H61.5425C64.3754 39.6848 66.672 37.3882 66.672 34.5553V5.45748C66.672 2.62453 64.3754 0.327974 61.5425 0.327974Z" fill="white"/>
<g id="Group_3">
<path id="Path_1" d="M40.8933 12.4958C37.6004 12.4958 34.6552 14.2013 34.6552 17.3564C34.6552 20.9706 39.8765 21.2199 39.8765 23.0369C39.8765 23.8043 38.9976 24.4865 37.502 24.4865C36.2032 24.4799 34.9307 24.152 33.7893 23.5288L33.1072 26.7102C33.1072 26.7102 34.9373 27.517 37.3643 27.517C40.9654 27.517 43.7991 25.7262 43.7991 22.5187C43.7991 18.6945 38.5581 18.4518 38.5581 16.766C38.5581 16.1691 39.2796 15.5132 40.7686 15.5132C42.4544 15.5132 43.8253 16.2085 43.8253 16.2085L44.4878 13.1321C44.4878 13.1321 42.9923 12.4892 40.8801 12.4892M10.7656 12.7254L10.6869 13.1911C10.6869 13.1911 12.0709 13.4469 13.3172 13.952C14.9243 14.5292 15.0358 14.8703 15.3113 15.9198L18.2631 27.2874H22.2184L28.3056 12.7319H24.3634L20.4539 22.6302L18.86 14.2406C18.7157 13.2829 17.9745 12.7319 17.0627 12.7319H10.7787L10.7656 12.7254ZM29.8865 12.7254L26.7904 27.2808H30.549L33.6319 12.7254H29.8799H29.8865ZM50.8571 12.7254C49.9519 12.7254 49.473 13.2108 49.1188 14.0569L43.6089 27.2808H47.5511L48.312 25.0769H53.1135L53.5793 27.2808H57.0558L54.0188 12.7254H50.8505H50.8571ZM51.3753 16.6545L52.5429 22.1185H49.414L51.3753 16.6545Z" fill="#0057A0"/>
</g>
</g>
<defs>
<clipPath id="clip0_202_1091">
<rect width="66.2507" height="40.0128" fill="white" transform="translate(0.749268)"/>
</clipPath>
</defs>
</svg>
